<?xml version="1.0" encoding="utf-8"?>
<!-- Generator: Adobe Illustrator 22.0.1, SVG Export Plug-In . SVG Version: 6.00 Build 0)  -->
<svg version="1.1" id="Layer_1" xmlns="http://www.w3.org/2000/svg" xmlns:xlink="http://www.w3.org/1999/xlink" x="0px" y="0px"
	 viewBox="0 0 598.8 602.4" style="enable-background:new 0 0 598.8 602.4;" xml:space="preserve">
<style type="text/css">
	.st0{fill:#74C3B4;}
	.st1{fill:#0E0E0E;}
</style>
<path class="st0" d="M315.4,564c-5.4,0-10.7,0-16.1,0c-1.8,0-3.6,0-5.5,0c-5.4,0-10.7,0-16.1,0c-1.8,0-3.6,0-5.4,0
	c-5.4,0-10.7,0-16.1,0c-1.8,0-3.7,0-5.5,0c-5.4,0-10.7,0-16.1,0c-1.8,0.1-3.6,0.2-5.4,0.2c-5.4-0.1-10.7-0.2-16.1-0.2
	c-1.8,0-3.7,0-5.5,0c-5.4,0-10.7,0-16.1,0c-1.8,0.1-3.6,0.2-5.5,0.2c-5.4-0.1-10.7-0.2-16.1-0.2c-1.8,0-3.7,0-5.5,0
	c-5.4,0-10.7,0-16.1,0c-1.8,0-3.6,0-5.5,0c-5.4,0-10.7,0-16.1,0c-1.8,0-3.6,0-5.5,0c-5.4,0-10.7,0-16.1,0c-1.8,0-3.6,0-5.5,0
	c-5.4,0-10.7,0-16.1,0c-1.8,0-3.6,0-5.4,0c-5.4,0-10.7,0-16.1,0c-1.8,0-3.6,0-5.5,0c-5.4,0-10.7,0-16.1,0c-1.1-0.6-3.2,1.1-3.6-1.4
	c0-5.4,0-10.7,0-16.1c0-1.8,0-3.6,0-5.5c0-5.4,0-10.7,0-16.1c0-1.8,0-3.6,0-5.4c0-5.4,0-10.7,0-16.1c0-1.8,0-3.6,0-5.5
	c0-5.4,0-10.7,0-16.1c0-1.8,0-3.6,0-5.4c0-5.4,0-10.7,0-16.1c0-1.8,0-3.6,0-5.4c0-5.4,0-10.8,0-16.1c0-1.8,0-3.6,0-5.5
	c0-5.4,0-10.7,0-16.1c0-1.8,0-3.6,0-5.4c0-5.4,0-10.8,0-16.1c0-1.8,0-3.6,0-5.5c0-5.4,0-10.8,0-16.1c0-1.8,0-3.6,0-5.4
	c0-5.4,0-10.7,0-16.1c0-1.8,0-3.6,0-5.5c0-5.4,0-10.8,0-16.1c0-1.8,0-3.6,0-5.4c0-5.4,0-10.7,0-16.1c0-1.8,0-3.6,0-5.5
	c0-5.4,0-10.8,0-16.1c0-1.8,0-3.6,0-5.4c0-5.4,0-10.7,0-16.1c0-1.8,0-3.6,0-5.4c0-5.4,0-10.8,0-16.1c0-1.8,0-3.6,0-5.5
	c0-5.4,0-10.8,0-16.1c0-1.8,0-3.6,0-5.4c0-5.4,0-10.8,0-16.1c0-1.8,0-3.6,0-5.5c0-5.4,0-10.8,0-16.1c0-1.8,0-3.6,0-5.4
	c0-5.4,0-10.8,0-16.1c0-1.8,0-3.6,0-5.5c0-5.4,0-10.8,0-16.1c0-1.8,0-3.6,0-5.4c0-5.4,0-10.7,0-16.1c0-1.8,0-3.6,0-5.4
	c0-5.4,0-10.8,0-16.1c0-1.8,0-3.6,0-5.4c0-5.4,0-10.7,0-16.1c0-1.8,0-3.6,0-5.4c0-5.4,0-10.8,0-16.1c0-1.8,0-3.6,0-5.4
	c0-5.4,0-10.8,0-16.1c0-1.8,0-3.6,0-5.4c0-5.4,0-10.8,0-16.1c0-1.8,0-3.6,0-5.5c0-0.8,0-1.6,0.1-2.3c3.4,0,6.7,0,10.1,0
	c0,184.6,0,369.3,0,554.2c184,0,367.8,0,551.8,0c0,3.5,0,6.7,0,10.2c-13.7,0-27.2,0-40.8,0c-1.8,0-3.7,0-5.5,0c-5.4,0-10.8,0-16.1,0
	c-1.8,0-3.6,0-5.4,0c-5.4,0-10.7,0-16.1,0c-1.8,0-3.6,0-5.5,0c-5.4,0-10.7,0-16.1,0c-1.8,0-3.6,0-5.5,0c-5.4,0-10.7,0-16.1,0
	c-1.8,0-3.6,0-5.4,0c-5.4,0-10.7,0-16.1,0c-1.8,0-3.7,0-5.5,0c-5.4,0-10.7,0-16.1,0c-1.8,0.1-3.6,0.2-5.4,0.2
	c-5.4-0.1-10.7-0.2-16.1-0.2c-1.8,0-3.7,0-5.5,0c-5.4,0-10.7,0-16.1,0c-1.8,0.1-3.6,0.2-5.5,0.2c-5.4-0.1-10.7-0.2-16.1-0.2
	c-1.8,0-3.7,0-5.5,0c-5.4,0-10.7,0-16.1,0c-1.8,0-3.6,0-5.5,0c-5.4,0-10.7,0-16.1,0C319.1,564,317.3,564,315.4,564z"/>
<path class="st1" d="M36.9,72.1C30.4,78.5,24,84.9,17.5,91.3c-5.1,5.1-10.2,10.2-15.3,15.3c-0.6,0.6-1.4,1-2.1,1.5c0-1.7,0-3.4,0-5
	C9.3,94,18.4,84.9,27.6,75.8c3.1-3.1,6.2-6.1,9.3-9.1C36.9,68.5,36.9,70.3,36.9,72.1z"/>
<path class="st1" d="M0.1,124.3c0.7-0.5,1.5-1,2.1-1.6c11-10.9,21.9-21.9,32.9-32.9c0.6-0.6,1.2-1.1,1.8-1.7c0,1.8,0,3.6,0,5.4
	c-11.5,11.5-23,22.9-34.6,34.4c-0.6,0.6-1.5,0.9-2.2,1.4C0.1,127.7,0.1,126,0.1,124.3z"/>
<path class="st1" d="M36.9,115.2c-9.2,9.1-18.3,18.2-27.5,27.3c-2.6,2.6-5.2,5.3-7.9,7.9c-0.4,0.4-1,0.6-1.5,0.8c0-1.7,0-3.4,0-5
	c3.8-3.8,7.7-7.5,11.5-11.3c8.5-8.4,16.9-16.7,25.3-25.1C36.9,111.6,36.9,113.4,36.9,115.2z"/>
<path class="st1" d="M36.9,158.3c-9,9-18.1,17.9-27.1,26.9c-2.7,2.7-5.4,5.4-8.1,8.1c-0.4,0.4-1.1,0.6-1.6,0.9c0-1.7,0-3.4,0-5
	c0.7-0.6,1.4-1.1,2.1-1.8c10.9-10.9,21.8-21.8,32.7-32.7c0.6-0.6,1.4-1.2,2-1.8C36.9,154.7,36.9,156.5,36.9,158.3z"/>
<path class="st1" d="M0.1,232.3c0.8-0.6,1.6-1.2,2.3-1.9c11-11,21.9-21.9,32.9-32.9c0.5-0.5,1.1-1,1.6-1.5c0,1.8,0,3.6,0,5.5
	c-7.7,7.6-15.3,15.2-23,22.7C9.9,228.1,6,232.1,2,236c-0.6,0.5-1.4,0.9-2,1.3C0.1,235.6,0.1,233.9,0.1,232.3z"/>
<path class="st1" d="M36.9,244.6c-9.1,9-18.2,18-27.3,27.1c-2.6,2.6-5.2,5.3-7.9,7.9c-0.4,0.4-1.1,0.6-1.7,0.8c0-1.7,0-3.4,0-5
	c0.7-0.5,1.5-1,2.1-1.7c11-11,21.9-21.9,32.9-32.9c0.6-0.6,1.2-1.1,1.8-1.7C36.9,241,36.9,242.8,36.9,244.6z"/>
<path class="st1" d="M36.9,266.2c-6.4,6.3-12.8,12.6-19.2,19c-5.2,5.2-10.4,10.4-15.6,15.5c-0.6,0.6-1.4,1-2.1,1.5c0-1.7,0-3.4,0-5
	c10.3-10.3,20.7-20.6,31-30.8c1.9-1.9,3.9-3.7,5.8-5.6C36.9,262.5,36.9,264.3,36.9,266.2z"/>
<path class="st1" d="M0.1,318.4c0.7-0.5,1.5-1,2.1-1.6c11-10.9,21.9-21.9,32.9-32.9c0.6-0.6,1.2-1.1,1.8-1.7c0,1.8,0,3.6,0,5.4
	c-11.5,11.5-23,22.9-34.6,34.4c-0.6,0.6-1.5,0.9-2.2,1.4C0.1,321.8,0.1,320.1,0.1,318.4z"/>
<path class="st1" d="M36.9,309.3c-8.9,8.8-17.8,17.6-26.7,26.5c-2.9,2.9-5.8,5.8-8.7,8.7c-0.4,0.4-1,0.5-1.5,0.8c0-1.7,0-3.4,0-5
	c7.1-7,14.1-14,21.2-20.9c5.2-5.1,10.4-10.3,15.7-15.4C36.9,305.7,36.9,307.5,36.9,309.3z"/>
<path class="st1" d="M0.1,383.3c3.8-3.7,7.6-7.3,11.3-11c8.5-8.4,17-16.9,25.5-25.3c0,1.8,0,3.6,0,5.5c-7.1,7-14.1,14-21.2,21
	c-4.6,4.5-9.1,9.1-13.6,13.6c-0.6,0.6-1.3,0.9-2,1.3C0.1,386.6,0.1,385,0.1,383.3z"/>
<path class="st1" d="M0.1,426.3c0.8-0.6,1.6-1.2,2.3-1.9c10.8-10.8,21.7-21.6,32.5-32.5c0.6-0.6,1.4-1.2,2-1.9c0,1.8,0,3.6,0,5.5
	c-8.4,8.3-16.8,16.6-25.1,24.9c-3.3,3.3-6.6,6.6-9.9,9.8c-0.5,0.5-1.2,0.7-1.8,1.1C0.1,429.7,0.1,428,0.1,426.3z"/>
<path class="st1" d="M36.9,50.5C28.3,59.1,19.7,67.6,11,76.2c-3,3-6,6.1-9.1,9c-0.5,0.5-1.2,0.7-1.8,1c0-1.7,0-3.4,0-5
	c0.8-0.6,1.6-1.2,2.3-1.8c11-11,22.1-22.1,33.1-33.1c0.5-0.5,1-0.8,1.5-1.3C36.9,46.9,36.9,48.7,36.9,50.5z"/>
<path class="st1" d="M0.1,469.4c0.8-0.6,1.6-1.2,2.3-1.9c10.8-10.8,21.7-21.7,32.5-32.5c0.7-0.6,1.4-1.2,2-1.9c0,1.8,0,3.6,0,5.5
	c-9.8,9.7-19.5,19.4-29.3,29.1c-2,2-4.1,4.1-6.1,6.1c-0.4,0.3-1,0.4-1.4,0.6C0.1,472.8,0.1,471.1,0.1,469.4z"/>
<path class="st1" d="M36.9,460.2c-8.2,8.2-16.5,16.3-24.7,24.5c-3.4,3.4-6.8,6.8-10.3,10.2c-0.5,0.5-1.2,0.9-1.9,1.3
	c0-1.7,0-3.4,0-5c10.5-10.4,21-20.8,31.4-31.2c1.8-1.8,3.6-3.5,5.4-5.2C36.9,456.6,36.9,458.4,36.9,460.2z"/>
<path class="st1" d="M0.1,512.5c0.8-0.6,1.6-1.1,2.3-1.8c10.8-10.8,21.7-21.6,32.5-32.5c0.7-0.6,1.4-1.2,2-1.9c0,1.8,0,3.6,0,5.4
	c-11.5,11.5-23,22.9-34.6,34.4c-0.6,0.6-1.5,0.9-2.2,1.4C0.1,515.8,0.1,514.1,0.1,512.5z"/>
<path class="st1" d="M36.9,503.4C30,510.3,23,517.1,16.1,524c-4.7,4.7-9.5,9.5-14.2,14.2c-0.5,0.5-1.2,0.8-1.8,1.2c0-1.7,0-3.4,0-5
	c7.3-7.2,14.6-14.5,22-21.7c5-4.9,9.9-9.8,14.9-14.7C36.9,499.7,36.9,501.5,36.9,503.4z"/>
<path class="st1" d="M0.1,577.3c5.6-5.5,11.1-10.9,16.7-16.4c6.7-6.6,13.5-13.3,20.2-20c0,1.8,0,3.6,0,5.5
	c-7.3,7.2-14.5,14.4-21.8,21.6c-4.4,4.3-8.7,8.7-13,13c-0.6,0.6-1.3,0.9-2,1.3C0.1,580.7,0.1,579,0.1,577.3z"/>
<path class="st1" d="M0.1,599.2c11.6-11.6,23.2-23.1,34.8-34.7c0.7-0.6,1.4-1.2,2.1-1.8c0.4,2.4,2.5,0.7,3.6,1.4
	c-6.8,6.9-13.5,13.7-20.3,20.6c-5.7,5.8-11.5,11.6-17.3,17.4c-1,0-1.9,0-2.8,0C0.1,601,0.1,600.1,0.1,599.2z"/>
<path class="st1" d="M0.1,555.5c0.8-0.6,1.6-1.1,2.3-1.7c10.8-10.8,21.7-21.6,32.5-32.5c0.6-0.6,1.4-1.2,2.1-1.8c0,1.8,0,3.6,0,5.4
	c-11.5,11.4-22.9,22.8-34.4,34.2c-0.7,0.7-1.6,1-2.4,1.5C0.1,558.9,0.1,557.2,0.1,555.5z"/>
<path class="st1" d="M36.9,223c-11.5,11.5-23,22.9-34.6,34.4c-0.6,0.6-1.5,0.8-2.2,1.2c0-1.5,0-3,0-4.5
	c11.6-11.5,23.2-23.1,34.8-34.6c0.7-0.6,1.4-1.2,2.1-1.8C36.9,219.4,36.9,221.2,36.9,223z"/>
<path class="st1" d="M36.9,417.1c-11.5,11.5-23,22.9-34.6,34.4c-0.6,0.6-1.5,0.8-2.2,1.2c0-1.5,0-3,0-4.5
	c11.6-11.5,23.2-23.1,34.8-34.6c0.7-0.6,1.4-1.2,2.1-1.8C36.9,413.5,36.9,415.3,36.9,417.1z"/>
<path class="st1" d="M36.9,179.9c-11.5,11.5-23,22.9-34.6,34.4c-0.6,0.6-1.5,0.8-2.2,1.2c0-1.5,0-3,0-4.5
	c11.6-11.6,23.2-23.1,34.8-34.7c0.7-0.6,1.4-1.2,2.1-1.8C36.9,176.3,36.9,178.1,36.9,179.9z"/>
<path class="st1" d="M0.1,362c11.6-11.6,23.2-23.2,34.8-34.8c0.7-0.7,1.4-1.2,2.1-1.8c0,1.8,0,3.6,0,5.4
	c-11.5,11.5-23,22.9-34.6,34.4c-0.6,0.6-1.5,0.9-2.2,1.3C0.1,365,0.1,363.5,0.1,362z"/>
<path class="st1" d="M36.9,136.7c-11.5,11.5-23,22.9-34.6,34.4c-0.6,0.6-1.5,0.9-2.2,1.3c0-1.5,0-3,0-4.5
	c11.6-11.6,23.2-23.2,34.8-34.8c0.7-0.7,1.4-1.2,2.1-1.8C36.9,133.1,36.9,134.9,36.9,136.7z"/>
<path class="st1" d="M36.9,373.9c-11.5,11.5-23,22.9-34.6,34.4c-0.6,0.6-1.5,0.8-2.2,1.2c0-1.5,0-3,0-4.5
	c11.6-11.6,23.2-23.1,34.8-34.7c0.7-0.6,1.4-1.2,2.1-1.8C36.9,370.3,36.9,372.1,36.9,373.9z"/>
<path class="st1" d="M36.9,28.9c-11.5,11.5-23,22.9-34.6,34.4c-0.6,0.6-1.5,0.8-2.2,1.2c0-1.5,0-3,0-4.5
	c11.5-11.5,23.1-23,34.6-34.4c0.7-0.7,1.5-1.4,2.3-2C36.9,25.3,36.9,27.1,36.9,28.9z"/>
<path class="st1" d="M358.6,564c1.8,0,3.7,0,5.5,0c-12.7,12.5-25.4,25-38.6,37.9c-0.9,0-2.4,0-4.6,0c0.9-1,1.6-1.6,2.2-2.3
	c11.2-11.2,22.4-22.4,33.5-33.6C357.3,565.4,357.9,564.7,358.6,564z"/>
<path class="st1" d="M121.4,564c1.8,0,3.6,0,5.5,0c-9.6,9.7-19.3,19.4-28.9,29.1c-2.9,2.9-5.8,5.8-8.7,8.8c-1.7,0-3.3,0-5.5,0
	c0.9-0.9,1.5-1.6,2.2-2.3c11.2-11.2,22.4-22.4,33.5-33.5C120.2,565.4,120.8,564.7,121.4,564z"/>
<path class="st1" d="M142.9,564c1.8,0,3.6,0,5.5,0c-8.8,8.9-17.7,17.8-26.5,26.7c-3.7,3.8-7.5,7.5-11.1,11.2c-1.8,0-3.3,0-5.4,0
	c0.8-0.9,1.4-1.5,2-2.1c11.4-11.4,22.8-22.8,34.1-34.1C142,565.1,142.4,564.5,142.9,564z"/>
<path class="st1" d="M164.5,564c1.8,0,3.7,0,5.5,0c-11.5,11.6-23.1,23.2-34.6,34.8c-1,1.1-2,2.2-2.8,3.1c-2,0-3.6,0-5.7,0
	c0.9-1,1.6-1.6,2.3-2.3c11.1-11.1,22.2-22.2,33.3-33.4C163.2,565.5,163.8,564.8,164.5,564z"/>
<path class="st1" d="M552.6,564c1.8,0,3.7,0,5.5,0c-11.5,11.5-22.9,23.1-34.4,34.6c-1.1,1.1-2.1,2.3-3,3.3c-2,0-3.6,0-5.7,0
	c0.9-1,1.6-1.6,2.3-2.3c11.2-11.2,22.4-22.4,33.5-33.5C551.4,565.4,552,564.7,552.6,564z"/>
<path class="st1" d="M315.4,564c1.8,0,3.6,0,5.5,0c-9.9,10-19.8,19.9-29.7,29.9c-2.6,2.6-5.2,5.3-7.9,8c-1.7,0-3.3,0-5.5,0
	C290.5,589.1,303,576.5,315.4,564z"/>
<path class="st1" d="M337,564c1.8,0,3.6,0,5.5,0c-8.8,8.9-17.7,17.8-26.5,26.7c-3.7,3.8-7.5,7.5-11.1,11.2c-1.7,0-3.3,0-5.3,0
	c0.7-0.8,1.2-1.4,1.7-1.9c11.4-11.4,22.8-22.8,34.1-34.1C335.9,565.3,336.4,564.6,337,564z"/>
<path class="st1" d="M509.5,564c1.8,0,3.6,0,5.5,0c-8.4,8.4-16.8,16.9-25.1,25.3c-4.2,4.2-8.4,8.5-12.4,12.6c-1.9,0-3.4,0-5.5,0
	C484.6,589.1,497.1,576.5,509.5,564z"/>
<path class="st1" d="M531,564c1.8,0,3.6,0,5.4,0c-9,9-17.9,18.1-26.9,27.1c-3.6,3.6-7.2,7.3-10.7,10.8c-1.8,0-3.4,0-5.4,0
	c0.8-0.9,1.4-1.5,2-2.1c11.4-11.4,22.8-22.8,34.1-34.1C530.1,565.1,530.6,564.6,531,564z"/>
<path class="st1" d="M99.8,564c1.8,0,3.6,0,5.5,0c-9,9-17.9,18.1-26.9,27.1c-3.6,3.6-7.2,7.3-10.7,10.8c-1.8,0-3.4,0-5.4,0
	c0.7-0.8,1.2-1.4,1.7-1.9c11.4-11.4,22.9-22.9,34.3-34.3C98.9,565.1,99.3,564.5,99.8,564z"/>
<path class="st1" d="M56.7,564c1.8,0,3.6,0,5.5,0c-7.8,7.9-15.7,15.8-23.5,23.8c-4.7,4.8-9.4,9.5-14.1,14.2c-1.8,0-3.3,0-5.3,0
	c0.7-0.8,1.2-1.4,1.7-1.9c11.4-11.4,22.8-22.8,34.1-34.1C55.6,565.3,56.1,564.6,56.7,564z"/>
<path class="st1" d="M207.6,564c1.8,0,3.7,0,5.5,0c-11.4,11.5-22.8,22.9-34.2,34.4c-1.2,1.2-2.3,2.4-3.2,3.5c-1.9,0-3.5,0-5.7,0
	c0.9-1,1.6-1.6,2.3-2.3c11.1-11.1,22.2-22.2,33.3-33.4C206.3,565.5,206.9,564.7,207.6,564z"/>
<path class="st1" d="M250.7,564c1.8,0,3.7,0,5.5,0c-9.5,9.6-19,19.1-28.5,28.7c-3.1,3.1-6.1,6.2-9.1,9.2c-1.8,0-3.4,0-5.3,0
	c0.6-0.7,1-1.3,1.5-1.7c11.3-11.3,22.6-22.6,33.9-34C249.4,565.5,250.1,564.7,250.7,564z"/>
<path class="st1" d="M293.9,564c1.8,0,3.6,0,5.5,0c-9.2,9.2-18.3,18.5-27.5,27.7c-3.4,3.4-6.8,6.9-10.1,10.2c-1.8,0-3.4,0-5.4,0
	c0.7-0.8,1.2-1.4,1.7-1.9c11.4-11.4,22.8-22.8,34.1-34.1C292.8,565.3,293.3,564.6,293.9,564z"/>
<path class="st1" d="M401.7,564c1.8,0,3.7,0,5.5,0c-11.4,11.5-22.8,22.9-34.2,34.4c-1.2,1.2-2.3,2.4-3.3,3.5c-1.9,0-3.5,0-5.7,0
	c0.9-1,1.6-1.6,2.3-2.3c11.1-11.1,22.2-22.2,33.3-33.4C400.3,565.5,401,564.7,401.7,564z"/>
<path class="st1" d="M444.8,564c1.8,0,3.7,0,5.5,0c-11.2,11.3-22.4,22.5-33.6,33.8c-1.4,1.4-2.7,2.8-3.9,4.1c-1.9,0-3.5,0-5.4,0
	c0.6-0.7,1-1.2,1.5-1.7c11.2-11.2,22.4-22.4,33.5-33.6C443.2,565.8,444,564.9,444.8,564z"/>
<path class="st1" d="M487.9,564c1.8,0,3.6,0,5.5,0c-9.2,9.2-18.3,18.5-27.5,27.7c-3.4,3.4-6.8,6.8-10.2,10.2c-1.7,0-3.3,0-5.2,0
	c0.6-0.7,1-1.3,1.5-1.7c11.3-11.3,22.6-22.6,33.9-33.9C486.6,565.5,487.2,564.7,487.9,564z"/>
<path class="st1" d="M186,564.2c1.8-0.1,3.6-0.2,5.5-0.2c-4.8,4.9-9.6,9.8-14.5,14.7c-7.7,7.8-15.5,15.6-23.1,23.2
	c-1.8,0-3.3,0-5.6,0C161.1,589.1,173.6,576.7,186,564.2z"/>
<path class="st1" d="M380.1,564.2c1.8-0.1,3.6-0.2,5.5-0.2c-8.8,8.9-17.7,17.8-26.5,26.7c-3.7,3.8-7.4,7.6-11,11.2
	c-1.9,0-3.4,0-5.7,0C355.2,589.1,367.7,576.6,380.1,564.2z"/>
<path class="st1" d="M229.2,564.2c1.8-0.1,3.6-0.2,5.4-0.2c-8.6,8.6-17.1,17.3-25.7,26c-4,4-8,8.1-11.7,12c-1.9,0-3.5,0-5.6,0
	C204.3,589.1,216.7,576.7,229.2,564.2z"/>
<path class="st1" d="M272.3,564c1.8,0,3.6,0,5.4,0c-5,5-9.9,10.1-14.9,15.1c-7.6,7.7-15.2,15.3-22.7,22.8c-1.8,0-3.4,0-5.5,0
	C247.4,589.1,259.9,576.5,272.3,564z"/>
<path class="st1" d="M78.3,564c1.8,0,3.6,0,5.4,0c-5.1,5.2-10.2,10.3-15.3,15.5c-7.5,7.5-15,15-22.4,22.5c-1.7,0-3.3,0-5.4,0
	C53.4,589.1,65.8,576.5,78.3,564z"/>
<path class="st1" d="M423.2,564.2c1.8-0.1,3.6-0.2,5.4-0.2c-8.6,8.6-17.1,17.3-25.7,25.9c-4,4-8,8.1-11.8,12c-1.9,0-3.4,0-5.6,0
	C398.4,589.1,410.8,576.7,423.2,564.2z"/>
<path class="st1" d="M466.4,564c1.8,0,3.6,0,5.4,0c-4.6,4.6-9.1,9.3-13.7,13.9c-8,8-16,16.1-23.9,24c-1.8,0-3.3,0-5.4,0
	C441.5,589.1,453.9,576.5,466.4,564z"/>
</svg>
