<svg xmlns="http://www.w3.org/2000/svg" viewBox="0 0 166.6 94"><defs><style>.cls-1{fill:#4c8091;}</style></defs><title>cars</title><g id="Layer_2" data-name="Layer 2"><g id="Layer_1-2" data-name="Layer 1"><path class="cls-1" d="M69.1,77.4H28.9c0,1.4-.1,2.6-.1,3.9s-1.2,4.9-3.3,4.4-2.9-2.4-3.3-4.1-.3-4.4-2.2-5.8-1.1-2.7-1.1-4.1c-.1-5.1-.2-10.3,0-15.5.1-1.6.8-4.1,1.6-4.5,2.5-1,2.8-3.4,3.3-5.9,1-4.6,2.2-9.1,3.1-13.7.5-2.3,1.4-3.1,3.2-3.1H67.9c1.9,0,2.9.7,3.4,3.2.8,4.1,1.8,8,2.8,12s.9,6.6,3.9,7.9c.7.2,1.3,2.2,1.3,3.5.2,5.5.1,11.1.1,16.7v.4a47.4,47.4,0,0,0-4.6,11.9c-.1.7-2.2,1.4-3,.9s-1.9-2.1-2.4-3.5A21.7,21.7,0,0,1,69.1,77.4ZM27.8,50.8H70.3c-1.1-4.8-1.9-9.2-3.1-13.5a3,3,0,0,0-2.3-1.9q-15.9-.1-31.8,0a2.4,2.4,0,0,0-2,1.3C29.9,41.2,28.9,45.9,27.8,50.8ZM27,56.9c-2.4.4-3.7,2.2-3.6,5.3s1.5,4.6,3.7,4.6,3.8-1.8,3.8-5S29.4,57.1,27,56.9Zm43.8,0c-2.3.4-3.7,2.1-3.6,5.3s1.6,4.6,3.8,4.6,3.9-2,3.8-5S73.2,57,70.8,56.9Z"/><path class="cls-1" d="M135.1,77.4H94.9c0,1.4-.1,2.6-.1,3.9s-1.2,4.9-3.3,4.4-2.9-2.4-3.3-4.1-.3-4.4-2.2-5.8-1.1-2.7-1.1-4.1c-.1-5.1-.2-10.3,0-15.5.1-1.6.8-4.1,1.6-4.5,2.5-1,2.8-3.4,3.4-5.9,1-4.6,2.1-9.1,3-13.7.5-2.3,1.4-3.1,3.2-3.1h37.8c1.9,0,2.9.7,3.4,3.2.8,4.1,1.8,8,2.8,12s.9,6.6,4,7.9c.6.2,1.2,2.2,1.2,3.5.2,5.5.1,11.1.1,16.7v.4c-1.9,3.8-3.7,7.5-4.5,11.9-.2.7-2.3,1.4-3.1.9s-1.9-2.1-2.4-3.5A21.7,21.7,0,0,1,135.1,77.4ZM93.8,50.8h42.5c-1.1-4.8-1.9-9.2-3.1-13.5a3,3,0,0,0-2.3-1.9c-10.6-.1-21.2-.1-31.7,0a2.4,2.4,0,0,0-2.1,1.3C95.9,41.2,94.9,45.9,93.8,50.8ZM93,56.9c-2.4.4-3.7,2.2-3.6,5.3s1.5,4.6,3.7,4.6,3.9-1.8,3.8-5S95.4,57.1,93,56.9Zm43.8,0c-2.3.4-3.7,2.1-3.6,5.3s1.6,4.6,3.8,4.6,3.9-2,3.8-5S139.3,57,136.8,56.9Z"/><path class="cls-1" d="M164.4,4.6H2.2C-1.4,5.7-.3,9.5,3.6,9.5H9.5V89H7.1v5H157.7V89h-2.8V9.5H163C167,9.5,168.1,5.7,164.4,4.6ZM152.2,89H12V9.5H152.2Z"/><rect class="cls-1" x="12" y="9.5" width="140.2" height="0.42"/><rect class="cls-1" x="154.9" y="9.5" width="0.1" height="0.42"/><path class="cls-1" d="M5,4.6H5A4.7,4.7,0,0,1,9.6,0H150.4A4.7,4.7,0,0,1,155,4.6H5Z"/></g></g></svg>