<?xml version="1.0" encoding="utf-8"?>
<!-- Generator: Adobe Illustrator 22.0.1, SVG Export Plug-In . SVG Version: 6.00 Build 0)  -->
<svg version="1.1" xmlns="http://www.w3.org/2000/svg" xmlns:xlink="http://www.w3.org/1999/xlink" x="0px" y="0px"
	 viewBox="0 0 1292 1299.8" style="enable-background:new 0 0 1292 1299.8;" xml:space="preserve">
<style type="text/css">
	.st0{display:none;}
	.st1{display:inline;fill:#74C3B4;}
	.st2{display:inline;fill:#0E0E0E;}
	.st3{fill:#0E0E0E;}
	.st4{display:none;fill:none;}
	.st5{fill:#74C3B4;}
	.st6{fill:none;}
</style>
<g id="Layer_1" class="st0">
	<path class="st1" d="M315.4,1261.4c-5.4,0-10.7,0-16.1,0c-1.8,0-3.6,0-5.5,0c-5.4,0-10.7,0-16.1,0c-1.8,0-3.6,0-5.4,0
		c-5.4,0-10.7,0-16.1,0c-1.8,0-3.7,0-5.5,0c-5.4,0-10.7,0-16.1,0c-1.8,0.1-3.6,0.2-5.4,0.2c-5.4-0.1-10.7-0.2-16.1-0.2
		c-1.8,0-3.7,0-5.5,0c-5.4,0-10.7,0-16.1,0c-1.8,0.1-3.6,0.2-5.5,0.2c-5.4-0.1-10.7-0.2-16.1-0.2c-1.8,0-3.7,0-5.5,0
		c-5.4,0-10.7,0-16.1,0c-1.8,0-3.6,0-5.5,0c-5.4,0-10.7,0-16.1,0c-1.8,0-3.6,0-5.5,0c-5.4,0-10.7,0-16.1,0c-1.8,0-3.6,0-5.5,0
		c-5.4,0-10.7,0-16.1,0c-1.8,0-3.6,0-5.4,0c-5.4,0-10.7,0-16.1,0c-1.8,0-3.6,0-5.5,0c-5.4,0-10.7,0-16.1,0c-1.1-0.6-3.2,1.1-3.6-1.4
		c0-5.4,0-10.7,0-16.1c0-1.8,0-3.6,0-5.5c0-5.4,0-10.7,0-16.1c0-1.8,0-3.6,0-5.4c0-5.4,0-10.7,0-16.1c0-1.8,0-3.6,0-5.5
		c0-5.4,0-10.7,0-16.1c0-1.8,0-3.6,0-5.4c0-5.4,0-10.7,0-16.1c0-1.8,0-3.6,0-5.4c0-5.4,0-10.8,0-16.1c0-1.8,0-3.6,0-5.5
		c0-5.4,0-10.7,0-16.1c0-1.8,0-3.6,0-5.4c0-5.4,0-10.8,0-16.1c0-1.8,0-3.6,0-5.5c0-5.4,0-10.8,0-16.1c0-1.8,0-3.6,0-5.4
		c0-5.4,0-10.7,0-16.1c0-1.8,0-3.6,0-5.5c0-5.4,0-10.8,0-16.1c0-1.8,0-3.6,0-5.4c0-5.4,0-10.7,0-16.1c0-1.8,0-3.6,0-5.5
		c0-5.4,0-10.8,0-16.1c0-1.8,0-3.6,0-5.4c0-5.4,0-10.7,0-16.1c0-1.8,0-3.6,0-5.4c0-5.4,0-10.8,0-16.1c0-1.8,0-3.6,0-5.5
		c0-5.4,0-10.8,0-16.1c0-1.8,0-3.6,0-5.4c0-5.4,0-10.8,0-16.1c0-1.8,0-3.6,0-5.5c0-5.4,0-10.8,0-16.1c0-1.8,0-3.6,0-5.4
		c0-5.4,0-10.8,0-16.1c0-1.8,0-3.6,0-5.5c0-5.4,0-10.8,0-16.1c0-1.8,0-3.6,0-5.4c0-5.4,0-10.7,0-16.1c0-1.8,0-3.6,0-5.4
		c0-5.4,0-10.8,0-16.1c0-1.8,0-3.6,0-5.4c0-5.4,0-10.7,0-16.1c0-1.8,0-3.6,0-5.4c0-5.4,0-10.8,0-16.1c0-1.8,0-3.6,0-5.4
		c0-5.4,0-10.8,0-16.1c0-1.8,0-3.6,0-5.4c0-5.4,0-10.8,0-16.1c0-1.8,0-3.6,0-5.5c0-0.8,0-1.6,0.1-2.3c3.4,0,6.7,0,10.1,0
		c0,184.6,0,369.3,0,554.2c184,0,367.8,0,551.8,0c0,3.5,0,6.7,0,10.2c-13.7,0-27.2,0-40.8,0c-1.8,0-3.7,0-5.5,0
		c-5.4,0-10.8,0-16.1,0c-1.8,0-3.6,0-5.4,0c-5.4,0-10.7,0-16.1,0c-1.8,0-3.6,0-5.5,0c-5.4,0-10.7,0-16.1,0c-1.8,0-3.6,0-5.5,0
		c-5.4,0-10.7,0-16.1,0c-1.8,0-3.6,0-5.4,0c-5.4,0-10.7,0-16.1,0c-1.8,0-3.7,0-5.5,0c-5.4,0-10.7,0-16.1,0c-1.8,0.1-3.6,0.2-5.4,0.2
		c-5.4-0.1-10.7-0.2-16.1-0.2c-1.8,0-3.7,0-5.5,0c-5.4,0-10.7,0-16.1,0c-1.8,0.1-3.6,0.2-5.5,0.2c-5.4-0.1-10.7-0.2-16.1-0.2
		c-1.8,0-3.7,0-5.5,0c-5.4,0-10.7,0-16.1,0c-1.8,0-3.6,0-5.5,0c-5.4,0-10.7,0-16.1,0C319.1,1261.4,317.3,1261.4,315.4,1261.4z"/>
	<path class="st2" d="M36.9,769.5c-6.5,6.4-12.9,12.8-19.4,19.2c-5.1,5.1-10.2,10.2-15.3,15.3c-0.6,0.6-1.4,1-2.1,1.5
		c0-1.7,0-3.4,0-5c9.2-9.1,18.3-18.2,27.5-27.3c3.1-3.1,6.2-6.1,9.3-9.1C36.9,765.9,36.9,767.7,36.9,769.5z"/>
	<path class="st2" d="M0.1,821.7c0.7-0.5,1.5-1,2.1-1.6c11-10.9,21.9-21.9,32.9-32.9c0.6-0.6,1.2-1.1,1.8-1.7c0,1.8,0,3.6,0,5.4
		c-11.5,11.5-23,22.9-34.6,34.4c-0.6,0.6-1.5,0.9-2.2,1.4C0.1,825.1,0.1,823.4,0.1,821.7z"/>
	<path class="st2" d="M36.9,812.6c-9.2,9.1-18.3,18.2-27.5,27.3c-2.6,2.6-5.2,5.3-7.9,7.9c-0.4,0.4-1,0.6-1.5,0.8c0-1.7,0-3.4,0-5
		c3.8-3.8,7.7-7.5,11.5-11.3c8.5-8.4,16.9-16.7,25.3-25.1C36.9,809,36.9,810.8,36.9,812.6z"/>
	<path class="st2" d="M36.9,855.7c-9,9-18.1,17.9-27.1,26.9c-2.7,2.7-5.4,5.4-8.1,8.1c-0.4,0.4-1.1,0.6-1.6,0.9c0-1.7,0-3.4,0-5
		c0.7-0.6,1.4-1.1,2.1-1.8C13.1,873.9,24,863,34.9,852.1c0.6-0.6,1.4-1.2,2-1.8C36.9,852.1,36.9,853.9,36.9,855.7z"/>
	<path class="st2" d="M0.1,929.7c0.8-0.6,1.6-1.2,2.3-1.9c11-11,21.9-21.9,32.9-32.9c0.5-0.5,1.1-1,1.6-1.5c0,1.8,0,3.6,0,5.5
		c-7.7,7.6-15.3,15.2-23,22.7c-4,3.9-7.9,7.9-11.9,11.8c-0.6,0.5-1.4,0.9-2,1.3C0.1,933,0.1,931.3,0.1,929.7z"/>
	<path class="st2" d="M36.9,942c-9.1,9-18.2,18-27.3,27.1c-2.6,2.6-5.2,5.3-7.9,7.9c-0.4,0.4-1.1,0.6-1.7,0.8c0-1.7,0-3.4,0-5
		c0.7-0.5,1.5-1,2.1-1.7c11-11,21.9-21.9,32.9-32.9c0.6-0.6,1.2-1.1,1.8-1.7C36.9,938.4,36.9,940.2,36.9,942z"/>
	<path class="st2" d="M36.9,963.6c-6.4,6.3-12.8,12.6-19.2,19c-5.2,5.2-10.4,10.4-15.6,15.5c-0.6,0.6-1.4,1-2.1,1.5c0-1.7,0-3.4,0-5
		c10.3-10.3,20.7-20.6,31-30.8c1.9-1.9,3.9-3.7,5.8-5.6C36.9,959.9,36.9,961.7,36.9,963.6z"/>
	<path class="st2" d="M0.1,1015.8c0.7-0.5,1.5-1,2.1-1.6c11-10.9,21.9-21.9,32.9-32.9c0.6-0.6,1.2-1.1,1.8-1.7c0,1.8,0,3.6,0,5.4
		c-11.5,11.5-23,22.9-34.6,34.4c-0.6,0.6-1.5,0.9-2.2,1.4C0.1,1019.2,0.1,1017.5,0.1,1015.8z"/>
	<path class="st2" d="M36.9,1006.7c-8.9,8.8-17.8,17.6-26.7,26.5c-2.9,2.9-5.8,5.8-8.7,8.7c-0.4,0.4-1,0.5-1.5,0.8c0-1.7,0-3.4,0-5
		c7.1-7,14.1-14,21.2-20.9c5.2-5.1,10.4-10.3,15.7-15.4C36.9,1003.1,36.9,1004.9,36.9,1006.7z"/>
	<path class="st2" d="M0.1,1080.7c3.8-3.7,7.6-7.3,11.3-11c8.5-8.4,17-16.9,25.5-25.3c0,1.8,0,3.6,0,5.5c-7.1,7-14.1,14-21.2,21
		c-4.6,4.5-9.1,9.1-13.6,13.6c-0.6,0.6-1.3,0.9-2,1.3C0.1,1084,0.1,1082.4,0.1,1080.7z"/>
	<path class="st2" d="M0.1,1123.7c0.8-0.6,1.6-1.2,2.3-1.9c10.8-10.8,21.7-21.6,32.5-32.5c0.6-0.6,1.4-1.2,2-1.9c0,1.8,0,3.6,0,5.5
		c-8.4,8.3-16.8,16.6-25.1,24.9c-3.3,3.3-6.6,6.6-9.9,9.8c-0.5,0.5-1.2,0.7-1.8,1.1C0.1,1127.1,0.1,1125.4,0.1,1123.7z"/>
	<path class="st2" d="M36.9,747.9c-8.6,8.6-17.2,17.1-25.9,25.7c-3,3-6,6.1-9.1,9c-0.5,0.5-1.2,0.7-1.8,1c0-1.7,0-3.4,0-5
		c0.8-0.6,1.6-1.2,2.3-1.8c11-11,22.1-22.1,33.1-33.1c0.5-0.5,1-0.8,1.5-1.3C36.9,744.3,36.9,746.1,36.9,747.9z"/>
	<path class="st2" d="M0.1,1166.8c0.8-0.6,1.6-1.2,2.3-1.9c10.8-10.8,21.7-21.7,32.5-32.5c0.7-0.6,1.4-1.2,2-1.9c0,1.8,0,3.6,0,5.5
		c-9.8,9.7-19.5,19.4-29.3,29.1c-2,2-4.1,4.1-6.1,6.1c-0.4,0.3-1,0.4-1.4,0.6C0.1,1170.2,0.1,1168.5,0.1,1166.8z"/>
	<path class="st2" d="M36.9,1157.6c-8.2,8.2-16.5,16.3-24.7,24.5c-3.4,3.4-6.8,6.8-10.3,10.2c-0.5,0.5-1.2,0.9-1.9,1.3
		c0-1.7,0-3.4,0-5c10.5-10.4,21-20.8,31.4-31.2c1.8-1.8,3.6-3.5,5.4-5.2C36.9,1154,36.9,1155.8,36.9,1157.6z"/>
	<path class="st2" d="M0.1,1209.9c0.8-0.6,1.6-1.1,2.3-1.8c10.8-10.8,21.7-21.6,32.5-32.5c0.7-0.6,1.4-1.2,2-1.9c0,1.8,0,3.6,0,5.4
		c-11.5,11.5-23,22.9-34.6,34.4c-0.6,0.6-1.5,0.9-2.2,1.4C0.1,1213.2,0.1,1211.5,0.1,1209.9z"/>
	<path class="st2" d="M36.9,1200.8c-6.9,6.9-13.9,13.7-20.8,20.6c-4.7,4.7-9.5,9.5-14.2,14.2c-0.5,0.5-1.2,0.8-1.8,1.2
		c0-1.7,0-3.4,0-5c7.3-7.2,14.6-14.5,22-21.7c5-4.9,9.9-9.8,14.9-14.7C36.9,1197.1,36.9,1198.9,36.9,1200.8z"/>
	<path class="st2" d="M0.1,1274.7c5.6-5.5,11.1-10.9,16.7-16.4c6.7-6.6,13.5-13.3,20.2-20c0,1.8,0,3.6,0,5.5
		c-7.3,7.2-14.5,14.4-21.8,21.6c-4.4,4.3-8.7,8.7-13,13c-0.6,0.6-1.3,0.9-2,1.3C0.1,1278.1,0.1,1276.4,0.1,1274.7z"/>
	<path class="st2" d="M0.1,1296.6c11.6-11.6,23.2-23.1,34.8-34.7c0.7-0.6,1.4-1.2,2.1-1.8c0.4,2.4,2.5,0.7,3.6,1.4
		c-6.8,6.9-13.5,13.7-20.3,20.6c-5.7,5.8-11.5,11.6-17.3,17.4c-1,0-1.9,0-2.8,0C0.1,1298.4,0.1,1297.5,0.1,1296.6z"/>
	<path class="st2" d="M0.1,1252.9c0.8-0.6,1.6-1.1,2.3-1.7c10.8-10.8,21.7-21.6,32.5-32.5c0.6-0.6,1.4-1.2,2.1-1.8
		c0,1.8,0,3.6,0,5.4c-11.5,11.4-22.9,22.8-34.4,34.2c-0.7,0.7-1.6,1-2.4,1.5C0.1,1256.3,0.1,1254.6,0.1,1252.9z"/>
	<path class="st2" d="M36.9,920.4c-11.5,11.5-23,22.9-34.6,34.4c-0.6,0.6-1.5,0.8-2.2,1.2c0-1.5,0-3,0-4.5
		c11.6-11.5,23.2-23.1,34.8-34.6c0.7-0.6,1.4-1.2,2.1-1.8C36.9,916.8,36.9,918.6,36.9,920.4z"/>
	<path class="st2" d="M36.9,1114.5c-11.5,11.5-23,22.9-34.6,34.4c-0.6,0.6-1.5,0.8-2.2,1.2c0-1.5,0-3,0-4.5
		c11.6-11.5,23.2-23.1,34.8-34.6c0.7-0.6,1.4-1.2,2.1-1.8C36.9,1110.9,36.9,1112.7,36.9,1114.5z"/>
	<path class="st2" d="M36.9,877.3c-11.5,11.5-23,22.9-34.6,34.4c-0.6,0.6-1.5,0.8-2.2,1.2c0-1.5,0-3,0-4.5
		c11.6-11.6,23.2-23.1,34.8-34.7c0.7-0.6,1.4-1.2,2.1-1.8C36.9,873.7,36.9,875.5,36.9,877.3z"/>
	<path class="st2" d="M0.1,1059.4c11.6-11.6,23.2-23.2,34.8-34.8c0.7-0.7,1.4-1.2,2.1-1.8c0,1.8,0,3.6,0,5.4
		c-11.5,11.5-23,22.9-34.6,34.4c-0.6,0.6-1.5,0.9-2.2,1.3C0.1,1062.4,0.1,1060.9,0.1,1059.4z"/>
	<path class="st2" d="M36.9,834.1c-11.5,11.5-23,22.9-34.6,34.4c-0.6,0.6-1.5,0.9-2.2,1.3c0-1.5,0-3,0-4.5
		c11.6-11.6,23.2-23.2,34.8-34.8c0.7-0.7,1.4-1.2,2.1-1.8C36.9,830.5,36.9,832.3,36.9,834.1z"/>
	<path class="st2" d="M36.9,1071.3c-11.5,11.5-23,22.9-34.6,34.4c-0.6,0.6-1.5,0.8-2.2,1.2c0-1.5,0-3,0-4.5
		c11.6-11.6,23.2-23.1,34.8-34.7c0.7-0.6,1.4-1.2,2.1-1.8C36.9,1067.7,36.9,1069.5,36.9,1071.3z"/>
	<path class="st2" d="M36.9,726.3c-11.5,11.5-23,22.9-34.6,34.4c-0.6,0.6-1.5,0.8-2.2,1.2c0-1.5,0-3,0-4.5
		c11.5-11.5,23.1-23,34.6-34.4c0.7-0.7,1.5-1.4,2.3-2C36.9,722.7,36.9,724.5,36.9,726.3z"/>
	<path class="st2" d="M358.6,1261.4c1.8,0,3.7,0,5.5,0c-12.7,12.5-25.4,25-38.6,37.9c-0.9,0-2.4,0-4.6,0c0.9-1,1.6-1.6,2.2-2.3
		c11.2-11.2,22.4-22.4,33.5-33.6C357.3,1262.8,357.9,1262.1,358.6,1261.4z"/>
	<path class="st2" d="M121.4,1261.4c1.8,0,3.6,0,5.5,0c-9.6,9.7-19.3,19.4-28.9,29.1c-2.9,2.9-5.8,5.8-8.7,8.8c-1.7,0-3.3,0-5.5,0
		c0.9-0.9,1.5-1.6,2.2-2.3c11.2-11.2,22.4-22.4,33.5-33.5C120.2,1262.8,120.8,1262.1,121.4,1261.4z"/>
	<path class="st2" d="M142.9,1261.4c1.8,0,3.6,0,5.5,0c-8.8,8.9-17.7,17.8-26.5,26.7c-3.7,3.8-7.5,7.5-11.1,11.2c-1.8,0-3.3,0-5.4,0
		c0.8-0.9,1.4-1.5,2-2.1c11.4-11.4,22.8-22.8,34.1-34.1C142,1262.5,142.4,1261.9,142.9,1261.4z"/>
	<path class="st2" d="M164.5,1261.4c1.8,0,3.7,0,5.5,0c-11.5,11.6-23.1,23.2-34.6,34.8c-1,1.1-2,2.2-2.8,3.1c-2,0-3.6,0-5.7,0
		c0.9-1,1.6-1.6,2.3-2.3c11.1-11.1,22.2-22.2,33.3-33.4C163.2,1262.9,163.8,1262.2,164.5,1261.4z"/>
	<path class="st2" d="M552.6,1261.4c1.8,0,3.7,0,5.5,0c-11.5,11.5-22.9,23.1-34.4,34.6c-1.1,1.1-2.1,2.3-3,3.3c-2,0-3.6,0-5.7,0
		c0.9-1,1.6-1.6,2.3-2.3c11.2-11.2,22.4-22.4,33.5-33.5C551.4,1262.8,552,1262.1,552.6,1261.4z"/>
	<path class="st2" d="M315.4,1261.4c1.8,0,3.6,0,5.5,0c-9.9,10-19.8,19.9-29.7,29.9c-2.6,2.6-5.2,5.3-7.9,8c-1.7,0-3.3,0-5.5,0
		C290.5,1286.5,303,1273.9,315.4,1261.4z"/>
	<path class="st2" d="M337,1261.4c1.8,0,3.6,0,5.5,0c-8.8,8.9-17.7,17.8-26.5,26.7c-3.7,3.8-7.5,7.5-11.1,11.2c-1.7,0-3.3,0-5.3,0
		c0.7-0.8,1.2-1.4,1.7-1.9c11.4-11.4,22.8-22.8,34.1-34.1C335.9,1262.7,336.4,1262,337,1261.4z"/>
	<path class="st2" d="M509.5,1261.4c1.8,0,3.6,0,5.5,0c-8.4,8.4-16.8,16.9-25.1,25.3c-4.2,4.2-8.4,8.5-12.4,12.6c-1.9,0-3.4,0-5.5,0
		C484.6,1286.5,497.1,1273.9,509.5,1261.4z"/>
	<path class="st2" d="M531,1261.4c1.8,0,3.6,0,5.4,0c-9,9-17.9,18.1-26.9,27.1c-3.6,3.6-7.2,7.3-10.7,10.8c-1.8,0-3.4,0-5.4,0
		c0.8-0.9,1.4-1.5,2-2.1c11.4-11.4,22.8-22.8,34.1-34.1C530.1,1262.5,530.6,1262,531,1261.4z"/>
	<path class="st2" d="M99.8,1261.4c1.8,0,3.6,0,5.5,0c-9,9-17.9,18.1-26.9,27.1c-3.6,3.6-7.2,7.3-10.7,10.8c-1.8,0-3.4,0-5.4,0
		c0.7-0.8,1.2-1.4,1.7-1.9c11.4-11.4,22.9-22.9,34.3-34.3C98.9,1262.5,99.3,1261.9,99.8,1261.4z"/>
	<path class="st2" d="M56.7,1261.4c1.8,0,3.6,0,5.5,0c-7.8,7.9-15.7,15.8-23.5,23.8c-4.7,4.8-9.4,9.5-14.1,14.2c-1.8,0-3.3,0-5.3,0
		c0.7-0.8,1.2-1.4,1.7-1.9c11.4-11.4,22.8-22.8,34.1-34.1C55.6,1262.7,56.1,1262,56.7,1261.4z"/>
	<path class="st2" d="M207.6,1261.4c1.8,0,3.7,0,5.5,0c-11.4,11.5-22.8,22.9-34.2,34.4c-1.2,1.2-2.3,2.4-3.2,3.5c-1.9,0-3.5,0-5.7,0
		c0.9-1,1.6-1.6,2.3-2.3c11.1-11.1,22.2-22.2,33.3-33.4C206.3,1262.9,206.9,1262.1,207.6,1261.4z"/>
	<path class="st2" d="M250.7,1261.4c1.8,0,3.7,0,5.5,0c-9.5,9.6-19,19.1-28.5,28.7c-3.1,3.1-6.1,6.2-9.1,9.2c-1.8,0-3.4,0-5.3,0
		c0.6-0.7,1-1.3,1.5-1.7c11.3-11.3,22.6-22.6,33.9-34C249.4,1262.9,250.1,1262.1,250.7,1261.4z"/>
	<path class="st2" d="M293.9,1261.4c1.8,0,3.6,0,5.5,0c-9.2,9.2-18.3,18.5-27.5,27.7c-3.4,3.4-6.8,6.9-10.1,10.2c-1.8,0-3.4,0-5.4,0
		c0.7-0.8,1.2-1.4,1.7-1.9c11.4-11.4,22.8-22.8,34.1-34.1C292.8,1262.7,293.3,1262,293.9,1261.4z"/>
	<path class="st2" d="M401.7,1261.4c1.8,0,3.7,0,5.5,0c-11.4,11.5-22.8,22.9-34.2,34.4c-1.2,1.2-2.3,2.4-3.3,3.5c-1.9,0-3.5,0-5.7,0
		c0.9-1,1.6-1.6,2.3-2.3c11.1-11.1,22.2-22.2,33.3-33.4C400.3,1262.9,401,1262.1,401.7,1261.4z"/>
	<path class="st2" d="M444.8,1261.4c1.8,0,3.7,0,5.5,0c-11.2,11.3-22.4,22.5-33.6,33.8c-1.4,1.4-2.7,2.8-3.9,4.1c-1.9,0-3.5,0-5.4,0
		c0.6-0.7,1-1.2,1.5-1.7c11.2-11.2,22.4-22.4,33.5-33.6C443.2,1263.2,444,1262.3,444.8,1261.4z"/>
	<path class="st2" d="M487.9,1261.4c1.8,0,3.6,0,5.5,0c-9.2,9.2-18.3,18.5-27.5,27.7c-3.4,3.4-6.8,6.8-10.2,10.2c-1.7,0-3.3,0-5.2,0
		c0.6-0.7,1-1.3,1.5-1.7c11.3-11.3,22.6-22.6,33.9-33.9C486.6,1262.9,487.2,1262.1,487.9,1261.4z"/>
	<path class="st2" d="M186,1261.6c1.8-0.1,3.6-0.2,5.5-0.2c-4.8,4.9-9.6,9.8-14.5,14.7c-7.7,7.8-15.5,15.6-23.1,23.2
		c-1.8,0-3.3,0-5.6,0C161.1,1286.5,173.6,1274.1,186,1261.6z"/>
	<path class="st2" d="M380.1,1261.6c1.8-0.1,3.6-0.2,5.5-0.2c-8.8,8.9-17.7,17.8-26.5,26.7c-3.7,3.8-7.4,7.6-11,11.2
		c-1.9,0-3.4,0-5.7,0C355.2,1286.5,367.7,1274,380.1,1261.6z"/>
	<path class="st2" d="M229.2,1261.6c1.8-0.1,3.6-0.2,5.4-0.2c-8.6,8.6-17.1,17.3-25.7,26c-4,4-8,8.1-11.7,12c-1.9,0-3.5,0-5.6,0
		C204.3,1286.5,216.7,1274.1,229.2,1261.6z"/>
	<path class="st2" d="M272.3,1261.4c1.8,0,3.6,0,5.4,0c-5,5-9.9,10.1-14.9,15.1c-7.6,7.7-15.2,15.3-22.7,22.8c-1.8,0-3.4,0-5.5,0
		C247.4,1286.5,259.9,1273.9,272.3,1261.4z"/>
	<path class="st2" d="M78.3,1261.4c1.8,0,3.6,0,5.4,0c-5.1,5.2-10.2,10.3-15.3,15.5c-7.5,7.5-15,15-22.4,22.5c-1.7,0-3.3,0-5.4,0
		C53.4,1286.5,65.8,1273.9,78.3,1261.4z"/>
	<path class="st2" d="M423.2,1261.6c1.8-0.1,3.6-0.2,5.4-0.2c-8.6,8.6-17.1,17.3-25.7,25.9c-4,4-8,8.1-11.8,12c-1.9,0-3.4,0-5.6,0
		C398.4,1286.5,410.8,1274.1,423.2,1261.6z"/>
	<path class="st2" d="M466.4,1261.4c1.8,0,3.6,0,5.4,0c-4.6,4.6-9.1,9.3-13.7,13.9c-8,8-16,16.1-23.9,24c-1.8,0-3.3,0-5.4,0
		C441.5,1286.5,453.9,1273.9,466.4,1261.4z"/>
</g>
<g id="Layer_2">
	<path class="st3" d="M25.8,1273.7c-5.7,5.6-11.4,11.1-17.1,16.6H2.2c0.8-0.9,1.5-1.6,2.1-2.2c13.8-13.3,41.3-39.9,41.3-39.9
		s1.2-1.6,1.9-2.3h6.7C44.8,1255.1,35.2,1264.4,25.8,1273.7L25.8,1273.7z"/>
	<polygon class="st4" points="-38,790 -38,1281 -14.9,1276.4 -6,1271.4 70.7,1199.4 73.3,1116.7 73.3,657.4 -20.7,657.4 
		-20.7,785.5 	"/>
	<path class="st5" d="M39.4,716v5.3c-0.1,0.1-0.2,0.1-0.2,0.2v-5.3C39.3,716.1,39.3,716.1,39.4,716z"/>
	<path class="st5" d="M50.8,1246.2l-11.2,8.8l-0.4,0.3c0,0,0-0.2,0-0.3c0-0.1,0-0.3,0-0.5v-6.3l11.5-9.7v3.6c0,0.4,0.1,2.7,0.1,3.7
		C50.8,1246,50.8,1246.1,50.8,1246.2z"/>
	<path class="st5" d="M38.9,1151.6c0,0-0.1,0.1-0.1,0.1v-5.5C38.9,1148,38.9,1149.8,38.9,1151.6z"/>
	<path class="st5" d="M38.9,957.6c0,0-0.1,0.1-0.1,0.1v-5.5C38.9,953.9,38.9,955.7,38.9,957.6z"/>
	<path class="st5" d="M38.9,936l-0.1,0.1v-5.6C38.9,932.4,38.9,934.2,38.9,936z"/>
	<path class="st5" d="M38.9,806.6c0,0-0.1,0.1-0.1,0.1v-5.5C38.9,803,38.9,804.8,38.9,806.6z"/>
	<path class="st5" d="M38.9,763.5l-0.1,0.1v-5.4c0,0,0.1-0.1,0.1-0.1V763.5z"/>
	<path class="st5" d="M38.9,784.9c0,0-0.1,0.1-0.1,0.1v-5.4l0.1-0.1V784.9z"/>
	<path class="st5" d="M38.9,849.7l-0.1,0.1v-5.4c0,0,0.1-0.1,0.1-0.1V849.7z"/>
	<path class="st5" d="M38.9,892.9c0,0-0.1,0.1-0.1,0.1v-5.5c0,0,0.1-0.1,0.1-0.1V892.9z"/>
	<path class="st5" d="M38.9,979l-0.1,0.1v-5.4c0,0,0.1-0.1,0.1-0.1V979z"/>
	<path class="st5" d="M38.9,1000.7l-0.1,0.1v-5.3c0,0,0.1-0.1,0.1-0.1V1000.7z"/>
	<path class="st5" d="M38.9,1043.9c0,0-0.1,0.1-0.1,0.1v-5.5c0,0,0.1-0.1,0.1-0.1V1043.9z"/>
	<path class="st5" d="M38.9,1086.9c0,0-0.1,0.1-0.1,0.1v-5.5c0,0,0.1-0.1,0.1-0.1V1086.9z"/>
	<path class="st5" d="M38.9,1130l-0.1,0.1v-5.5c0,0,0.1-0.1,0.1-0.1V1130z"/>
	<path class="st5" d="M38.9,1173.1c0,0-0.1,0.1-0.1,0.1v-5.4c0,0,0,0,0,0c0,0,0.1-0.1,0.1-0.1V1173.1z"/>
	<path class="st5" d="M38.9,1194.8c0,0-0.1,0.1-0.1,0.1v-5.3l0.2-0.2C38.9,1191.1,38.9,1192.9,38.9,1194.8z"/>
	<path class="st5" d="M38.9,1108.5l-0.1,0.1v-5.2c0.1-0.1,0.1-0.1,0.2-0.2C38.9,1104.9,38.9,1106.7,38.9,1108.5z"/>
	<path class="st5" d="M38.9,1065.3c0,0-0.1,0.1-0.1,0.1v-5.3c0.1-0.1,0.1-0.1,0.2-0.2C38.9,1061.7,38.9,1063.5,38.9,1065.3z"/>
	<path class="st5" d="M38.9,914.4c0,0-0.1,0.1-0.1,0.1v-5.2c0.1-0.1,0.1-0.1,0.2-0.2C38.9,910.8,38.9,912.6,38.9,914.4z"/>
	<path class="st5" d="M38.9,871.3c0,0-0.1,0.1-0.1,0.1V866c0.1-0.1,0.1-0.1,0.2-0.2C38.9,867.7,38.9,869.5,38.9,871.3z"/>
	<path class="st5" d="M38.9,828.1c0,0-0.1,0.1-0.1,0.1v-5.3c0.1-0.1,0.1-0.1,0.2-0.2C38.9,824.5,38.9,826.3,38.9,828.1z"/>
	<path class="st5" d="M38.9,741.9c0,0-0.1,0.1-0.1,0.1v-5.4c0.1,0,0.1-0.1,0.2-0.2C38.9,738.3,38.9,740.1,38.9,741.9z"/>
	<path class="st5" d="M38.9,720.3c0,0-0.1,0.1-0.1,0.1v-5.2c0.1-0.1,0.1-0.1,0.2-0.2C38.9,716.7,38.9,718.5,38.9,720.3z"/>
	<path class="st5" d="M39,1022.2l-0.2,0.2v-5.4c0.1-0.1,0.1-0.1,0.2-0.2V1022.2z"/>
	<path class="st5" d="M39,1216.3c-0.1,0.1-0.1,0.1-0.2,0.2v-5.4c0.1-0.1,0.1-0.1,0.2-0.2V1216.3z"/>
	<path class="st5" d="M39,1237.8c-0.1,0.1-0.1,0.1-0.2,0.2v-5.5c0.1-0.1,0.1-0.1,0.2-0.2V1237.8z"/>
	<path class="st6" d="M38.8,1254.2c0.1,0,0.1-0.1,0.2-0.1"/>
	<path class="st3" d="M38.9,758.1v5.4l-0.1,0.1c-6.5,6.4-12.8,12.7-19.3,19.1c-5.1,5.1-10.2,10.2-15.3,15.3c-0.6,0.6-1.4,1-2.1,1.5
		v-5c9.2-9.1,18.3-18.2,27.5-27.3c3.1-3.1,6.1-6,9.2-9C38.8,758.1,38.9,758.1,38.9,758.1z"/>
	<path class="st3" d="M38.9,779.5v5.4c0,0-0.1,0.1-0.1,0.1c-11.5,11.5-22.9,22.8-34.5,34.3c-0.6,0.6-1.5,0.9-2.2,1.4v-5
		c0.7-0.5,1.5-1,2.1-1.6c11-10.9,21.9-21.9,32.9-32.9c0.6-0.6,1.1-1,1.7-1.6L38.9,779.5z"/>
	<path class="st3" d="M38.9,806.6c0,0-0.1,0.1-0.1,0.1c-9.2,9.1-18.2,18.1-27.4,27.2c-2.6,2.6-5.2,5.3-7.9,7.9
		c-0.4,0.4-1,0.6-1.5,0.8v-5c3.8-3.8,7.7-7.5,11.5-11.3c8.5-8.4,16.9-16.7,25.3-25.1C38.9,803,38.9,804.8,38.9,806.6z"/>
	<path class="st3" d="M38.9,844.3v5.4l-0.1,0.1c-9,9-18,17.8-27,26.8l-8.1,8.1c-0.4,0.4-1.1,0.6-1.6,0.9v-5c0.7-0.6,1.4-1.1,2.1-1.8
		C15.1,867.9,26,857,36.9,846.1c0.6-0.6,1.3-1.1,1.9-1.7C38.8,844.3,38.9,844.3,38.9,844.3z"/>
	<path class="st3" d="M38.9,887.4v5.5c0,0-0.1,0.1-0.1,0.1c-7.7,7.6-15.2,15.1-22.9,22.6c-4,3.9-7.9,7.9-11.9,11.8
		c-0.6,0.5-1.4,0.9-2,1.3c0.1-1.7,0.1-3.4,0.1-5c0.8-0.6,1.6-1.2,2.3-1.9c11-11,21.9-21.9,32.9-32.9c0.5-0.5,1-0.9,1.5-1.4
		C38.8,887.4,38.9,887.4,38.9,887.4z"/>
	<path class="st3" d="M38.9,936l-0.1,0.1c-9.1,9-18.1,17.9-27.2,27c-2.6,2.6-5.2,5.3-7.9,7.9c-0.4,0.4-1.1,0.6-1.7,0.8v-5
		c0.7-0.5,1.5-1,2.1-1.7L37,932.2c0.6-0.6,1.2-1.1,1.8-1.7C38.9,932.4,38.9,934.2,38.9,936z"/>
	<path class="st3" d="M38.9,957.6c0,0-0.1,0.1-0.1,0.1c-6.4,6.3-12.7,12.5-19.1,18.9c-5.2,5.2-10.4,10.4-15.6,15.5
		c-0.6,0.6-1.4,1-2.1,1.5v-5c10.3-10.3,20.7-20.6,31-30.8c1.9-1.9,3.9-3.7,5.8-5.6C38.9,953.9,38.9,955.7,38.9,957.6z"/>
	<path class="st3" d="M38.9,973.6v5.4l-0.1,0.1c-11.5,11.5-22.9,22.8-34.5,34.3c-0.6,0.6-1.5,0.9-2.2,1.4v-5c0.7-0.5,1.5-1,2.1-1.6
		c11-10.9,21.9-21.9,32.9-32.9c0.6-0.6,1.1-1,1.7-1.6C38.8,973.6,38.9,973.6,38.9,973.6z"/>
	<path class="st3" d="M38.9,995.4v5.3l-0.1,0.1c-8.9,8.8-17.7,17.5-26.6,26.4l-8.7,8.7c-0.4,0.4-1,0.5-1.5,0.8v-5
		c7.1-7,14.1-14,21.2-20.9c5.2-5.1,10.3-10.2,15.6-15.3C38.8,995.4,38.9,995.4,38.9,995.4z"/>
	<path class="st3" d="M38.9,1038.4v5.5c0,0-0.1,0.1-0.1,0.1c-7.1,7-14,13.9-21.1,20.9c-4.6,4.5-9.1,9.1-13.6,13.6
		c-0.6,0.6-1.3,0.9-2,1.3v-5.1c3.8-3.7,7.6-7.3,11.3-11c8.5-8.4,16.9-16.8,25.4-25.2C38.8,1038.4,38.9,1038.4,38.9,1038.4z"/>
	<path class="st3" d="M38.9,1081.4v5.5c0,0-0.1,0.1-0.1,0.1c-8.4,8.3-16.7,16.5-25,24.8c-3.3,3.3-6.6,6.6-9.9,9.8
		c-0.5,0.5-1.2,0.7-1.8,1.1v-5c0.8-0.6,1.6-1.2,2.3-1.9c10.8-10.8,21.7-21.6,32.5-32.5c0.6-0.6,1.3-1.1,1.9-1.8
		C38.8,1081.4,38.9,1081.4,38.9,1081.4z"/>
	<path class="st3" d="M39,736.4c-0.1,1.9-0.1,3.7-0.1,5.5c0,0-0.1,0.1-0.1,0.1c-8.6,8.6-17.1,17-25.8,25.6c-3,3-6,6.1-9.1,9
		c-0.5,0.5-1.2,0.7-1.8,1v-5c0.8-0.6,1.6-1.2,2.3-1.8c11-11,22.1-22.1,33.1-33.1c0.4-0.4,0.9-0.7,1.3-1.1
		C38.9,736.5,38.9,736.4,39,736.4z"/>
	<path class="st3" d="M38.9,1124.5v5.5l-0.1,0.1c-9.8,9.7-19.4,19.3-29.2,29l-6.1,6.1c-0.4,0.3-1,0.4-1.4,0.6v-5
		c0.8-0.6,1.6-1.2,2.3-1.9c10.8-10.8,21.7-21.7,32.5-32.5c0.7-0.6,1.3-1.1,1.9-1.8C38.8,1124.5,38.9,1124.5,38.9,1124.5z"/>
	<path class="st3" d="M38.9,1151.6c0,0-0.1,0.1-0.1,0.1c-8.2,8.2-16.4,16.2-24.6,24.4c-3.4,3.4-6.8,6.8-10.3,10.2
		c-0.5,0.5-1.2,0.9-1.9,1.3v-5c10.5-10.4,21-20.8,31.4-31.2c1.8-1.8,3.6-3.5,5.4-5.2C38.9,1148,38.9,1149.8,38.9,1151.6z"/>
	<path class="st3" d="M38.9,1167.7v5.4c0,0-0.1,0.1-0.1,0.1c-11.5,11.5-22.9,22.8-34.5,34.3c-0.6,0.6-1.5,0.9-2.2,1.4v-5
		c0.8-0.6,1.6-1.1,2.3-1.8c10.8-10.8,21.7-21.6,32.5-32.5c0.7-0.6,1.3-1.1,1.9-1.8c0,0,0,0,0,0C38.8,1167.7,38.9,1167.7,38.9,1167.7
		z"/>
	<path class="st3" d="M39,1189.4c-0.1,1.7-0.1,3.5-0.1,5.4c0,0-0.1,0.1-0.1,0.1c-6.9,6.9-13.8,13.6-20.7,20.5
		c-4.7,4.7-9.5,9.5-14.2,14.2c-0.5,0.5-1.2,0.8-1.8,1.2v-5c7.3-7.2,14.6-14.5,22-21.7c4.9-4.8,9.8-9.7,14.7-14.5L39,1189.4z"/>
	<path class="st3" d="M39,1232.3v5.5c-0.1,0.1-0.1,0.1-0.2,0.2c-7.2,7.1-14.4,14.3-21.6,21.4c-4.4,4.3-8.7,8.7-13,13
		c-0.6,0.6-1.3,0.9-2,1.3c-0.1-1.6-0.1-3.3-0.1-5c5.6-5.5,11.1-10.9,16.7-16.4c6.6-6.5,13.4-13.2,20-19.8
		C38.9,1232.4,38.9,1232.3,39,1232.3z"/>
	<path class="st3" d="M39,1210.9v5.4c-0.1,0.1-0.1,0.1-0.2,0.2c-11.4,11.3-22.8,22.7-34.2,34c-0.7,0.7-1.6,1-2.4,1.5
		c-0.1-1.7-0.1-3.4-0.1-5.1c0.8-0.6,1.6-1.1,2.3-1.7c10.8-10.8,21.7-21.6,32.5-32.5c0.5-0.5,1.3-1.1,1.9-1.6
		C38.9,1211,38.9,1210.9,39,1210.9z"/>
	<path class="st3" d="M39,909.1c-0.1,1.7-0.1,3.5-0.1,5.3c0,0-0.1,0.1-0.1,0.1c-11.5,11.5-22.9,22.8-34.5,34.3
		c-0.6,0.6-1.5,0.8-2.2,1.2v-4.5c11.6-11.5,23.2-23.1,34.8-34.6c0.6-0.5,1.3-1.1,1.9-1.6C38.9,909.2,38.9,909.1,39,909.1z"/>
	<path class="st3" d="M39,1103.2c-0.1,1.7-0.1,3.5-0.1,5.3l-0.1,0.1c-11.5,11.5-22.9,22.8-34.5,34.3c-0.6,0.6-1.5,0.8-2.2,1.2v-4.5
		c11.6-11.5,23.2-23.1,34.8-34.6c0.6-0.5,1.3-1.1,1.9-1.6C38.9,1103.3,38.9,1103.2,39,1103.2z"/>
	<path class="st3" d="M39,865.9c-0.1,1.8-0.1,3.6-0.1,5.4c0,0-0.1,0.1-0.1,0.1c-11.5,11.5-22.9,22.8-34.5,34.3
		c-0.6,0.6-1.5,0.8-2.2,1.2v-4.5c11.6-11.6,23.2-23.1,34.8-34.7c0.6-0.5,1.3-1.1,1.9-1.6C38.9,866,38.9,865.9,39,865.9z"/>
	<path class="st3" d="M39,1016.8v5.4l-0.2,0.2c-11.4,11.4-22.9,22.8-34.4,34.2c-0.6,0.6-1.5,0.9-2.2,1.3c-0.1-1.5-0.1-3-0.1-4.5
		c11.6-11.6,23.2-23.2,34.8-34.8c0.6-0.6,1.3-1.1,1.9-1.6C38.9,1016.9,38.9,1016.8,39,1016.8z"/>
	<path class="st3" d="M39,822.7c-0.1,1.8-0.1,3.6-0.1,5.4c0,0-0.1,0.1-0.1,0.1C27.3,839.6,15.9,851,4.3,862.5
		c-0.6,0.6-1.5,0.9-2.2,1.3v-4.5l34.8-34.8c0.6-0.6,1.3-1.1,1.9-1.6C38.9,822.8,38.9,822.7,39,822.7z"/>
	<path class="st3" d="M39,1059.9c-0.1,1.8-0.1,3.6-0.1,5.4c0,0-0.1,0.1-0.1,0.1c-11.5,11.5-22.9,22.8-34.5,34.3
		c-0.6,0.6-1.5,0.8-2.2,1.2v-4.5c11.6-11.6,23.2-23.1,34.8-34.7c0.6-0.5,1.3-1.1,1.9-1.6C38.9,1060,38.9,1059.9,39,1059.9z"/>
	<path class="st3" d="M39,715c-0.1,1.7-0.1,3.5-0.1,5.3c0,0-0.1,0.1-0.1,0.1c-11.5,11.5-22.9,22.8-34.5,34.3
		c-0.6,0.6-1.5,0.8-2.2,1.2v-4.5c11.5-11.5,23.1-23,34.6-34.4c0.6-0.6,1.4-1.3,2.1-1.8C38.9,715.1,38.9,715,39,715z"/>
	<path class="st3" d="M69.7,1293.3h-5.4c0.7-0.8,1.2-1.4,1.7-1.9l34.3-34.3c0.6-0.6,1-1.2,1.5-1.7L69.7,1293.3z"/>
	<path class="st3" d="M40.7,1279.2L40.7,1279.2z"/>
	<polygon class="st4" points="-36,434 -36,925 -12.9,920.4 -4,915.4 72.7,843.4 75.3,760.7 75.3,301.4 -18.7,301.4 -18.7,429.5 	"/>
	<path class="st5" d="M188,1255.6c1.8-0.1,3.6-0.2,5.5-0.2C191.7,1255.5,189.9,1255.6,188,1255.6z"/>
	<path class="st5" d="M231.2,1255.6c1.8-0.1,3.6-0.2,5.4-0.2C234.8,1255.5,233,1255.6,231.2,1255.6z"/>
	<path class="st5" d="M317.4,1255.4h5.5l-0.6,0.6C320.8,1255.4,319.2,1255.4,317.4,1255.4z"/>
	<path class="st5" d="M339,1255.4h5.5c-0.2,0.2-0.5,0.5-0.7,0.7h-5.4C338.6,1255.8,338.8,1255.6,339,1255.4z"/>
	<path class="st5" d="M360.6,1255.4h5.5c-0.2,0.2-0.5,0.5-0.7,0.7h-5.5C360.1,1255.8,360.4,1255.6,360.6,1255.4z"/>
	<path class="st5" d="M382.1,1255.6c1.8-0.1,3.6-0.2,5.5-0.2c-0.2,0.2-0.5,0.5-0.7,0.7c-1.6,0.1-3.2,0.2-4.9,0.2c-0.2,0-0.4,0-0.6,0
		L382.1,1255.6z"/>
	<path class="st5" d="M403.7,1255.4h5.5c-0.2,0.2-0.5,0.5-0.7,0.7H403C403.3,1255.8,403.5,1255.6,403.7,1255.4z"/>
	<path class="st5" d="M425.2,1255.6c1.8-0.1,3.6-0.2,5.4-0.2c-0.3,0.3-0.5,0.5-0.7,0.7c-1.6,0.1-3.1,0.2-4.7,0.2c-0.2,0-0.5,0-0.7,0
		C424.7,1256,425,1255.8,425.2,1255.6z"/>
	<path class="st5" d="M446.8,1255.4h5.5c-0.2,0.2-0.5,0.5-0.7,0.7h-5.4C446.4,1255.8,446.6,1255.6,446.8,1255.4z"/>
	<path class="st5" d="M468.4,1255.4h5.4c-0.2,0.2-0.5,0.5-0.7,0.7h-5.4C467.9,1255.8,468.2,1255.6,468.4,1255.4z"/>
	<path class="st5" d="M489.9,1255.4h5.5c-0.2,0.2-0.5,0.5-0.7,0.7h-5.5C489.5,1255.8,489.7,1255.6,489.9,1255.4z"/>
	<path class="st5" d="M511.5,1255.4h5.5l-0.7,0.7h-5.5C511,1255.8,511.3,1255.6,511.5,1255.4z"/>
	<path class="st5" d="M533,1255.4h5.4c-0.2,0.2-0.5,0.5-0.7,0.7h-5.3C532.7,1255.8,532.8,1255.6,533,1255.4z"/>
	<path class="st5" d="M560.1,1255.4c-0.2,0.2-0.5,0.5-0.7,0.7H554c0.2-0.2,0.4-0.5,0.6-0.7H560.1z"/>
	<path class="st3" d="M366.1,1255.4c-0.2,0.2-0.5,0.5-0.7,0.7c-12.5,12.3-24.9,24.5-37.9,37.2h-4.6c0.9-1,1.6-1.6,2.2-2.3
		c11.2-11.2,22.4-22.4,33.5-33.6c0.5-0.4,0.9-0.8,1.3-1.3c0.2-0.2,0.4-0.5,0.7-0.7H366.1z"/>
	<path class="st3" d="M128.9,1255.4c-9.6,9.7-19.3,19.4-28.9,29.1c-2.9,2.9-5.8,5.8-8.7,8.8h-5.5c0.9-0.9,1.5-1.6,2.2-2.3
		c11.2-11.2,22.4-22.4,33.5-33.5c0.7-0.7,1.3-1.4,1.9-2.1H128.9z"/>
	<path class="st3" d="M150.4,1255.4c-8.8,8.9-17.7,17.8-26.5,26.7c-3.7,3.8-7.5,7.5-11.1,11.2h-5.4c0.8-0.9,1.4-1.5,2-2.1l34.1-34.1
		c0.5-0.6,0.9-1.2,1.4-1.7H150.4z"/>
	<path class="st3" d="M172,1255.4c-11.5,11.6-23.1,23.2-34.6,34.8c-1,1.1-2,2.2-2.8,3.1h-5.7c0.9-1,1.6-1.6,2.3-2.3
		c11.1-11.1,22.2-22.2,33.3-33.4c0.7-0.7,1.3-1.4,2-2.2H172z"/>
	<path class="st3" d="M560.1,1255.4c-0.2,0.2-0.5,0.5-0.7,0.7c-11.3,11.3-22.4,22.6-33.7,33.9c-1.1,1.1-2.1,2.3-3,3.3H517
		c0.9-1,1.6-1.6,2.3-2.3c11.2-11.2,22.4-22.4,33.5-33.5c0.4-0.5,0.8-0.9,1.2-1.4c0.2-0.2,0.4-0.5,0.6-0.7H560.1z"/>
	<path class="st3" d="M322.9,1255.4l-0.6,0.6c-9.7,9.8-19.4,19.5-29.1,29.3c-2.6,2.6-5.2,5.3-7.9,8h-5.5
		c12.7-12.8,25.2-25.4,37.6-37.9H322.9z"/>
	<path class="st3" d="M344.5,1255.4c-0.2,0.2-0.5,0.5-0.7,0.7c-8.6,8.7-17.2,17.3-25.8,26c-3.7,3.8-7.5,7.5-11.1,11.2h-5.3
		c0.7-0.8,1.2-1.4,1.7-1.9c11.4-11.4,22.8-22.8,34.1-34.1c0.3-0.4,0.6-0.8,1-1.2c0.2-0.2,0.4-0.5,0.6-0.7H344.5z"/>
	<path class="st3" d="M517,1255.4l-0.7,0.7c-8.2,8.2-16.3,16.4-24.4,24.6c-4.2,4.2-8.4,8.5-12.4,12.6H474
		c12.4-12.6,24.6-24.9,36.8-37.2c0.2-0.2,0.5-0.5,0.7-0.7H517z"/>
	<path class="st3" d="M538.4,1255.4c-0.2,0.2-0.5,0.5-0.7,0.7c-8.8,8.8-17.4,17.6-26.2,26.4c-3.6,3.6-7.2,7.3-10.7,10.8h-5.4
		c0.8-0.9,1.4-1.5,2-2.1l34.1-34.1c0.3-0.4,0.7-0.7,1-1c0.2-0.2,0.4-0.5,0.5-0.7H538.4z"/>
	<path class="st3" d="M101.8,1255.4h5.5c-9,9-17.9,18.1-26.9,27.1c-3.6,3.6-7.2,7.3-10.7,10.8L101.8,1255.4z"/>
	<path class="st3" d="M40.7,1279.2c-4.7,4.8-9.4,9.5-14.1,14.2h-5.3c0.7-0.8,1.2-1.4,1.7-1.9c11.4-11.4,22.8-22.8,34.1-34.1
		c0.5-0.7,1-1.4,1.6-2h5.5C56.4,1263.3,48.5,1271.2,40.7,1279.2L40.7,1279.2z"/>
	<path class="st3" d="M215.1,1255.4c-11.4,11.5-22.8,22.9-34.2,34.4c-1.2,1.2-2.3,2.4-3.2,3.5H172c0.9-1,1.6-1.6,2.3-2.3
		c11.1-11.1,22.2-22.2,33.3-33.4c0.7-0.7,1.3-1.5,2-2.2H215.1z"/>
	<path class="st3" d="M258.2,1255.4c-9.5,9.6-19,19.1-28.5,28.7c-3.1,3.1-6.1,6.2-9.1,9.2h-5.3c0.6-0.7,1-1.3,1.5-1.7
		c11.3-11.3,22.6-22.6,33.9-34c0.7-0.7,1.4-1.5,2-2.2H258.2z"/>
	<path class="st3" d="M301.4,1255.4c-9.2,9.2-18.3,18.5-27.5,27.7c-3.4,3.4-6.8,6.9-10.1,10.2h-5.4c0.7-0.8,1.2-1.4,1.7-1.9
		c11.4-11.4,22.8-22.8,34.1-34.1c0.6-0.6,1.1-1.3,1.7-1.9H301.4z"/>
	<path class="st3" d="M409.2,1255.4c-0.2,0.2-0.5,0.5-0.7,0.7c-11.2,11.3-22.3,22.4-33.5,33.7c-1.2,1.2-2.3,2.4-3.3,3.5H366
		c0.9-1,1.6-1.6,2.3-2.3c11.1-11.1,22.2-22.2,33.3-33.4c0.5-0.5,1-1,1.4-1.5c0.2-0.2,0.4-0.5,0.7-0.7H409.2z"/>
	<path class="st3" d="M452.3,1255.4c-0.2,0.2-0.5,0.5-0.7,0.7c-11,11.1-21.9,22-32.9,33.1c-1.4,1.4-2.7,2.8-3.9,4.1h-5.4
		c0.6-0.7,1-1.2,1.5-1.7c11.2-11.2,22.4-22.4,33.5-33.6c0.6-0.6,1.2-1.2,1.8-1.9c0.2-0.2,0.4-0.5,0.6-0.7H452.3z"/>
	<path class="st3" d="M495.4,1255.4c-0.2,0.2-0.5,0.5-0.7,0.7c-9,9-17.8,18-26.8,27c-3.4,3.4-6.8,6.8-10.2,10.2h-5.2
		c0.6-0.7,1-1.3,1.5-1.7c11.3-11.3,22.6-22.6,33.9-33.9c0.5-0.5,0.9-1.1,1.3-1.6c0.2-0.2,0.4-0.5,0.7-0.7H495.4z"/>
	<path class="st3" d="M193.5,1255.4c-4.8,4.9-9.6,9.8-14.5,14.7c-7.7,7.8-15.5,15.6-23.1,23.2h-5.6c12.8-12.8,25.3-25.2,37.7-37.7
		C189.8,1255.5,191.6,1255.4,193.5,1255.4z"/>
	<path class="st3" d="M387.6,1255.4c-0.2,0.2-0.5,0.5-0.7,0.7c-8.6,8.7-17.2,17.3-25.8,26c-3.7,3.8-7.4,7.6-11,11.2h-5.7
		c12.6-12.6,24.8-24.8,37-37l0.7-0.7C383.9,1255.5,385.7,1255.4,387.6,1255.4z"/>
	<path class="st3" d="M236.6,1255.4c-8.6,8.6-17.1,17.3-25.7,26c-4,4-8,8.1-11.7,12h-5.6c12.7-12.9,25.1-25.3,37.6-37.8
		C233,1255.5,234.8,1255.4,236.6,1255.4z"/>
	<path class="st3" d="M279.7,1255.4c-5,5-9.9,10.1-14.9,15.1c-7.6,7.7-15.2,15.3-22.7,22.8h-5.5c12.8-12.8,25.3-25.4,37.7-37.9
		H279.7z"/>
	<path class="st3" d="M85.7,1255.4c-5.1,5.2-10.2,10.3-15.3,15.5c-7.5,7.5-15,15-22.4,22.5h-5.4c12.8-12.9,25.2-25.5,37.7-38H85.7z"
		/>
	<path class="st3" d="M430.6,1255.4c-0.3,0.3-0.5,0.5-0.7,0.7c-8.4,8.4-16.6,16.8-25,25.2c-4,4-8,8.1-11.8,12h-5.6
		c12.7-12.6,24.8-24.7,37-37c0.2-0.2,0.4-0.5,0.7-0.7C427,1255.5,428.8,1255.4,430.6,1255.4z"/>
	<path class="st3" d="M473.8,1255.4c-0.2,0.2-0.5,0.5-0.7,0.7c-4.4,4.4-8.6,8.8-13,13.2c-8,8-16,16.1-23.9,24h-5.4
		c12.5-12.6,24.6-24.9,36.9-37.2c0.2-0.2,0.5-0.5,0.7-0.7H473.8z"/>
	<path class="st6" d="M66,1291.4l34.3-34.3"/>
	<path class="st3" d="M541.5,1293.3h-5.4c0.7-0.8,1.2-1.4,1.7-1.9l34.3-34.3c0.6-0.6,1-1.2,1.5-1.7L541.5,1293.3z"/>
	<path class="st5" d="M659.8,1255.6c1.8-0.1,3.6-0.2,5.5-0.2C663.5,1255.5,661.7,1255.6,659.8,1255.6z"/>
	<path class="st5" d="M703,1255.6c1.8-0.1,3.6-0.2,5.4-0.2C706.6,1255.5,704.8,1255.6,703,1255.6z"/>
	<path class="st5" d="M789.2,1255.4h5.5l-0.6,0.6C792.6,1255.4,791,1255.4,789.2,1255.4z"/>
	<path class="st5" d="M810.8,1255.4h5.5c-0.2,0.2-0.5,0.5-0.7,0.7h-5.4C810.4,1255.8,810.6,1255.6,810.8,1255.4z"/>
	<path class="st5" d="M832.4,1255.4h5.5c-0.2,0.2-0.5,0.5-0.7,0.7h-5.5C832,1255.8,832.2,1255.6,832.4,1255.4z"/>
	<path class="st5" d="M853.9,1255.6c1.8-0.1,3.6-0.2,5.5-0.2c-0.2,0.2-0.5,0.5-0.7,0.7c-1.6,0.1-3.2,0.2-4.9,0.2c-0.2,0-0.4,0-0.6,0
		L853.9,1255.6z"/>
	<path class="st5" d="M875.5,1255.4h5.5c-0.2,0.2-0.5,0.5-0.7,0.7h-5.5C875.1,1255.8,875.3,1255.6,875.5,1255.4z"/>
	<path class="st5" d="M897,1255.6c1.8-0.1,3.6-0.2,5.4-0.2c-0.3,0.3-0.5,0.5-0.7,0.7c-1.6,0.1-3.1,0.2-4.7,0.2c-0.2,0-0.5,0-0.7,0
		C896.5,1256,896.8,1255.8,897,1255.6z"/>
	<path class="st5" d="M918.6,1255.4h5.5c-0.2,0.2-0.5,0.5-0.7,0.7H918C918.2,1255.8,918.4,1255.6,918.6,1255.4z"/>
	<path class="st5" d="M940.2,1255.4h5.4c-0.2,0.2-0.5,0.5-0.7,0.7h-5.4C939.7,1255.8,940,1255.6,940.2,1255.4z"/>
	<path class="st5" d="M961.7,1255.4h5.5c-0.2,0.2-0.5,0.5-0.7,0.7h-5.5C961.3,1255.8,961.5,1255.6,961.7,1255.4z"/>
	<path class="st5" d="M983.3,1255.4h5.5l-0.7,0.7h-5.5C982.8,1255.8,983.1,1255.6,983.3,1255.4z"/>
	<path class="st5" d="M1004.8,1255.4h5.4c-0.2,0.2-0.5,0.5-0.7,0.7h-5.3C1004.5,1255.8,1004.7,1255.6,1004.8,1255.4z"/>
	<path class="st5" d="M1031.9,1255.4c-0.2,0.2-0.5,0.5-0.7,0.7h-5.4c0.2-0.2,0.4-0.5,0.6-0.7H1031.9z"/>
	<path class="st3" d="M837.9,1255.4c-0.2,0.2-0.5,0.5-0.7,0.7c-12.5,12.3-24.9,24.5-37.9,37.2h-4.6c0.9-1,1.6-1.6,2.2-2.3
		c11.2-11.2,22.4-22.4,33.5-33.6c0.5-0.4,0.9-0.8,1.3-1.3c0.2-0.2,0.4-0.5,0.7-0.7H837.9z"/>
	<path class="st3" d="M600.7,1255.4c-9.6,9.7-19.3,19.4-28.9,29.1c-2.9,2.9-5.8,5.8-8.7,8.8h-5.5c0.9-0.9,1.5-1.6,2.2-2.3
		c11.2-11.2,22.4-22.4,33.5-33.5c0.7-0.7,1.3-1.4,1.9-2.1H600.7z"/>
	<path class="st3" d="M622.2,1255.4c-8.8,8.9-17.7,17.8-26.5,26.7c-3.7,3.8-7.5,7.5-11.1,11.2h-5.4c0.8-0.9,1.4-1.5,2-2.1l34.1-34.1
		c0.5-0.6,0.9-1.2,1.4-1.7H622.2z"/>
	<path class="st3" d="M643.8,1255.4c-11.5,11.6-23.1,23.2-34.6,34.8c-1,1.1-2,2.2-2.8,3.1h-5.7c0.9-1,1.6-1.6,2.3-2.3
		c11.1-11.1,22.2-22.2,33.3-33.4c0.7-0.7,1.3-1.4,2-2.2H643.8z"/>
	<path class="st3" d="M1031.9,1255.4c-0.2,0.2-0.5,0.5-0.7,0.7c-11.3,11.3-22.4,22.6-33.7,33.9c-1.1,1.1-2.1,2.3-3,3.3h-5.7
		c0.9-1,1.6-1.6,2.3-2.3c11.2-11.2,22.4-22.4,33.5-33.5c0.4-0.5,0.8-0.9,1.2-1.4c0.2-0.2,0.4-0.5,0.6-0.7H1031.9z"/>
	<path class="st3" d="M794.7,1255.4l-0.6,0.6c-9.7,9.8-19.4,19.5-29.1,29.3c-2.6,2.6-5.2,5.3-7.9,8h-5.5
		c12.7-12.8,25.2-25.4,37.6-37.9H794.7z"/>
	<path class="st3" d="M816.3,1255.4c-0.2,0.2-0.5,0.5-0.7,0.7c-8.6,8.7-17.2,17.3-25.8,26c-3.7,3.8-7.5,7.5-11.1,11.2h-5.3
		c0.7-0.8,1.2-1.4,1.7-1.9c11.4-11.4,22.8-22.8,34.1-34.1c0.3-0.4,0.6-0.8,1-1.2c0.2-0.2,0.4-0.5,0.6-0.7H816.3z"/>
	<path class="st3" d="M988.8,1255.4l-0.7,0.7c-8.2,8.2-16.3,16.4-24.4,24.6c-4.2,4.2-8.4,8.5-12.4,12.6h-5.5
		c12.4-12.6,24.6-24.9,36.8-37.2c0.2-0.2,0.5-0.5,0.7-0.7H988.8z"/>
	<path class="st3" d="M1010.2,1255.4c-0.2,0.2-0.5,0.5-0.7,0.7c-8.8,8.8-17.4,17.6-26.2,26.4c-3.6,3.6-7.2,7.3-10.7,10.8h-5.4
		c0.8-0.9,1.4-1.5,2-2.1l34.1-34.1c0.3-0.4,0.7-0.7,1-1c0.2-0.2,0.4-0.5,0.5-0.7H1010.2z"/>
	<path class="st3" d="M573.6,1255.4h5.5c-9,9-17.9,18.1-26.9,27.1c-3.6,3.6-7.2,7.3-10.7,10.8L573.6,1255.4z"/>
	<path class="st3" d="M686.9,1255.4c-11.4,11.5-22.8,22.9-34.2,34.4c-1.2,1.2-2.3,2.4-3.2,3.5h-5.7c0.9-1,1.6-1.6,2.3-2.3
		c11.1-11.1,22.2-22.2,33.3-33.4c0.7-0.7,1.3-1.5,2-2.2H686.9z"/>
	<path class="st3" d="M730,1255.4c-9.5,9.6-19,19.1-28.5,28.7c-3.1,3.1-6.1,6.2-9.1,9.2h-5.3c0.6-0.7,1-1.3,1.5-1.7
		c11.3-11.3,22.6-22.6,33.9-34c0.7-0.7,1.4-1.5,2-2.2H730z"/>
	<path class="st3" d="M773.2,1255.4c-9.2,9.2-18.3,18.5-27.5,27.7c-3.4,3.4-6.8,6.9-10.1,10.2h-5.4c0.7-0.8,1.2-1.4,1.7-1.9
		c11.4-11.4,22.8-22.8,34.1-34.1c0.6-0.6,1.1-1.3,1.7-1.9H773.2z"/>
	<path class="st3" d="M881,1255.4c-0.2,0.2-0.5,0.5-0.7,0.7c-11.2,11.3-22.3,22.4-33.5,33.7c-1.2,1.2-2.3,2.4-3.3,3.5h-5.7
		c0.9-1,1.6-1.6,2.3-2.3c11.1-11.1,22.2-22.2,33.3-33.4c0.5-0.5,1-1,1.4-1.5c0.2-0.2,0.4-0.5,0.7-0.7H881z"/>
	<path class="st3" d="M924.1,1255.4c-0.2,0.2-0.5,0.5-0.7,0.7c-11,11.1-21.9,22-32.9,33.1c-1.4,1.4-2.7,2.8-3.9,4.1h-5.4
		c0.6-0.7,1-1.2,1.5-1.7c11.2-11.2,22.4-22.4,33.5-33.6c0.6-0.6,1.2-1.2,1.8-1.9c0.2-0.2,0.4-0.5,0.6-0.7H924.1z"/>
	<path class="st3" d="M967.2,1255.4c-0.2,0.2-0.5,0.5-0.7,0.7c-9,9-17.8,18-26.8,27c-3.4,3.4-6.8,6.8-10.2,10.2h-5.2
		c0.6-0.7,1-1.3,1.5-1.7c11.3-11.3,22.6-22.6,33.9-33.9c0.5-0.5,0.9-1.1,1.3-1.6c0.2-0.2,0.4-0.5,0.7-0.7H967.2z"/>
	<path class="st3" d="M665.3,1255.4c-4.8,4.9-9.6,9.8-14.5,14.7c-7.7,7.8-15.5,15.6-23.1,23.2h-5.6c12.8-12.8,25.3-25.2,37.7-37.7
		C661.6,1255.5,663.4,1255.4,665.3,1255.4z"/>
	<path class="st3" d="M859.4,1255.4c-0.2,0.2-0.5,0.5-0.7,0.7c-8.6,8.7-17.2,17.3-25.8,26c-3.7,3.8-7.4,7.6-11,11.2h-5.7
		c12.6-12.6,24.8-24.8,37-37l0.7-0.7C855.7,1255.5,857.5,1255.4,859.4,1255.4z"/>
	<path class="st3" d="M708.4,1255.4c-8.6,8.6-17.1,17.3-25.7,26c-4,4-8,8.1-11.7,12h-5.6c12.7-12.9,25.1-25.3,37.6-37.8
		C704.8,1255.5,706.6,1255.4,708.4,1255.4z"/>
	<path class="st3" d="M751.5,1255.4c-5,5-9.9,10.1-14.9,15.1c-7.6,7.7-15.2,15.3-22.7,22.8h-5.5c12.8-12.8,25.3-25.4,37.7-37.9
		H751.5z"/>
	<path class="st3" d="M902.4,1255.4c-0.3,0.3-0.5,0.5-0.7,0.7c-8.4,8.4-16.6,16.8-25,25.2c-4,4-8,8.1-11.8,12h-5.6
		c12.7-12.6,24.8-24.7,37-37c0.2-0.2,0.4-0.5,0.7-0.7C898.8,1255.5,900.6,1255.4,902.4,1255.4z"/>
	<path class="st3" d="M945.6,1255.4c-0.2,0.2-0.5,0.5-0.7,0.7c-4.4,4.4-8.6,8.8-13,13.2c-8,8-16,16.1-23.9,24h-5.4
		c12.5-12.6,24.6-24.9,36.9-37.2c0.2-0.2,0.5-0.5,0.7-0.7H945.6z"/>
	<path class="st6" d="M537.8,1291.4l34.3-34.3"/>
	<polygon class="st5" points="41.2,1255 271.1,1255 299.5,1255.3 309.3,1255 347.6,1255 376.2,1255.3 385.8,1255 538.9,1255 
		537.9,1255.8 538.5,1256 566.3,1256 567.4,1255 577.2,1255 576,1256 604.5,1256 605.8,1255 615.5,1255 614.3,1256 615.2,1256 
		642.7,1256.3 643.9,1255.3 653.7,1255 652.4,1256 653.5,1256 681,1256 682.2,1255 692,1255 690.7,1256 691.8,1256 719.2,1256.3 
		720.4,1255.3 729.9,1255 728.7,1256 729.9,1256 757.6,1256 758.7,1255 768.4,1255 767.2,1256 795.8,1256 797,1255 806.6,1255 
		805.4,1256 834,1256 835.2,1255 844.9,1255 843.7,1256 872.3,1256 873.5,1255 883.2,1255 882,1256 910.6,1256 911.6,1255 
		921.2,1255 920,1256 948.9,1256 949.9,1255 959.7,1255 958.5,1256 1031.9,1256 1031.9,1241.9 51.2,1241.9 38.8,1255 	"/>
	<path class="st5" d="M51.8,1245.9L51.8,1245.9z"/>
	<path class="st5" d="M44.9,1255.4L44.9,1255.4z"/>
	<path class="st5" d="M50.7,193v1045.5l-11.5,9.7v-9.7c0.1-0.1,0.2-0.1,0.2-0.2v-5.3c-0.1,0.1-0.2,0.1-0.2,0.2v-15.5
		c0.1-0.1,0.2-0.1,0.2-0.2v-5.2c-0.1,0.1-0.2,0.1-0.2,0.2v-15.6c0,0,0.1-0.1,0.1-0.1c0-1.8,0-3.6,0.1-5.2l-0.2,0.2v-15.9
		c0,0,0.1-0.1,0.1-0.1v-5.2c0,0-0.1,0.1-0.1,0.1V1155c0,0,0.1-0.1,0.1-0.1c0-1.7,0-3.5-0.1-5.2v-15.6l0.1-0.1v-5.3
		c0,0-0.1,0.1-0.1,0.1v-15.5l0.1-0.1c0-1.8,0-3.5,0.1-5.1c-0.1,0.1-0.2,0.1-0.2,0.2v-15.8c0,0,0.1-0.1,0.1-0.1v-5.3
		c0,0-0.1,0.1-0.1,0.1v-15.6c0,0,0.1-0.1,0.1-0.1c0-1.7,0-3.5,0.1-5.2c-0.1,0.1-0.2,0.1-0.2,0.2v-15.5c0,0,0.1-0.1,0.1-0.1v-5.3
		c0,0-0.1,0.1-0.1,0.1V1030l0.2-0.2v-5.2c-0.1,0.1-0.2,0.1-0.2,0.2v-15.6l0.1-0.1v-5.1c0,0-0.1,0.1-0.1,0.1v-15.9l0.1-0.1v-5.2
		c0,0-0.1,0.1-0.1,0.1v-15.5c0,0,0.1-0.1,0.1-0.1c0-1.8,0-3.6-0.1-5.2v-15.6l0.1-0.1c0-1.7,0-3.5-0.1-5.3v-15.5c0,0,0.1-0.1,0.1-0.1
		c0-1.7,0-3.5,0.1-5.1c-0.1,0.1-0.2,0.1-0.2,0.2v-15.7c0,0,0.1-0.1,0.1-0.1v-5.3c0,0-0.1,0.1-0.1,0.1v-15.6c0,0,0.1-0.1,0.1-0.1
		c0-1.7,0-3.5,0.1-5.2c-0.1,0.1-0.2,0.1-0.2,0.2V863l0.1-0.1v-5.2c0,0-0.1,0.1-0.1,0.1v-15.7c0,0,0.1-0.1,0.1-0.1
		c0-1.7,0-3.5,0.1-5.2c-0.1,0.1-0.2,0.1-0.2,0.2v-15.6c0,0,0.1-0.1,0.1-0.1c0-1.7,0-3.5-0.1-5.2v-15.7c0,0,0.1-0.1,0.1-0.1V795
		l-0.1,0.1v-15.5l0.1-0.1v-5.2c0,0-0.1,0.1-0.1,0.1v-15.7c0,0,0.1-0.1,0.1-0.1c0-1.7,0-3.5,0.1-5.3c-0.1,0.1-0.2,0.1-0.2,0.2v-15.7
		c0,0,0.1-0.1,0.1-0.1c0-1.7,0-3.5,0.1-5.1c-0.1,0-0.2,0.1-0.2,0.1v-11.2c0.1-0.1,0.2-0.1,0.2-0.2V716c-0.1,0.1-0.2,0.1-0.2,0.2
		v-15.5c0.1-0.1,0.2-0.1,0.2-0.2v-5.2c-0.1,0.1-0.2,0.1-0.2,0.2v-15.6c0,0,0.1-0.1,0.1-0.1c0-1.8,0-3.6,0.1-5.2l-0.2,0.2v-15.9
		c0,0,0.1-0.1,0.1-0.1v-5.2c0,0-0.1,0.1-0.1,0.1V638c0,0,0.1-0.1,0.1-0.1c0-1.7,0-3.5-0.1-5.2v-15.6l0.1-0.1v-5.3
		c0,0-0.1,0.1-0.1,0.1v-15.5l0.1-0.1c0-1.8,0-3.5,0.1-5.1c-0.1,0.1-0.2,0.1-0.2,0.2v-15.8c0,0,0.1-0.1,0.1-0.1V570
		c0,0-0.1,0.1-0.1,0.1v-15.6c0,0,0.1-0.1,0.1-0.1c0-1.7,0-3.5,0.1-5.2c-0.1,0.1-0.2,0.1-0.2,0.2v-15.5c0,0,0.1-0.1,0.1-0.1v-5.3
		c0,0-0.1,0.1-0.1,0.1V513l0.2-0.2v-5.2c-0.1,0.1-0.2,0.1-0.2,0.2v-15.6l0.1-0.1v-5.1c0,0-0.1,0.1-0.1,0.1v-15.9l0.1-0.1v-5.2
		c0,0-0.1,0.1-0.1,0.1v-15.5c0,0,0.1-0.1,0.1-0.1c0-1.8,0-3.6-0.1-5.2v-15.6l0.1-0.1c0-1.7,0-3.5-0.1-5.3v-15.5c0,0,0.1-0.1,0.1-0.1
		c0-1.7,0-3.5,0.1-5.1c-0.1,0.1-0.2,0.1-0.2,0.2v-15.7c0,0,0.1-0.1,0.1-0.1v-5.3c0,0-0.1,0.1-0.1,0.1v-15.6c0,0,0.1-0.1,0.1-0.1
		c0-1.7,0-3.5,0.1-5.2c-0.1,0.1-0.2,0.1-0.2,0.2V346l0.1-0.1v-5.2c0,0-0.1,0.1-0.1,0.1v-15.7c0,0,0.1-0.1,0.1-0.1
		c0-1.7,0-3.5,0.1-5.2c-0.1,0.1-0.2,0.1-0.2,0.2v-15.6c0,0,0.1-0.1,0.1-0.1c0-1.7,0-3.5-0.1-5.2v-15.7c0,0,0.1-0.1,0.1-0.1V278
		l-0.1,0.1v-15.5l0.1-0.1v-5.2c0,0-0.1,0.1-0.1,0.1v-15.7c0,0,0.1-0.1,0.1-0.1c0-1.7,0-3.5,0.1-5.3c-0.1,0.1-0.2,0.1-0.2,0.2v-15.6
		c0,0,0.1-0.1,0.1-0.1c0-1.7,0-3.5,0.1-5.1c-0.1,0-0.2,0.1-0.2,0.1v-20.5c0-0.8,0-1.6,0.1-2.2H50.7z"/>
	<path class="st6" d="M39.2,679.8v15.6c0.1,0,0.2-0.1,0.2-0.2v5.2c-0.1,0.1-0.2,0.1-0.2,0.2v15.5c0.1-0.1,0.2-0.1,0.2-0.2v5.3
		c-0.1,0.1-0.2,0.1-0.2,0.2v11.2c0.1-0.1,0.2-0.1,0.2-0.1c-0.1,1.6-0.1,3.4-0.1,5.1c0,0-0.1,0.1-0.1,0.1v15.7c0.1,0,0.2-0.1,0.2-0.2
		c-0.1,1.8-0.1,3.6-0.1,5.3c0,0-0.1,0.1-0.1,0.1v15.7c0,0,0.1-0.1,0.1-0.1v5.2l-0.1,0.1v15.5l0.1-0.1v5.2c0,0-0.1,0.1-0.1,0.1V816
		c0.1,1.7,0.1,3.5,0.1,5.2c0,0-0.1,0.1-0.1,0.1v15.6c0.1-0.1,0.2-0.1,0.2-0.2c-0.1,1.7-0.1,3.5-0.1,5.2c0,0-0.1,0.1-0.1,0.1v15.7
		c0,0,0.1-0.1,0.1-0.1v5.2l-0.1,0.1v15.7c0.1-0.1,0.2-0.1,0.2-0.2c-0.1,1.7-0.1,3.5-0.1,5.2c0,0-0.1,0.1-0.1,0.1v15.6
		c0,0,0.1-0.1,0.1-0.1v5.3c0,0-0.1,0.1-0.1,0.1v15.7c0.1-0.1,0.2-0.1,0.2-0.2c-0.1,1.7-0.1,3.4-0.1,5.1c0,0-0.1,0.1-0.1,0.1v15.5
		c0.1,1.8,0.1,3.6,0.1,5.3l-0.1,0.1V962c0.1,1.6,0.1,3.4,0.1,5.2c0,0-0.1,0.1-0.1,0.1v15.5c0,0,0.1-0.1,0.1-0.1v5.2l-0.1,0.1v15.9
		c0,0,0.1-0.1,0.1-0.1v5.1l-0.1,0.1v15.6c0.1-0.1,0.2-0.1,0.2-0.2v5.2l-0.2,0.2v15.6c0,0,0.1-0.1,0.1-0.1v5.3c0,0-0.1,0.1-0.1,0.1
		v15.5c0.1-0.1,0.2-0.1,0.2-0.2c-0.1,1.7-0.1,3.5-0.1,5.2c0,0-0.1,0.1-0.1,0.1v15.6c0,0,0.1-0.1,0.1-0.1v5.3c0,0-0.1,0.1-0.1,0.1
		v15.8c0.1-0.1,0.2-0.1,0.2-0.2c-0.1,1.6-0.1,3.4-0.1,5.1l-0.1,0.1v15.5c0,0,0.1-0.1,0.1-0.1v5.3l-0.1,0.1v15.6
		c0.1,1.7,0.1,3.5,0.1,5.2c0,0-0.1,0.1-0.1,0.1v15.6c0,0,0.1-0.1,0.1-0.1v5.2c0,0-0.1,0.1-0.1,0.1v15.9l0.2-0.2
		c-0.1,1.7-0.1,3.4-0.1,5.2c0,0-0.1,0.1-0.1,0.1v15.6c0.1,0,0.2-0.1,0.2-0.2v5.2c-0.1,0.1-0.2,0.1-0.2,0.2v15.5
		c0.1-0.1,0.2-0.1,0.2-0.2v5.3c-0.1,0.1-0.2,0.1-0.2,0.2v9.7l-14.9,12.6l-47,34.3V645.4h61.9v8.3c0,0,0.1-0.1,0.1-0.1v5.2
		c0,0-0.1,0.1-0.1,0.1v15.9l0.2-0.2c-0.1,1.6-0.1,3.4-0.1,5.2C39.3,679.8,39.2,679.8,39.2,679.8z"/>
	<polygon class="st6" points="71,1221.4 50.7,1238.5 50.7,645.4 64.2,645.4 64.9,709.5 	"/>
	<path class="st5" d="M39.2,732.7c0.1-0.1,0.2-0.1,0.2-0.1c-0.1,1.6-0.1,3.4-0.1,5.1c0,0-0.1,0.1-0.1,0.1v0.6c0-0.1,0-1.3,0-1.3
		V732.7z"/>
	<path class="st5" d="M50.8,729.2L50.8,729.2l-0.1-4C50.7,725.7,50.8,728.5,50.8,729.2z"/>
	<path class="st5" d="M38.9,634.6c0,0-0.1,0.1-0.1,0.1v-5.5C38.9,631,38.9,632.8,38.9,634.6z"/>
	<path class="st5" d="M38.9,440.6c0,0-0.1,0.1-0.1,0.1v-5.5C38.9,436.9,38.9,438.7,38.9,440.6z"/>
	<path class="st5" d="M38.9,419l-0.1,0.1v-5.6C38.9,415.4,38.9,417.2,38.9,419z"/>
	<path class="st5" d="M38.9,289.6c0,0-0.1,0.1-0.1,0.1v-5.5C38.9,286,38.9,287.8,38.9,289.6z"/>
	<path class="st5" d="M38.9,246.5l-0.1,0.1v-5.4c0,0,0.1-0.1,0.1-0.1V246.5z"/>
	<path class="st5" d="M38.9,267.9c0,0-0.1,0.1-0.1,0.1v-5.4l0.1-0.1V267.9z"/>
	<path class="st5" d="M38.9,332.7l-0.1,0.1v-5.4c0,0,0.1-0.1,0.1-0.1V332.7z"/>
	<path class="st5" d="M38.9,375.9c0,0-0.1,0.1-0.1,0.1v-5.5c0,0,0.1-0.1,0.1-0.1V375.9z"/>
	<path class="st5" d="M38.9,462l-0.1,0.1v-5.4c0,0,0.1-0.1,0.1-0.1V462z"/>
	<path class="st5" d="M38.9,483.7l-0.1,0.1v-5.3c0,0,0.1-0.1,0.1-0.1V483.7z"/>
	<path class="st5" d="M38.9,526.9c0,0-0.1,0.1-0.1,0.1v-5.5c0,0,0.1-0.1,0.1-0.1V526.9z"/>
	<path class="st5" d="M38.9,569.9c0,0-0.1,0.1-0.1,0.1v-5.5c0,0,0.1-0.1,0.1-0.1V569.9z"/>
	<path class="st5" d="M38.9,613l-0.1,0.1v-5.5c0,0,0.1-0.1,0.1-0.1V613z"/>
	<path class="st5" d="M38.9,656.1c0,0-0.1,0.1-0.1,0.1v-5.4c0,0,0,0,0,0c0,0,0.1-0.1,0.1-0.1V656.1z"/>
	<path class="st5" d="M38.9,677.8c0,0-0.1,0.1-0.1,0.1v-5.3l0.2-0.2C38.9,674.1,38.9,675.9,38.9,677.8z"/>
	<path class="st5" d="M38.9,591.5l-0.1,0.1v-5.2c0.1-0.1,0.1-0.1,0.2-0.2C38.9,587.9,38.9,589.7,38.9,591.5z"/>
	<path class="st5" d="M38.9,548.3c0,0-0.1,0.1-0.1,0.1V543c0.1-0.1,0.1-0.1,0.2-0.2C38.9,544.7,38.9,546.5,38.9,548.3z"/>
	<path class="st5" d="M38.9,397.4c0,0-0.1,0.1-0.1,0.1v-5.2c0.1-0.1,0.1-0.1,0.2-0.2C38.9,393.8,38.9,395.6,38.9,397.4z"/>
	<path class="st5" d="M38.9,354.3c0,0-0.1,0.1-0.1,0.1V349c0.1-0.1,0.1-0.1,0.2-0.2C38.9,350.7,38.9,352.5,38.9,354.3z"/>
	<path class="st5" d="M38.9,311.1c0,0-0.1,0.1-0.1,0.1v-5.3c0.1-0.1,0.1-0.1,0.2-0.2C38.9,307.5,38.9,309.3,38.9,311.1z"/>
	<path class="st5" d="M38.9,224.9c0,0-0.1,0.1-0.1,0.1v-5.4c0.1,0,0.1-0.1,0.2-0.2C38.9,221.3,38.9,223.1,38.9,224.9z"/>
	<path class="st5" d="M38.9,203.3c0,0-0.1,0.1-0.1,0.1v-5.2c0.1-0.1,0.1-0.1,0.2-0.2C38.9,199.7,38.9,201.5,38.9,203.3z"/>
	<path class="st5" d="M39,505.2l-0.2,0.2v-5.4c0.1-0.1,0.1-0.1,0.2-0.2V505.2z"/>
	<path class="st5" d="M39,699.3c-0.1,0.1-0.1,0.1-0.2,0.2V694c0.1-0.1,0.1-0.1,0.2-0.2V699.3z"/>
	<path class="st5" d="M39,720.8c-0.1,0.1-0.1,0.1-0.2,0.2v-5.5c0.1-0.1,0.1-0.1,0.2-0.2V720.8z"/>
	<path class="st3" d="M38.9,241.1v5.4l-0.1,0.1c-6.5,6.4-12.8,12.7-19.3,19.1c-5.1,5.1-10.2,10.2-15.3,15.3c-0.6,0.6-1.4,1-2.1,1.5
		v-5c9.2-9.1,18.3-18.2,27.5-27.3c3.1-3.1,6.1-6,9.2-9C38.8,241.1,38.9,241.1,38.9,241.1z"/>
	<path class="st3" d="M38.9,262.5v5.4c0,0-0.1,0.1-0.1,0.1c-11.5,11.5-22.9,22.8-34.5,34.3c-0.6,0.6-1.5,0.9-2.2,1.4v-5
		c0.7-0.5,1.5-1,2.1-1.6c11-10.9,21.9-21.9,32.9-32.9c0.6-0.6,1.1-1,1.7-1.6L38.9,262.5z"/>
	<path class="st3" d="M38.9,289.6c0,0-0.1,0.1-0.1,0.1c-9.2,9.1-18.2,18.1-27.4,27.2c-2.6,2.6-5.2,5.3-7.9,7.9
		c-0.4,0.4-1,0.6-1.5,0.8v-5c3.8-3.8,7.7-7.5,11.5-11.3c8.5-8.4,16.9-16.7,25.3-25.1C38.9,286,38.9,287.8,38.9,289.6z"/>
	<path class="st3" d="M38.9,327.3v5.4l-0.1,0.1c-9,9-18,17.8-27,26.8l-8.1,8.1c-0.4,0.4-1.1,0.6-1.6,0.9v-5c0.7-0.6,1.4-1.1,2.1-1.8
		C15.1,350.9,26,340,36.9,329.1c0.6-0.6,1.3-1.1,1.9-1.7C38.8,327.3,38.9,327.3,38.9,327.3z"/>
	<path class="st3" d="M38.9,370.4v5.5c0,0-0.1,0.1-0.1,0.1c-7.7,7.6-15.2,15.1-22.9,22.6c-4,3.9-7.9,7.9-11.9,11.8
		c-0.6,0.5-1.4,0.9-2,1.3c0.1-1.7,0.1-3.4,0.1-5c0.8-0.6,1.6-1.2,2.3-1.9c11-11,21.9-21.9,32.9-32.9c0.5-0.5,1-0.9,1.5-1.4
		C38.8,370.4,38.9,370.4,38.9,370.4z"/>
	<path class="st3" d="M38.9,419l-0.1,0.1c-9.1,9-18.1,17.9-27.2,27c-2.6,2.6-5.2,5.3-7.9,7.9c-0.4,0.4-1.1,0.6-1.7,0.8v-5
		c0.7-0.5,1.5-1,2.1-1.7L37,415.2c0.6-0.6,1.2-1.1,1.8-1.7C38.9,415.4,38.9,417.2,38.9,419z"/>
	<path class="st3" d="M38.9,440.6c0,0-0.1,0.1-0.1,0.1c-6.4,6.3-12.7,12.5-19.1,18.9c-5.2,5.2-10.4,10.4-15.6,15.5
		c-0.6,0.6-1.4,1-2.1,1.5v-5c10.3-10.3,20.7-20.6,31-30.8c1.9-1.9,3.9-3.7,5.8-5.6C38.9,436.9,38.9,438.7,38.9,440.6z"/>
	<path class="st3" d="M38.9,456.6v5.4l-0.1,0.1c-11.5,11.5-22.9,22.8-34.5,34.3c-0.6,0.6-1.5,0.9-2.2,1.4v-5c0.7-0.5,1.5-1,2.1-1.6
		c11-10.9,21.9-21.9,32.9-32.9c0.6-0.6,1.1-1,1.7-1.6C38.8,456.6,38.9,456.6,38.9,456.6z"/>
	<path class="st3" d="M38.9,478.4v5.3l-0.1,0.1c-8.9,8.8-17.7,17.5-26.6,26.4l-8.7,8.7c-0.4,0.4-1,0.5-1.5,0.8v-5
		c7.1-7,14.1-14,21.2-20.9c5.2-5.1,10.3-10.2,15.6-15.3C38.8,478.4,38.9,478.4,38.9,478.4z"/>
	<path class="st3" d="M38.9,521.4v5.5c0,0-0.1,0.1-0.1,0.1c-7.1,7-14,13.9-21.1,20.9c-4.6,4.5-9.1,9.1-13.6,13.6
		c-0.6,0.6-1.3,0.9-2,1.3v-5.1c3.8-3.7,7.6-7.3,11.3-11c8.5-8.4,16.9-16.8,25.4-25.2C38.8,521.4,38.9,521.4,38.9,521.4z"/>
	<path class="st3" d="M38.9,564.4v5.5c0,0-0.1,0.1-0.1,0.1c-8.4,8.3-16.7,16.5-25,24.8c-3.3,3.3-6.6,6.6-9.9,9.8
		c-0.5,0.5-1.2,0.7-1.8,1.1v-5c0.8-0.6,1.6-1.2,2.3-1.9c10.8-10.8,21.7-21.6,32.5-32.5c0.6-0.6,1.3-1.1,1.9-1.8
		C38.8,564.4,38.9,564.4,38.9,564.4z"/>
	<path class="st3" d="M39,219.4c-0.1,1.9-0.1,3.7-0.1,5.5c0,0-0.1,0.1-0.1,0.1c-8.6,8.6-17.1,17-25.8,25.6c-3,3-6,6.1-9.1,9
		c-0.5,0.5-1.2,0.7-1.8,1v-5c0.8-0.6,1.6-1.2,2.3-1.8c11-11,22.1-22.1,33.1-33.1c0.4-0.4,0.9-0.7,1.3-1.1
		C38.9,219.5,38.9,219.4,39,219.4z"/>
	<path class="st3" d="M38.9,607.5v5.5l-0.1,0.1c-9.8,9.7-19.4,19.3-29.2,29l-6.1,6.1c-0.4,0.3-1,0.4-1.4,0.6v-5
		c0.8-0.6,1.6-1.2,2.3-1.9c10.8-10.8,21.7-21.7,32.5-32.5c0.7-0.6,1.3-1.1,1.9-1.8C38.8,607.5,38.9,607.5,38.9,607.5z"/>
	<path class="st3" d="M38.9,634.6c0,0-0.1,0.1-0.1,0.1c-8.2,8.2-16.4,16.2-24.6,24.4c-3.4,3.4-6.8,6.8-10.3,10.2
		c-0.5,0.5-1.2,0.9-1.9,1.3v-5c10.5-10.4,21-20.8,31.4-31.2c1.8-1.8,3.6-3.5,5.4-5.2C38.9,631,38.9,632.8,38.9,634.6z"/>
	<path class="st3" d="M38.9,650.7v5.4c0,0-0.1,0.1-0.1,0.1C27.3,667.6,15.9,679,4.3,690.5c-0.6,0.6-1.5,0.9-2.2,1.4v-5
		c0.8-0.6,1.6-1.1,2.3-1.8c10.8-10.8,21.7-21.6,32.5-32.5c0.7-0.6,1.3-1.1,1.9-1.8c0,0,0,0,0,0C38.8,650.7,38.9,650.7,38.9,650.7z"
		/>
	<path class="st3" d="M39,672.4c-0.1,1.7-0.1,3.5-0.1,5.4c0,0-0.1,0.1-0.1,0.1c-6.9,6.9-13.8,13.6-20.7,20.5
		c-4.7,4.7-9.5,9.5-14.2,14.2c-0.5,0.5-1.2,0.8-1.8,1.2v-5c7.3-7.2,14.6-14.5,22-21.7c4.9-4.8,9.8-9.7,14.7-14.5L39,672.4z"/>
	<path class="st3" d="M39,715.3v5.5c-0.1,0.1-0.1,0.1-0.2,0.2c-7.2,7.1-14.4,14.3-21.6,21.4c-4.4,4.3-8.7,8.7-13,13
		c-0.6,0.6-1.3,0.9-2,1.3c-0.1-1.6-0.1-3.3-0.1-5c5.6-5.5,11.1-10.9,16.7-16.4c6.6-6.5,13.4-13.2,20-19.8
		C38.9,715.4,38.9,715.3,39,715.3z"/>
	<path class="st3" d="M39,693.9v5.4c-0.1,0.1-0.1,0.1-0.2,0.2c-11.4,11.3-22.8,22.7-34.2,34c-0.7,0.7-1.6,1-2.4,1.5
		c-0.1-1.7-0.1-3.4-0.1-5.1c0.8-0.6,1.6-1.1,2.3-1.7c10.8-10.8,21.7-21.6,32.5-32.5c0.5-0.5,1.3-1.1,1.9-1.6
		C38.9,694,38.9,693.9,39,693.9z"/>
	<path class="st3" d="M39,392.1c-0.1,1.7-0.1,3.5-0.1,5.3c0,0-0.1,0.1-0.1,0.1c-11.5,11.5-22.9,22.8-34.5,34.3
		c-0.6,0.6-1.5,0.8-2.2,1.2v-4.5c11.6-11.5,23.2-23.1,34.8-34.6c0.6-0.5,1.3-1.1,1.9-1.6C38.9,392.2,38.9,392.1,39,392.1z"/>
	<path class="st3" d="M39,586.2c-0.1,1.7-0.1,3.5-0.1,5.3l-0.1,0.1C27.3,603,15.9,614.4,4.3,625.9c-0.6,0.6-1.5,0.8-2.2,1.2v-4.5
		c11.6-11.5,23.2-23.1,34.8-34.6c0.6-0.5,1.3-1.1,1.9-1.6C38.9,586.3,38.9,586.2,39,586.2z"/>
	<path class="st3" d="M39,348.9c-0.1,1.8-0.1,3.6-0.1,5.4c0,0-0.1,0.1-0.1,0.1c-11.5,11.5-22.9,22.8-34.5,34.3
		c-0.6,0.6-1.5,0.8-2.2,1.2v-4.5c11.6-11.6,23.2-23.1,34.8-34.7c0.6-0.5,1.3-1.1,1.9-1.6C38.9,349,38.9,348.9,39,348.9z"/>
	<path class="st3" d="M39,499.8v5.4l-0.2,0.2c-11.4,11.4-22.9,22.8-34.4,34.2c-0.6,0.6-1.5,0.9-2.2,1.3c-0.1-1.5-0.1-3-0.1-4.5
		c11.6-11.6,23.2-23.2,34.8-34.8c0.6-0.6,1.3-1.1,1.9-1.6C38.9,499.9,38.9,499.8,39,499.8z"/>
	<path class="st3" d="M39,305.7c-0.1,1.8-0.1,3.6-0.1,5.4c0,0-0.1,0.1-0.1,0.1C27.3,322.6,15.9,334,4.3,345.5
		c-0.6,0.6-1.5,0.9-2.2,1.3v-4.5l34.8-34.8c0.6-0.6,1.3-1.1,1.9-1.6C38.9,305.8,38.9,305.7,39,305.7z"/>
	<path class="st3" d="M39,542.9c-0.1,1.8-0.1,3.6-0.1,5.4c0,0-0.1,0.1-0.1,0.1c-11.5,11.5-22.9,22.8-34.5,34.3
		c-0.6,0.6-1.5,0.8-2.2,1.2v-4.5c11.6-11.6,23.2-23.1,34.8-34.7c0.6-0.5,1.3-1.1,1.9-1.6C38.9,543,38.9,542.9,39,542.9z"/>
	<path class="st3" d="M39,198c-0.1,1.7-0.1,3.5-0.1,5.3c0,0-0.1,0.1-0.1,0.1c-11.5,11.5-22.9,22.8-34.5,34.3
		c-0.6,0.6-1.5,0.8-2.2,1.2v-4.5c11.5-11.5,23.1-23,34.6-34.4c0.6-0.6,1.4-1.3,2.1-1.8C38.9,198.1,38.9,198,39,198z"/>
	<path class="st6" d="M71,704.4l-6.1,5.1l-14.2,12v-76.2H39.2v8.3c0,0,0.1-0.1,0.1-0.1v5.2c0,0-0.1,0.1-0.1,0.1v15.9l0.2-0.2
		c-0.1,1.6-0.1,3.4-0.1,5.2c0,0-0.1,0.1-0.1,0.1v15.6c0.1,0,0.2-0.1,0.2-0.2v5.2c-0.1,0.1-0.2,0.1-0.2,0.2v15.5
		c0.1-0.1,0.2-0.1,0.2-0.2v5.3c-0.1,0.1-0.2,0.1-0.2,0.2v9.7l-14.9,12.6l-47,34.3V128.4h86.9L71,704.4z"/>
</g>
</svg>
