<svg xmlns="http://www.w3.org/2000/svg" viewBox="0 0 153 100.2"><defs><style>.cls-1{fill:#4c8091;}</style></defs><title>friends1</title><g id="Layer_2" data-name="Layer 2"><g id="Layer_1-2" data-name="Layer 1"><path class="cls-1" d="M18.6,84c.4-7.9.1-15.7.1-23.6,0-.8.2-1.5.2-2.3h.8a19.4,19.4,0,0,1,.2,2.4c0,7.5,0,18.3.4,25.8.2,3,7.1,3.5,6.8-2.2-.9-15.5,0-30.9,0-46.4,0-2,1.8-4.9,1.8-4.9s6.8-10.2,9.2-15.9a3.5,3.5,0,0,0-.9-3.2c-.6-.5-2.6-.5-3.1.1s-2,.7-3.1.3c-2.8-1-5.6-2.4-8.5-2.8-5-.6-10.1-.2-14.7,2.5l-2.6,1C4,13.3,2.6,12.2,1.1,13.5A3.9,3.9,0,0,0,.1,17c2.4,5.7,9.5,15.8,9.5,15.8s1.9,2.5,1.9,4.4c-.1,15.3,0,30.6,0,45.9,0,2.2,0,4.2,1.7,5.3C13.2,88.4,18.2,91.9,18.6,84Zm7.1-56.7a5.2,5.2,0,0,0-1.4,3.2,59.3,59.3,0,0,0-.1,7.3c-.1,1.6-.6,2.9-2.5,2.9s-2.2-1.3-2.2-2.8V29.6h-.6a11.3,11.3,0,0,0-.3,1.8,55.8,55.8,0,0,1-.1,7.1,2.9,2.9,0,0,1-1.6,2h-.3a3,3,0,0,1-2.3-2c-.2-2.3,0-4.7-.1-7.1a1.7,1.7,0,0,0-.1-.7,5.9,5.9,0,0,0-1.2-3.1L6.3,18.9l.5-1.1h.5c2.5-1,8.3-3.9,11.6-3.9s8.6,2.7,12.2,4.1l.4.2C29.9,21.5,28.6,24.8,25.7,27.3Z"/><path class="cls-1" d="M56,60c.7,4.1,1.4,8.4,2.2,12.8a.9.9,0,0,1-.8,1.1H54.7a1,1,0,0,0-.8.9c0,.6-.1,1.2-.1,1.8,0,6.4.1,12.9,0,19.4v.2c-1,4.9-5.1,5.6-5.5-.4s-.9-20.9-1-21.1-1.4-.4-1.5.3a.1.1,0,0,0-.1.1c-.1,2.1,0,4.1,0,6.2,0,4.7-.3,9.5-.1,14.3s-6.1,4.8-6.4-.2c-.1-6.7,0-13.5,0-20.5a.9.9,0,0,0-.9-.9l-3.1-.2a1,1,0,0,1-.8-1.1l3-12.6a.9.9,0,0,1,1-.7h1.3c2.1-.3,3.1.8,3.7,2.7s4,3.8,5.8,1.9a10,10,0,0,0,1.5-3.5,1.2,1.2,0,0,1,.6-.6l3.6-.8A.9.9,0,0,1,56,60Z"/><path class="cls-1" d="M32.3,50.1c0-7.3.3-7.6,7.4-8.9a45.5,45.5,0,0,1,6.1-1,3.5,3.5,0,0,1,2.6,1.5c.6,1.4-.4,2.3-1.8,2.7-5,1.2-5,1.2-5,6.3-.1,1.9.4,2.8,2.4,2.8A4.1,4.1,0,0,1,48.2,57c.3,1.3,1,2.5,1.3,3.8s-.2,3.1-1.8,3.2-3-.7-3.2-1.5c-.8-3.4-2.9-3.8-5.9-4C33.7,58.3,31.9,57.4,32.3,50.1Z"/><path class="cls-1" d="M43,50.6v-4a.7.7,0,0,1,.5-.6c2.5-1.1,6.5.1,6.5-4.2a.7.7,0,0,1,.6-.7c5.7-1,9.2,1.7,9.8,7.5.2,1.6.6,3.8-.2,4.8a29.8,29.8,0,0,1-6.7,5.5c-.6.4-2.4-.3-2.8-.9a3.6,3.6,0,0,1,.1-3.2A17.4,17.4,0,0,1,54,52a3.1,3.1,0,0,0,1-1,.7.7,0,1,0-1.2-.7A11.5,11.5,0,0,1,52.4,52a18.4,18.4,0,0,1-2.6,2.4.8.8,0,0,1-.8.1l-4.7-2A2.2,2.2,0,0,1,43,50.6Z"/><path class="cls-1" d="M46.1,38.7a6.4,6.4,0,0,1-6.6-6.3c0-3.8,2.6-6.6,6.3-6.6a6.5,6.5,0,1,1,.3,12.9Z"/><path class="cls-1" d="M19.3,10.2a4.9,4.9,0,0,1-5.1-5,5.1,5.1,0,0,1,5-5.2,5.3,5.3,0,0,1,5.4,5.2A5.2,5.2,0,0,1,19.3,10.2Z"/><path class="cls-1" d="M39.1,36.7a3.9,3.9,0,0,1-3.9,3.9,3.7,3.7,0,0,1-3.9-3.9,3.7,3.7,0,0,1,3.8-3.8A3.7,3.7,0,0,1,39.1,36.7Z"/><path class="cls-1" d="M14.3,38.5a2.1,2.1,0,0,0,2.3,2A3,3,0,0,1,14.3,38.5Zm2.6,2a1.9,1.9,0,0,0,1.6-2A2.9,2.9,0,0,1,16.9,40.5Z"/><path class="cls-1" d="M24.9,21.8a6,6,0,0,1-6.2,5.9,6.1,6.1,0,0,1-5.9-6,6,6,0,0,1,6.1-5.9A5.8,5.8,0,0,1,24.9,21.8Z"/><path class="cls-1" d="M128.4,55.3l-1.8.3V83.5c0,2.4-1.3,4.2-3.2,4.6a3.9,3.9,0,0,1-4.7-4.1c-.1-3.2-.1-6.4-.1-9.5s-.1-5.6.1-8.4c.4-8.9-.8-17.6-2.1-26.3-.1-.3-.1-.7-.2-1-.3-2-.1-4.3-2.3-5.6l2.8-2.3-.2-.3c-1.2.9-2.5,1.7-3.6,2.7s-.3,1.1-.3,1.6V84.2a4.2,4.2,0,0,1-4,4.2,4.1,4.1,0,0,1-3.9-4.3V57.3c-1.4-.6-1.5.2-1.5,1.3V83.5c0,2-.6,3.6-2.4,4.5a3.8,3.8,0,0,1-5.4-2.9,6.8,6.8,0,0,1-.2-2c0-15.9,0-31.7.1-47.5,0-1.8-.5-2.9-1.9-3.6a11.9,11.9,0,0,0-2.5-1.3L93.9,33c-2.7,2.9-2,6.8-2.7,10.2-1.8,8.7-1.7,17.5-1.6,26.3.1,4.7,0,9.4,0,14.1,0,2.8-1.6,4.6-4,4.5s-3.9-1.8-3.9-4.6c-.1-8.6-.1-17.3-.1-25.9V55.7l-1.8-.4a12.4,12.4,0,0,0-.4,1.6C77.2,66,75,75.1,72.9,84.2c-.5,2-1.4,3.5-3.4,3.9A4,4,0,0,1,65,83c1.6-7,3.1-14,5-20.8a198.6,198.6,0,0,0,4.5-25.4,5.7,5.7,0,0,0,.1-1.4l-2.6.7c-4.6,1.1-8.8-.3-12.7-2.8a28.3,28.3,0,0,1-2.8-2,2.7,2.7,0,0,1-.7-3.9c.9-1.2,2.3-1.2,3.6-.3L65,30.5a6.7,6.7,0,0,0,1.9.5c1.3.2,2.6.2,3.4,1.8s2.4,1.3,3.5.6L77,31v-.3l-2.8,1.8c-1.5,1-2.9.8-3.8-.5a2.6,2.6,0,0,1,1-3.8c2.3-1.5,4.7-2.7,7-4,4.8,7.1,9.5,7.5,14.6,1.6v.4l2.7-.8c1.1-.3,2-1.6,3.2-.6,3.7,2.8,6.7,2.8,10.4,0a1.3,1.3,0,0,1,1.3-.2c.7.2,1.4.7,2.2.9a15.5,15.5,0,0,0,2.3.6l.2-.4a4.4,4.4,0,0,1,.8,1.1A7.6,7.6,0,0,0,129,25.6c.5-1.1,1-1.3,1.9-.8s4,2.1,6,3.3a2.7,2.7,0,0,1,1,3.9c-.9,1.3-2.2,1.5-3.7.5l-2.6-1.6H131l3.4,2.4c1.5,1,3.1.4,4.1-1.1s.7-.9,1.1-.9a16.5,16.5,0,0,0,9.1-4.1,2.4,2.4,0,0,1,3-.5,2.7,2.7,0,0,1,.4,4.3c-5.3,4.4-11,7-17.9,4.5l-.7-.2c.4,2.6.8,5.1,1,7.6,1.4,12,5.1,23.5,7.6,35.2.4,1.5.8,3.1,1.1,4.6a4.3,4.3,0,0,1-2.8,5.4c-2.2.5-4.2-.8-4.9-3.4-2.2-9.3-4.4-18.6-6.7-27.9C128.7,56.4,128.6,55.9,128.4,55.3Z"/><path class="cls-1" d="M94.2,20.2c-.1,4.3-3.5,7.7-7.4,7.5a7.6,7.6,0,0,1-7-8c.2-4.1,3.5-7.5,7.4-7.4A7.5,7.5,0,0,1,94.2,20.2Z"/><path class="cls-1" d="M116,20c0-4.3,3.3-7.8,7.3-7.7a7.5,7.5,0,0,1,7.1,7.7A7.2,7.2,0,1,1,116,20Z"/><path class="cls-1" d="M105,9.4a7.5,7.5,0,0,1,7.3,7.6,7.5,7.5,0,0,1-7,7.8,7.6,7.6,0,0,1-7.4-7.6A7.5,7.5,0,0,1,105,9.4Z"/></g></g></svg>