<?xml version="1.0" encoding="utf-8"?>
<!-- Generator: Adobe Illustrator 22.0.1, SVG Export Plug-In . SVG Version: 6.00 Build 0)  -->
<svg version="1.1" xmlns="http://www.w3.org/2000/svg" xmlns:xlink="http://www.w3.org/1999/xlink" x="0px" y="0px"
	 viewBox="0 0 569.1 148.9" style="enable-background:new 0 0 569.1 148.9;" xml:space="preserve">
<style type="text/css">
	.st0{fill:#306E83;}
	.st1{fill:#FFFFFF;}
	.st2{fill:#AFAFAF;}
</style>
<g id="Layer_1">
</g>
<g id="Layer_3">
</g>
<g id="Layer_4">
	<g>
		
			<rect x="164.1" y="41" transform="matrix(0.3831 -0.9237 0.9237 0.3831 71.0829 211.5592)" class="st0" width="59.7" height="23.1"/>
		<path class="st1" d="M195,21.2l20.4,8.5l-22.5,54.2l-20.4-8.5L195,21.2 M194.4,19.9L171.2,76l22.3,9.2l23.2-56.1L194.4,19.9
			L194.4,19.9z"/>
	</g>
	<g>
		
			<rect x="186.2" y="50.5" transform="matrix(0.3831 -0.9237 0.9237 0.3831 75.9585 237.8697)" class="st0" width="59.7" height="23.1"/>
		<path class="st1" d="M217.1,30.7l20.4,8.5L215,93.4l-20.4-8.5L217.1,30.7 M216.6,29.4l-23.2,56.1l22.3,9.2l23.2-56.1L216.6,29.4
			L216.6,29.4z"/>
	</g>
	<g>
		
			<rect x="208.5" y="59.7" transform="matrix(0.3831 -0.9237 0.9237 0.3831 81.1594 264.1155)" class="st0" width="59.7" height="23.1"/>
		<path class="st1" d="M239.4,40l20.4,8.5l-22.5,54.2l-20.4-8.5L239.4,40 M238.8,38.7l-23.2,56.1l22.3,9.2l23.2-56.1L238.8,38.7
			L238.8,38.7z"/>
	</g>
	<g>
		
			<rect x="230.8" y="68.8" transform="matrix(0.3831 -0.9237 0.9237 0.3831 86.5244 290.3307)" class="st0" width="59.7" height="23.1"/>
		<path class="st1" d="M261.7,49.1l20.4,8.5l-22.5,54.2l-20.4-8.5L261.7,49.1 M261.1,47.7l-23.2,56.1l22.3,9.2L283.4,57L261.1,47.7
			L261.1,47.7z"/>
	</g>
	<g>
		
			<rect x="252.9" y="78.3" transform="matrix(0.3831 -0.9237 0.9237 0.3831 91.3999 316.6409)" class="st0" width="59.7" height="23.1"/>
		<path class="st1" d="M283.8,58.6l20.4,8.5l-22.5,54.2l-20.4-8.5L283.8,58.6 M283.3,57.2L260,113.3l22.3,9.2l23.2-56.1L283.3,57.2
			L283.3,57.2z"/>
	</g>
	<g>
		<rect x="30.1" y="6" class="st0" width="23.1" height="59.7"/>
		<path class="st1" d="M52.7,6.5l0,58.7H30.6V6.5H52.7 M53.7,5.5H29.6v60.7h24.1L53.7,5.5L53.7,5.5z"/>
	</g>
	<g>
		<rect x="6.5" y="6" class="st2" width="23.1" height="59.8"/>
		<g>
			<path class="st1" d="M29.1,6.5l0,58.8H7L7,6.5H29.1 M30.1,5.5H6l0,60.8h24.1L30.1,5.5L30.1,5.5z"/>
		</g>
	</g>
	<g>
		<rect x="54.2" y="6.3" class="st0" width="23.1" height="59.7"/>
		<path class="st1" d="M76.8,6.8l0,58.7H54.7l0-58.7H76.8 M77.8,5.8H53.7l0,60.7h24.1L77.8,5.8L77.8,5.8z"/>
	</g>
	<g>
		<rect x="78.3" y="6.3" class="st0" width="23.1" height="59.7"/>
		<path class="st1" d="M100.9,6.8l0,58.7H78.8l0-58.7H100.9 M101.9,5.8H77.8l0,60.7h24.1L101.9,5.8L101.9,5.8z"/>
	</g>
	<g>
		<rect x="102.4" y="6.2" class="st0" width="23.1" height="59.7"/>
		<path class="st1" d="M125,6.7l0,58.7h-22.1V6.7H125 M126,5.7h-24.1v60.7H126L126,5.7L126,5.7z"/>
	</g>
	<g>
		<rect x="126.5" y="6.5" class="st0" width="23.1" height="59.7"/>
		<path class="st1" d="M149.1,7l0,58.7H127V7H149.1 M150.1,6H126v60.7h24.1L150.1,6L150.1,6z"/>
	</g>
	<g>
		
			<rect x="275.2" y="87.6" transform="matrix(0.3831 -0.9237 0.9237 0.3831 96.6011 342.8871)" class="st0" width="59.7" height="23.1"/>
		<path class="st1" d="M306.1,67.8l20.4,8.5L304,130.5l-20.4-8.5L306.1,67.8 M305.5,66.5l-23.2,56.1l22.3,9.2l23.2-56.1L305.5,66.5
			L305.5,66.5z"/>
	</g>
	<g>
		
			<rect x="297.3" y="96.8" transform="matrix(0.3831 -0.9237 0.9237 0.3831 101.7831 369.0363)" class="st0" width="59.7" height="23.1"/>
		<path class="st1" d="M328.2,77l20.4,8.5l-22.5,54.2l-20.4-8.5L328.2,77 M327.7,75.7l-23.2,56.1l22.3,9.2l23.2-56.1L327.7,75.7
			L327.7,75.7z"/>
	</g>
	<g>
		<rect x="373.5" y="85.4" class="st0" width="23.1" height="59.7"/>
		<path class="st1" d="M396,85.9l0,58.7H374V85.9H396 M397,84.9H373v60.7H397L397,84.9L397,84.9z"/>
	</g>
	<g>
		<rect x="397.5" y="85.7" class="st0" width="23.1" height="59.7"/>
		<path class="st1" d="M420.1,86.2v58.7H398V86.2H420.1 M421.1,85.2H397v60.7h24.1V85.2L421.1,85.2z"/>
	</g>
	<g>
		<rect x="421.6" y="85.7" class="st0" width="23.1" height="59.7"/>
		<path class="st1" d="M444.2,86.2l0,58.7h-22.1V86.2H444.2 M445.2,85.2h-24.1v60.7h24.1L445.2,85.2L445.2,85.2z"/>
	</g>
	<g>
		<rect x="445.7" y="85.5" class="st0" width="23.1" height="59.7"/>
		<path class="st1" d="M468.3,86v58.7h-22.1V86H468.3 M469.3,85h-24.1v60.7h24.1V85L469.3,85z"/>
	</g>
	<g>
		<rect x="469.8" y="85.8" class="st0" width="23.1" height="59.7"/>
		<path class="st1" d="M492.4,86.3V145h-22.1V86.3H492.4 M493.4,85.3h-24.1V146h24.1V85.3L493.4,85.3z"/>
	</g>
	<g>
		<rect x="493.9" y="85.8" class="st0" width="23.1" height="59.7"/>
		<path class="st1" d="M516.5,86.3V145h-22.1V86.3H516.5 M517.5,85.3h-24.1V146h24.1V85.3L517.5,85.3z"/>
	</g>
	<g>
		<rect x="517.9" y="85.8" class="st0" width="23.1" height="59.7"/>
		<path class="st1" d="M540.5,86.3V145h-22.1V86.3H540.5 M541.5,85.3h-24.1V146h24.1V85.3L541.5,85.3z"/>
	</g>
	<g>
		<rect x="541.4" y="85.8" class="st2" width="23.1" height="58.9"/>
		<g>
			<path class="st1" d="M564,86.3l0,57.9h-22.1V86.3H564 M565,85.3h-24.1v59.9H565L565,85.3L565,85.3z"/>
		</g>
	</g>
	<g>
		<path class="st1" d="M45.6,35.6l-0.3,2h-7.8l0.3-2.3c2.9-1.8,4.7-3,5.2-3.5s0.8-1.1,0.8-1.6c0-0.4-0.1-0.7-0.4-1
			c-0.3-0.2-0.6-0.4-1-0.4c-1,0-1.6,0.6-1.9,1.9l-2.2-0.5c0.3-1.1,0.8-1.9,1.5-2.5c0.7-0.6,1.6-0.9,2.6-0.9c1.1,0,2,0.3,2.7,0.9
			c0.7,0.6,1.1,1.4,1.1,2.4c0,0.7-0.2,1.4-0.6,1.9s-1,1.1-1.8,1.5c-0.8,0.5-2,1.1-3.6,1.9H45.6z"/>
	</g>
	<g>
		<path class="st1" d="M61.1,34.7l2-0.4c0.3,1.1,1,1.7,2,1.7c0.5,0,0.9-0.1,1.3-0.4s0.5-0.6,0.5-1.1c0-0.3-0.1-0.6-0.3-0.9
			s-0.4-0.4-0.7-0.5s-0.6-0.1-1.1-0.1h-0.8l0.2-1.8h1.1c1.3,0,1.9-0.4,1.9-1.3c0-0.4-0.1-0.7-0.4-0.9c-0.3-0.2-0.6-0.3-1-0.3
			c-0.8,0-1.4,0.4-1.8,1.3L62,29.4c0.7-1.7,2-2.5,3.9-2.5c1.1,0,2,0.3,2.7,0.8c0.7,0.5,1.1,1.2,1.1,2.1c0,0.6-0.2,1.1-0.5,1.6
			s-0.9,0.8-1.5,0.9c0.6,0.2,1,0.5,1.3,1c0.3,0.4,0.4,0.9,0.4,1.4c0,0.9-0.4,1.6-1.1,2.3s-1.7,1-2.9,1c-1.1,0-2.1-0.3-2.8-0.9
			C61.8,36.3,61.3,35.6,61.1,34.7z"/>
	</g>
	<g>
		<path class="st1" d="M93.5,33.3l-0.3,1.9h-1.6l-0.4,2.4h-2.4l0.4-2.4h-4.4l0.3-1.9l5-6.3H93l-1.1,6.3H93.5z M89.6,33.4l0.7-4.2
			l-3.5,4.2H89.6z"/>
	</g>
	<g>
		<path class="st1" d="M117.4,27.1l-0.5,2.1h-4.6l-0.6,2.4c0.5-0.6,1.2-0.9,2-0.9c0.9,0,1.7,0.3,2.3,0.9c0.6,0.6,1,1.4,1,2.3
			c0,1.1-0.4,2-1.2,2.7c-0.8,0.7-1.8,1.1-3,1.1c-1,0-1.9-0.3-2.7-0.8c-0.8-0.5-1.2-1.2-1.4-2.1l2.3-0.4c0.2,0.9,0.8,1.3,1.8,1.3
			c0.5,0,1-0.2,1.3-0.5c0.3-0.3,0.5-0.8,0.5-1.3c0-0.5-0.1-0.8-0.4-1.1c-0.3-0.3-0.7-0.4-1.1-0.4c-0.6,0-1.1,0.3-1.6,0.8l-2-0.7
			l1.3-5.5H117.4z"/>
	</g>
	<g>
		<path class="st1" d="M141,29.9l-2.1,0.2c-0.1-1-0.6-1.5-1.4-1.5c-1.3,0-2,1.2-2.3,3.6c0.5-0.9,1.3-1.4,2.3-1.4
			c0.9,0,1.7,0.3,2.3,0.9c0.6,0.6,0.9,1.4,0.9,2.3c0,1-0.3,1.8-1,2.5s-1.6,1.1-2.8,1.1c-1.2,0-2.2-0.4-2.9-1.2
			c-0.7-0.8-1.1-1.9-1.1-3.4c0-1.7,0.4-3.2,1.3-4.4s2-1.9,3.5-1.9c1,0,1.8,0.3,2.4,0.8C140.5,28.3,140.9,29,141,29.9z M136.7,35.9
			c0.5,0,0.8-0.2,1.1-0.5s0.5-0.7,0.5-1.2c0-0.5-0.1-0.9-0.4-1.2c-0.3-0.3-0.7-0.5-1.1-0.5c-0.5,0-0.9,0.2-1.2,0.5
			c-0.3,0.3-0.5,0.7-0.5,1.2c0,0.5,0.2,0.9,0.5,1.2C136,35.8,136.3,35.9,136.7,35.9z"/>
	</g>
	<g>
		<path class="st1" d="M189.1,49.9c-0.9-0.6-1.4-1.3-1.4-2.2c0-0.8,0.4-1.6,1.1-2.2c0.7-0.6,1.7-1,3-1c1,0,1.9,0.2,2.5,0.7
			c0.6,0.4,1,1,1,1.8c0,1.1-0.7,1.9-2.2,2.5c1.2,0.5,1.8,1.3,1.8,2.4c0,0.9-0.4,1.7-1.2,2.4c-0.8,0.6-1.8,0.9-3.1,0.9
			c-1.2,0-2.1-0.2-2.9-0.7c-0.7-0.4-1.1-1.1-1.1-1.9c0-0.6,0.2-1.2,0.7-1.7C187.7,50.4,188.3,50.1,189.1,49.9z M190.2,50.6
			c-0.5,0.1-0.9,0.3-1.2,0.6s-0.4,0.7-0.4,1c0,0.4,0.2,0.8,0.6,1.1c0.4,0.3,0.9,0.4,1.5,0.4c0.6,0,1-0.1,1.4-0.3
			c0.4-0.2,0.5-0.5,0.5-1c0-0.4-0.2-0.7-0.6-0.9C191.7,51.2,191,50.9,190.2,50.6z M192,48.8c0.8-0.4,1.3-0.9,1.3-1.5
			c0-0.4-0.2-0.7-0.5-1c-0.3-0.3-0.8-0.4-1.3-0.4c-0.5,0-0.9,0.1-1.2,0.3c-0.3,0.2-0.5,0.5-0.5,0.8C189.8,47.8,190.6,48.4,192,48.8z
			"/>
	</g>
	<g>
		<path class="st1" d="M210.2,63l2.1-0.5c0.2,0.7,0.7,1.1,1.4,1.1c0.7,0,1.2-0.3,1.6-0.9s0.7-1.6,1-2.9c-0.5,1.1-1.3,1.6-2.4,1.6
			c-0.8,0-1.6-0.3-2.2-0.9c-0.6-0.6-1-1.3-1-2.3c0-0.9,0.4-1.8,1.1-2.5c0.7-0.7,1.6-1.1,2.8-1.1c1.3,0,2.3,0.4,3,1.2
			c0.7,0.8,1,1.9,1,3.2c0,1.6-0.4,3.1-1.3,4.4c-0.9,1.3-2.1,2-3.6,2C211.9,65.4,210.7,64.6,210.2,63z M214.6,59.6
			c0.5,0,0.9-0.2,1.2-0.5c0.3-0.3,0.5-0.7,0.5-1.2c0-0.4-0.1-0.8-0.4-1.1s-0.7-0.4-1.1-0.4c-0.5,0-0.9,0.2-1.2,0.5
			c-0.3,0.3-0.5,0.7-0.5,1.2c0,0.4,0.1,0.8,0.4,1.1C213.8,59.4,214.2,59.6,214.6,59.6z"/>
	</g>
	<g>
		<path class="st1" d="M237.1,73.7l-0.3,2H229l0.3-2h2.8l1-6c-0.5,0.5-1.3,0.8-2.4,0.8c-0.1,0-0.3,0-0.5,0l0.3-1.9
			c1.7,0,2.8-0.5,3.5-1.6h1.8l-1.5,8.7H237.1z"/>
		<path class="st1" d="M242.6,75.9c-1.2,0-2.1-0.4-2.8-1.3c-0.6-0.9-1-2-1-3.3c0-1.6,0.4-3,1.2-4.3c0.8-1.3,1.9-2,3.4-2
			c1.1,0,2,0.4,2.7,1.2c0.7,0.8,1,1.9,1,3.3c0,1.7-0.4,3.2-1.2,4.4S244,75.9,242.6,75.9z M242.7,74.1c0.8,0,1.3-0.6,1.6-1.9
			c0.3-1.2,0.4-2.3,0.4-3.3c0-0.9-0.1-1.5-0.4-1.8c-0.3-0.3-0.6-0.4-1-0.4c-0.5,0-0.8,0.2-1.1,0.5c-0.3,0.3-0.5,1-0.7,1.8
			c-0.2,0.9-0.3,1.8-0.3,2.8c0,0.8,0.1,1.4,0.4,1.7C241.8,73.9,242.2,74.1,242.7,74.1z"/>
	</g>
	<g>
		<path class="st1" d="M259.3,82.8l-0.3,2h-7.8l0.3-2h2.8l1-6c-0.5,0.5-1.3,0.8-2.4,0.8c-0.1,0-0.3,0-0.5,0l0.3-1.9
			c1.7,0,2.8-0.5,3.5-1.6h1.8l-1.5,8.7H259.3z"/>
		<path class="st1" d="M269.1,82.8l-0.3,2h-7.8l0.3-2h2.8l1-6c-0.5,0.5-1.3,0.8-2.4,0.8c-0.1,0-0.3,0-0.5,0l0.3-1.9
			c1.7,0,2.8-0.5,3.5-1.6h1.8l-1.5,8.7H269.1z"/>
	</g>
	<g>
		<path class="st1" d="M280.9,91.5l-0.3,2h-7.8l0.3-2h2.8l1-6c-0.5,0.5-1.3,0.8-2.4,0.8c-0.1,0-0.3,0-0.5,0l0.3-1.9
			c1.7,0,2.8-0.5,3.5-1.6h1.8l-1.5,8.7H280.9z"/>
		<path class="st1" d="M290.5,91.5l-0.3,2h-7.8l0.3-2.3c2.9-1.8,4.7-3,5.2-3.5c0.5-0.6,0.8-1.1,0.8-1.6c0-0.4-0.1-0.7-0.4-1
			s-0.6-0.4-1-0.4c-1,0-1.6,0.6-1.9,1.9l-2.2-0.5c0.3-1.1,0.8-1.9,1.5-2.5c0.7-0.6,1.6-0.9,2.6-0.9c1.1,0,2,0.3,2.7,0.9
			c0.7,0.6,1.1,1.4,1.1,2.4c0,0.7-0.2,1.4-0.6,1.9s-1,1.1-1.8,1.5c-0.8,0.5-2,1.1-3.6,1.9H290.5z"/>
	</g>
	<g>
		<path class="st1" d="M302.9,100.6l-0.3,2h-7.8l0.3-2h2.8l1-6c-0.5,0.5-1.3,0.8-2.4,0.8c-0.1,0-0.3,0-0.5,0l0.3-1.9
			c1.7,0,2.8-0.5,3.5-1.6h1.8l-1.5,8.7H302.9z"/>
		<path class="st1" d="M304.4,99.6l2-0.4c0.3,1.1,1,1.7,2,1.7c0.5,0,0.9-0.1,1.3-0.4c0.3-0.3,0.5-0.6,0.5-1.1c0-0.3-0.1-0.6-0.3-0.9
			c-0.2-0.2-0.4-0.4-0.7-0.5s-0.6-0.1-1.1-0.1h-0.8l0.2-1.8h1.1c1.3,0,1.9-0.4,1.9-1.3c0-0.4-0.1-0.7-0.4-0.9
			c-0.3-0.2-0.6-0.3-1-0.3c-0.8,0-1.4,0.4-1.8,1.3l-2.1-0.6c0.7-1.7,2-2.5,3.9-2.5c1.1,0,2,0.3,2.7,0.8c0.7,0.5,1.1,1.2,1.1,2.1
			c0,0.6-0.2,1.1-0.5,1.6s-0.9,0.8-1.5,0.9c0.6,0.2,1,0.5,1.3,1c0.3,0.4,0.4,0.9,0.4,1.4c0,0.9-0.4,1.6-1.1,2.3s-1.7,1-2.9,1
			c-1.1,0-2.1-0.3-2.8-0.9S304.6,100.6,304.4,99.6z"/>
	</g>
	<g>
		<path class="st1" d="M21.6,36.6l-0.3,2h-7.8l0.3-2h2.8l1-6c-0.5,0.5-1.3,0.8-2.4,0.8c-0.1,0-0.3,0-0.5,0l0.3-1.9
			c1.7,0,2.8-0.5,3.5-1.6h1.8l-1.5,8.7H21.6z"/>
	</g>
	<g>
		<path class="st1" d="M324.9,110.9l-0.3,2h-7.8l0.3-2h2.8l1-6c-0.5,0.5-1.3,0.8-2.4,0.8c-0.1,0-0.3,0-0.5,0l0.3-1.9
			c1.7,0,2.8-0.5,3.5-1.6h1.8l-1.5,8.7H324.9z"/>
		<path class="st1" d="M335.1,108.7l-0.3,1.9h-1.6l-0.4,2.4h-2.4l0.4-2.4h-4.4l0.3-1.9l5-6.3h2.8l-1.1,6.3H335.1z M331.3,108.7
			l0.7-4.2l-3.5,4.2H331.3z"/>
	</g>
	<g>
		<path class="st1" d="M383.9,117.9l-0.3,2h-7.8l0.3-2h2.8l1-6c-0.5,0.5-1.3,0.8-2.4,0.8c-0.1,0-0.3,0-0.5,0l0.3-1.9
			c1.7,0,2.8-0.5,3.5-1.6h1.8l-1.5,8.7H383.9z"/>
		<path class="st1" d="M393.9,112.3l-2.1,0.2c-0.1-1-0.6-1.5-1.4-1.5c-1.3,0-2,1.2-2.3,3.6c0.5-0.9,1.3-1.4,2.3-1.4
			c0.9,0,1.7,0.3,2.3,0.9c0.6,0.6,0.9,1.4,0.9,2.3c0,1-0.3,1.8-1,2.5c-0.7,0.7-1.6,1.1-2.8,1.1c-1.2,0-2.2-0.4-2.9-1.2
			c-0.7-0.8-1.1-1.9-1.1-3.4c0-1.7,0.4-3.2,1.3-4.4c0.8-1.2,2-1.9,3.5-1.9c1,0,1.8,0.3,2.4,0.8S393.7,111.3,393.9,112.3z
			 M389.6,118.3c0.5,0,0.8-0.2,1.1-0.5c0.3-0.3,0.5-0.7,0.5-1.2c0-0.5-0.1-0.9-0.4-1.2c-0.3-0.3-0.7-0.5-1.1-0.5
			c-0.5,0-0.8,0.2-1.2,0.5c-0.3,0.3-0.5,0.7-0.5,1.2c0,0.5,0.2,0.9,0.5,1.2C388.8,118.1,389.2,118.3,389.6,118.3z"/>
	</g>
	<g>
		<path class="st1" d="M408.8,117.9l-0.3,2h-7.8l0.3-2h2.8l1-6c-0.5,0.5-1.3,0.8-2.4,0.8c-0.1,0-0.3,0-0.5,0l0.3-1.9
			c1.7,0,2.8-0.5,3.5-1.6h1.8l-1.5,8.7H408.8z"/>
		<path class="st1" d="M418.5,109.5l-0.2,1.7c-1,0.9-2,2.2-2.9,3.7c-0.9,1.6-1.4,3.3-1.5,5h-2.8c0.2-1.2,0.6-2.4,1.2-3.8
			c0.7-1.3,1.4-2.4,2.2-3.3c0.8-0.8,1.4-1.3,1.6-1.5h-5.4l0.4-2H418.5z"/>
	</g>
	<g>
		<path class="st1" d="M432,117.9l-0.3,2h-7.8l0.3-2h2.8l1-6c-0.5,0.5-1.3,0.8-2.4,0.8c-0.1,0-0.3,0-0.5,0l0.3-1.9
			c1.7,0,2.8-0.5,3.5-1.6h1.8l-1.5,8.7H432z"/>
		<path class="st1" d="M436.2,114.7c-0.9-0.6-1.4-1.3-1.4-2.2c0-0.8,0.4-1.6,1.1-2.2c0.7-0.6,1.7-1,3-1c1,0,1.9,0.2,2.5,0.7
			c0.6,0.4,1,1,1,1.8c0,1.1-0.7,1.9-2.2,2.5c1.2,0.5,1.8,1.3,1.8,2.4c0,0.9-0.4,1.7-1.2,2.4c-0.8,0.6-1.8,0.9-3.1,0.9
			c-1.2,0-2.1-0.2-2.9-0.7c-0.7-0.4-1.1-1.1-1.1-1.9c0-0.6,0.2-1.2,0.7-1.7S435.5,114.9,436.2,114.7z M437.3,115.4
			c-0.5,0.1-0.9,0.3-1.2,0.6s-0.4,0.7-0.4,1c0,0.4,0.2,0.8,0.6,1.1c0.4,0.3,0.9,0.4,1.5,0.4c0.6,0,1-0.1,1.4-0.3
			c0.4-0.2,0.5-0.5,0.5-1c0-0.4-0.2-0.7-0.6-0.9C438.8,116,438.2,115.7,437.3,115.4z M439.2,113.7c0.8-0.4,1.3-0.9,1.3-1.5
			c0-0.4-0.2-0.7-0.5-1c-0.3-0.3-0.8-0.4-1.3-0.4c-0.5,0-0.9,0.1-1.2,0.3c-0.3,0.2-0.5,0.5-0.5,0.8
			C437,112.6,437.7,113.2,439.2,113.7z"/>
		<path class="st1" d="M455.3,117.9l-0.3,2h-7.8l0.3-2h2.8l1-6c-0.5,0.5-1.3,0.8-2.4,0.8c-0.1,0-0.3,0-0.5,0l0.3-1.9
			c1.7,0,2.8-0.5,3.5-1.6h1.8l-1.5,8.7H455.3z"/>
		<path class="st1" d="M457,117.6l2.1-0.5c0.2,0.7,0.7,1.1,1.4,1.1c0.7,0,1.2-0.3,1.6-0.9s0.7-1.6,1-2.9c-0.5,1.1-1.3,1.6-2.4,1.6
			c-0.8,0-1.6-0.3-2.2-0.9c-0.6-0.6-1-1.3-1-2.3c0-0.9,0.4-1.8,1.1-2.5c0.7-0.7,1.6-1.1,2.8-1.1c1.3,0,2.3,0.4,3,1.2
			c0.7,0.8,1,1.9,1,3.2c0,1.6-0.4,3.1-1.3,4.4c-0.9,1.3-2.1,2-3.6,2C458.7,120.1,457.5,119.2,457,117.6z M461.4,114.2
			c0.5,0,0.9-0.2,1.2-0.5c0.3-0.3,0.5-0.7,0.5-1.2c0-0.4-0.1-0.8-0.4-1.1s-0.7-0.4-1.1-0.4c-0.5,0-0.9,0.2-1.2,0.5
			c-0.3,0.3-0.5,0.7-0.5,1.2c0,0.4,0.1,0.8,0.4,1.1C460.6,114.1,461,114.2,461.4,114.2z"/>
	</g>
	<g>
		<path class="st1" d="M480,117.9l-0.3,2H472l0.3-2.3c2.9-1.8,4.7-3,5.2-3.5c0.5-0.6,0.8-1.1,0.8-1.6c0-0.4-0.1-0.7-0.4-1
			s-0.6-0.4-1-0.4c-1,0-1.6,0.6-1.9,1.9l-2.2-0.5c0.3-1.1,0.8-1.9,1.5-2.5c0.7-0.6,1.6-0.9,2.6-0.9c1.1,0,2,0.3,2.7,0.9
			c0.7,0.6,1.1,1.4,1.1,2.4c0,0.7-0.2,1.4-0.6,1.9s-1,1.1-1.8,1.5c-0.8,0.5-2,1.1-3.6,1.9H480z"/>
		<path class="st1" d="M486.2,120.1c-1.2,0-2.1-0.4-2.8-1.3c-0.6-0.9-1-2-1-3.3c0-1.6,0.4-3,1.2-4.3c0.8-1.3,1.9-2,3.4-2
			c1.1,0,2,0.4,2.7,1.2c0.7,0.8,1,1.9,1,3.3c0,1.7-0.4,3.2-1.2,4.4S487.6,120.1,486.2,120.1z M486.3,118.3c0.8,0,1.3-0.6,1.6-1.9
			c0.3-1.2,0.4-2.3,0.4-3.3c0-0.9-0.1-1.5-0.4-1.8c-0.3-0.3-0.6-0.4-1-0.4c-0.5,0-0.8,0.2-1.1,0.5c-0.3,0.3-0.5,1-0.7,1.8
			c-0.2,0.9-0.3,1.8-0.3,2.8c0,0.8,0.1,1.4,0.4,1.7C485.5,118.1,485.8,118.3,486.3,118.3z"/>
	</g>
	<g>
		<path class="st1" d="M504.4,117.5l-0.3,2h-7.8l0.3-2.3c2.9-1.8,4.7-3,5.2-3.5c0.5-0.6,0.8-1.1,0.8-1.6c0-0.4-0.1-0.7-0.4-1
			s-0.6-0.4-1-0.4c-1,0-1.6,0.6-1.9,1.9l-2.2-0.5c0.3-1.1,0.8-1.9,1.5-2.5c0.7-0.6,1.6-0.9,2.6-0.9c1.1,0,2,0.3,2.7,0.9
			c0.7,0.6,1.1,1.4,1.1,2.4c0,0.7-0.2,1.4-0.6,1.9s-1,1.1-1.8,1.5c-0.8,0.5-2,1.1-3.6,1.9H504.4z"/>
		<path class="st1" d="M514.5,117.4l-0.3,2h-7.8l0.3-2h2.8l1-6c-0.5,0.5-1.3,0.8-2.4,0.8c-0.1,0-0.3,0-0.5,0l0.3-1.9
			c1.7,0,2.8-0.5,3.5-1.6h1.8l-1.5,8.7H514.5z"/>
	</g>
	<g>
		<path class="st1" d="M528.3,117.5l-0.3,2h-7.8l0.3-2.3c2.9-1.8,4.7-3,5.2-3.5c0.5-0.6,0.8-1.1,0.8-1.6c0-0.4-0.1-0.7-0.4-1
			s-0.6-0.4-1-0.4c-1,0-1.6,0.6-1.9,1.9l-2.2-0.5c0.3-1.1,0.8-1.9,1.5-2.5c0.7-0.6,1.6-0.9,2.6-0.9c1.1,0,2,0.3,2.7,0.9
			c0.7,0.6,1.1,1.4,1.1,2.4c0,0.7-0.2,1.4-0.6,1.9s-1,1.1-1.8,1.5c-0.8,0.5-2,1.1-3.6,1.9H528.3z"/>
		<path class="st1" d="M538.3,117.5l-0.3,2h-7.8l0.3-2.3c2.9-1.8,4.7-3,5.2-3.5c0.5-0.6,0.8-1.1,0.8-1.6c0-0.4-0.1-0.7-0.4-1
			s-0.6-0.4-1-0.4c-1,0-1.6,0.6-1.9,1.9l-2.2-0.5c0.3-1.1,0.8-1.9,1.5-2.5c0.7-0.6,1.6-0.9,2.6-0.9c1.1,0,2,0.3,2.7,0.9
			c0.7,0.6,1.1,1.4,1.1,2.4c0,0.7-0.2,1.4-0.6,1.9s-1,1.1-1.8,1.5c-0.8,0.5-2,1.1-3.6,1.9H538.3z"/>
	</g>
	<g>
		<polygon class="st2" points="327.9,140.6 350.4,85.6 372.5,85.7 372.5,144.7 		"/>
		<path class="st1" d="M350.7,86.1l21.2,0.1v58l-43.3-4L350.7,86.1 M350.1,85.1l-22.9,56l45.8,4.2V85.2L350.1,85.1L350.1,85.1z"/>
	</g>
	<g>
		<polygon class="st2" points="150.6,66.3 150.6,6.7 193.3,21.4 171.2,74.6 		"/>
		<path class="st1" d="M151.1,7.4l41.5,14.3l-21.7,52.2L151.1,66L151.1,7.4 M150.1,6l0,60.7l21.4,8.6l22.5-54.1L150.1,6L150.1,6z"/>
	</g>
	<g>
		<path class="st1" d="M171.3,34.1l-0.2,1.7c-1,0.9-2,2.2-2.9,3.7c-0.9,1.6-1.4,3.3-1.5,5h-2.8c0.2-1.2,0.6-2.4,1.2-3.8
			c0.7-1.3,1.4-2.4,2.2-3.3s1.4-1.3,1.6-1.5h-5.4l0.4-2H171.3z"/>
	</g>
	<g>
		<path class="st1" d="M353.7,117.9l-0.3,2h-7.8l0.3-2h2.8l1-6c-0.5,0.5-1.3,0.8-2.4,0.8c-0.1,0-0.3,0-0.5,0l0.3-1.9
			c1.7,0,2.8-0.5,3.5-1.6h1.8l-1.5,8.7H353.7z"/>
		<path class="st1" d="M364.2,109.5l-0.5,2.1H359l-0.6,2.4c0.5-0.6,1.2-0.9,2-0.9c0.9,0,1.7,0.3,2.3,0.9c0.6,0.6,1,1.4,1,2.3
			c0,1.1-0.4,2-1.2,2.7c-0.8,0.7-1.8,1.1-3,1.1c-1,0-1.9-0.3-2.7-0.8c-0.8-0.5-1.2-1.2-1.4-2.1l2.3-0.4c0.2,0.9,0.8,1.3,1.8,1.3
			c0.5,0,1-0.2,1.3-0.5c0.3-0.3,0.5-0.8,0.5-1.3c0-0.5-0.1-0.8-0.4-1.1c-0.3-0.3-0.7-0.4-1.1-0.4c-0.6,0-1.1,0.3-1.6,0.8l-2-0.7
			l1.3-5.5H364.2z"/>
	</g>
	<g>
		<path class="st1" d="M550.1,117.5l-0.3,2h-7.8l0.3-2.3c2.9-1.8,4.7-3,5.2-3.5c0.5-0.6,0.8-1.1,0.8-1.6c0-0.4-0.1-0.7-0.4-1
			s-0.6-0.4-1-0.4c-1,0-1.6,0.6-1.9,1.9l-2.2-0.5c0.3-1.1,0.8-1.9,1.5-2.5c0.7-0.6,1.6-0.9,2.6-0.9c1.1,0,2,0.3,2.7,0.9
			c0.7,0.6,1.1,1.4,1.1,2.4c0,0.7-0.2,1.4-0.6,1.9s-1,1.1-1.8,1.5c-0.8,0.5-2,1.1-3.6,1.9H550.1z"/>
		<path class="st1" d="M552,116.5l2-0.4c0.3,1.1,1,1.7,2,1.7c0.5,0,0.9-0.1,1.3-0.4c0.3-0.3,0.5-0.6,0.5-1.1c0-0.3-0.1-0.6-0.3-0.9
			c-0.2-0.2-0.4-0.4-0.7-0.5s-0.6-0.1-1.1-0.1H555l0.2-1.8h1.1c1.3,0,1.9-0.4,1.9-1.3c0-0.4-0.1-0.7-0.4-0.9c-0.3-0.2-0.6-0.3-1-0.3
			c-0.8,0-1.4,0.4-1.8,1.3l-2.1-0.6c0.7-1.7,2-2.5,3.9-2.5c1.1,0,2,0.3,2.7,0.8c0.7,0.5,1.1,1.2,1.1,2.1c0,0.6-0.2,1.1-0.5,1.6
			s-0.9,0.8-1.5,0.9c0.6,0.2,1,0.5,1.3,1c0.3,0.4,0.4,0.9,0.4,1.4c0,0.9-0.4,1.6-1.1,2.3s-1.7,1-2.9,1c-1.1,0-2.1-0.3-2.8-0.9
			S552.2,117.5,552,116.5z"/>
	</g>
</g>
</svg>
