<svg xmlns="http://www.w3.org/2000/svg" viewBox="0 0 178.5 618.1"><defs><style>.cls-1{fill:#317082;}.cls-2{fill:#383838;}.cls-3{fill:none;}</style></defs><title>level4_1</title><g id="Layer_2" data-name="Layer 2"><g id="Layer_2-2" data-name="Layer 2"><path class="cls-1" d="M178.5,314.3V509.9a45.1,45.1,0,0,0-5.3.9c-2.1.5-2.6.2-2.6-2.1a4.1,4.1,0,0,1-.1-1.1V445.5c.1-.9-.4-1.2-1.3-1.2l-10.5-.4h-4.9c-8.1.2-16.2-.4-24.3.4-1.6.1-1.7.1-1.7,1.7v42.5a1.3,1.3,0,0,1-1.3,1.4l-6,1.1-14.2,2.4-13,2.5-11.6,1.9-12.9,2.3c.2,1.1-.4,1.6-1.4,1.8l-12.5,2.3-12.2,2.1-9.5,1.6-5.4.8c-1.5.3-3,.7-4.6.9a1.2,1.2,0,0,1-1.2-.3c-.7-1-1.6-.8-2.6-.6l-8.7,1.6-3.1.6c-1.4.2-1.8-.2-1.8-1.5s-.1-2-.1-3V448.6a19.5,19.5,0,0,1,.2-2.5c.1-1.5,0-1.8-1.6-1.8H0V70.9H5.1c-.6-3-1-5.8-1.6-8.5C2.7,58,1.8,53.7.9,49.5A6.1,6.1,0,0,0,0,47.7V39.8l6.3-1.2c1.4-.2,1.8,0,2.1,1.5s.5,2.5.8,3.8S9.6,46,8.7,47s-.1.7-.1,1.1l.6,3,3.3,16.7c.3,1.5.6,1.8,2,1.5l7-1.3c2-.4,2-.5,2.5,1.5s.6,1.3,1.8,1.1l3.1-.5,11.5-2.4,13.1-2.5,12.6-2.5,13.8-2.6c3.4-.7,6.7-1.5,10.1-2.1l11.9-2.3c1.8-.3,1.8-.4,1.6-2.3s.1-1.4,1-1.6l1.4-.5,16.2-3.2,16.7-3.3,20.3-4,2.9-.5,9.3-1.7c1-.2,1.5.1,1.6,1.1s.8,3.7,1.1,5.5a1.6,1.6,0,0,1-.2,1.2,2,2,0,0,0-.5,2.4c.7,3.8,1.6,7.6,2.3,11.3s1,5,1.5,7.5c.2.8.2,1.8,1.4,1.8V314.3ZM109.9,430.7l.4.3.6,1.1.5-.4-1.1-.7-.4-.3-.3-.4-1.1-1.1-.4-.3-1.4-1.5-.3-.3-1.1-1.1h0l1.1,1.1.3.3,1.5,1.5.3.3,1.1,1.1Zm-5.7-5.4h0l-.7-1.1h0Zm8.9,8.6.4.3,1.4,1.4,1.5,1.5h0l-1.5-1.4-1.4-1.5-.3-.3-.9-.9-.2.2ZM13.6,311.8c1.1-1.3,2.4-1.1,3.6-1.1H128.1c.4.1,1.1.3,1.3.7a1.1,1.1,0,0,0,1.6.5,1.9,1.9,0,0,0,.7-1.3,12.1,12.1,0,0,0,0-1.9V186.2c.1-1.2.3-1.4,1.5-1.5h28.9c1.8,0,2-.2,2-1.9V155.6c0-1.7-.1-1.8-2-1.8s-6.6,0-10,0h-2.5c-1.5-.1-1.8-.4-1.9-2V73.3c0-2.3.2-2.4,2.4-2.5h19.5c-.1-.6,0-1.1-.1-1.6-.5-2.3-.9-4.5-1.4-6.8-.9-4.4-1.7-8.7-2.6-13.1-.2-1.4-.5-1.5-1.9-1.3L158.7,49l-14.4,2.9L127,55.3l-6.3,1.1c-1.9.4-2.1.7-2.1,2.5V75.5c0,.9-.3,1.5-1.3,1.5H109a1.1,1.1,0,0,1-1.2-1c-.3-1.2-.6-2.4-.8-3.7s-.6-3.6-1-5.4l-1.5-7.5c-.2-1.2-.4-1.5-1.6-1.3s-1.8.5-2.7.6-3.4.6-5.1.9L83.8,62l-7.4,1.3L66.3,65.5,54.9,67.6l-12,2.5L26.2,73.4c-.7.1-1.2.3-1.4,1.1s-.6.9-1,1-1.2.6-1.3,1.5-.7,1.4-1.7,1.4H16.4c-2.8,0-2.8,0-2.8,2.8V311.8ZM97.4,434.7a3.8,3.8,0,0,1,.4,1.3v4.6c0,1-.4,1.6-1.4,1.7s-1.8.8-1.8,2.2v18.7c0,1.9.1,2,2,2h21.3c1.9,0,2,0,2-1.9V443.8a6.8,6.8,0,0,0-.2-1.4l-1.3-.2a1.3,1.3,0,0,1-1.3-1.4,2.2,2.2,0,0,0-1.3-2.3,10.6,10.6,0,0,1-1.5-1.5c-3.6-3.6-7.2-7.1-10.7-10.8a2.7,2.7,0,0,0-2.6-.9,12.8,12.8,0,0,1,1.4-2.3,1,1,0,0,1,1.6-.1l6,5.9,7.6,7.6a1.6,1.6,0,0,0,1.1.5h44.1a1.2,1.2,0,0,0,1.3-1.3V315.4a1,1,0,0,0-1.1-1.1H136.6a19.7,19.7,0,0,1-2.4-.3c-.9-.1-1.7-.4-2.5-.4H16.1c-2.5,0-2.5,0-2.5,2.6V500.5a1,1,0,0,0,1.3,1.1l2.2-.3,12-2,12-2.3,5.7-.9,12.4-2.3,8.7-1.6,3.4-.6,10.5-1.8v-.3H23.3c-1,0-1.6-.3-1.6-1.4s-.3-3.6-.3-5.3V442.1a13.4,13.4,0,0,1,.1-2c.2-3.1.2-3.1,3.3-3.1H94.4c1.9,0,1.8,0,2.5-1.7C96.9,435.2,97.1,435,97.4,434.7Zm-8.9,52.9V440.2a1.2,1.2,0,0,0-1.3-1.3H49.4c-1.6.1-1.7.1-1.9,1.7s-.5,4.3-.9,6.5c-.7,4.3-1.5,8.6-2.2,13s-1.3,8.7-1.9,13c-.3,1.6-.5,3.3-.8,4.9s-.8,5.6-1.3,8.5c-.1.8.2,1.2,1.1,1.2h43ZM23.5,439v48.8H33.9a40.2,40.2,0,0,0,4.9-.2v-.5H27.3c-2.2,0-2.3-.2-2.3-2.4-.1-5.8,0-11.6,0-17.4v-1.1a1.2,1.2,0,0,1,1.3-1.2H38.5c1.3,0,1.8.5,1.8,1.9v10.9a28.5,28.5,0,0,1-.3,2.9h.3c.2-1.2.3-2.3.5-3.5,1.1-7.6,2.3-15.1,3.5-22.7L46.4,442l.3-1.9a1.1,1.1,0,0,0-1-1.2H23.5Zm94.6,31.9c.6-.6,1.4-.9,1.7-1.5a3,3,0,0,0,0-2.1,1.9,1.9,0,0,0-.9-.9H95.6a1.7,1.7,0,0,0-.9.7,5.3,5.3,0,0,0,.1,2.5c.1.4.9.6,1.3.9a1,1,0,0,1,.4.5c-.1.2-.1.3-.2.4s-1.9,1.5-1.7,2.9v1.8c0,1.9.1,2,2,2h21.2c2.1,0,2.1-.1,2.1-2.2v-1.8c0-1.2.1-2.4-1.5-2.8S118.2,471,118.1,470.9Zm-78.8,5.3h-.1c0-2.7.1-5.5,0-8.2s-.2-2-1.9-2H27.9c-1.6,0-1.8.2-1.8,1.7v16.6c0,1.5.2,1.7,1.6,1.7h9.8c1.6,0,1.7-.2,1.7-1.8S39.3,478.9,39.3,476.2Zm110-214.4h12.1a6.6,6.6,0,0,1,1.4,0c.9,0,1.3-.4,1.3-1.3v-4.3c0-.9-1.1-2.2-1.8-2.1a7.5,7.5,0,0,1-4.9,0,3.2,3.2,0,0,1-3.4,0h-.5c-1.3.4-2.6.9-4,.1s-.7.1-1,.2a2.2,2.2,0,0,1-2.2.1,3.1,3.1,0,0,0-2.1-.1,2.8,2.8,0,0,1-2.2.1,2.8,2.8,0,0,0-1.8-.1,2.6,2.6,0,0,1-2.7,0,2.1,2.1,0,0,0-2.9,1.8c-.1,1.1,0,2.2,0,3.4s0,2.3,2.2,2.3Zm.2,42.8h13c1.5,0,1.6-.1,1.6-1.6v-3.4c0-2.1-1.2-2.9-3.3-2.3a1.8,1.8,0,0,1-1.2.2,5.3,5.3,0,0,0-3.9,0,2.2,2.2,0,0,1-1.1-.1h-5.4l-6.4.2h-1a3.4,3.4,0,0,0-1.4-.1,4.4,4.4,0,0,1-3-.2,2.2,2.2,0,0,0-2.8,2v3.7c0,1.7.1,1.8,1.8,1.8Zm-.2-102.7h13c1.6,0,1.8-.2,1.8-1.7v-3.6c0-1.5-.3-1.9-1.8-2a6.6,6.6,0,0,0-1.4.1H142.6l-5.8-.3c-1.6,0-2.2.7-2.2,2.3v3c0,2.1.1,2.1,2.1,2.2Zm0,8.5h13.1c1.5,0,1.7-.2,1.7-1.6s.1-2.5,0-3.7-.5-1.9-1.7-1.9-3.3.5-4.9-.3h-.3c-2.3.6-4.5.1-6.8.2H149l-6.2.2c-2-.1-3.9-.3-5.9-.3s-2.3.5-2.3,2.2v3.3c0,1.8.1,1.8,1.8,1.8Zm-.1,59.9h13.2c1.5,0,1.7-.2,1.7-1.6s.1-2.5,0-3.8a2,2,0,0,0-3.3-1.7c-.7.5-1.5.7-2.1,0s-1.3-.7-2.1-.1a1.5,1.5,0,0,1-2.3-.1.9.9,0,0,0-1.6,0,1.4,1.4,0,0,1-2.3.1,1.3,1.3,0,0,0-2.1,0c-.8.7-1.4.7-2.1-.1s-1.2-.6-1.9.1a1.5,1.5,0,0,1-2.3,0,1.3,1.3,0,0,0-2,0,1.5,1.5,0,0,1-2.4-.1c-.6-.5-1.2-.6-1.6-.2s-1.7,1.3-1.5,2.7a13.1,13.1,0,0,1,.1,2.8c0,2,.1,2,2,2Zm.1-51.4h12.8c1.8,0,2-.1,2-1.9v-2.1c.1-1.4-.1-2.5-1.4-3.2s-1-.6-1.6,0a1.7,1.7,0,0,1-2.5,0c-.6-.7-1.1-.6-1.8-.1a1.5,1.5,0,0,1-2.4,0c-.7-.5-1.2-.6-1.8.1a1.6,1.6,0,0,1-2.4.1c-.6-.7-1.1-.6-1.7-.1s-1.6.7-2.7-.1-.9-.5-1.5.1-1.5.7-2.5-.1a1.1,1.1,0,0,0-1.6-.1c-1.2,1-1.5,1-2.6.1a.8.8,0,0,0-1.4,0c-1.6,1.2-1.6,1.2-1.6,3.4v2c0,1.8.1,1.9,1.9,1.9Zm-14.7,5.2h0v2.3a1,1,0,0,0,1.1,1.1h27.2a1.1,1.1,0,0,0,1.2-1.2c0-1.5.1-3,0-4.4a2.1,2.1,0,0,0-3.1-1.5c-.8.4-1.6.7-2.3,0s-1.4-.7-2.1-.1a1.3,1.3,0,0,1-2,0,1.4,1.4,0,0,0-2.1,0,1.5,1.5,0,0,1-2.2,0c-.6-.6-1.1-.5-1.7,0a1.9,1.9,0,0,1-2.7-.1,1.2,1.2,0,0,0-1.8.1,1.3,1.3,0,0,1-2,0c-.8-.6-1.5-.7-2.2,0a1.5,1.5,0,0,1-2.1,0c-.4-.2-1.1-.5-1.4-.3s-2.1,1.2-1.8,2.7A6.5,6.5,0,0,1,134.6,224.1Zm0,72.1h28.3a1.1,1.1,0,0,0,1.2-1.2c0-1.3.1-2.7,0-4s-1.4-2.3-3-1.9a4.5,4.5,0,0,1-2.3,0,2.2,2.2,0,0,0-2.1,0,2.5,2.5,0,0,1-2.5,0,1.3,1.3,0,0,0-1.2-.1,3.1,3.1,0,0,1-3.2-.1.9.9,0,0,0-.7,0c-2,1.2-4.3-.6-6.4.5-.2.1-.7-.3-1-.3a3,3,0,0,0-1.3-.1,3.4,3.4,0,0,1-3.1,0,2.2,2.2,0,0,0-2.7,1.9Zm0-51.5h28.2a1.2,1.2,0,0,0,1.3-1.3c0-1.5.1-2.9,0-4.3a2,2,0,0,0-2.7-1.5c-1.2.6-2.2.1-3.4-.2s-2.2.9-3.4.4-.3-.3-.5-.3a2.9,2.9,0,0,0-1.3.1,2.7,2.7,0,0,1-3.4-.6,2.9,2.9,0,0,1-3.6.5c-1.3-.5-2.6,1.1-3.9.2l-.3-.2h-1.2a3.4,3.4,0,0,1-3.1.1,2.1,2.1,0,0,0-2.7,1.8Zm29.5,34.2v-5.1a2.1,2.1,0,0,0-2.9-1.9c-1.1.5-2.1.1-3.2-.2s-2.2.9-3.4.4l-.3-.2a1.3,1.3,0,0,0-1.6,0,2.7,2.7,0,0,1-2.6,0,1.7,1.7,0,0,0-1.2-.1,4.5,4.5,0,0,1-3.4,0,19.4,19.4,0,0,0-3.4.2h-.3c-.5,0-1.1-.2-1.5,0a3.7,3.7,0,0,1-2.9,0c-.9-.5-2.7.4-2.8,1.3v5.7Zm-29.5-85.8h28.3c.8,0,1.2-.3,1.2-1.1s.1-3,0-4.4a2.1,2.1,0,0,0-3.3-1.6c-.7.5-1.4.7-2,0a1.5,1.5,0,0,0-2.1,0,1.4,1.4,0,0,1-2.2,0,1.5,1.5,0,0,0-2.1,0,1.6,1.6,0,0,1-2.2-.1,1.2,1.2,0,0,0-1.8.1,1.3,1.3,0,0,1-2,.1,1.5,1.5,0,0,0-2.2-.1,1.6,1.6,0,0,1-2.3,0,1.2,1.2,0,0,0-1.9,0,1.7,1.7,0,0,1-2.2.1,2.2,2.2,0,0,0-3.2,1.4C134.5,189.3,134.6,191,134.6,193.1Zm2.2,35.3c-.2.2-.3.5-.5.5-2.1.5-1.7,2.1-1.7,3.5v2c0,1,.4,1.4,1.4,1.4h24.6c4,0,3.5.4,3.5-3.5.1-1.5.2-2.9-1.6-3.4l-.6-.5c-1.2,1.2-2.4,1.5-3.7.2s-.8,0-1.1.2-1.7.8-3,0-.9-.4-1-.2-2.5.9-3.8-.2c-1.4,1.7-2.8.9-4.2-.1-1.4,1.8-2.8,1.1-4.2.1C139.1,229.7,138.5,229.7,136.8,228.4Zm.2,17.2a12.8,12.8,0,0,0-1.7,1,2.3,2.3,0,0,0-.7,1c-.1,1.4,0,2.8,0,4.1s.5,1.2,1.3,1.2h27.2c.3-.1.9-.4.9-.7a25.7,25.7,0,0,0,0-4.8c-.1-.5-1-.9-1.6-1.4l-.5-.4c-.5.3-.9.8-1.2.8s-2.1-.6-3.1-.4-2.1.8-3.2.2h-.3a1.7,1.7,0,0,0-1.2,0,2.7,2.7,0,0,1-3.5-.5c-1.4,1.1-2.5,1.3-4.4,0a2.5,2.5,0,0,1-3.3.5,2.6,2.6,0,0,0-1.5.1A2.5,2.5,0,0,1,137,245.6Zm-2.4,38.3h0v2.2a.9.9,0,0,0,1,1l6.4.2h20.9c.8,0,1.2-.5,1.2-1.3v-3.5c-.1-1.5-1.4-2.3-3-1.9a5.3,5.3,0,0,1-2.5-.1,3.3,3.3,0,0,0-1.7,0,4.2,4.2,0,0,1-2.2.2,3.1,3.1,0,0,0-2.5,0c-.8.2-1.9-.5-2.8-.3s-2,.8-2.9.3a2.5,2.5,0,0,0-2.5,0c-1.1.5-2.1-.5-3.1-.4s-1.9.8-3,.4-3.3.1-3.3,2.4Zm2.5,21.7c-2.5.5-2.7,2.2-2.5,4.1v1.2a1.1,1.1,0,0,0,1.2,1.2h27.4c.4-.1.8-.5.8-.8a14.7,14.7,0,0,0-.1-4.2c-.1-.6-1.2-1-1.9-1.5h-.2a2.8,2.8,0,0,1-3.7.4h-.7a2.9,2.9,0,0,1-3.8-.4c-1.8,1.2-2.2,1.3-4.3.1-1.7,1-1.6.7-3.6.5s-3.4.5-5.1-.2A2.6,2.6,0,0,1,137.1,305.6ZM66,494.2H65l-11.7,1.9L36,499.2l-12.3,2.2c-1.3.3-1.7.7-1.5,1.7a2,2,0,0,0,2.1,1.6l3.6-.6,5.8-1.1a4.6,4.6,0,0,0,2-.9,2.1,2.1,0,0,1,2.6-.5,4,4,0,0,0,1.5.3L51,500l13-2.3C66,497.4,66.6,496.4,66,494.2Zm67.4-308.3h-.6v125a6.1,6.1,0,0,0,.3,1.1h.3ZM163,438.3H132.7c-.8.1-1.1.6-.8,1.4s1,1.4,2.6,1.4h25.9C162.3,441,162.5,440.8,163,438.3ZM16,311.9v.2H127.8v-.2ZM23.1,508v.5l44.5-7.7v-.4l-.5-.2Zm65.2-19.7H88v.2Zm-4.6,1h0Zm-61-1.3h0Z"/><path class="cls-1" d="M20.3,357H17.1c-2,0-2.4-.4-2.4-2.4s-.1-5.5,0-8.3.2-2.1,2.2-2.2h3.3a12.1,12.1,0,0,0,.1-1.9V324.1a6.6,6.6,0,0,1,.1-1.4c0-1.3.3-1.6,1.6-1.6H50.7c.9-.1,1.5.3,1.4,1.3v47.3c0,2.7,0,2.7,2.8,2.7H93.8a1.4,1.4,0,0,1,1.5,1.6v28.9a1.3,1.3,0,0,1-1.3,1.4H23.2c-2.8,0-2.9-.1-2.9-2.8V357Zm54.8,16.5c0,.5-.1.8-.1,1.2v26.9c0,1.6.2,1.8,1.9,1.9H92.4c2,0,2.2-.2,2.2-2.3V375.7c0-2.1-.1-2.2-2.3-2.2H75.1ZM21.4,362.6h0v37.8a10.9,10.9,0,0,0,.1,1.8,1.1,1.1,0,0,0,1.2,1.2H71.4c2.5,0,2.6-.1,2.5-2.6a1.7,1.7,0,0,0-.1-.7c-.2-.3-.5-.8-.9-.9H71.3c-7.4,0-14.8.1-22.3,0H27.8c-2.1,0-2.1-.1-2.1-2.2a5.6,5.6,0,0,1,0-1.3V324.7c0-.6-.1-1.2-.1-1.8s-.3-1-1-1.1c-2.6-.4-3.2,0-3.2,2.6Zm41.5,30.2H72c1.7,0,1.8-.1,1.9-1.8V375c-.1-1.6-.2-1.7-1.8-1.7H54.3c-1.9,0-2.1.2-2.1,2.2-.1,5.1-.1,10.3,0,15.5,0,1.7.1,1.8,1.8,1.8Zm-31-42.5c0,.5-.1.9-.1,1.3v19.1c0,1.6.1,1.7,1.7,1.7H49.9c1.2-.1,1.4-.3,1.3-1.4a24.4,24.4,0,0,1-.1-2.7c-.1-5.3,0-10.6-.1-15.9,0-2-.1-2-2.1-2.1Zm19.2-12h0v-9.4c0-1.7,0-1.7-1.7-1.7H33.7c-1.8.1-1.9.2-1.9,2v18.1c0,2,.1,2.1,2,2.1H50c.8,0,1.2-.2,1.2-1.1C51.1,345,51.1,341.6,51.1,338.3ZM31.9,373.5a7.8,7.8,0,0,1-.1.9v16.8c0,1.4.2,1.6,1.7,1.6H49.9l1.1-.2a.4.4,0,0,1,.1-.3c0-5.9.1-11.8.2-17.6,0-1-.4-1.2-1.3-1.2H31.9Zm7-51.7H29.4c-2.7,0-2.9.3-2.6,3v.3a2.1,2.1,0,0,0,1,.9,3.2,3.2,0,0,0,1.4.1H48.8c2.3,0,2.3,0,2.3-2.4s-.2-1.9-2-1.9Zm12.3,72.6-2.2-.2H28.2c-.9,0-1.3.3-1.4,1.2v1.6c.1,1.1.4,1.3,1.6,1.3H48.7a4.3,4.3,0,0,0,1.6-.1c.3-.1.8-.5.8-.9A12.4,12.4,0,0,0,51.2,394.4ZM26.8,338c0,3.2-.1,6.4,0,9.6a2.4,2.4,0,0,0,.7,1.7,2,2,0,0,0,3.2-1.7V337.2c0-2.8,0-5.6-.1-8.3,0-.5-.1-1.4-.4-1.5a6.2,6.2,0,0,0-2.7-.1c-.9.1-.7,1-.7,1.6Zm.1,12.4a17,17,0,0,0-.1,2.2v18.2c0,.5.2,1.3.4,1.4a10.1,10.1,0,0,0,3,0c.3-.1.4-1.2.4-1.8.1-5.6.1-11.2,0-16.9C30.6,350.4,31.4,350.2,26.9,350.4Zm36.3,47.8h8.9c1.5-.1,1.8-.4,1.8-2.2s-.2-1.7-1.8-1.7l-18.6-.2a1.4,1.4,0,0,0-1.2.8c-.8,1.9.1,3.3,2.2,3.3ZM30.5,373.5H28.9c-2,.1-2.1.1-2.1,2.1v15.6c0,.4.2,1.3.5,1.3a6.2,6.2,0,0,0,2.7.1c.9-.2.6-1.1.6-1.8.1-5.2.1-10.5.1-15.7A11.5,11.5,0,0,0,30.5,373.5Z"/><path class="cls-1" d="M159.5,370.9V332a10.9,10.9,0,0,1,.1-1.8c.1-.3.4-.8.7-.8a1.3,1.3,0,0,1,1.2.4,8,8,0,0,1,2,5.5V406c0,1.7,0,3.4-1.6,4.7s-.1.7-.3,1a2,2,0,0,1-1.1.6,1.6,1.6,0,0,1-.9-.9,16.2,16.2,0,0,1-.1-2.2Zm2.4,38.2c.6-1.9.7-74.9,0-76.9Zm-1.2,1.4h.1V330.7h-.1Z"/><path class="cls-1" d="M83.2,342v15.5c0,2-.1,2.1-2.1,2.1H64.5c-1.9,0-2-.1-2-1.9V326.3c0-1.9.1-2.1,2-2.1H81.1c2,.1,2.1.2,2.1,2.2Zm-1.1.1V327.3c0-1.8-.2-1.9-2-1.9H65.5c-1.8,0-2,.1-2,1.9v29.8c0,1.6.2,1.8,1.9,1.8H80c2,0,2.1-.1,2.1-2.2Z"/><path class="cls-1" d="M98.2,432.4a4.7,4.7,0,0,1,2.1-5.2C99.6,429,98.9,430.5,98.2,432.4Z"/><path class="cls-1" d="M25,450.7c0-3-.1-6,0-8.9s.1-1.9,1.8-1.9H38.4c1.6,0,1.7.1,1.7,1.7.1,6,.2,12,.2,18,0,1.8-.2,2.1-2,2.1H27c-1.8,0-2-.3-2-2.1S25,453.7,25,450.7Zm1.1.2c0,2.8-.1,5.7,0,8.5s.2,1.5,1.4,1.5h9.8c1.7,0,1.9-.3,1.9-2,.1-5.5.1-11,0-16.6,0-1.6-.1-1.7-1.9-1.7H27.9c-1.7,0-1.8.1-1.8,1.8Z"/><path class="cls-1" d="M107,470.1c.9.4,2.2-.3,2.2.9s-1.2.7-1.9.7-1.8.4-2-.8S106.5,470.3,107,470.1Z"/><path class="cls-1" d="M98.7,470.7a5.3,5.3,0,0,1,3.7-.3l.5.5a1.1,1.1,0,0,1-.3.6A3.9,3.9,0,0,1,98.7,470.7Z"/><path class="cls-1" d="M111.3,470.9a4.2,4.2,0,0,1,3.7-.4c.2.1.2.6.3,1a17.7,17.7,0,0,1-2.3.1C112.5,471.6,112.1,471.2,111.3,470.9Z"/><path class="cls-2" d="M118.7,365h-3.4v-2.3a4.8,4.8,0,0,0,2.7-.8,2.9,2.9,0,0,0,1.4-2.2h2.7v14.9h-3.4Z"/><path class="cls-2" d="M130.8,375a7.6,7.6,0,0,1-2.7-.5,5.8,5.8,0,0,1-1.9-1.5,6.6,6.6,0,0,1-1.3-2.5,10.4,10.4,0,0,1-.4-3.2,11.5,11.5,0,0,1,.4-3.3,5.8,5.8,0,0,1,1.3-2.6,5.2,5.2,0,0,1,1.9-1.4,7.6,7.6,0,0,1,2.7-.5,6.6,6.6,0,0,1,2.1.3,8,8,0,0,1,1.6.8l1.1,1.2a4.7,4.7,0,0,1,.6,1.5h-3.3a2.4,2.4,0,0,0-.6-.9,2,2,0,0,0-1.4-.5c-2,0-3.1,1.5-3.2,4.5h0a4,4,0,0,1,1.5-1.4,4.6,4.6,0,0,1,2.1-.5,4.9,4.9,0,0,1,2.1.4A3.6,3.6,0,0,1,135,366a4.8,4.8,0,0,1,1.2,1.6,4.9,4.9,0,0,1,.4,2.1,5.4,5.4,0,0,1-.4,2.2,4.8,4.8,0,0,1-1.2,1.6,4.5,4.5,0,0,1-1.9,1.1A5.6,5.6,0,0,1,130.8,375Zm-.1-2.5,1.1-.2.8-.6a2,2,0,0,0,.6-.9,3,3,0,0,0,.2-1,3.6,3.6,0,0,0-.2-1.1,1.8,1.8,0,0,0-.6-.9l-.8-.5a2.3,2.3,0,0,0-1.1-.3,2.7,2.7,0,0,0-2.8,2.8,3,3,0,0,0,.2,1l.6.9.9.6Z"/><rect class="cls-3" width="178.5" height="618.1"/></g></g></svg>