<svg xmlns="http://www.w3.org/2000/svg" viewBox="0 0 180 617.5"><defs><style>.cls-1{fill:#317082;}.cls-2{fill:#383838;}</style></defs><title>level3</title><g id="Layer_2" data-name="Layer 2"><g id="Layer_2-2" data-name="Layer 2"><path class="cls-1" d="M16.4,183.8l1,.6a1.4,1.4,0,0,0,.2-.6V93.6a8.6,8.6,0,0,0,0-1.6,1.3,1.3,0,0,0-.4-.7c-.3-.2-.9-.3-.9-.6a2.8,2.8,0,0,1,0-1.8,1,1,0,0,1,.9-.6,5.3,5.3,0,0,1,1.8-.1H67.7c2.9,0,2.9,0,2.9,2.9v31.3c-.1,2-.2,2.2-2.2,2.2H45.7c-.7,0-1,.4-1,1.1v59.8c-.1,1.6-.2,1.7-1.8,1.7-8.3.1-16.7.1-25,0-1.6,0-1.7-.1-1.7-1.7A12.8,12.8,0,0,1,16.4,183.8Zm7.1-60.5H67.4c2,0,2.1-.1,2.1-2V91.4c0-2-.2-2.1-2.2-2.1H45.7c-.3.1-.9.3-1,.6s-1.1,1.2-2.1,1.2H29.1c0,1.3.1,2.4,0,3.5,0,2.7-.2,5.5-.2,8.2s.2,3.8.2,5.7-.6,3.1-3,3.3l-.5.3v2.7a3.1,3.1,0,0,1-.3,1.7c-.3.5-.4.8,0,1.2s-.1.7-.2.7a1.1,1.1,0,0,1-.8-.2Zm4.8,42.5c1,.2.9,1,.8,1.6,0,2.1-.3,4.3-.2,6.4s.2,7.1.3,10.7H43.5V125.7c0-.8-.4-1.1-1.2-1.1l-5.5-.3H26.5a20.9,20.9,0,0,0-2.8.4c.2,2.9.4,5.5.4,8.1s.1,8.3,0,12.4c0,1.3-.3,2.6-.4,3.9a30.8,30.8,0,0,0,0,4.3,23.6,23.6,0,0,0,.4,2.8c.2,2.1.3,4.2.4,6.3s.4,1.3,1.3,1.3l1.7.2c.2,0,.3.3.4.5l-1.2.8.7,2.2h.4Zm-9.9-58.7v14.2c0,2,.1,2.1,2.2,2.1h.5c1,.1,1.6-.2,1.6-1.3a35.7,35.7,0,0,1,.4-4.7c.6-2.6.3-5.3.8-8,.9-5.4-.4-10.8-1-16.2-.2-2.1-.3-2.1-2.5-2.1s-2,0-2,2.1Zm0,61.3v14.2c0,.6.1,1.5.4,1.6a9.2,9.2,0,0,0,2.9.4c.9,0,1-.8,1-1.5.1-3.4,1.2-6.6,1.1-10.1,0-.2.1-.5.1-.8,0-2.1,0-4.1-.1-6.1s-.3-3.2-.4-4.8-.3-4.4-.4-6.6a11.6,11.6,0,0,0-.4-1.8c-.1-.3-.3-.7-.4-.7a11.2,11.2,0,0,0-3.2.3c-.4.2-.6,1.2-.6,1.9Zm0-30.8h0v11.5c0,1.6.4,2,1.9,2.1s2.1-.1,2.4-1.7.3-2.1.3-3.1V129.6a25.8,25.8,0,0,0-.4-4,1.5,1.5,0,0,0-.6-1,2.2,2.2,0,0,0-3.6,1.9Zm-1.2,48.2v.4l1.8.2H41.8c.5,0,1.3.3,1.6-.6-1.3-.4-19.9-.7-25.1-.3A4.5,4.5,0,0,0,17.2,185.8ZM43.4,89.6v-.2h-26V90H42.7ZM26,167v15.5A24.2,24.2,0,0,0,26,167Zm0-58.5a24,24,0,0,0,0-15.2Zm1.7-.6a2.4,2.4,0,0,0-.5,2.9C28.3,109.9,28.1,108.9,27.7,107.9Zm-1,76.7c1.5-.6,1.6-1.1.8-3.2Zm.7-90.8h.4c.4-1.9.2-2.4-1-2.2Z"/><path class="cls-1" d="M76,441v29.7a6.6,6.6,0,0,1-.1,1.4,1.2,1.2,0,0,1-1.2,1.3H30.8c-.9,0-1.3-.4-1.3-1.3V411.5c0-2.7.2-2.9,2.9-2.9H73.6c2.2,0,2.4.2,2.4,2.5V441ZM31.4,427.4c0,.8-.1,1.1-.1,1.5v40.8c0,1.8.1,1.9,2,1.9H72.2c1.7,0,1.9-.2,1.9-1.8q.2-16.7,0-33.3c0-1.4-.1-1.6-1.6-1.9l-5.4-1.1-10.4-1.8-11.6-1.9-3.8-.6Zm42.4,6.4.3-.7c0-7.1,0-14.1.1-21.1,0-.9-.5-1.2-1.4-1.3l-8.4-.2-9.7.2-7.5-.2H32.8c-1.3,0-1.5.2-1.5,1.6v13.2a4.3,4.3,0,0,1,.1.5h.3V414.1c0-1.8.1-1.9,1.9-1.9H50.9a85.6,85.6,0,0,1,0,13.4c-.1,1.6-.2,1.6-1.7,1.6H37.3ZM41.6,412.9H34.9c-1.7,0-1.8.1-1.8,1.7v9.9c0,1.6.2,1.7,1.6,1.7H48.4c1.5,0,1.6-.1,1.6-1.7v-9.9c0-1.6-.1-1.7-1.8-1.7Zm-9.8-3.8h0Zm40.9.1c0-.1-.1-.1-.1-.2h-.1v.2Z"/><path class="cls-1" d="M100.8,259.3v45.1c0,2.7,0,2.7-2.6,2.7H69.9a1,1,0,0,1-1.1-1.1,5.3,5.3,0,0,1-.1-1.3V263.2a28.7,28.7,0,0,0-.9-7.8,19.3,19.3,0,0,1-.1-3.4,43.3,43.3,0,0,0,.2-6.2c-.3-3.3.5-6.4.8-9.6s0-8.4,0-12.6,0-6.8.1-10.2.3-2.4,2.4-2.4H98.5c2.2,0,2.3.1,2.3,2.4ZM70.6,275.8v1.9H71l-.4-1.8-.2-1.9H70A1.4,1.4,0,0,0,70.6,275.8Zm0-5.1v1.9H71l-.4-1.9-.2-1.8H70A1.3,1.3,0,0,0,70.6,270.7Zm0-7.5c.4-.7.7-1.2,1.6-1.2H84.7c1.2,0,1.3.2,1.4,1.5v7.2c1.8-.3,2.7.2,2.8,1.3s-.7,2.9-2.8,3.1V280c0,2.2,0,2.2-2.2,2.2s-7.3.1-10.9,0a7.2,7.2,0,0,1-2.2-.4,9.2,9.2,0,0,0-.8,2.7,8.8,8.8,0,0,0,.6,2.7c0,.2.1.4,0,.5a6,6,0,0,0,0,4.9,6.5,6.5,0,0,0,0,5.3c-1,1.9-.2,3.8,0,5.8v.7c.1.6.2,1.1.3,1.9s1.6-.4,2.2-.7a2.8,2.8,0,0,1,2.9,0,1.8,1.8,0,0,0,2.2,0,2.7,2.7,0,0,1,3,0,2.8,2.8,0,0,0,2.2,0,3.6,3.6,0,0,1,2.5,0c1.2.5,2,.1,3-.1s1.5-1.4,1.5-2.5-.1-.2,0-.3l.6-.9c.4.2,1,.4,1,.8a6.1,6.1,0,0,1,0,1.9c0,.5,0,1.1.2,1.3s1,0,1.3-.2a3.1,3.1,0,0,1,3.1.1,2.2,2.2,0,0,0,2.8-.7,4.2,4.2,0,0,0,.3-1.9V215.6a6.1,6.1,0,0,0-.1-1.4,2,2,0,0,0-3.4-1.2c-.7.6-1.7.7-2.1.2s-2.1-.7-3.3-1c1.7.8,1.4,2.2,1.3,3.5s-.6.6-1,.9-.7-.6-.7-1a2.5,2.5,0,0,0-1.4-2.5c-1.5-.7-1.8-1-3.1-.1a1.7,1.7,0,0,1-2.3,0c-1.1-.9-1.7-.8-3,0a1.4,1.4,0,0,1-2.1,0c-1.1-.9-1.6-.8-2.9,0s-1.8.5-2,.2-2-.7-3-.8h0c-.1.5.1,1.2-.2,1.5a2.4,2.4,0,0,0-.1,2.7,4.3,4.3,0,0,1,0,2.5c-.4.9-.6,1.5-.1,2.3a3.2,3.2,0,0,1,0,3.3,1.8,1.8,0,0,0,.1,2.2,2.6,2.6,0,0,1,0,2.7,2.4,2.4,0,0,0-.1,2.3,4.5,4.5,0,0,1,.1,2.8c-.7,2-.7,2.1,1,3.4s.3.3.4.4c-2.4.2-1.8,1.9-1.9,3.3v16.7l1.4.2q-.3,1.7-.6,3a7.5,7.5,0,0,0,0,1.5c-.9.8-.9.8-.1,2.1ZM72,280.8l.3.2H84.2c.7,0,1-.5,1-1.2s.1-3.9,0-5.9-1.1-1.4-1.9-.8-.4.5-.6.7a2.1,2.1,0,0,1-3.3.1,2.6,2.6,0,0,1-.4-3.6,2.6,2.6,0,0,1,3.6-.2,5,5,0,0,1,.7.8,1.3,1.3,0,0,0,1.9-.7V264c0-1-.6-1.2-1.4-1.1a14.7,14.7,0,0,1-2.1,0h-8c-1.4,0-1.7.4-1.7,1.9Zm-2.1-.3h.5v-1.4H70Zm.8-13.2h.1v-1.1h-.1Z"/><path class="cls-1" d="M119.5,98.3a17.3,17.3,0,0,1,2,1.5l6.4,8.7,3.5,4.8c1.7,2.2,1.6,3.2-.7,4.9l-14.1,10.2c-1.1.7-1.7.7-2.6-.2a21.6,21.6,0,0,1-2.7-3.3l-7.5-10.1-.3-.4c-1.9-2.6-1.7-3.6.9-5.5l12.9-9.4Zm-13.7,15.1-.3-.4-.7-1-.4-.4-.2-.3.2.3.4.4.7,1,.3.4h0Zm24.5.4h0l.4.3h0Zm-24.5,1.8h0Zm.8,1h0l.3.4.4.4.3.7.4.3h0l-.4-.3-.3-.7-.4-.4Zm2.1,2.9h0Zm.7,1.1h0l.4.4.4.7.3.3.4.4h0l-.4-.4-.3-.3-.4-.7Zm11.2-20.2h0l.4.4.3.7h0l-.3-.7Zm-9,23.1.4.3h0Zm1.1,1.4h0Zm1.1,1.5h0Zm10.4-20.9-.4-.4v0l.4.4h0Zm1.1,1.4.3.4Zm2.1,2.9h0l.4.4h0Zm2.2,2.9h0l-.4-.4-.3-.3-.4-.8h0l.4.8.3.3Zm-4.7-4.3-.3-.4-1.8-2.5-1.1-1.5-.7-1-1.1-1.5-.9-1.3-.3.3,1.2,1L121,103l.7,1,1.1,1.5,1.8,2.5.3.4.4.7.7.7a3.8,3.8,0,0,0,1.8,2.5l.7,1.1.4.4,1.1,1.4.3.7.4.5h.1l-.5-.4-.3-.7-1.1-1.4-.4-.4-.7-1.1-1.8-2.5-.7-.7Zm-15.1,10.4-.4-.4-1.8-2.5-1-1.5-.3.3,1.3,1.2,1.8,2.5.4.4a1.2,1.2,0,0,0,1.1,1.4h0Zm4.7,6.5h0c-.5-1.7-1.9-2.8-2.8-4.1l-.4.3Zm15.4-8.2-12.1-16.3-12.9,9.4,12,16.4Zm-14.4,10.1.3-.3-.6-.6H115Z"/><path class="cls-1" d="M82.4,157.6v-24c0-2.2,0-2.2,2.3-2.2h17.8c1.4.1,1.5.3,1.6,1.7v49.1c-.1,1.5-.3,1.8-1.9,1.8h-18c-1.6,0-1.8-.3-1.8-2.2Zm20.5.3V134.3c0-1.7-.1-1.8-1.6-1.8H85.2c-1.6,0-1.7.1-1.7,1.8V181c0,1.8.1,1.8,1.9,1.8h15.8c1.7,0,1.7-.1,1.7-1.7V157.9Z"/><path class="cls-1" d="M89.7,465.2v4.7c-.1,1.5-.2,1.7-1.7,1.9a10.1,10.1,0,0,1-3-.1c-.3,0-.7-.7-.7-1-.1-3.5-.1-7,0-10.4,0-.8.4-1.4,1.1-1.4a13.8,13.8,0,0,1,3.5-.1c.3,0,.7.8.7,1.2s.1,3.5.1,5.2Z"/><path class="cls-1" d="M16.9,93.1a7.5,7.5,0,0,1,.4,1.6L17,105.2c0,1.8.1,3.5.1,5.3s-.1,5.8-.1,8.7l.3,7.2a8.6,8.6,0,0,1-.1,1.6,1.4,1.4,0,0,1-.8.9,5.1,5.1,0,0,1-.2-1.3c0-1.5.1-3,0-4.5s-.4-1.9-.6-2.9a8.6,8.6,0,0,1-.1-1.6v-7.3c0-1.5-.2-3,.6-4.4a6.6,6.6,0,0,0,.1-2V95c0-.6.1-1.2.1-1.8Z"/><path class="cls-1" d="M16.4,173.9c-.2-8.9-.2-17.8-.2-26.7h.6a5.9,5.9,0,0,1,.4,1.7c.1,5.1.2,10.1,0,15.1-.1,2.8.3,5.5.1,8.2C17.2,172.8,17.5,173.6,16.4,173.9Z"/><path class="cls-1" d="M16.4,144.8a39.3,39.3,0,0,1-.1-6.9,2.3,2.3,0,0,1,1,2.1C17.4,143.6,17.4,143.9,16.4,144.8Z"/><path class="cls-1" d="M97.8,314.6c-1.2,1-4.3,1.1-5.7.3C93.1,314.1,95.7,314,97.8,314.6Z"/><path class="cls-1" d="M61.2,314.7c1.8-.7,3.6-.5,5.8-.2A6.2,6.2,0,0,1,61.2,314.7Z"/><path class="cls-1" d="M107.8,314.6a5,5,0,0,1-5.5-.1A12.7,12.7,0,0,1,107.8,314.6Z"/><path class="cls-1" d="M150.8,411.3c-.2.3-.4.7-.7.8s-2.6,2-4.3,1.9a7.9,7.9,0,0,1,4.7-3.1Z"/><path class="cls-1" d="M51,314.5a9.3,9.3,0,0,1,5.5.3c-1.6,1-3.1.4-4.6.5S51,315.2,51,314.5Z"/><path class="cls-1" d="M71.5,314.7a8,8,0,0,1,5.3,0C75.7,315.7,72.7,315.7,71.5,314.7Z"/><path class="cls-1" d="M112.7,314.5a15.6,15.6,0,0,1,5.7,0A5,5,0,0,1,112.7,314.5Z"/><path class="cls-1" d="M87.2,315.1a7.8,7.8,0,0,1-5-.3c1.7-.8,3.4-.5,5-.4Z"/><path class="cls-1" d="M133.8,433.2c-.3-1.5-.3-1.5,1.1-5.4l.6.6c-.3,1.5-.7,3-1.1,4.4S134.1,433,133.8,433.2Z"/><path class="cls-1" d="M79.7,377c-1,1.5-2.7,2.2-4,3.4l-.3-.2c0-.3-.1-.8.1-.9S77.9,377.1,79.7,377Z"/><path class="cls-1" d="M16.3,136.2v-5.4c1.4,1,.9,2.2.9,3.3S17.2,135.5,16.3,136.2Z"/><path class="cls-1" d="M152.6,410.3a6,6,0,0,1,5.1-1.4C156.1,409.6,154.5,410.5,152.6,410.3Z"/><path class="cls-1" d="M136.2,426.4a5.4,5.4,0,0,1,2.8-5.2A26.1,26.1,0,0,1,136.2,426.4Z"/><path class="cls-1" d="M99,450.5a7.4,7.4,0,0,1,1.8-4.9C101.1,447.6,99.9,449,99,450.5Z"/><path class="cls-1" d="M67.1,393a8.3,8.3,0,0,1,2-4.8c.6,1.1-.2,1.9-.4,2.7S68.6,392.8,67.1,393Z"/><path class="cls-1" d="M81.9,375.9a6.8,6.8,0,0,1,5-1.9A7.5,7.5,0,0,1,81.9,375.9Z"/><path class="cls-1" d="M73.6,381.7a8,8,0,0,1-3.1,4.3C70.4,384.7,72,382.4,73.6,381.7Z"/><path class="cls-1" d="M140.3,419.3a8.2,8.2,0,0,1,3.7-4.1A9,9,0,0,1,140.3,419.3Z"/><path class="cls-1" d="M16.4,180.3V178C17.5,179,17.5,179.1,16.4,180.3Z"/><path class="cls-1" d="M16.8,174.8c.7.7.7,1.4-.4,2.4v-2.3Z"/><path class="cls-1" d="M133.4,287.6v-1.8h.3v1.8Z"/><path class="cls-1" d="M133.8,309v2.2C133,310.1,133,310.1,133.8,309Z"/><path class="cls-1" d="M133.8,272.3v2.2C133.1,273.4,133.1,273.4,133.8,272.3Z"/><path class="cls-1" d="M133.3,254.5v-1.9C134,253.4,134,253.4,133.3,254.5Z"/><path class="cls-1" d="M133.7,255.9v1.9h-.3v-1.9Z"/><path class="cls-1" d="M133.4,261v-1.8h.4V261Z"/><path class="cls-1" d="M133.7,292.3v1.8h-.3v-1.8Z"/><path class="cls-1" d="M133.2,307.8v-2.1C134,306.7,134,306.7,133.2,307.8Z"/><path class="cls-1" d="M133.3,300.9v-2.1a1.7,1.7,0,0,1,.6,2.1Z"/><path class="cls-1" d="M133.8,282.6v2.1a1.8,1.8,0,0,1-.4-2.1Z"/><path class="cls-1" d="M133.3,303.9v-1.7C133.9,303,133.9,303,133.3,303.9Z"/><path class="cls-1" d="M133.3,264.4v-1.8C133.9,263.5,133.9,263.5,133.3,264.4Z"/><path class="cls-1" d="M133.8,269.3v1.4h-.4v-1.5Z"/><path class="cls-1" d="M133.8,249.4v1.5h-.5v-1.5Z"/><path class="cls-1" d="M133.3,277.6v-1.5C133.9,276.7,133.9,276.7,133.3,277.6Z"/><path class="cls-1" d="M133.4,267.5V266h.3v1.5Z"/><path class="cls-1" d="M133.3,280.8v-1.6C133.9,279.9,133.9,279.9,133.3,280.8Z"/><path class="cls-1" d="M133.8,289.4v1.5h-.4v-1.5Z"/><path class="cls-1" d="M133.4,297.4v-1.9c.7.9.6,1.4.4,1.9Z"/><path class="cls-1" d="M17.1,181.9l-.5.3c-.1-.2-.3-.4-.3-.6a.4.4,0,0,1,.4-.3l.7.2Z"/><path class="cls-1" d="M29.4,230.8c1.1,1.3,1.1,1.9.1,3C28.9,232.9,29.1,232,29.4,230.8Z"/><path class="cls-1" d="M29.5,239a3.5,3.5,0,0,1-.1-3C30.5,236.9,30.5,237.5,29.5,239Z"/><path class="cls-1" d="M29.7,225.5c.7,1.3.8,2.1,0,3.1C28.9,227.6,29,226.8,29.7,225.5Z"/><path class="cls-1" d="M29.7,223.8c-.7-1.3-.8-2.2,0-3.1C30.5,221.6,30.4,222.5,29.7,223.8Z"/><path class="cls-1" d="M29.5,285.5a3.1,3.1,0,0,1,.1-3.2C30.5,283.5,30.5,284.2,29.5,285.5Z"/><path class="cls-1" d="M29.6,272.4a2,2,0,0,1,0,2.9A2.6,2.6,0,0,1,29.6,272.4Z"/><path class="cls-1" d="M29.4,277.3c1.1,1.2,1.1,1.8.2,3C28.9,279.4,29.1,278.5,29.4,277.3Z"/><path class="cls-1" d="M29.6,287.6c.9,1.5.8,1.7,0,2.8C28.9,289.6,29,288.7,29.6,287.6Z"/><path class="cls-1" d="M100.3,472.5a3.7,3.7,0,0,1,3.8,0A3.7,3.7,0,0,1,100.3,472.5Z"/><path class="cls-1" d="M116.6,472.6a3.4,3.4,0,0,1-3.5-.1C114.5,471.8,115.6,471.7,116.6,472.6Z"/><path class="cls-1" d="M110.1,472.8a4.9,4.9,0,0,1-3.4-.1C108,471.7,108.8,471.7,110.1,472.8Z"/><path class="cls-1" d="M143.1,314.5H146C145.1,315.6,144.3,315.7,143.1,314.5Z"/><path class="cls-1" d="M158.5,314.9a2.6,2.6,0,0,1-2.9.1C156.6,314,157.2,314,158.5,314.9Z"/><path class="cls-1" d="M151.3,314.7a3.2,3.2,0,0,1,3-.1C153.3,315.6,152.7,315.6,151.3,314.7Z"/><path class="cls-1" d="M138.6,314.7a2.9,2.9,0,0,1,3-.1C140.7,315.6,140.2,315.6,138.6,314.7Z"/><path class="cls-1" d="M162.5,314.8a2.1,2.1,0,0,1-2.9,0A2.1,2.1,0,0,1,162.5,314.8Z"/><path class="cls-1" d="M147.2,314.8a2.2,2.2,0,0,1,2.9,0A2.1,2.1,0,0,1,147.2,314.8Z"/><path class="cls-1" d="M145.8,298.7a16.1,16.1,0,0,1-2.2,0,.6.6,0,0,1-.5-.5.9.9,0,0,1,.5-.7C144.4,297.2,145.2,297.2,145.8,298.7Z"/><path class="cls-1" d="M161.2,299l-1.1-.9a7.5,7.5,0,0,1,1.2-.7c.6-.1,1.3,0,1.1.7S161.7,298.7,161.2,299Z"/><path class="cls-1" d="M148.5,297.1l1.2,1c-.4.2-.7.6-1.1.6s-1.2,0-1.2-.7S148,297.5,148.5,297.1Z"/><path class="cls-1" d="M152.8,299.1l-1.1-1.1c.3-.2.7-.6,1.1-.6s.7.5,1.1.8Z"/><path class="cls-1" d="M139.1,298.7c0-1.1.5-1.3,1.2-1.3s1.2.1,1,1.1Z"/><path class="cls-1" d="M157.2,299l-1.1-.9c.3-.2.7-.7,1-.7s.7.5,1,.8Z"/><path class="cls-1" d="M140.2,305.6a1.7,1.7,0,0,1,1,.1c.3.2.6.7.5,1s-.9.8-1.5.8-1.5.1-1.5-.9a1.3,1.3,0,0,1,.6-.9C139.5,305.5,139.9,305.6,140.2,305.6Z"/><path class="cls-1" d="M151.2,307.4c.3-.7.4-1.6.6-1.6a4.5,4.5,0,0,1,2.3.2c.6.2.3,1.3-.5,1.4A19.1,19.1,0,0,1,151.2,307.4Z"/><path class="cls-1" d="M145.9,307.4a16.1,16.1,0,0,1-2.2,0,1.3,1.3,0,0,1-.7-.8,1.4,1.4,0,0,1,.8-.9C145.2,305.3,145.8,305.7,145.9,307.4Z"/><path class="cls-1" d="M148.6,307.5c-.3-.1-.7,0-.9-.2a1.6,1.6,0,0,1-.5-1c0-.2.4-.5.7-.6h.7c.7,0,1.5-.1,1.5,1S149.2,307.4,148.6,307.5Z"/><path class="cls-1" d="M155.7,307.2v-1.5h2.7C158.4,307.5,158,307.7,155.7,307.2Z"/><path class="cls-1" d="M161.3,307.5c-.7-.1-1.4,0-1.4-1s.7-.9,1.4-.9,1.4,0,1.4.9S161.9,307.4,161.3,307.5Z"/><path class="cls-1" d="M146,254.1c-.6,1.8-1,2.1-2.2,1.8s-.8-.6-.8-.9.6-.8.9-.8A7,7,0,0,1,146,254.1Z"/><path class="cls-1" d="M147,254.2h2.9c.1.8.3,1.5-.8,1.7S147.6,255.8,147,254.2Z"/><path class="cls-1" d="M138.9,254.2h2.6v1.5C138.9,255.8,138.9,255.8,138.9,254.2Z"/><path class="cls-1" d="M159.6,254.1h2.3a1.2,1.2,0,0,1,.7.5,1.5,1.5,0,0,1-.4.9C161.2,256.3,160.3,255.9,159.6,254.1Z"/><path class="cls-1" d="M154.2,254.1c-.5,1.8-1.2,2.2-2.4,1.5a1.5,1.5,0,0,1-.4-.9c0-.2.4-.5.7-.5Z"/><path class="cls-1" d="M155.7,254.3h2.8c.1,1-.3,1.5-1.2,1.6S155.8,255.4,155.7,254.3Z"/><path class="cls-1" d="M140.3,290.2c-.6-.1-1.6.2-1.6-.9s.8-.9,1.5-.9,1.5,0,1.5.9S140.9,290.1,140.3,290.2Z"/><path class="cls-1" d="M144.4,290.5c-.6-.5-1.2-.7-1.4-1.1s.5-1,1.5-1,1.5.2,1.3,1S145,290.1,144.4,290.5Z"/><path class="cls-1" d="M160.8,290.2c-.1-.2-.8-.5-.8-.9s.7-.9,1.4-.9,1.2,0,1.3.8S161.9,290.1,160.8,290.2Z"/><path class="cls-1" d="M148.6,290.5c-.5-.5-1.2-.8-1.2-1.2s.6-.9,1.3-.9,1.5.2,1.3,1S149.2,290.1,148.6,290.5Z"/><path class="cls-1" d="M153.2,290.2c-1.1-.1-1.7-.2-1.6-1s.6-.8,1.2-.8,1.3.1,1.2.9S153.3,290,153.2,290.2Z"/><path class="cls-1" d="M157.1,290.6c-.6-.6-1.2-.9-1.3-1.2s.5-1,1.2-1,1.3.1,1.3.9S157.6,290,157.1,290.6Z"/><path class="cls-1" d="M149.8,281l-1.1.5c-.7,0-1.3-.3-1.2-1s.6-.7,1-.7a2.8,2.8,0,0,1,1.3.7Z"/><path class="cls-1" d="M140.2,281.8l-1.1-1.1,1.4-.8c.6-.1,1,.3.9.8A4.4,4.4,0,0,1,140.2,281.8Z"/><path class="cls-1" d="M143.1,280.1c2-.3,2-.3,2.4,1.1C143.8,281.7,143.7,281.7,143.1,280.1Z"/><path class="cls-1" d="M154.1,280.8c-.7.4-1.1.7-1.5.6s-.9-.4-.9-.7.5-1,1.1-.9A11.5,11.5,0,0,1,154.1,280.8Z"/><path class="cls-1" d="M161.5,281.8l-1.2-1.1a6,6,0,0,1,1.1-.6c.5-.1,1.2,0,1.2.7S162,281.4,161.5,281.8Z"/><path class="cls-1" d="M158,281.1c-.4.1-.8.4-1.2.3s-.5-.4-.8-.6a3.4,3.4,0,0,1,1.1-.7c.3,0,.6.4.9.6Z"/><path class="cls-1" d="M137.1,280v1.2h-.4V280Z"/><path class="cls-1" d="M157,245.5c.8,0,1.4.2,1.3,1s-.7.8-1.3.8-1.2,0-1.2-.8S156.4,245.5,157,245.5Z"/><path class="cls-1" d="M161.4,247.6c-.6-.4-1.2-.7-1.3-1.1s.5-.9,1.1-1,1.4.3,1.3,1.1S161.9,247.2,161.4,247.6Z"/><path class="cls-1" d="M140.2,247.6c-.6-.4-1.3-.7-1.4-1.1s.5-.9,1.2-1,1.3.3,1.3,1.1S140.7,247.2,140.2,247.6Z"/><path class="cls-1" d="M148.5,247.6c-.4-.5-1-.8-1-1.1s.6-1,1.2-1,1.3.4,1.2,1S149.1,247.2,148.5,247.6Z"/><path class="cls-1" d="M142.8,246.9c.5-.6.8-1.1,1.1-1.2a2.7,2.7,0,0,1,1.5.3,1,1,0,0,1,.2.9,2.8,2.8,0,0,1-1.2.4A6.2,6.2,0,0,1,142.8,246.9Z"/><path class="cls-1" d="M152.7,247.6c-.4-.4-1-.7-1-1a.9.9,0,0,1,1.2-1c.4.1.7.7,1,1Z"/><path class="cls-1" d="M80.9,359.6c.1,1-.5,1.8-1.2,1.8a1.2,1.2,0,0,1-1.3-1.2,1.3,1.3,0,0,1,1.1-1.4C80,358.8,80.6,359.4,80.9,359.6Z"/><path class="cls-1" d="M162.8,237.2c-.3.5-.4,1.3-.7,1.4a3.7,3.7,0,0,1-1.8-.4c-.2,0-.3-.8-.1-.9S161.7,236.8,162.8,237.2Z"/><path class="cls-1" d="M158.5,237.9a9.1,9.1,0,0,1-1.4.7c-.6.2-1.1,0-1.2-.8s.6-1,1.2-.9a2.9,2.9,0,0,1,1.3.5Zm-1.2.3h-.2v.2Z"/><path class="cls-1" d="M153.3,238.4Z"/><path class="cls-1" d="M63.9,412.2h7.7c1.7,0,1.8.1,1.8,1.9.1,3.7.1,7.5,0,11.3,0,1.7-.2,1.9-1.8,1.9H56.2c-1.6,0-1.8-.3-1.8-1.8-.1-3.9-.1-7.8-.1-11.6.1-1.6.2-1.7,1.7-1.7Zm0,.7H57.2c-1.6,0-1.7.1-1.7,1.7q-.2,4.9,0,9.9c0,1.6.1,1.7,1.7,1.7H70.6c1.6,0,1.7-.1,1.7-1.7q.2-5,0-9.9c0-1.6-.1-1.7-1.7-1.7Z"/><path class="cls-1" d="M90.1,220.4c.3-.5.6-1.3,1-1.3s1,.7,1,1.5,0,1.4-.9,1.4S90.4,221.2,90.1,220.4Z"/><path class="cls-1" d="M92.1,287.7c0,.7-.1,1.3-1,1.3s-.7-.8-.7-1.4-.1-1.3.7-1.3S92.1,287,92.1,287.7Z"/><path class="cls-1" d="M92.1,256.6c0,.7-.1,1.4-1,1.4s-.7-.7-.7-1.3-.2-1.3.7-1.4S92.1,255.9,92.1,256.6Z"/><path class="cls-1" d="M92.1,292.7c0,.7-.1,1.4-1,1.3s-.7-.8-.7-1.4-.1-1.3.7-1.3S92.1,292,92.1,292.7Z"/><path class="cls-1" d="M90.3,235.7c.2-.2.5-.8.9-.9s.9.7.9,1.4-.1,1.3-.9,1.3S90.4,236.7,90.3,235.7Z"/><path class="cls-1" d="M92.2,267.5c-.3.2-.6.9-1,.9s-.8-.8-.9-1.4,0-1.3.9-1.2S92.1,266.5,92.2,267.5Z"/><path class="cls-1" d="M92.2,230.3c-.1,1-.1,1.8-1,1.8s-.8-.6-.8-1.2-.2-1.5.8-1.4S91.9,230.1,92.2,230.3Z"/><path class="cls-1" d="M92.1,261.6c0,.7-.1,1.4-.9,1.4s-.8-.7-.8-1.2-.2-1.3.7-1.4S92.1,261,92.1,261.6Z"/><path class="cls-1" d="M90,246.3c.5-.6.8-1.3,1.1-1.3s1,.7,1,1.4-.2,1.3-.9,1.1S90.5,246.8,90,246.3Z"/><path class="cls-1" d="M90.4,278.8a15.5,15.5,0,0,1,0-2.2c.1-.3.4-.7.6-.7a1.4,1.4,0,0,1,1,.5,2.9,2.9,0,0,1,0,1.6C91.8,278.3,91.2,278.4,90.4,278.8Z"/><path class="cls-1" d="M90.3,297.6c.2-.2.5-.8.9-.8s1,.5.9,1.1-.5,1.4-.8,1.4S90.4,298.5,90.3,297.6Z"/><path class="cls-1" d="M91.3,270.6a4.2,4.2,0,0,1,.8,1.2c.1.6.1,1.4-.7,1.5s-1.1-.5-1-1.1a8.3,8.3,0,0,1,.4-1.5Z"/><path class="cls-1" d="M90.5,281c1.5.5,1.9,1,1.5,1.9a1,1,0,0,1-.8.6c-.3.1-.6-.4-.8-.7a.8.8,0,0,1,0-.7C90.4,281.8,90.5,281.4,90.5,281Z"/><path class="cls-1" d="M92.2,241.6c-.2.1-.5.7-.9.7s-1-.6-1-1.3.1-1.2.9-1.2S92.1,240.6,92.2,241.6Z"/><path class="cls-1" d="M92.2,250.9c-.1,1-.2,1.7-1,1.7s-.8-.5-.9-1.1.2-1.4,1-1.3S92,250.7,92.2,250.9Z"/><path class="cls-1" d="M90.4,227a13.3,13.3,0,0,1,0-2c.1-.2.5-.6.7-.6a1.1,1.1,0,0,1,.9.6C92.4,225.9,92,226.5,90.4,227Z"/><path class="cls-1" d="M87.2,238.6a2.7,2.7,0,0,1-3.1,0A2.1,2.1,0,0,1,87.2,238.6Z"/><path class="cls-1" d="M73.9,238.4a2.9,2.9,0,0,1,3-.1C75.7,239.3,75,239.3,73.9,238.4Z"/><path class="cls-1" d="M82.2,238.5a3.4,3.4,0,0,1-3.5.1C79.9,237.7,80.8,237.8,82.2,238.5Z"/><path class="cls-1" d="M84.3,259.1c.9-.5,1.7-1,2.6,0A2,2,0,0,1,84.3,259.1Z"/><path class="cls-1" d="M79.3,259.2c.8-.9,1.6-.6,2.6-.2C80.9,259.9,80.1,259.5,79.3,259.2Z"/><path class="cls-1" d="M74.1,258.8a1.5,1.5,0,0,1,2.2.5H74.2Z"/><path class="cls-1" d="M90.7,239l-1.2-.4c0-.1,0-.4.1-.4S90.6,237.9,90.7,239Z"/><path class="cls-1" d="M90.7,259c-.3.2-.4.5-.6.5s-.4-.2-.6-.3l.5-.5C90.1,258.6,90.4,258.8,90.7,259Z"/><path class="cls-1" d="M85.7,157.5V136.1c0-1,.4-1.4,1.4-1.4h12c1.4,0,1.7.4,1.7,2v39.5c0,4.2,0,4.2-4.1,4.2H87.5c-1.7,0-1.8-.1-1.8-1.9v-21Zm13.7.2V137.6c0-1.8-.1-1.8-1.9-1.8s-5.5,0-8.2,0-2.3.1-2.5,2.1V139l.3,38.8c0,1.7.1,1.8,1.9,1.8h8.3c2,0,2.1,0,2.1-2.1Z"/><path class="cls-2" d="M54.3,41.7a5.8,5.8,0,0,1-2.6-.6,4.8,4.8,0,0,1-2-1.5,6.6,6.6,0,0,1-1.3-2.5,10.2,10.2,0,0,1-.5-3.2,11.3,11.3,0,0,1,.5-3.2,7,7,0,0,1,1.3-2.4,6.2,6.2,0,0,1,2-1.6,7.6,7.6,0,0,1,2.7-.5,7.5,7.5,0,0,1,2.6.5,6.5,6.5,0,0,1,2.1,1.6,13.6,13.6,0,0,1,1.3,2.4,11.2,11.2,0,0,1,.4,3.2,10.4,10.4,0,0,1-.4,3.2A8.6,8.6,0,0,1,59,39.6a4.3,4.3,0,0,1-2,1.5A6,6,0,0,1,54.3,41.7Zm.1-2.7a2,2,0,0,0,1.3-.4,1.8,1.8,0,0,0,.9-1,3.8,3.8,0,0,0,.5-1.6,6.8,6.8,0,0,0,.2-2.1,6.5,6.5,0,0,0-.2-2,3.4,3.4,0,0,0-.5-1.6,2.4,2.4,0,0,0-.9-1.1,2.8,2.8,0,0,0-1.3-.4,2.9,2.9,0,0,0-1.4.4,2.4,2.4,0,0,0-.9,1.1,5,5,0,0,0-.5,1.6,12.3,12.3,0,0,0-.2,2,12.5,12.5,0,0,0,.2,2.1,6,6,0,0,0,.5,1.6,1.8,1.8,0,0,0,.9,1A2.1,2.1,0,0,0,54.4,39Z"/><path class="cls-2" d="M68.7,41.7a6,6,0,0,1-2.7-.6,4.8,4.8,0,0,1-2-1.5,5.4,5.4,0,0,1-1.2-2.4,10.4,10.4,0,0,1-.4-3.2,11.6,11.6,0,0,1,.3-3.3,7.2,7.2,0,0,1,1.4-2.6A4.5,4.5,0,0,1,66,26.7a6.8,6.8,0,0,1,2.7-.5,6.6,6.6,0,0,1,2.1.3,8,8,0,0,1,1.6.8,6.3,6.3,0,0,1,1.1,1.2l.6,1.5H70.8a2.4,2.4,0,0,0-.6-.9,2,2,0,0,0-1.4-.5c-2,0-3.1,1.5-3.2,4.4h0a4.7,4.7,0,0,1,1.5-1.3,4.6,4.6,0,0,1,2.1-.5,4.5,4.5,0,0,1,2,.4,3.9,3.9,0,0,1,1.7,1.1,4.8,4.8,0,0,1,1.2,1.6,6.5,6.5,0,0,1,.4,2.1,7.8,7.8,0,0,1-.4,2.2,4,4,0,0,1-1.3,1.6A5.4,5.4,0,0,1,71,41.3,5.6,5.6,0,0,1,68.7,41.7Zm-.1-2.6a1.6,1.6,0,0,0,1-.2,1.9,1.9,0,0,0,.9-.5,7,7,0,0,0,.6-.9,3,3,0,0,0,.2-1,3.6,3.6,0,0,0-.2-1.1,3.5,3.5,0,0,0-.6-.9l-.9-.6-1-.2a2.8,2.8,0,0,0-2,.8,2.6,2.6,0,0,0-.8,1.9,3.6,3.6,0,0,0,.2,1.1,2.8,2.8,0,0,0,.6.9,1.9,1.9,0,0,0,.9.5A2,2,0,0,0,68.6,39.1Z"/><path class="cls-2" d="M46.8,456.8a5.8,5.8,0,0,1-2.6-.5,5.3,5.3,0,0,1-2-1.6,5.5,5.5,0,0,1-1.3-2.4,8.3,8.3,0,0,1-.5-3.2,8,8,0,0,1,.5-3.2,6.6,6.6,0,0,1,1.3-2.5,6.2,6.2,0,0,1,2-1.5,5.8,5.8,0,0,1,2.6-.6,6,6,0,0,1,2.7.6,6.2,6.2,0,0,1,2,1.5,6.6,6.6,0,0,1,1.3,2.5,10.2,10.2,0,0,1,.5,3.2,10.7,10.7,0,0,1-.5,3.2,5.5,5.5,0,0,1-1.3,2.4,5.3,5.3,0,0,1-2,1.6A5.9,5.9,0,0,1,46.8,456.8Zm0-2.6a2.9,2.9,0,0,0,1.4-.4,2.8,2.8,0,0,0,.9-1,7.5,7.5,0,0,0,.5-1.6,13.6,13.6,0,0,0,.2-2.1,12.5,12.5,0,0,0-.2-2.1,7.5,7.5,0,0,0-.5-1.6,2.2,2.2,0,0,0-.9-1,2.1,2.1,0,0,0-1.4-.4,2,2,0,0,0-1.3.4,2.2,2.2,0,0,0-.9,1A7.6,7.6,0,0,0,44,447a13.4,13.4,0,0,0-.1,2.1,14.8,14.8,0,0,0,.1,2.1,7.6,7.6,0,0,0,.6,1.6,2.5,2.5,0,0,0,2.2,1.4Z"/><path class="cls-2" d="M56.8,452.6a25.2,25.2,0,0,1,1.4-3.3,18.9,18.9,0,0,1,1.7-2.8,19.9,19.9,0,0,1,1.9-2.1H54.2v-2.8H65.1v2.6a11.1,11.1,0,0,0-1.9,2.3,13.1,13.1,0,0,0-1.7,2.8,18.5,18.5,0,0,0-1.2,3.3,15.8,15.8,0,0,0-.5,3.8H56.2A24.4,24.4,0,0,1,56.8,452.6Z"/><path class="cls-2" d="M54.5,152.1H51.1v-2.3a5.1,5.1,0,0,0,2.8-.8,2.8,2.8,0,0,0,1.3-2.2h2.7v14.9H54.5Z"/><path class="cls-2" d="M66.3,162.1a10.3,10.3,0,0,1-2.6-.3l-1.9-1a5.5,5.5,0,0,1-1.3-1.7,5.4,5.4,0,0,1-.4-2.2h3.2a3.6,3.6,0,0,0,.2,1,2.2,2.2,0,0,0,.5.8l.9.6,1.3.2a2.6,2.6,0,0,0,1.8-.6,2.2,2.2,0,0,0,.7-1.6,1.9,1.9,0,0,0-.8-1.6,3.4,3.4,0,0,0-2-.5H65v-2.4h.8a2.4,2.4,0,0,0,1.8-.5,1.4,1.4,0,0,0,.7-1.3,1.8,1.8,0,0,0-.6-1.4,2.5,2.5,0,0,0-1.5-.5l-1.1.2-.8.5a5.6,5.6,0,0,0-.5.8,1.9,1.9,0,0,0-.1.8H60.5a4.1,4.1,0,0,1,.4-1.9A4.2,4.2,0,0,1,62,148a5.2,5.2,0,0,1,1.8-1,6.1,6.1,0,0,1,2.4-.4,7.3,7.3,0,0,1,2.2.3,6.7,6.7,0,0,1,1.7.8,3.3,3.3,0,0,1,1.1,1.3,3.4,3.4,0,0,1,.4,1.8,2.4,2.4,0,0,1-.6,1.8,5.2,5.2,0,0,1-1.9,1.2h0a4.3,4.3,0,0,1,2.2,1.3,3.6,3.6,0,0,1,.8,2.4,3.9,3.9,0,0,1-.5,2,4.4,4.4,0,0,1-1.2,1.5l-1.9.8A7.8,7.8,0,0,1,66.3,162.1Z"/><path class="cls-2" d="M49,266.1H45.6v-2.3a5.7,5.7,0,0,0,2.7-.7,3.3,3.3,0,0,0,1.4-2.3h2.7v15H49Z"/><path class="cls-2" d="M62,272.4H55.1v-3l7-8.6h3.2v9.1h2.2v2.5H65.3v3.4H62ZM57.4,270H62v-3.6a2,2,0,0,1,.1-.7v-1.5h0l-.5.7-.5.7-.5.6-1.5,2-.6.6-.5.6-.6.7Z"/><path class="cls-2" d="M142.7,469.6h-3.5v-2.3a5.1,5.1,0,0,0,2.8-.7,3.6,3.6,0,0,0,1.4-2.3h2.7v15h-3.4Z"/><path class="cls-2" d="M154.2,479.6a8,8,0,0,1-2.3-.3,4.8,4.8,0,0,1-1.9-.9,4.3,4.3,0,0,1-1.3-1.4,6,6,0,0,1-.6-1.9h3.4a2.2,2.2,0,0,0,.8,1.3,3.1,3.1,0,0,0,1.7.5,2.4,2.4,0,0,0,1.9-.7,2.7,2.7,0,0,0,0-3.8,2.9,2.9,0,0,0-1.8-.7,3.2,3.2,0,0,0-1.4.3,2.2,2.2,0,0,0-.9.7h-3.2l1.6-8.2h9v2.7h-6.6l-.7,3.3h.1a2.7,2.7,0,0,1,1.2-.9,4.8,4.8,0,0,1,1.8-.4,6.5,6.5,0,0,1,2,.4,5.4,5.4,0,0,1,1.6,1,6.4,6.4,0,0,1,1.1,1.6,4.9,4.9,0,0,1,.4,2.1,5.1,5.1,0,0,1-.5,2.2,3.3,3.3,0,0,1-1.2,1.7,5.4,5.4,0,0,1-1.8,1.1A9.9,9.9,0,0,1,154.2,479.6Z"/><path class="cls-1" d="M178.6,68.3l-2.7-13.2-1.5-7.7c.9-.4,1.5-.9,1.2-2.1s.2-.8.4-1.4c-1.5-.8-1.3-2.4-1.7-3.7s-.3-1.6-1.8-1.4l-8.6,1.7c-4.2.8-8.4,1.5-12.5,2.4a54.1,54.1,0,0,0-5.8,1.2,1.6,1.6,0,0,1-2-.6,1.2,1.2,0,0,0-1.1-.4l-14.2,2.8-4.4.9c-1.1.2-2,.6-1.8,2.1-4.1.2-8,1.9-12.1,2l-.4-.6.9-.2a1.1,1.1,0,0,0,.7-1.5c-.3-1.8-.7-3.7-1.1-5.6s-.6-3.4-1-5.1c-.9-4.3-1.8-8.6-2.6-13-.2-.9-.3-1.9-.5-2.8-1.2-6.3-2.5-12.5-3.7-18.8-.7-3.5-1.2-3.8-4.7-2.9s-4.4.9-6.6,1.4L79.7,4.1,73,5.4,62,7.8c-2.5.5-5,.7-7.4,1.2L38.1,12.3l-9.2,1.8L18,16.3c-1.6.4-3.4.6-5.1.9l-4,1c-1.2.3-1.3.5-1,1.8S9,25.2,9.5,27.9s1.3,7.2,2,10.9a5.2,5.2,0,0,1,.6,1.6c0,1.2-.1,2.3-.2,3.7A1.9,1.9,0,0,1,13,45.9c1.1,5.9,2.3,11.8,3.5,17.8.3,1.1.5,2.2.8,3.3a3.2,3.2,0,0,0,1,1,6.8,6.8,0,0,0,1.3.4l-1.1.7-3.8.7c-.8.1-1.2-.2-1.3-1.1s-.7-3.7-1.1-5.6-1.1-5.5-1.6-8.3-.7-3.4-1-5-.7-2.2.4-3.3.4-1.6.5-2.6-1.1-2.3-1.5-3.6-.4-1.6-1.9-1.4-4.8.9-7.2,1.4v7.6c.7,0,1.3.1,1.5,1.1s.9,3.7,1.2,5.6c1,4.6,1.9,9.2,2.8,13.8h.1l.9,2.8V509.8a9.7,9.7,0,0,0,.1,1.7c.1.7.5,1.2,1.3,1.1H9.3l11.9-2.1c.4-.1,1-.2,1.2,0s2.6.8,4,.6l5.8-1.2,11.8-2,7.2-1.3,7.7-1.1c2.7-.5,5.5-.9,8.2-1.5s2.7-.1,2.9-1.9c0-.2.4-.4.7-.4l2.1-.4,6.2-1,12.2-2.3,6.3-1.1,12-2.1,5.8-1,11.3-1.9c2.1-.4,2.6-.8,2.6-2.9,0-4.6.1-9.1,0-13.7,0-2.9-.1-5.9-.1-8.8-.1-6.5-.1-13.1-.1-19.6,0-.3.3-.6.4-1a15.6,15.6,0,0,1,.2,3v41.5c0,.5-.1,1.4-.3,1.5s-1.1,1.7-1.1,2.7q-.1,61.2-.1,122.4h.8V494.3l.3-1.1a3.5,3.5,0,0,1,.4,1.7v122h1.5V447h.2V616.9h1.4c0-.6.1-1.3.1-1.9s-.3-2.4-.3-3.6c.1-4.2.2-8.4.2-12.5,0-2-.2-4-.2-6,0-8.3.1-16.6.1-25,0-6.7-.1-13.4-.1-20.1,0-3.6.2-7.1.2-10.7,0-1.2-.2-2.4-.2-3.6V477.1c.1-3.2.2-6.4.2-9.6s-.1-8.2-.2-12.3v-8c0-1.6.2-1.8,1.8-1.8H164c1.5,0,1.6.1,1.6,1.7V616.9h2.9V512.1h.3V616.9H171V448.5a12.1,12.1,0,0,1,.1-1.9c.1-.3.4-.5.6-.7h.3v65.5a1,1,0,0,0,1.3,1.1l1.4-.2,5.3-.8V69.8C178.9,69.9,178.8,69,178.6,68.3ZM143.5,49.5a6.3,6.3,0,0,1,.2,1.6l-8.2,1.7-8.9,1.7c-.9.2-1.5.2-1.7-.9s0-2.2,1.1-2.4l6.3-1.2,9-1.9A1.8,1.8,0,0,1,143.5,49.5Zm-19-1.8c6-1.2,12-2.3,18-3.2-6.2,1.7-12.6,2.8-19,4,0-.1-.1-.2-.1-.4A3.6,3.6,0,0,1,124.5,47.7ZM101,2.5c3,15.5,6.1,30.9,9.2,46.6-.9-.3-.9-.9-1-1.4l-2.4-12.2c-.8-4.4-1.6-8.9-2.5-13.4s-1.9-9.1-2.9-13.7c-.4-1.9-.6-3.8-.9-5.8Zm.5,21c.5,2.6,1.1,5.2,1.7,7.9s1.6,7.7,2.3,11.5l1.5,7.2c.2.9-.1,1.2-.9,1.4l-4.6.9-8.7,1.7c-3.7.7-7.4,1.3-11.1,2.1l-14,2.9L55.2,61.5,37.8,64.8,25.3,67.4l-3.3.5c-.3-1.9-.7-3.5-1-5.2s-1.1-5.8-1.6-8.6L17.3,43.5c-1.2-6.2-2.5-12.4-3.7-18.6v-.2c-.6-2.8-.6-2.8,2.2-3.4L32.7,18l10.4-1.9,12.3-2.6c4.3-.8,8.7-1.5,13-2.4S79.3,8.9,84.7,7.8l9.2-1.7,3.3-.8c1.3,1.1,1.4,2.7,1.7,4.1C99.9,14.1,100.7,18.8,101.5,23.5ZM91.9,58.8l-5.3,1-9.3,1.8L60.4,64.8c-2.4.5-4.9.9-7.3,1.5a1.8,1.8,0,0,0-1.2.8,1.7,1.7,0,0,1-1.6,1.2l-9.7,1.9-7.9,1.5-6.2,1.2a11.2,11.2,0,0,1-.5-1.3c-.2-1.1.1-1.5,1.2-1.7l13.6-2.6L60,63.6l24.8-4.9L103.4,55c.1-.1.2,0,.5,0s.5,2.4.8,3.8L93.1,61.2l.4-.9C93.6,59,93.1,58.6,91.9,58.8Zm-.5,2.6a.1.1,0,0,1-.1.1.1.1,0,0,0-.1-.1c0-.1,0-.1.1-.1Zm-2.1.6-1,.2v-.3l.9-.2A.4.4,0,0,1,89.3,62Zm-3,.5H86l-.2-.2h.3Zm-2.2.4H84C84,62.8,84.1,62.8,84.1,62.9Zm-2.1.2v.2h-.1v-.2Zm-2.9.8a.1.1,0,0,0-.1.1v-.2h.1Zm-1.9.2c-.1.1-.1.3-.2.3l-.3-.2Zm-1.9.6h-.5s0-.2.1-.2Zm-2.7.5-.8.2c0-.1-.1-.2-.1-.3l.8-.2Zm-2.5.5h0Zm-2.1.4h0ZM31.4,67.8h.1A.1.1,0,0,0,31.4,67.8ZM36,67l.2-.2.2.2H36Zm9.2-1.9h.1c0,.1.1.1.1.2h-.1A.1.1,0,0,1,45.2,65.1Zm4.9-.8h0Zm11.5-2.2a.1.1,0,0,1,.1-.1c.1,0,.1.1.1.2h-.1A.1.1,0,0,0,61.6,62.1Zm18.3-3.9h.6c.1,0,.1.1.1.2l-.6.2A.4.4,0,0,0,79.9,58.2ZM11,18.8c4.7-.9,9.3-1.7,13.9-2.7s7.7-1.6,11.6-2.4L50,11.1,68.5,7.5l7.6-1.4L87.8,3.6l3-.6c2.5-.4,5-1,7.5-1.5a1.4,1.4,0,0,1,1,.3,10.6,10.6,0,0,1-1.9.6l-16,3L70.9,7.7C66,8.7,61,9.5,56.1,10.4L43.6,13l-13,2.5L16,18.5l-5.4,1.1-1-.3A4.7,4.7,0,0,1,11,18.8Zm7.4,47.9c-1.8-7.6-3-15.4-4.7-23s-3-15.5-4.6-23.6c1.4,1.4,1.3,2.9,1.6,4.2s1,4.6,1.4,7,.7,4.4,1.2,6.5c.7,4,1.6,7.9,2.4,11.8l2.7,14.3a26.1,26.1,0,0,0,.6,2.7ZM11,20.7a3.8,3.8,0,0,1,1.3-.4l11.1-2.2c4.5-.9,9-1.9,13.5-2.7l12.9-2.5,10.9-2.2,7.4-1.4c2.8-.5,5.7-1.3,8.5-1.9s4.6-.7,6.9-1.2L97.2,3.4h1.3c-.8,1.1-1.9,1-2.7,1.2L87.1,6.2,65.8,10.3,56,12.2,38.7,15.5,28.4,17.8c-2.3.5-4.6.8-6.9,1.2l-8.3,1.5c-1.3.3-1.4.6-1.1,2.1s.7,4.7,1.2,7L16,43.2l2.4,12.5c.7,3.6,1.5,7.2,2.3,10.9.1.4,0,.9.1,1.4h-.5C17.2,52.3,14.1,36.6,11,20.7Zm12.1,484c-.1-1.1.2-1.5,1.3-1.7l12.7-2.2,11.1-2,18-3.1H67c.7,2.7.1,3.4-2.4,3.7s-4.1.8-6.1,1.2l-2.7.5a4,4,0,0,1-1.5-.3,2,2,0,0,0-2.7.4,3.8,3.8,0,0,1-2.4,1l-15,2.6-8.9,1.6A1.9,1.9,0,0,1,23.1,504.7Zm.8,5.5a.7.7,0,0,0-.1-.5c14.9-2.6,29.7-5.4,44.6-7.8v.5Zm63.8-19.6L78,492.3l-13.6,2.4-14.3,2.6-14.3,2.4-11.5,2.2-8.7,1.3c-.9.1-1.2-.4-1.2-1.2V488.2c0-2.1,0-2.2,2.1-2.2h71a7.5,7.5,0,0,0,1.5,0c.9,0,1.3.3,1.3,1.3C90.5,490,90.4,490.1,87.7,490.6Zm33.6-14.9v2.5c0,1-.5,1.4-1.4,1.3h-22c-2.1,0-2.1,0-2.1-2.2v-4.1l1.5-.4a.6.6,0,0,0,.1-.4l-1.5-.6c0-.1-.1-.2-.1-.3-.1-4.2-.2-3.5,3.4-3.5h19.9c.8,0,1.8-.4,2.1.8a14.1,14.1,0,0,1,.1,2.1c0,.9-.7,1-1.3,1.3s-.1.2-.2.4C121.6,472.9,121.3,474.4,121.3,475.7Zm42.3-32.8c0,.3-.9.6-1.3.6H135.5c-.6,0-1.6-.2-1.7-.5a10.1,10.1,0,0,1,0-3c0-.2.5-.3.8-.4a4.8,4.8,0,0,1,1.2,0h25.7c.7,0,1.9.1,2,.4A7.1,7.1,0,0,1,163.6,442.9Zm-.1-7.2v-24h.2v24Zm2-30.1c0,9.7-.2,19.4-.2,29.1a18.2,18.2,0,0,0,.1,3.3H165a10.9,10.9,0,0,1-.1-1.8V410.2c0-2.7-.7-3.2-3.3-2.6l-1.3.6v.4l1.5.4c0,.2.2.5.2.7v26.9c0,1.8-.1,1.9-2,1.9H136.1c-2,0-2.7.4-2.6-2.3,0-.2-.1-.4-.5-.6l-.3,2.5H128c-.9,0-1.3-.5-1.2-1.3V405.4a7.1,7.1,0,0,0-.1-1.4c0-1.2-.3-1.5-1.5-1.5-4.6-.1-3.9-.4-3.9,3.5v46.1a4.8,4.8,0,0,1,0,1.2c-.2.6-.3,1.5-.6,1.5a2.5,2.5,0,0,1-2.1-.4c-1.3-1-2.3-2.2-3.5-3.3l-7.7-7.8-1.7-1.8c-1.1-1-1.9-.9-2.7.3a7.5,7.5,0,0,0-.7,1.8c1.1-.4,1.7.2,2.3.8l11.7,11.7c.4.4.7.8,1.1.9s1,.9,1.1,1.7.1,1.6,1.6,1.8,1.2.5,1.2,1.4v3.6c-.1,1.3-.2,1.3-1.5,1.4H97.6c-1.7,0-1.8-.1-1.8-1.8v-3.3c0-.8.2-1.3,1.2-1.3s2-.2,2-2.3v-3.7a18.1,18.1,0,0,0-.3-1.9c-.4.3-.6.4-.6.5-.6,1.9-.6,1.9-2.5,1.9H92.7c-2.4,0-2.4,0-2.4,2.4v25.5c0,2,0,2-2,2H16.5c-2.1,0-2.1,0-2.1-2.2V410.2c0-2.3,0-2.3,2.3-2.3H94.1a13.4,13.4,0,0,0,2,0c.5-.1,1.2-.4,1.3-.8s1.2-1,2-1h11.4c.7,0,1.4-.3,1.3-1.1s-.7-.8-1.2-1.1H99.2c-1.5,0-1.6-.1-1.6-1.7v-.9c-.1-2.1-.4-2.4-2.6-2.5s-2,.3-2.2-1.1-.7-.5-1-.5H69a1.8,1.8,0,0,1-2-1.5c-.4,1-.8,1.8-1,2.5s.1,1.7,1.3,1.8H90c1.5,0,1.8.2,1.8,1.3a1,1,0,0,1-1.1,1.1H87.6c-3.9,0-7.9.1-11.8,0-1.1,0-2.3.3-3.3-.5a1.1,1.1,0,0,0-.8.1,3.6,3.6,0,0,1-3.5.1c-.3-.1-.8-.3-1-.2s-2.5.5-3.8.5-1.5.1-1.9-1-1.2-.5-1.9-.5h-9c-1.1,0-2.1-.1-3.2,0s-1.7,0-2.1,1-.3.5-.5.5H40.2c-.2,0-.5-.4-.5-.6a6.2,6.2,0,0,1-.1-1.3V360.1c0-.5.1-1,.1-1.6a13.3,13.3,0,0,0,2,0c1,0,1.5-.5,1.5-1.6V352l.3-1.6H44a5.9,5.9,0,0,1,.2,1.3c.1,1.4,0,2.7.1,4.1s.5,2.7,2.6,2.8h1.5a18.4,18.4,0,0,1-.9,2.5,8.5,8.5,0,0,0,0,6.8,11.9,11.9,0,0,0,2.5,4.7l1.1,1c2.2,1.4,4,1.1,5.7-1a12.1,12.1,0,0,0,2.9-9.3,13.3,13.3,0,0,0-1-3.4,7.3,7.3,0,0,0-.6-1.4h2.3c1.7-.1,2-.5,2-2.1s-.1-3.4-.1-5a2.9,2.9,0,0,1,.2-.9h.4c3.3-.1,3.3-.1,3.3,3.3v8.8a2.7,2.7,0,0,1-.9,2.5,24.3,24.3,0,0,1,0-2.7c.1-.7,0-1.2-.7-1.2s-.9.4-.9,1v3.2a1.3,1.3,0,0,0,1.3,1.5c.9,0,1.2.5,1.2,1.3s.3,1.9,2.1,1.9H89.9c1.7,0,2.4,1,1.8,2.5s-.5.5-.8.6a5.7,5.7,0,0,1-1.5.3c.3.3.4.5.5.5H96a1.2,1.2,0,0,0,1.3-1,20.8,20.8,0,0,0,.3-2.3V345.7c0-2.3-.3-2.6-2.8-2.6H41.6l-2.6-.2c.1-1.3.2-2.5.2-3.7.1-6.5,0-13.1,0-19.6,0-1-.1-1.9,1.2-2.3s.5-1.1.9-1.9,3,.5,4.7-.5c-1.2-1-2.3-.6-3.4-.6s-2.2,0-3.4,0c-.1-4-.2-7.7-.3-11.5v-5c.1-1.2-.1-2.5.6-3.7a5.3,5.3,0,0,0,.1-1.8V270.9a6.8,6.8,0,0,1,.7-2.7,14,14,0,0,0,1.5-4.9c.1-5.1.1-10.3-.1-15.5a12.9,12.9,0,0,0-1.4-5,7.2,7.2,0,0,1-.7-2.8V219.3a18.8,18.8,0,0,0-.5-3.3,12.3,12.3,0,0,1-.2-2V202.2c0-2-.1-2.1-2-2.1H15.5c-.7,0-1-.3-1-1a6.6,6.6,0,0,1-.1-1.4V83.6a5.6,5.6,0,0,0,0-1.3c0-.8.3-1.2,1.1-1.3l8.1-1.7c2.8-.6,2.8-.5,2.7-3.5,2-1.1,4.3-1.1,6.5-1.6,3.9-.9,7.8-1.6,11.7-2.4l6.9-1.2,17.1-3.3,10.7-2.4,6.7-1.1,11.9-2.4,7.7-1.4a3.6,3.6,0,0,1,.4,1.1c.8,4.3,1.6,8.6,2.5,12.9a26.8,26.8,0,0,0,.7,2.7c.2.8.9.7,1.5.7h35.6a9.2,9.2,0,0,1,2.8.3l-6.9,3.5-1-1.1a1.3,1.3,0,0,0-2.1-.4l-5,3.6-3.2,2.3c-.8.5-1,1.1-.3,1.9l1.1,1.6L129.1,91l-1.8,1.8a2.1,2.1,0,0,0-.1,2.7c2.3,3.1,4.5,6.3,6.8,9.5l2.8,3.9c1.7,2,3.2,2.2,5.3.7l2.6-1.7v41.7a6.9,6.9,0,0,0,.1,2c0,.3.5.9.8.9a2.1,2.1,0,0,0,1.2-.7,5.6,5.6,0,0,0,1.1-2,8.4,8.4,0,0,0,.8-2.9V110.5l-.7-1.2c-.3-.8.2-.9,1-1l-.3,2.2a18.1,18.1,0,0,1,.3,2.3v39.6c.1,1.9.3,2.1,2.1,2.1h12.1c2.3,0,2.3,0,2.3,2.3v25.4c0,3.1,0,3.2-3.2,3.2H135.2c-2,0-2,.1-2,2.2v59.2a1.4,1.4,0,0,0,.5.9c.2-.6.3-1.2.5-1.8.5,1.2.6,65.6.1,68.4-.3-.8-.4-1.3-.7-2.2l-.6,1.6c0-.1-.1-.1-.1-.2s-.1-1.5-.1-2.3V187.4a9.7,9.7,0,0,0,0-1.7c-.1-1-.4-1.4-1.4-1.4s-1.4.5-1.4,1.5-.1.8-.1,1.2V311.4c0,3.1.3,2.8-2.8,2.9a24.3,24.3,0,0,0-2.7,0,5.3,5.3,0,0,0-1.2.3c0,.2.1.3.1.5l1.6.3h3.8c.9-.1,1.3.4,1.2,1.3v24.6c.1,1.6.5,2,1.8,1.7a1.9,1.9,0,0,0,1.1-.9,8.6,8.6,0,0,0,0-1.6c0-7.7,0-15.3.1-22.9a4.3,4.3,0,0,1,.1-1.6c0-.3.5-.5.8-.5a1.2,1.2,0,0,1,.7.5,8.6,8.6,0,0,1,.1,1.6v24.5c.1.7.4,1,1.1,1h28.4a1.1,1.1,0,0,1,1.2,1.1c0,1,.2,1.9.2,2.9q.1,7.2,0,14.4a14.9,14.9,0,0,1-.2,2.1h-3.8c-1.7,0-1.8.2-1.8,1.8a52.3,52.3,0,0,1-.1,5.6c-.2,1.8.1,2.3,1.9,2.3h1.8a1.6,1.6,0,0,0,2-1.3c.1,1.3.2,2.6.2,3.9Q165.6,390.8,165.5,405.6ZM118,455.5c-.1.1-.2.3-.4.4l-13.1-13.2.4-.4ZM15.2,312.5c-.1-.7.3-1.1,1.1-1.1H34.8c1.8,0,1.9.1,1.9,1.9v26.1c0,1.8-.1,1.9-1.8,1.9H17.1c-1.8,0-2-.2-2-2,.1-8.1.1-16.2.1-24.3Zm23.2-90.2c.2.4-.1,1.1-.3,1.7a2.9,2.9,0,0,0,0,2.7,2,2,0,0,1,0,2.3,2.8,2.8,0,0,0,.1,2.9,3.4,3.4,0,0,1,0,2c-.5,1.2-.8,2.2.1,3.4s.2.9.2,1.3a24.5,24.5,0,0,1-.8,2.9,1.3,1.3,0,0,1-.9.7c-1.9,0-3.7.1-5.6,0s-1-.6-1.3-.7a10.1,10.1,0,0,1-2.4.7c-2.5.1-5,0-7.5,0s-1.6-.1-1.6-1.5V219c0-1.4.1-1.5,1.5-1.5h7.9a3.8,3.8,0,0,1,1.6.6l2.9-.6h4.3c.8,0,1.2.3,1.2,1.2A6.6,6.6,0,0,0,38.4,222.3Zm.1,177.9v.4c0,1.8,0,1.8-2,1.8h-.7a5.3,5.3,0,0,0,.5-1.5c.2-2.1.4-4.3.4-6.4.1-4.8.2-9.7,0-14.5s-.4-8.7-.8-13.1a29.4,29.4,0,0,0-1-5.8,17.4,17.4,0,0,0-1.1-2.5h4a.9.9,0,0,1,.6.7,7.1,7.1,0,0,1,.1,1.4ZM16.2,371.8c.3-3.2.7-6.4,1.1-9.6s1-2.7,3.2-2.6h2.7c1.5.1,1.5.1,1.6,1.5a1.1,1.1,0,0,1,.1.5c0,.8.4,1.3,1.2,1.2s1-.4,1.1-1.1a16.8,16.8,0,0,1,.2-2l4.4-.2a1.8,1.8,0,0,1,1.8,1.2,5.8,5.8,0,0,1,.6,1.7c.4,3.7.6,7.4,1.1,11,1,5.7.7,11.4.6,17.1,0,3.2-.4,6.5-.7,9.8-.1,1.3-.6,1.8-2,1.8H18.1a1.7,1.7,0,0,1-1.9-1.5,4,4,0,0,1-.3-1.5c-.2-5.5-.4-10.9-.4-16.4C15.5,379.1,15.9,375.4,16.2,371.8Zm-1.2.3c-.2,1.7-.2,3.5-.5,5.3V358.5l4.4-.2c-1.9.6-2.5,2-2.7,3.8Zm11-10.6v-2.7h.1v2.7Zm12-42.7v1.4h-.1v-1.4Zm-.1-4v-1.4H38v1.4Zm.1,9v1.5h-.1v-1.5Zm0,5.1v1.4h-.1v-1.4Zm0,5.3v1.2h-.1v-1.2Zm.1,5.1v1.4h-.2c0-.5-.1-.9-.1-1.3Zm-1.5-45.6a45.1,45.1,0,0,1-5.2,0,5.2,5.2,0,0,1-1.5-.7,10.1,10.1,0,0,1-2.4.7c-2.5.1-5,0-7.5,0s-1.6-.1-1.6-1.5V270.8c0-1.4.1-1.5,1.5-1.5a69.4,69.4,0,0,1,7.9,0,12.1,12.1,0,0,0,3.8,0,26.7,26.7,0,0,1,4.9,0c1.7.1,2.4,1.2,1.7,2.8a3.5,3.5,0,0,0-.1,3.3,1.7,1.7,0,0,1,0,2.1,2.6,2.6,0,0,0,0,2.9,1.8,1.8,0,0,1,0,2,2.7,2.7,0,0,0,0,3,2.3,2.3,0,0,1,0,2.4,2.7,2.7,0,0,0,.1,3A1.8,1.8,0,0,1,36.6,293.7Zm-18.1-26V243.4h.2a2.1,2.1,0,0,1,.3.7v23c0,.2-.1.4-.1.6Zm2.8-8.8c0-.8.4-1.2,1.1-1.1s1.3.2,1.5.5,0,1.1-.5,1.5l-1.5,1.5-.6-.2Zm0-8.1c0-.3.2-.7.4-.7s.6.1.8.3a6.9,6.9,0,0,1,1.1,1.3,1,1,0,0,1,.3.9,1,1,0,0,1-.8.4H21.3A16.1,16.1,0,0,1,21.3,250.8Zm2.6,5.3c-.2-.1-.3-.5-.6-1a7.8,7.8,0,0,1,2.3.1c.4,0,.6.4.9.6a1.8,1.8,0,0,1-.9.4Zm2,2.1h1.2c.2.1,1,.2,1.2.6a5.5,5.5,0,0,1-.1,2.2c0,.1-.8.3-1,.1l-1.7-1.7C25.2,258.8,25.3,258.4,25.9,258.2Zm-.4-5.2c0-.4-.1-1,.1-1s1.1-2.3,2.8-2v3Zm0-6.2c-.2-.1-.1-.7,0-.8a7.8,7.8,0,0,1,2.1-.4c.3,0,.7.6.8,1a9.6,9.6,0,0,1,0,1.7C26.9,248.6,26.3,247.5,25.5,246.8Zm.7,2.5a1.6,1.6,0,0,1-1.6,1.6,1.5,1.5,0,0,1-1.4-1.6,1.8,1.8,0,0,1,1.6-1.4A1.5,1.5,0,0,1,26.2,249.3ZM24,246.6l-2,1.7-.7-.8c-.1-.1,0-.2,0-.3a1.4,1.4,0,0,1,2.2-1.5C23.8,245.8,24.1,246.5,24,246.6Zm-2.6,16.8c.1-.3.7-.5.8-.5a16.2,16.2,0,0,1,1.8,1.9c.3.5,0,1-.7,1.2s-2-.2-2-1.8S21.2,263.6,21.4,263.4Zm1.9-1.5a1.6,1.6,0,0,1,1.4-1.5,1.6,1.6,0,0,1,1.5,1.5,1.4,1.4,0,0,1-1.4,1.4A1.6,1.6,0,0,1,23.3,261.9Zm4.3,1c.4-.3.8.3.8.8a14.8,14.8,0,0,1,.1,2.2,17.6,17.6,0,0,1-2.3,0c-.3-.1-.8-.8-.8-.8A11.5,11.5,0,0,1,27.6,262.9Zm-5.9-18.6c-.2,0-.5-.3-.7-.4s.5-.8.8-.8h6.4c.7,0,.9.4,1,1Zm7.1,23c-1.1.8-5.8.8-8,0Zm5.4-19.2a1,1,0,0,1,1,1.3,1.4,1.4,0,0,1-1.4,1.4,1.8,1.8,0,0,1-1.6-1.4A2,2,0,0,1,34.2,248.1Zm-3.2.2a1.5,1.5,0,0,1-.7-.7c-.1-.6-.1-1.2-.2-2h2.1c.8,0,1.1.6.8,1.1A10.8,10.8,0,0,1,31,248.3Zm3.6-1.9c.1-1,.9-.8,1.5-.9s1.7.4,1.6,1.6,0,1.2-.8,1.2S34.5,247,34.6,246.4Zm.6,9.6h-3c-.1-.8.5-1,1-.8S34.9,254.5,35.2,256Zm-.2,8.3a7.3,7.3,0,0,1,1.6-1.4c.2-.1.8,0,.8.1a8.2,8.2,0,0,1,.2,2.2c0,.3-.6.7-1,.7a8.2,8.2,0,0,1-2.1-.2C34.7,265.1,34.7,264.6,35,264.3Zm-1.1-1c-.6,0-1.8-1.1-1.5-1.6a3.6,3.6,0,0,1,1.1-1.3,1.6,1.6,0,0,1,1.7,1.6C35.3,262.6,34.6,263.3,33.9,263.3Zm3.5-2.2a1.2,1.2,0,0,1-1-.2L35,259.6c-.6-.8-.4-1.6.6-1.7a6.2,6.2,0,0,1,1.9.2c.1,1,.2,1.6.2,2.3S37.5,261.1,37.4,261.1Zm-5-2.9c.7.2.8.7.4,1.2a8.6,8.6,0,0,1-1.3,1.4,1.3,1.3,0,0,1-1.1.4c-.3-.1-.4-.7-.4-.8C30.1,258.5,31,257.8,32.4,258.2Zm-2,5.2c0-.2.6-.5.9-.4a2.6,2.6,0,0,1,1.6,2.9H30.1A19.7,19.7,0,0,1,30.4,263.4Zm7.4,4.1a17.5,17.5,0,0,1-7.2-.1A28.9,28.9,0,0,1,37.8,267.5Zm-2.1-14.4-1-.5c.2-.5.5-.9.7-1.3a7.6,7.6,0,0,1,.9-.9c.2-.2.7-.4.9-.3a1.1,1.1,0,0,1,.5.8C38,252.6,37.6,253.1,35.7,253.1Zm-5.7-9c.8-1.5,1.8-.8,2.6-.8h2.7c.9-.1,1.8-.5,2.9.6C35.4,244.5,32.8,244,30,244.1Zm3,8.1a1.4,1.4,0,0,1-.2.6,1.8,1.8,0,0,1-2.5-.6,10.9,10.9,0,0,1-.4-2.2C31.7,250,32.2,251.3,33,252.2Zm4.7-37.7c0,1.4-.1,1.5-1.5,1.5H20c-1.5,0-1.6-.1-1.6-1.5V202.8c0-1.4.1-1.5,1.6-1.5H36.2c1.4,0,1.5.1,1.5,1.5Q37.8,208.7,37.7,214.5ZM18.5,295.4c0-.2.4-.4.7-.5H35.7c1.9,0,2,.1,2,1.9q.1,5.4,0,10.8c0,1.5,0,1.6-1.6,1.6h-16c-1.6,0-1.6-.1-1.7-1.6v-3.1c1.5,1.1,2.5,1.1,3.6.2a3,3,0,0,0,.3-4.9l-.9-1c-.8-1.2-1.3-1.1-2,.1a3.6,3.6,0,0,1-.7.9A11,11,0,0,1,18.5,295.4Zm.7,5.2c.2,1.2.3,2.1.4,3.1C18.2,303,18,302.1,19.2,300.6Zm2,3.2a18.2,18.2,0,0,1,.7-2.5C22.6,302.7,22.5,303,21.2,303.8Zm16.4,38.6c-.2.8-.8.6-1.2.7H16c-.6-.1-1.5.1-1.5-1C18.7,341.7,36.4,341.9,37.6,342.4ZM15.7,402.2c-1.1.3-1.2-.2-1.3-.9v-6.9C15.1,397,14,399.8,15.7,402.2Zm31.7.1a.1.1,0,0,1,.1-.1h-.1Zm43.8-3.7v.2H68v-.2ZM61.5,356.1c.1.9-.3,1.4-1.3,1.4H47c-1.3,0-1.5-.2-1.6-1.5v-3.8c0-1,.4-1.4,1.4-1.4H60.1c1,0,1.4.4,1.4,1.4Zm-6.9,2.5c2.3,0,2.7.2,3.4,2.3a11.1,11.1,0,0,1-2.2,11.3,3.1,3.1,0,0,1-4.7.2,10.3,10.3,0,0,1-2.9-6.2,12.8,12.8,0,0,1,.6-5.5c.7-2,.9-2.1,3-2.1h2.8Zm29.3-2.2c.8,0,1.3.4,1.3,1.2s.1,3,0,4.5-.2,1.5-1.5,1.5H75.5c-.8,0-1.3-.3-1.3-1.2v-4.8c0-.9.4-1.2,1.2-1.2h8.5Zm.6,8.4h0Zm-2.3,0h0Zm-3.5-11.6a1.3,1.3,0,0,1-1,.6H73.9c-2,0-2.2.3-2.3,2.2v8.1c.1,1.6.3,1.9,1.9,1.9H85.7c1.5,0,1.8-.3,1.8-1.8v-8.6c0-1.6-.3-1.8-1.8-1.8H83l-1.8-.2a.8.8,0,0,1-.7-1.3,10.6,10.6,0,0,0,.6-1.9h8.6c1.6-.1,2,.3,2.1,1.9a21.8,21.8,0,0,1-.1,2.5c0,.3-.1.8-.3.9s-1,1.3-1.1,2.2,0,2.3.1,3.4-.2,1.9,1,2.5.3,1.1.4,1.8c0,2.6.2,2.5-2.6,2.5a9.8,9.8,0,0,0-2.3.6,7.9,7.9,0,0,1-4.3-.2,12.2,12.2,0,0,0-6,0,27.6,27.6,0,0,1-4,.6c-1.2-1.4-2.9-.8-4.3-1s-.7-.6-.9-.9a2.5,2.5,0,0,1-.1-.9V352.5c0-1.8.1-1.9,2-1.9h7.5A2.1,2.1,0,0,1,78.7,353.2Zm-5.3,11.3c-.7-.7-.8-2.2-.6-7.5,0-.6-.1-1.4,1-1.7A18.1,18.1,0,0,0,73.4,364.5Zm12.1-9c.5-.2.8.1.8.7s.1,2.5.1,3.8v3.2a5,5,0,0,1-.3,1.3C86.1,361.5,86.5,358.5,85.5,355.5Zm-46-39.1h.1c0,.1.1.1.1.2h-.2Zm-.6-71.6c0-.5.1-1,.1-1.4h.5v24.1h-.3v-.2C39,259.8,39,252.3,38.9,244.8Zm1.6,6.5v-3.9a6.3,6.3,0,0,1,.4,3.8Zm.3,8.3v3.5h-.3v-3.5Zm106.4-152-1.3-1.1c-.9-.8-.9-1.6.1-2.4l2.8-1.9C149.5,105.7,149.2,106.5,147.2,107.6Zm-.2,41.6V110C147.8,111.9,147.8,147,147,149.2Zm-1.2-40.8v42.2h-.2V108.4Zm-2.1-1.6c-.7,1-1.3.6-1.8-.1L139,103l-7.7-10.8-.5-.7.3-.3c1.6.4,2.7-.5,3.9-1.4s4.1-3.1,6.2-4.6,1.6-1.2,2.8.3l4.5,6a3.8,3.8,0,0,1,.5,1.9c.1,2,0,4,0,6.1a2,2,0,0,1-1.1,2c-1.4.9-2.7,1.9-3.9,2.8S142.8,105.5,143.7,106.8Zm-2,1.2c-1.5,1.5-2.5,1.5-3.6.1l-9-11.7c-1.4-1.9-1.2-2.6.9-4.1ZM132,86l7.8-5.6a7.5,7.5,0,0,1,.9.9c1.4,1.7,1.3,2-.5,3.3l-6.3,4.7c-.6-.5-1.3-.9-1.8-1.4S131.2,86.6,132,86Zm11.7-3.7a36,36,0,0,1,5.4,7.4C147.6,88.9,143.9,83.7,143.7,82.3Zm5.3,4.4-.2.3-4.1-5.5c2.9-1,4.3-.1,4.3,2.5Zm16.3,244.2c0,.8-.1,1.6-.2,2.6-9.6.1-19.3.1-29,0,0-1.9-.1-3.5,0-5.2s1.4-2.6,3-1.8.8.3.9.2a3.2,3.2,0,0,1,3.7,0,1.4,1.4,0,0,0,1.4-.1,2.3,2.3,0,0,1,2.7-.3c.9.9,1.4.3,2.2,0s1.2.1,1.7.2,1,.4,1.3.2a3,3,0,0,1,3.6,0,1.1,1.1,0,0,0,.8,0,2.4,2.4,0,0,1,3.2,0,1.5,1.5,0,0,0,1.3,0c1.9-1,3.6-.1,3.6,1.9A16.4,16.4,0,0,1,165.3,330.9Zm.2,10c.1.9-.4,1.4-1.4,1.4h-28v-6.4l2-1.3c1.4,1.4,2.8,1.3,4.2,0,1.2,1,2.4,1.6,3.7.3a1.1,1.1,0,0,1,1.1,0c1.2,1.2,2.3.8,3.4-.2h.4c1.6,1.3,1.9,1.3,4,.2,1.2.7,2.4,1.2,3.7,0a.9.9,0,0,1,1,0c1.3,1.2,2.5.6,3.7-.1l2,1.2C165.3,337.4,165.5,339.1,165.5,340.9ZM136.1,314v-4.5c1.2-.4,2.4-.9,3.6,0s.9,0,1.3-.2a2.5,2.5,0,0,1,2.4-.1,2.3,2.3,0,0,0,2,0,2.3,2.3,0,0,1,2.3.1c1.2.8,2.1-.4,3.1-.4s1.8,1.3,2.9.2a1.9,1.9,0,0,1,1.8,0,1.7,1.7,0,0,0,2.2.1,2.5,2.5,0,0,1,2.5,0,2,2,0,0,0,2.2,0,1.9,1.9,0,0,1,2.8,1.8c.1.5,0,1,.1,1.4V314l-1.6.7,1.7,1c-.4.3-.6.6-1,.7H138a13.8,13.8,0,0,1-2-.3,1.1,1.1,0,0,1,.1-.5l1.7-.8Zm0,5.5a1.9,1.9,0,0,1,2.8-1.6,2.4,2.4,0,0,0,2.6-.1,1.7,1.7,0,0,1,1.7.1,3.1,3.1,0,0,0,2.3,0,1.9,1.9,0,0,1,1.8,0,2.4,2.4,0,0,0,2.8-.1,2,2,0,0,1,1.5.1,2,2,0,0,0,2.4-.1,1.7,1.7,0,0,1,1.7.1,2.1,2.1,0,0,0,2.3,0,2,2,0,0,1,2.1,0,3.9,3.9,0,0,0,2.4.1c1.7-.5,2.8,0,2.9,1.7s0,3.4,0,5.3H138.2c-2.1,0-2.1,0-2.1-2.1S136,320.7,136.1,319.5Zm29.4-14.9c-.1.4-.5.7-.8,1s-.8.7-.8,1,.5.6.9.9l.4.2c0,.1-.1.2-.1.3H135.7c1-.7,2.3-.7,1.8-2.1l-1.4-.5a11.1,11.1,0,0,0-.1-2.6c-.2-1.3.7-1.8,1.5-2.3a1.1,1.1,0,0,1,1.1,0,2.6,2.6,0,0,0,3.2,0c.3-.2.8,0,1.2.1a2.6,2.6,0,0,0,2.7.1,1.2,1.2,0,0,1,1.6,0,2.6,2.6,0,0,0,2.7-.1,1.6,1.6,0,0,1,1.5,0,2.1,2.1,0,0,0,2.5,0,1.5,1.5,0,0,1,1.6,0,2.4,2.4,0,0,0,2.7,0c.3-.3,1-.2,1.5,0a2.6,2.6,0,0,0,2.9-.1c.8-.6,2.7.5,2.8,1.6A10.5,10.5,0,0,1,165.5,304.6Zm-29.7-97v-1.5c0-1.9.7-2.6,2.6-2.3s2.4.5,3.5-.1a1.4,1.4,0,0,1,.9.1,3.4,3.4,0,0,0,3.1-.1.9.9,0,0,1,.7-.1c2.6.9,5.2.3,7.7.2.7,0,1.4.4,2,.3a15.6,15.6,0,0,1,5.7,0l1.2-.3a1.7,1.7,0,0,1,2.1,1.7c.1,1.3.2,2.6.2,3.9s-.7,1.7-2,1.7H137.1c-.9.1-1.3-.3-1.3-1.2v-2.3Zm2.5,4.7c1.5,1.1,2.3,1.1,3.6-.1a9,9,0,0,0,2.5.8,6,6,0,0,0,2.2-.6,7.9,7.9,0,0,0,2.2.6c.6.1,1.2-.4,2-.7a5.2,5.2,0,0,0,2,.7,5.6,5.6,0,0,0,2-.8,6,6,0,0,0,2.1.8,5.5,5.5,0,0,0,2.3-.9c1.6,1.3,2.3,1.4,4,.1l1.8,1a1.8,1.8,0,0,1,.5,1.2,32.2,32.2,0,0,1-.3,4.3,1.4,1.4,0,0,1-.9.8,2.8,2.8,0,0,1-1.3.1H137.9c-2.1,0-2.1,0-2.1-2.1v-.7C135.7,214.9,135.4,212.9,138.3,212.3Zm21.6,60.8-1.7.2c.5-2.3-.8-2.1-2.1-1.6s-.3.8-.5,1.4h-1.4c-.3-1.5-.6-1.8-1.6-1.6a1.4,1.4,0,0,0-1,.6c-.1,1.3-1,1.1-1.8,1.1l-.6.4v-.2l.6-.2c.3-.8.4-1.5-.7-1.7s-1.7,0-1.9,1.6c-.6,0-1.4.6-1.4-.7s-.8-1-1.5-1-1.3,0-1.3,1-.1.5-.1.7h-1.4c-.1-.7.1-1.8-1.2-1.7s-1.2.1-1.3.9-.6,1-1,.9l-1.5-1.9a2.8,2.8,0,0,1-.4-1.3c-.1-1.1,0-2.2,0-3.4s2.3-1,3.5.1a1.6,1.6,0,0,0,1.5-.2,2,2,0,0,1,2.5-.1,1.5,1.5,0,0,0,1.8-.1c.5-.3,1.3,0,2,0a3.6,3.6,0,0,0,1.5.2l-.4-.2.2-.2c1.2,0,2.4-.4,3.4.6a2.6,2.6,0,0,0,1.2-.1c.2,0,.3-.3.4-.4s2.4.4,3.5.4,2-1,3.3-.2,1,.2,1.6.1a12.4,12.4,0,0,1,1.6-.4c1.5-.1,1.9.5,1.7,2s-.1,1.3-.1,1.9-.1,1.2-.8,1.5-.3.8-.6,1.1a1.1,1.1,0,0,1-.7.6,1.2,1.2,0,0,1-.5-.5c.1-1.4-.8-1.3-1.7-1.3S159.8,272.1,159.9,273.1Zm-15.3.3h0Zm20.2,25.7H136.2a.3.3,0,0,0-.1-.2l1.2-.4a11.9,11.9,0,0,1-1.2-2.2,7,7,0,0,1,0-2.5c0-1.7,1.1-2.4,2.7-1.7h.1c1.3.6,2.4-.5,3.4-.3s2.2.9,3.4.2a1.4,1.4,0,0,1,1.7,0,.7.7,0,0,0,.6.3,13.1,13.1,0,0,1,2.7-.6c.9,0,2,.8,2.5.5s2.3-.4,3.5,0,1.4.6,1.3-.6h-.9c0-.1,0-.2.1-.2l.8.3,2.4.5c.7.1,1.5.3,1.9,0s1.6-.1,2.3.3.7,1.2.6,1.8.5,2.6-.8,3.5S164.7,298.6,164.8,299.1Zm-14.4-59a1.3,1.3,0,0,1,1.2,0c1.4,1.1,2.2,1.1,3.6-.3l.7.6a2,2,0,0,0,2.8-.2,1.5,1.5,0,0,1,1.1-.2c1.6,1.2,2.2,1.2,3.6-.3l.9.8.9.6a25.3,25.3,0,0,0,.1,2.8c0,1.1.1,2.3-1.6,2.7l1.5,1H136.8a10.3,10.3,0,0,0,.4-1.4c0-.2-.7-.4-1.2-.6s.2-.9.7-1.1l8.6-3.7a10.1,10.1,0,0,0,1.6-1C148.1,241.2,149,241.2,150.4,240.1Zm-.9-1.2.6-.6.4.4-.9.4Zm15.2,49.6c-1,.5-.9,1,0,2H136.6c1.1-1,1.1-1.2.2-2.1a3.3,3.3,0,0,1-.7-1.3,8.1,8.1,0,0,1,0-2.2,1.9,1.9,0,0,1,2.8-1.6,3.3,3.3,0,0,0,2.6.1,3.2,3.2,0,0,1,1.4-.1l.3.2c1.3.5,2.4-.4,3.5-.4s2,1,3.1.2,1.2-.3,1.9.1a2,2,0,0,0,2.3-.1,1.8,1.8,0,0,1,1.6-.1,2.4,2.4,0,0,0,2.6.1,2.2,2.2,0,0,1,1.6,0,3,3,0,0,0,2.9,0,1.8,1.8,0,0,1,2.5,1.4l.3,2.1A1.5,1.5,0,0,1,164.7,288.5Zm.5-26c-.7.2-1.6.6-1.2,2h-1.6v-1.6h-2.3c-.1.5-.1,1-.2,1.6h-1.5l-.3-1.7h-1.7c-.6.6-.2,1.9-1.5,1.8s-.7-.2-1.2-1.7h-1.9a10,10,0,0,1-.2,1.6h-1.5l-.3-1.7h-2.3c-.1.6-.1,1.1-.2,1.9s-1.2-.4-1.3-.7-1.1-1.5-2.3-1.2-.2,2.1-1.9,1.5q-.2-.6-.3-1.5H139c-.6.4.4,2.2-1.5,1.5-.3-.5.1-1.6-1-1.8s-.4-.8-.4-1.1,0-2,0-3.1l1-.7c.6-.7,1.1-1,1.7,0a1.9,1.9,0,0,0,2.6,0c.6-.6,1-.7,1.6-.1a1.8,1.8,0,0,0,2.7,0c.5-.4.8-.6,1.4-.2s2.1,1,3.5-.2a11.3,11.3,0,0,0,2,.9,7.4,7.4,0,0,0,2.2-.8c1.4,1.1,2.1,1.1,3.7.1a2,2,0,0,1,1.3.1c1.3.9,1.5.9,2.9-.2l.8-.2c.4.9,1.9,1.1,1.8,2.4A29.1,29.1,0,0,0,165.2,262.5Zm-1.2-8.1.6,1.8H136.2v-.3h1c.4-1.4.4-1.4-1-2a13.1,13.1,0,0,0-.1-2.8c-.1-1.2.9-1.7,1.5-2.3s.8,0,1,.2,1.9.8,3-.1a1.4,1.4,0,0,1,1.7,0c1.3.9,1.3.9,2.7,0a2.2,2.2,0,0,1,1.1-.1c1.3,1.4,2.5.9,3.7-.3l.9.7a1.5,1.5,0,0,0,2.1-.1,1.3,1.3,0,0,1,2-.1c1,.8,1.9.9,2.8-.1a1,1,0,0,1,1.6,0,1.7,1.7,0,0,0,2.8,0,.7.7,0,0,1,.8-.2,3.5,3.5,0,0,1,1.8,2.3v1.2C165.5,253.7,165.5,253.7,164,254.4Zm.8-17.7a1.6,1.6,0,0,0,0,2.2H152.6c.1-1,2.3-.9,1-2.3l7.7-3.6a9.5,9.5,0,0,1,2.9-.7,1.2,1.2,0,0,1,1.1.6C165.3,234.2,165.4,235.7,164.8,236.7Zm-13.5-.1-1.6-1.8h-.3c-.4,1.9-1.7,2-3.3,2h-8.5c-1.6-.1-1.8-.2-1.8-1.9s0-1.9-.1-2.9.2-2,1.5-2.2a1.8,1.8,0,0,0,.7-.5c1.9,1.2,2.5,1.1,4.1-.4,1.5,1.2,3,1.7,4.5.1a11.3,11.3,0,0,0,2,.9,10.1,10.1,0,0,0,2.4-.7,3.8,3.8,0,0,0,1.8.7,9,9,0,0,0,2.2-.7,3,3,0,0,0,3.8.2,1.5,1.5,0,0,1,1.1.2c1.2.5,2.3.7,3.4-.7a13,13,0,0,0,1,1.5ZM136,238.8c0-.3,1-.6,1.6-.8s1.6.3,2.4.5,1.7-.3,2.6-.5.6.4.9.5,1.2.3,1.4,0,1.8-.5,2.7-.5l-4.9,2.5c-2.1,1.1-4.3,2-6.7,3.1A9.8,9.8,0,0,1,136,238.8Zm28.4,41.5c-.6.4-.5.7.4,1.6H138.4c-2.3,0-2.3,0-2.3-2.5v-2.1a2.1,2.1,0,0,1,.9-2.1,1.8,1.8,0,0,1,2.3,0,.8.8,0,0,0,.8.2,6.6,6.6,0,0,1,4.4,0h.2c1.2-.6,2.5-.1,3.7-.1s3-.6,4.5.1.8-.3,1.2-.4a3.2,3.2,0,0,1,1.4.1,2.5,2.5,0,0,0,2.5,0,1.4,1.4,0,0,1,1.9,0,3.1,3.1,0,0,0,2.8,0,2,2,0,0,1,2.8,1.7C165.5,278.1,165.9,279.5,164.4,280.3Zm.8-51.8c-4.9-.7-9.8-.1-14.7-.2s-9.6.1-14.6.1a26.5,26.5,0,0,1,0-6.3c.1-1,2.3-1.7,3.1-1.1a2,2,0,0,0,2.4,0,2.3,2.3,0,0,1,2,0c.7.4,1.2.6,1.9,0a1.7,1.7,0,0,1,2.1,0,1.5,1.5,0,0,0,2.1.1,1.5,1.5,0,0,1,2-.1,1.8,1.8,0,0,0,2.3-.1,1.7,1.7,0,0,1,2.2.2,1.7,1.7,0,0,0,1.7,0,2.4,2.4,0,0,1,2.8,0,2.1,2.1,0,0,0,1.7.2c.9-.9,1.5-.6,2.3.1l.9.3C164.9,224.1,166.2,226.3,165.2,228.5Zm-1.5-25.8H138.3c-2.5,0-2.5,0-2.5-2.7v-1.9c0-2.1-.1-2.1,1.7-2.9a2.5,2.5,0,0,1,1.2-.1l2.8.2a18.4,18.4,0,0,0,3.3.3c1-.2,2-.6,3.1,0a1.5,1.5,0,0,0,1.3-.1,2,2,0,0,1,2.6,0,1.3,1.3,0,0,0,1,.2,5.3,5.3,0,0,1,3.7-.2,5.7,5.7,0,0,0,1.3-.1,4.1,4.1,0,0,1,1.9-.1,5.4,5.4,0,0,0,3.3-.2,1.7,1.7,0,0,1,2.2,1.4,30,30,0,0,1,.3,4.3C165.6,202.4,165.3,202.7,163.7,202.7Zm-29.1,40.5a2,2,0,0,1-.1.7l-.2.2c-.5-1.4-.5-56-.1-57.5h.3C134.5,205.5,134.6,224.3,134.6,243.2Zm-3.1,99.1c-.2-.6-.4-.8-.4-1.1a8.6,8.6,0,0,1-.1-1.6V187.7c0-.6.1-1.3.1-2C131.8,187,131.9,339.7,131.5,342.3Zm33.7,24.3V365a12.4,12.4,0,0,1,.4,1.6ZM165,193.9h-7.8l-3.4-.2H138c-2.2,0-2.2,0-2.2-2.3v-2c0-2.5,1.1-3.2,3.5-2.4a4.2,4.2,0,0,0,2.2-.2,1.7,1.7,0,0,1,1.8,0,1.7,1.7,0,0,0,2.3-.1,1.5,1.5,0,0,1,2.1.1,1.4,1.4,0,0,0,2.1-.1,1,1,0,0,1,1.6,0,2.1,2.1,0,0,0,2.4.2,2,2,0,0,1,2.1-.1,1.7,1.7,0,0,0,2.1,0,2.4,2.4,0,0,1,2.3,0,3.4,3.4,0,0,0,2,.1c1.5-.6,2.8-.1,3.1,1.5A9.5,9.5,0,0,1,165,193.9Zm5.2,254.3v62.6l-3.1.2V447.4a1.7,1.7,0,0,1,2.6-1.6,1.6,1.6,0,0,1,.5.8A8.5,8.5,0,0,1,170.2,448.2Zm-1-377H151c-1.7,0-2,.2-2,1.9,0,3.5.4,3.1-3.2,3.1H121.7c-1.7,0-1.8-.1-1.8-1.7V58.9c0-1.5.2-1.7,1.7-2l16.5-3.3,13.3-2.7,12.2-2.3h.2c.9-.1,2.1-.7,2.7-.3s.6,1.7.7,2.6l2.4,12.5,1.2,5.8C171.2,70.9,171,71.2,169.2,71.2Z"/><polygon class="cls-1" points="128.1 616.9 128.9 616.9 129.6 616.9 131.1 616.9 132.7 616.9 165.6 616.9 168.5 616.9 168.8 616.9 171.1 616.9 171.1 617.5 128.1 617.5 128.1 616.9"/></g></g></svg>