<svg xmlns="http://www.w3.org/2000/svg" viewBox="0 0 177.3 612.9"><defs><style>.cls-1{fill:#317082;}.cls-2{fill:#383838;}.cls-3{fill:none;}</style></defs><title>level1_1</title><g id="Layer_2" data-name="Layer 2"><g id="Layer_2-2" data-name="Layer 2"><path class="cls-1" d="M177.3,489.7H0v-17c.3-.6.9-1.2.9-1.8V425.1c0-.5-.6-.9-.9-1.4v-4.6c1.4-.2.9-1.3.9-2.1V332.6a4.8,4.8,0,0,0,0-1.2l-.9-.9v-4.3A6,6,0,0,0,.9,324V193c0-.5.3-1.4-.9-1.2v-.3c.3-.6.9-1.2.9-1.8V88.1a6.5,6.5,0,0,0,0-1.4c-.2-.4-.6-.6-.9-.9V79.5H22.5l1-.2c1.2-.3,1.9.4,1.7,1.5l-.3.7c-.6,3.3-.1,3.9,3.3,3.9h85.4c2.9,0,2.9,0,2.9-2.8s0-3.5,3.7-3.5h3.5c1.2.1,2.2.4,1.7,2.1a12,12,0,0,0-.1,3.3,1.5,1.5,0,0,0,.3.8c1.9.2,1.5,1.6,1.5,2.8v24.8l-1.9.2v7.4c0,1-.2,2-.3,3s0,1.9,1.7,1.9H133c1,0,1.3.4,1.3,1.4v6.9h27.4c1,0,1.9.1,1.5,1.4s-.6.7-.9.7h-26c-1,0-2.3.4-2.6-1.3l-1-.2a24.3,24.3,0,0,0-2.7,0l-.2-.7c-.2-3.4-.2-3.4-3.6-3.4h-5.9V85.9c-1.5,0-3-.7-3.9,1.3V85.9H26.7c-.7,0-2.1-.7-1.6,1.3-.6-1.7-2-1.3-3.2-1.3H14V469.7c0,2.9,0,2.9,2.9,2.9H117.3c3.6,0,3.6,0,3.3-4H102.1c-1.7.1-2.1-.6-1.5-2.3h18.7c1.1,0,2.3-.1,1.9,1.8H125c1.7-.2,2.1.7,2.1,2.1s-.1,2.4,2.4,2.4h32.7c1.6,0,2-.5,2-2.1,0-15,0-30.1.1-45.1,0-1,0-1.8-1.5-1.7H127.4c-.1.1-.2.1-.2.2-.5,3.3-.5,3.3-3.8,3.3-.9,0-2.1-.5-2.4,1.1s-.8.3-1.2.3H100.6c-.6-1.8-.5-2,1.4-2h18.7v-7.6h2c6.9-.1,13.7,0,20.6,0s12.8-.1,19.2,0c1.2,0,1.8-.3,1.8-1.7V332.5a17.6,17.6,0,0,0-.2-1.9H129.9v-7.5h4.3l.2,2.9h29.9V270c-.1-12-.1-24-.1-36s.1-22,.1-32.9c0-9-.1-18-.1-26.9,0-10.7.1-21.4.1-32.1V90c0-4.1-.1-4.1-4.3-4.1h-7.7a53.7,53.7,0,0,1,.1-5.7,2.3,2.3,0,0,1,1.7-1c1.2-.1,2.4.3,3.5.3h19.7Zm-13.9-11.3v-.2H15v.2ZM126.5,86h-.6a12.2,12.2,0,0,0-.3,1.7v23.6a6.5,6.5,0,0,0,.4,1.3h.5ZM110.7,468h0c2.9,0,5.9.1,8.8,0,.4,0,.8-.4,1.1-.6s-.6-.6-1-.6H102c-.4,0-.7.4-1.1.6s.8.6,1.1.6C104.9,468.1,107.8,468,110.7,468ZM101,427.6v.5h19.6v-.5ZM162.7,135v-.4H134.4v.4Z"/><path class="cls-1" d="M134.3,293h-4.4V162.8a20.2,20.2,0,0,1,3.5.1c.4.1.9,1.1.9,1.6.1,5.8,0,11.6,0,17.4V293Z"/><path class="cls-2" d="M72.9,294.2a6.2,6.2,0,0,1-4.6-2.1,6.6,6.6,0,0,1-1.3-2.5,10.2,10.2,0,0,1-.5-3.2,10.7,10.7,0,0,1,.5-3.2,5.5,5.5,0,0,1,1.3-2.4,6.2,6.2,0,0,1,2-1.6,5.9,5.9,0,0,1,2.7-.5,5.8,5.8,0,0,1,2.6.5,5.3,5.3,0,0,1,2,1.6,6.9,6.9,0,0,1,1.4,2.4,10.8,10.8,0,0,1,.4,3.2,10.4,10.4,0,0,1-.4,3.2,8.6,8.6,0,0,1-1.4,2.5,5,5,0,0,1-2,1.5A6,6,0,0,1,72.9,294.2Zm.1-2.7a2.8,2.8,0,0,0,1.3-.4,2.2,2.2,0,0,0,.9-1,4.3,4.3,0,0,0,.5-1.6,6.8,6.8,0,0,0,.2-2.1,7.1,7.1,0,0,0-.2-2.1,4.3,4.3,0,0,0-.5-1.6,2.2,2.2,0,0,0-.9-1,2,2,0,0,0-1.3-.4,2.1,2.1,0,0,0-1.4.4,2.2,2.2,0,0,0-.9,1,7.5,7.5,0,0,0-.5,1.6,11.1,11.1,0,0,0,0,4.2,7.5,7.5,0,0,0,.5,1.6,2.2,2.2,0,0,0,.9,1A2.9,2.9,0,0,0,73,291.5Z"/><path class="cls-2" d="M84.2,284.1H80.7v-2.2a6.1,6.1,0,0,0,2.8-.8,3.4,3.4,0,0,0,1.4-2.3h2.6v15H84.2Z"/><path class="cls-2" d="M141.2,126.5a5.3,5.3,0,0,1-2.6-.6,6.2,6.2,0,0,1-2.1-1.5,8.4,8.4,0,0,1-1.3-2.5,10.2,10.2,0,0,1-.5-3.2,10.7,10.7,0,0,1,.5-3.2,7.8,7.8,0,0,1,1.3-2.4,6.5,6.5,0,0,1,2.1-1.6,7.1,7.1,0,0,1,2.6-.5,7.6,7.6,0,0,1,2.7.5,6.7,6.7,0,0,1,3.3,4,10.7,10.7,0,0,1,.5,3.2,10.2,10.2,0,0,1-.5,3.2,6.6,6.6,0,0,1-1.3,2.5,6.2,6.2,0,0,1-2.1,1.5A5.8,5.8,0,0,1,141.2,126.5Zm0-2.7a2.3,2.3,0,0,0,1.4-.4,4.5,4.5,0,0,0,.9-1,7.5,7.5,0,0,0,.5-1.6,12.5,12.5,0,0,0,.2-2.1,14.9,14.9,0,0,0-.2-2.1,7.5,7.5,0,0,0-.5-1.6,4.5,4.5,0,0,0-.9-1,2.3,2.3,0,0,0-1.4-.4,1.8,1.8,0,0,0-1.3.4,3.2,3.2,0,0,0-1,1,7.5,7.5,0,0,0-.5,1.6,14.9,14.9,0,0,0-.2,2.1,12.5,12.5,0,0,0,.2,2.1,7.5,7.5,0,0,0,.5,1.6,3.2,3.2,0,0,0,1,1A1.8,1.8,0,0,0,141.2,123.8Z"/><path class="cls-2" d="M149.3,123.8a4.2,4.2,0,0,1,1.1-1.8,11.4,11.4,0,0,1,1.1-1.1l1.3-1,1.2-.9a3.6,3.6,0,0,0,1.2-.8,4.3,4.3,0,0,0,1.2-1.1,2.5,2.5,0,0,0,.3-1.3,2,2,0,0,0-.5-1.5,1.8,1.8,0,0,0-1.5-.6,2.2,2.2,0,0,0-1.7.7,1.9,1.9,0,0,0-.5,1,2.2,2.2,0,0,0-.2,1.2h-3.2a6.2,6.2,0,0,1,.2-2,4.8,4.8,0,0,1,.8-1.6,4.5,4.5,0,0,1,1.8-1.5,8.4,8.4,0,0,1,2.9-.5,8,8,0,0,1,2.3.3,5,5,0,0,1,1.7,1.1,4,4,0,0,1,1,1.5,3.4,3.4,0,0,1,.4,1.8,4.8,4.8,0,0,1-.5,2.2,7,7,0,0,1-1.4,1.6l-1.2.9-1.4.9-1.3.9a9.4,9.4,0,0,0-1,1h6.8v2.8H148.8A7.1,7.1,0,0,1,149.3,123.8Z"/><path class="cls-2" d="M139.8,317.6a5.5,5.5,0,0,1-2.6-.6,5.1,5.1,0,0,1-2.1-1.5,8.4,8.4,0,0,1-1.3-2.5,10.4,10.4,0,0,1-.4-3.2,11.2,11.2,0,0,1,.4-3.2,9.2,9.2,0,0,1,1.3-2.4,6.5,6.5,0,0,1,2.1-1.6,7.5,7.5,0,0,1,2.6-.5,7.6,7.6,0,0,1,2.7.5,6.2,6.2,0,0,1,2,1.6,7,7,0,0,1,1.3,2.4,11.3,11.3,0,0,1,.5,3.2,10.2,10.2,0,0,1-.5,3.2,6.6,6.6,0,0,1-1.3,2.5,5.1,5.1,0,0,1-2.1,1.5A5.5,5.5,0,0,1,139.8,317.6Zm0-2.7a2.3,2.3,0,0,0,1.4-.4,4.5,4.5,0,0,0,.9-1,6,6,0,0,0,.5-1.6,12.5,12.5,0,0,0,.2-2.1,12.3,12.3,0,0,0-.2-2,6.9,6.9,0,0,0-.5-1.7l-.9-1a3.3,3.3,0,0,0-1.4-.4,2.5,2.5,0,0,0-1.3.4,4.7,4.7,0,0,0-1,1,6.9,6.9,0,0,0-.5,1.7,12.7,12.7,0,0,0-.1,2,13.4,13.4,0,0,0,.1,2.1,6,6,0,0,0,.5,1.6,3.2,3.2,0,0,0,1,1A1.8,1.8,0,0,0,139.8,314.9Z"/><path class="cls-2" d="M153.8,317.6a6.8,6.8,0,0,1-2.6-.4,6.6,6.6,0,0,1-1.9-.9,5.2,5.2,0,0,1-1.3-1.7,5.9,5.9,0,0,1-.5-2.2h3.2a3.8,3.8,0,0,0,.3,1,1.8,1.8,0,0,0,.5.8l.8.5a2.8,2.8,0,0,0,1.3.3,2.9,2.9,0,0,0,1.9-.6,2.4,2.4,0,0,0,.6-1.7,1.7,1.7,0,0,0-.7-1.5,3,3,0,0,0-2-.5h-.9v-2.4h.8a3,3,0,0,0,1.8-.5,1.4,1.4,0,0,0,.7-1.4,1.6,1.6,0,0,0-.6-1.3,2.5,2.5,0,0,0-1.5-.5l-1.1.2a1.6,1.6,0,0,0-.8.5l-.5.7a2.9,2.9,0,0,0-.2.9H148a4.1,4.1,0,0,1,.4-1.9,3.3,3.3,0,0,1,1.1-1.5,5.2,5.2,0,0,1,1.8-1,6.1,6.1,0,0,1,2.4-.4,7.8,7.8,0,0,1,2.2.3,5.3,5.3,0,0,1,1.7.8,3.5,3.5,0,0,1,1.1,1.3,3.4,3.4,0,0,1,.4,1.8,2.3,2.3,0,0,1-.7,1.8,3.3,3.3,0,0,1-1.8,1.1h0a4.1,4.1,0,0,1,2.2,1.3,3.6,3.6,0,0,1,.8,2.4,3.9,3.9,0,0,1-.5,2,3.7,3.7,0,0,1-1.3,1.5,7.5,7.5,0,0,1-1.8.8A8.3,8.3,0,0,1,153.8,317.6Z"/><path class="cls-2" d="M139.2,383.1a7.6,7.6,0,0,1-2.7-.5,7.4,7.4,0,0,1-2-1.6,7,7,0,0,1-1.3-2.4,11.4,11.4,0,0,1-.5-3.3,11.3,11.3,0,0,1,.5-3.2,7,7,0,0,1,1.3-2.4,6.5,6.5,0,0,1,2.1-1.6,6.7,6.7,0,0,1,2.6-.5,7.5,7.5,0,0,1,2.6.5,6.5,6.5,0,0,1,2.1,1.6,9.2,9.2,0,0,1,1.3,2.4,11.2,11.2,0,0,1,.4,3.2,11.5,11.5,0,0,1-.4,3.3,9.2,9.2,0,0,1-1.3,2.4,6.5,6.5,0,0,1-2.1,1.6A7.5,7.5,0,0,1,139.2,383.1Zm0-2.7a1.8,1.8,0,0,0,1.3-.4,1.8,1.8,0,0,0,.9-1,3.8,3.8,0,0,0,.6-1.6,13.4,13.4,0,0,0,.1-2.1,12.7,12.7,0,0,0-.1-2,3.4,3.4,0,0,0-.6-1.6,2.4,2.4,0,0,0-.9-1.1,2.5,2.5,0,0,0-1.3-.4,3.3,3.3,0,0,0-1.4.4,5.3,5.3,0,0,0-.9,1.1,5,5,0,0,0-.5,1.6,12.3,12.3,0,0,0-.2,2,12.5,12.5,0,0,0,.2,2.1,6,6,0,0,0,.5,1.6,3,3,0,0,0,.9,1A2.3,2.3,0,0,0,139.2,380.4Z"/><path class="cls-2" d="M154.4,379.4h-6.9v-3l7-8.6h3.2v9.1h2.2v2.5h-2.2v3.3h-3.3Zm-4.6-2.4h4.6v-4.3a2,2,0,0,0,.1-.7V371h0l-.5.8-.5.7-.5.6-1.5,2-.6.6-.5.6-.6.7Z"/><path class="cls-2" d="M136.3,456.8a6,6,0,0,1-2.7-.6,5.5,5.5,0,0,1-2-1.5,6.6,6.6,0,0,1-1.3-2.5,10.2,10.2,0,0,1-.5-3.2,11.3,11.3,0,0,1,.5-3.2,7,7,0,0,1,1.3-2.4,6.5,6.5,0,0,1,2.1-1.6,6.7,6.7,0,0,1,2.6-.5,7.1,7.1,0,0,1,2.6.5,6.5,6.5,0,0,1,2.1,1.6,9.2,9.2,0,0,1,1.3,2.4,11.2,11.2,0,0,1,.4,3.2,10.4,10.4,0,0,1-.4,3.2,8.4,8.4,0,0,1-1.3,2.5,5.1,5.1,0,0,1-2.1,1.5A5.8,5.8,0,0,1,136.3,456.8Zm0-2.7a1.8,1.8,0,0,0,1.3-.4,2.2,2.2,0,0,0,.9-1,3.8,3.8,0,0,0,.6-1.6,13.4,13.4,0,0,0,.1-2.1,12.7,12.7,0,0,0-.1-2,3.4,3.4,0,0,0-.6-1.6,2.4,2.4,0,0,0-.9-1.1,2.5,2.5,0,0,0-1.3-.4,3.3,3.3,0,0,0-1.4.4,5.3,5.3,0,0,0-.9,1.1,5,5,0,0,0-.5,1.6,12.3,12.3,0,0,0-.2,2,12.5,12.5,0,0,0,.2,2.1,6,6,0,0,0,.5,1.6,4.5,4.5,0,0,0,.9,1A2.3,2.3,0,0,0,136.3,454.1Z"/><path class="cls-2" d="M149.8,456.8a8.5,8.5,0,0,1-2.3-.3,5.6,5.6,0,0,1-1.9-.9,4.7,4.7,0,0,1-1.3-1.5,5.3,5.3,0,0,1-.6-1.9h3.4a2.5,2.5,0,0,0,.8,1.4,3.5,3.5,0,0,0,1.8.5,2.7,2.7,0,0,0,1.9-.8,2.7,2.7,0,0,0,.7-1.8,2.6,2.6,0,0,0-2.6-2.6,3.2,3.2,0,0,0-1.4.3,2.2,2.2,0,0,0-.9.7h-3.2l1.6-8.3h9v2.7h-6.6l-.7,3.3h.1a2.7,2.7,0,0,1,1.2-.9,4.8,4.8,0,0,1,1.8-.3,6.4,6.4,0,0,1,2,.3,5.7,5.7,0,0,1,1.6,1.1,3.8,3.8,0,0,1,1.1,1.6,4.6,4.6,0,0,1,.4,2.1,5.4,5.4,0,0,1-.4,2.2,4,4,0,0,1-1.3,1.6,4.2,4.2,0,0,1-1.8,1.1A6.7,6.7,0,0,1,149.8,456.8Z"/><rect class="cls-3" width="177.3" height="612.87"/></g></g></svg>