<svg xmlns="http://www.w3.org/2000/svg" viewBox="0 0 182.7 614"><defs><style>.cls-1{fill:#317082;}.cls-2{fill:#383838;}</style></defs><title>level2</title><g id="Layer_2" data-name="Layer 2"><g id="Layer_2-2" data-name="Layer 2"><path class="cls-1" d="M48.2,315.2l-.3.3.3-.3c.1-.2.3-.3.4-.4S48.3,315,48.2,315.2Zm1.1-1.1-.4.3-.3.4.4-.4.3-.3Zm.7-.8-.3.4h0l.4-.4Zm.8-.7-.4.4h0l.4-.4Zm.7-.7-.4.3h0l.4-.3Zm.7-.8-.3.4h0l.3-.4Zm.8-.7c-.2.1-.3.3-.4.4h0l.4-.4.3-.4Zm.7-.7-.4.3.4-.3c.1-.1.2-.3.4-.4S53.8,309.6,53.7,309.7Zm.7-.8-.3.4.3-.3.4-.4Zm1.1-1-.3.3-.4.4.4-.4.3-.3Zm.8-.8-.4.4h0c.1-.1.2-.3.4-.4Zm.7-.7-.4.4h0l.4-.4Zm.7-.7-.3.3h0l.3-.3Zm.7-.8-.3.4h0l.4-.4Zm1.5-1.4-.7.7c-.1.1-.3.2-.4.4h0l.4-.4.7-.7.4-.4Zm.7-.8-.3.4.3-.4.4-.3Zm.8-.7h0l.7-.7Zm1.1-1.1-.4.4h0c.1-.1.2-.3.4-.4Zm.7-.7-.4.3h0l.4-.4Zm.7-.7-.3.3h0l.3-.3Zm.8-.8-.4.4h0l.4-.4h0ZM48.2,315.2l-.3.3.3-.3c.1-.2.3-.3.4-.4S48.3,315,48.2,315.2Zm1.1-1.1-.4.3-.3.4.4-.4.3-.3Zm.7-.8-.3.4h0l.4-.4Zm.8-.7-.4.4h0l.4-.4Zm.7-.7-.4.3h0l.4-.3Zm.7-.8-.3.4h0l.3-.4Zm.8-.7c-.2.1-.3.3-.4.4h0l.4-.4.3-.4Zm.7-.7-.4.3.4-.3c.1-.1.2-.3.4-.4S53.8,309.6,53.7,309.7Zm.7-.8-.3.4.3-.3.4-.4Zm1.1-1-.3.3-.4.4.4-.4.3-.3Zm.8-.8-.4.4h0c.1-.1.2-.3.4-.4Zm.7-.7-.4.4h0l.4-.4Zm.7-.7-.3.3h0l.3-.3Zm.7-.8-.3.4h0l.4-.4Zm1.5-1.4-.7.7c-.1.1-.3.2-.4.4h0l.4-.4.7-.7.4-.4Zm.7-.8-.3.4.3-.4.4-.3Zm.8-.7h0l.7-.7Zm1.1-1.1-.4.4h0c.1-.1.2-.3.4-.4Zm.7-.7-.4.3h0l.4-.4Zm.7-.7-.3.3h0l.3-.3Zm.8-.8-.4.4h0l.4-.4h0Z"/><path class="cls-1" d="M182,73.3a23.4,23.4,0,0,1-1.1-3.1c-.2-1-.5-2.1-.7-3.1l-2.7-14.3a30.1,30.1,0,0,0-.7-3.2c0-.3-.1-.8.1-.9s.8-1.7.7-2.8a8.3,8.3,0,0,1,.5-1.8c-1-.3-1.2-1.2-1.4-2.2s-.8-2.1-2.6-1.7l-11.2,2.3-6.3,1.1-8.7,1.8c-.9.2-1.7.3-2.3-.6a1.8,1.8,0,0,0-1.3-.2l-11.6,2.2-6.6,1.3c-.6.2-1.4.5-1.6.9a2.6,2.6,0,0,1-2.2,1.4l-9.6,2h-1.1c0-1.1-.2-2,.9-2.5s.6-.8.5-1.4c-.6-2.5-1-5.1-1.5-7.6-.9-4.4-1.9-8.7-2.7-13-.4-2.1-.7-4.1-1.1-6.1s-1.3-6.7-2-10l-1.2-6c-.4-1.7-.8-3.4-1.1-5a1.1,1.1,0,0,0-1.3-.8L96.4,1.2,92.1,2,77,5,61,8,50.8,10.2l-7.9,1.4L32.7,13.7l-5.5,1.1-8.6,1.6-8,1.7c-1.5.3-1.6.5-1.3,2,.8,3.7,1.5,7.3,2.2,11s1.4,7.1,2,10.6c.1.7-.1,1.5-.1,2.6s1.1,1.5,1.3,2.8c.8,5.3,1.9,10.6,2.9,15.9.3,1.3.7,2.6.9,3.9s.4,1.4,1.3,1.4a1.1,1.1,0,0,1,.9.5c.5,1.3,1.6.9,2.5.7L32,67.9l10.7-2.1L56.2,63l15-2.9,12.1-2.5,13.3-2.5,11.3-2.4a2.6,2.6,0,0,1,1.7.3l-3.3.7L89.7,57.1,75.1,59.8,57.7,63.2l-18,3.6-9.4,1.8-13,2.7c-1.9.3-2,.3-2.4-1.6-1.3-6.5-2.6-13-3.8-19.5a1.7,1.7,0,0,1,.3-2c.4-.4.2-1.2.3-1.9s.1-1.4.1-1.8-1.2-3-1.8-4.5L0,41.5V50l2.9-.7c1.5,7.8,3,15.5,4.6,23.5L0,73v7.3H1.5v59.5l-1.5.3v5.1c1.4.3,1.5.3,1.5,1.9v30.7l-1.5.3v7.3H1.5v26.3c0,1.1-.2,1.8-1.5,1.7v1.1l1.4.2v.3l-1.4.2v1.1c.2.4.6.9.6,1.3s.1,3.8.1,5.6c0,.3-.5.5-.7.8v1.5c.2.3.7.7.7,1.1a45.1,45.1,0,0,1,0,5.2c0,.4-.5.9-.7,1.3v1.1c.2.3.7.6.7,1v5c0,.4-.5.7-.7,1v1.8c.2.3.7.6.7.9v5.1c0,.3-.5.6-.7.9v1.5c.2.4.7.9.7,1.4a38.4,38.4,0,0,1,0,4.8c0,.4-.5.7-.7,1.1v1.5c.8.2.4.5,0,.7v.7c.9.7.9.8,0,1.5v1.8c.9.9.9,1.3,0,2.2v1.1c1,1.6,1,2.6,0,3.7v1.8c.9,1,.9,1.4,0,2.9v.7a2.2,2.2,0,0,1,0,3.3v1.8c.9.9.9,1.1,0,1.9v.7c.2,1,.5,2.1.6,3.1s-.4.6-.6.9v1.1c.9,1.2.9,1.9,0,2.9v.8l.3.2H0v.8c.9,1,.9,1.5,0,2.5v2.2c1,.9,1,1.3,0,2.2v1.8c.9,1,.9,1.6,0,2.6v1.1a2.7,2.7,0,0,1,0,3.6v1.1c1,1.1,1,2,0,3.3V317c.9.9.9,1.1,0,2.2v1.4a2.2,2.2,0,0,1,0,3.3v.8c.8.3.9.7,0,1.1v.7a6.1,6.1,0,0,1,1.4.7v.5l-1.4.2V329l1.5,1.4a6,6,0,0,0-.6,1.1,2.4,2.4,0,0,0,0,1.2c.6,1.5.4,2.3-.9,3.6v1.9c1.6.3,1.6.2.9,1.8a3.7,3.7,0,0,0,0,2.1c.6,1.6.6,1.8-.9,3v.7c1.1,0,1.6.5,1.5,1.6a10.8,10.8,0,0,0,0,1.8v92H1.2c0-.6-.1-1.1-.1-1.7V411.7A1.1,1.1,0,0,0,0,410.5v38l4.9.4c3.4,0,3.1-.3,3.1,3.1v34.6c.1,3,.3,5.9.4,8.8v14c0,2.2,0,2.2-2.2,2.3H0v1.1H182v-205h0v-6.5h0V265.7a6.5,6.5,0,0,1,0-1.4V225.7a2.4,2.4,0,0,1,0-1.2V177a5.6,5.6,0,0,1,0-1.3v-93h0ZM145.9,52.1C144,53.1,130,56,127.2,56c-1-2.2-.5-3.3,1.7-3.6s4-.9,6-1.1a64.1,64.1,0,0,0,7.6-1.6C145.1,49.1,145.5,49.4,145.9,52.1Zm-.7-6.6c-1,1.1-1.1,1.1-4.8,1.5l-5.1,1.1-5,1-4.9.9c0-.2-.1-.5-.1-.7ZM123.3,58.3l6.4-1.4c4.4-.9,8.8-1.9,13.2-2.7l6.3-1,10.5-2,9.2-1.9c1.6,7.9,3,15.5,4.6,23.4l-2.4.2h-27c-1.2.1-1.6.5-1.5,1.8.3,3.4.3,3.4-3.1,3.4H124c-1.9-.1-2-.1-2-2,0-5.5,0-11-.1-16.4C121.9,58.6,122.6,58.4,123.3,58.3Zm44.4,190.9h-.4v-5.3h-.7v6c-.8-1-.9-3.1-.6-7.2,1.6.4,1.8,1.6,1.7,3S167.7,248,167.7,249.2Zm-1.4,12.9.3.5-.3.4c-.1-.2-.3-.4-.3-.5S166.2,262.2,166.3,262.1Zm-.3-1.4v-9.6h.4A31,31,0,0,1,166,260.7Zm.2,4.8c.2,2.2,1,4.5,0,6.7A21.5,21.5,0,0,1,166.2,265.5Zm.4,8.6v6.6C165.7,279.7,165.6,275.6,166.6,274.1Zm-.3,8.6,1.3,1.4-1.2.7c.1,1.5.8,2.9-.1,4.3C165.7,287.9,165.7,284.2,166.3,282.7Zm1.2-12.4c0,.1.1.2.1.3v0C167.4,270.5,167.5,270.4,167.5,270.3Zm-.1-12.5v-5.2h.1V258C167.5,257.9,167.4,257.9,167.4,257.8Zm-1.2,40.3c-.5-2.3-.4-6.5.4-7.6-.1,1.3-.1,2.5-.2,3.7S167.3,296.6,166.2,298.1Zm.2,1.9a1.8,1.8,0,0,1,.1,2c-.5,1-.3,1.8.9,2l-1.2,2.1C165.7,304.3,165.8,301.1,166.4,300Zm1.2-21.8h0Zm0,2v.2h-.2c0-.1,0-.1.1-.2Zm-.1-4.9c0-.1-.1-.1-.1-.2a.1.1,0,1,1,.2,0Zm.1,11.6c0,.2-.1.5-.1.7s-.1-.5-.2-.7Zm-.9,20.9c-.1,1.2-.3,2.5-.4,3.7s1.1,2.4-.2,3.8C165.6,312.7,165.8,308.9,166.7,307.8Zm-.8,8.6h.3c.2.4.6,1,.5,1.4s0,2.8-.1,4.2a7.6,7.6,0,0,0,.6,1.8c-.7.2-1.3.1-1.3-1.1Zm.3,8.5,1.2.3a4.3,4.3,0,0,0-.1.5l-1.2-.4C166.1,325.2,166.2,325,166.2,324.9Zm1.2-7h.2v.7h-.2Zm0-4a1.7,1.7,0,0,0-.1-.7h.3v.8Zm.1-7.9c0-.1-.1-.1-.1-.2h.2Zm-.2-8.9c.1-.3.1-.5.2-.8a2.4,2.4,0,0,0,.2.8Zm-.7-77c0,1-.1,2.1-.1,3.2s.1,2.3.1,3.4v3.5c-.1,1.1-.3,2.3-.3,3.4s.2,2.2.3,3.3v3.4h.6v-5.2h.4v5.3c0,.6-.4,1-.9.8a2,2,0,0,1-.8-.8,2.7,2.7,0,0,1,0-.9V218.2c0-.5.1-.9.1-1.6C166.9,217.9,166.5,219,166.6,220.1Zm-.4-5.2h1.1v.5h-1.1Zm1.3,11.4v6.1h-.1v-6.1Zm-.1-3v-5.5h.2v5.5ZM146.5,111.8a1.7,1.7,0,0,0-.3-1.2c-1-1-.8-2.2-.8-3.4v-19c0-1.6,0-1.7,1.7-2.1A1,1,0,0,0,148,85V81.9c0-1.5.1-1.6,1.5-1.6h16.3c1.8,0,1.8.1,1.8,1.8q.2,28.1,0,56.1c0,1.8-.1,1.9-2,1.9h-2.7c-1.5,0-1.6-.1-1.8-1.6s-.1-.6-.1-.9h-.5c0,.7-.1,1.5-.1,2.5H148.2c-.1-.7-.1-1.2-.2-1.7s-.2-1.1-.5-1.3-1-1.4-1-2.3v-23ZM17.4,17.8,30.9,15l7.2-1.2,8.3-1.7,7.3-1.5L72.1,7,91.4,3.2l8.4-1.7h1.3c.1.2.1.2.1.3h-.1L12.4,19.6h-.7l-.7-.6Zm2.8,49.4h-.4c-.1-.4-.4-.7-.4-1.1-3-15.3-6-30.6-8.7-46,.2.3.5.6.5.9l2.7,13.6c.5,2.7,1.1,5.5,1.6,8.3,1,4.5,1.9,9,2.8,13.5s1.4,6.7,2,10A1.5,1.5,0,0,1,20.2,67.2Zm1.6,1.2c-.2-.3-.5-.6-.5-.9L19.2,56.4c-.9-4.4-1.6-8.9-2.5-13.4S14.9,34.7,14,30.6c-.4-1.7-.5-3.5-.8-5.2s-.7-3.1-1.1-4.8l3.8-.8,6.9-1.4,15.6-2.8c3.6-.7,7.2-1.7,10.8-2.4l14.1-2.7L74.7,8.1l7-1.2,10-2L100,3.3c.1.2.1.4.2.6L88.8,6.1,78.8,8,68.3,10.3c-2.3.4-4.6.7-6.8,1.2L50.3,13.8,34.9,16.7,24.1,19l-7.6,1.3h-.1c-3.3.4-3.5.7-2.8,3.9S15,32,15.8,35.9s1.7,7.9,2.5,11.9,1.9,10.3,2.9,15.5c.3,1.7.7,3.3,1.1,4.9Zm85-16.6L93.4,54.4,81.2,57c-1.8.4-3.6.6-5.4.9l-10.2,2L53.3,62.4,30.8,66.8l-5.1,1.1a14.3,14.3,0,0,1-2.3.3c-3-15.4-6.1-30.7-9.1-46.2l11.8-2.3,2.2-.4,8.2-1.7L50,14.9,69.3,11,84.5,8.2,97.1,5.6c2-.4,2.6-.1,3,1.9s1,4.9,1.5,7.3,1.5,7.3,2.3,11,.8,4.9,1.3,7.4,1.2,6.6,1.9,10l1.5,7.3c.1.3,0,.6.1,1Zm.9-21.1c-1-5-2.1-10-3.1-15.1s-1.5-7.5-2.2-11.2a15.5,15.5,0,0,1-.1-2.2h.4c1.5,7.8,3,15.6,4.6,23.4s3,15.5,4.6,23.2h-.8c-.2-1.2-.5-2.3-.7-3.5Zm-2.6,24.4c0,.1,0,.1.1.1h-.1Zm-2,.4c0,.1,0,.2-.1.2h.1Zm-2.5.4h.1c0,.1,0,.1-.1.2a.1.1,0,0,0-.1-.1A.1.1,0,0,1,100.6,55.9ZM96,57h-.1a.3.3,0,0,0-.1-.2Zm-2.7.4a.1.1,0,0,1,.1.1h-.1a.1.1,0,0,1-.1-.1Zm-1.8.3v.2h-.1Zm-5.2,1.1h.2c-.1.1-.1.1-.1.2a.1.1,0,0,1-.1-.1Zm-2.1.4h0Zm-4.8.8h.3l-.2.2c-.1.1-.2,0-.3-.1A.2.2,0,0,0,79.4,60Zm-2.1.6v.2H77a.3.3,0,0,1-.1-.2ZM75,61h.1v.2h-.2A.1.1,0,0,0,75,61Zm-2.4.4h0a.1.1,0,0,0-.1.1c0-.1,0-.2-.1-.2Zm-2.6.7a.1.1,0,0,1,.1.1h-.2v-.2Zm-2.2.4h.1a.1.1,0,0,1-.2,0Zm-2.2.3h.1a.1.1,0,0,1-.1.1h-.1C65.5,62.9,65.5,62.9,65.6,62.8Zm-2.2.4h.1a.1.1,0,0,1-.1.1h-.1C63.3,63.3,63.4,63.3,63.4,63.2Zm-2.7.7h.2c0,.1-.1.1-.1.2h-.1Zm-2.4.4h0Zm-2,.3.2.2h-.3c-.1,0-.1-.2-.1-.2Zm-2,.5c.1,0,0,0,.1.1h-.2V65Zm-2.6.6v.2h-.2a.1.1,0,0,0-.1-.1Zm-2.6.4h.1c0,.1,0,.1-.1.2h0Zm-2.1.4h.1c-.1,0-.1,0-.1.1h0ZM40,68h0Zm-7.3,1.4v.2h-.1Zm-2.2.4h0Zm-2.3.3h.2a.3.3,0,0,1-.1.2h-.1Zm6.2.1c3-.7,6.1-1.2,9.1-1.8s3.8-.5,5.7-.9l10.7-2.3,7.5-1.4L77.1,62l15.1-3.1,12.5-2.4c1.1-.2,1.3-.1,1.5,1.1.6,2.9.6,2.8-2.5,3.3s-4.2.9-6.4,1.3l-2,.2h0l-.2.2.2-.2c.5-2-.1-2.7-2-2.2L80.5,62.7l-5.1,1.2-2.4.4L59.8,66.8a44.8,44.8,0,0,0-5,1.1,2.6,2.6,0,0,0-1.3.8A2.3,2.3,0,0,1,51.7,70l-6.5,1.2c-4,.8-7.9,1.7-11.9,2.3a21.6,21.6,0,0,1-4.4.2c-1.2,0-1.3-.9-1.4-1.9C29.8,71.2,32.1,70.6,34.4,70.2Zm58.3-7.3h0Zm-2.2.5h-1l.9-.3Zm-1,.1-1.9.7c-.1-.1-.1-.3-.2-.4Zm-3.8.9h-.8v-.2h.8Zm-2.2.4h0Zm-2.1.4-.6.3h-.7v-.3l1.2-.2Zm-2.6.6h-.5l.2-.2Zm-2.6.5h-.1Zm-1.8.2v.2h-.8v-.2Zm-2.1.7-.6.2-.8-.3,1.4-.3Zm-3,.4h0ZM55.5,68.8c0,.1-.1.2-.1.3h-.3c.1-.1.1-.1.1-.2ZM15.8,186.5c0-.4.3-.7.5-1.3.6,1.6.6,20,.1,21.7C15.7,205.7,15.4,190.5,15.8,186.5Zm.2,22.3V221h-.1V208.7ZM9.8,509.9l1.2,1.7C9.6,511.7,9.4,511.2,9.8,509.9Zm-.2-2.4v-8h.1v8Zm2.4,3c-.7,0-1-.6-1-1.2V498.7c0-1.1.6-1.5,1.8-1.6h4.9c-5.7,3.7-5.2,9.9-.8,13.3A16.2,16.2,0,0,1,12,510.5Zm2.7-6.5c-.1-4.1,2.9-6.4,6.5-6.5a6.3,6.3,0,0,1,6.2,6.5c.3,3.2-2.6,6.3-6.3,6.2S14.8,507.7,14.7,504Zm32.2,6.5H25.2c5.5-4.9,3.8-9.9-.4-13.3H45.3c2.5,0,3,.6,2.7,3.2a6.6,6.6,0,0,0,.1,2c0,2.3.1,4.6,0,6.9A1.3,1.3,0,0,1,46.9,510.5Zm81.7-.8c0,1.9-.1,2-2,2H48.4a35,35,0,0,0,.5-4.1c.1-2.8,0-5.5.1-8.2a3.4,3.4,0,0,0-.9-2.7c-.4-.3-.4-1-.7-1.5a1.8,1.8,0,0,0-.7-.8l-.6.9v.2h0l-2,.2a11.3,11.3,0,0,1-1.8.3H15.8a15.4,15.4,0,0,1-3.7-.9l-2,2.7-.5-.2q-.2-3.5,0-6.9c1.2-.4,2,0,2.6,1.3.3-1.3,1.1-1.4,2-1.4H44.7c1.1-.1,1.4.7,1.9,1.3H47c.6-1.6,1.9-1.5,3.2-1.5h42c9.3,0,18.5.2,27.8.3a1.2,1.2,0,0,1,.9.5c.6.8,1.4.9,1.9.3s1.8-.8,2.8-.8h1.3c1.6.1,1.7.1,1.7,1.8v17.4ZM48.7,484.9c.2-.8,1.1-.6,1.7-.6h42c.7,0,1.4,0,1.4,1a1.7,1.7,0,0,1-1.3,1.9H67.3a3.5,3.5,0,0,1-2.7-.7c-.6-.7-1.5-.5-2.3.1a3.9,3.9,0,0,1-1.8.6c-3.2.1-6.5,0-9.7,0-.4,0-1.1-.1-1.3-.4A3.6,3.6,0,0,1,48.7,484.9ZM121,465.1V449.4a6.5,6.5,0,0,1,0-1.4,1.8,1.8,0,0,1,1-.9.9.9,0,0,1,1.1.9v33.4c-.1,1.2-.5,1.8-1.4,1.7s-.7-1.1-.7-1.8C120.9,475.9,121,470.5,121,465.1Zm1.3-23.6H107.1c-1.4,0-1.5-.1-1.5-1.6v-19c0-1.5.1-1.6,1.5-1.6h15.2c1.4,0,1.5.2,1.5,1.6v19C123.8,441.4,123.7,441.5,122.3,441.5Zm-8.8,5.5h1.1c.8-.1,1.2.4,1.2,1.2a12.7,12.7,0,0,0,.1,2h.6a14.1,14.1,0,0,1,.1-2c0-1.1.3-1.2,1.7-1.3s1.6.2,1.5,1.3v33.1c-.1,1.5-.5,1.9-2,1.7a1.1,1.1,0,0,1-1.2-1.2,17.6,17.6,0,0,1,0-2.3h-.7c0,.6-.1,1.2-.1,1.8s-.2,1.8-2,1.8h-.1c-2.1.1-2.3-.1-2.3-2.1V449.1C111.4,447.1,111.5,447.1,113.5,447Zm12.5-5.5c-1,0-1.4-.3-1.4-1.4V420.8c0-1,.3-1.4,1.3-1.5,2.8-.1,2.8-.2,2.8-2.8s0-4.5-.1-6.8-.2-1.7-1.7-1.8l-7.1-.3h-1.4a4.2,4.2,0,0,0,2.8,1c1.9.1,1.9.1,1.9,1.8,0,3.7.3,3.3-3.2,3.3H102.4c-2.2,0-2.3.1-2.3,2.3v34.1c0,.8-.4,1.1-1.1,1.2l-1.7.4c.2.3.2.5.3.5l6.9.2c.8,0,1.1-.7,1.1-1.4v-2.8c0-.8.3-1.2,1.2-1.3,3.3-.3,3.5-.1,3.5,3.2v31.6c.1,1-.4,1.3-1.4,1.4-3.2.1-3.3.1-3.3-3.1v-.6c0-2-.2-2.2-2.2-2.2s-2.1.2-2.5-1.2-.9-.5-1.4-.5H78c-1.3.1-2.4,0-2.9-1.6h-.3c-.2,1-.5,1.9-.6,2.9a1,1,0,0,0,1,1.2H98.1c2,0,2,.1,2,2.1s-.1,2.9-3,2.9H17.3c-1.3,0-1.5-.2-1.5-1.5s0-4,0-6V462.8c0-2.2,0-2.2,2.3-2.2h8.1c.8,0,1.6,0,1.6,1.2-.1,3.6,0,7.1,0,10.8-3.8.4-7.5-.6-11.1.9l1.2.2h8.8c1.7,0,1.8-.1,1.8-1.8v-8.2a14.1,14.1,0,0,1,.1-2c.1-1.4-.2-1.8-1.7-1.9H18.1a4.3,4.3,0,0,1-1.6-.1c-.3-.1-.5-.5-.6-.9a1,1,0,0,1,.7-.5,19.2,19.2,0,0,1,2.4,0H84.5a24.3,24.3,0,0,0,3.2-2.4c.1,0,.1-.3.1-.6s-2.2,1.5-3.4,1.7a.2.2,0,0,1-.2-.2c-.1-2.2-.1-4.4-.1-6.5V411.1c0-1.1.2-2.2.3-3.3s-.4-2.3-2.2-2.4H16.9c-.7,0-1.2-.3-1-1s.6-.7.9-.8a28,28,0,0,1,2.9,0H27c1,0,1.5-.3,1.5-1.4v-12l-2-.2H18c-2.2,0-2.2,0-2.2-2.2v-9.9c0-2.1,0-2.1,2.1-2.1H67.1c1.3,0,2.6.2,3.6-1.1s1.1-.3,1.7-.3l10.2-.2a2.2,2.2,0,0,0,.8,0c.7-.1,1.4-.3,1.4-1.3s-.8-1.2-1.5-1.2c-3.5.1-6.9,0-10.3,0-1.1,0-2.2.2-3.1-1s-1.3-.4-2-.4-2.6.3-3.4-1.2-.8-.3-1.3-.3h-13c-.4,0-1.2.1-1.3.4s-2,1-3.2,1.1v-43c0-.8.4-1.2,1.1-1.2h2.5v5.8c0,2.3.3,2.6,2.6,2.6h1.9a13.3,13.3,0,0,0-1.6,7.2,11.9,11.9,0,0,0,3.6,7.9,3.8,3.8,0,0,0,5.3,0,12,12,0,0,0,3.1-12.3c-.3-.8-.5-1.6-.8-2.7h2c1.7,0,2.2-.5,2.2-2.1v-6l.2-.2c3.2-.4,3.4-.3,3.4,2.9v11.6h-.5a18,18,0,0,1-.2-2.2c0-.4.2-.8.1-1.1s-.5-.7-.8-.7-.8.4-.8.7,0,2.1,0,3.1.2,1.6,1.4,1.7.7.6.8,1a17,17,0,0,1,.4,2.2c3.4.1,6.6.4,9.8.3s5.9.1,8.9,0a43.8,43.8,0,0,0,5.1-.4c.3,0,.6-.4.9-.6a2.3,2.3,0,0,0-1-.7,2,2,0,0,0-1.3.1c-2.1,1.1-4.4.2-6.6.8-.3.1-.8-.2-1.1-.5a2.6,2.6,0,0,0-2.7-.3,9.7,9.7,0,0,1-6.7.1,4.3,4.3,0,0,0-3.9.5,10.5,10.5,0,0,1-.6-2.4c-.1-4.8-.1-9.6-.1-14.4,0-1.8.1-1.8,1.7-1.9h8.1a2,2,0,0,1,1.4.5,6.3,6.3,0,0,1,.3,2.4c0,.3-.8.6-1.2.6h-4c-1.6,0-1.9.2-1.9,1.8V340c.1,1.4.4,1.7,1.7,1.7H90.6c1.8-.1,2.2-.5,2.2-2.4v-7.8c-.1-1.4-.2-1.7-1.6-1.7H85.5l.8-3.6h9.6c.8,0,1.2.3,1.2,1.1s.1,2.2,0,3.3a1.9,1.9,0,0,1-.5,1.1c-.9.4-.9,1.2-.9,2v3.8a2.5,2.5,0,0,0,.9,2.4c.4.2.5,1.2.5,1.8v27.2c0,1-.2,1.4-1.3,1.5s-1.5.3-1.6,1.7c-.2,3.8-.1,3.8,3.6,3.8h24.1a1.1,1.1,0,0,1,1.2,1.2c0,.8-.2,1.3-1.1,1.3H95.8c-1.7.1-2.1.6-1.8,2.3a39,39,0,0,0,1.2,4.6c.9-1.2-.2-2.5.2-3.9h26.8c1.1,0,2.2.1,2.5-1.3s.6-.4.9-.5a8.6,8.6,0,0,1,1.6,0c1,0,1.5-.5,1.4-1.5s.1-.8.1-1.2V359.9c-.1-1.9-.1-2-2.1-2H103.8c-.8.1-1.1-.4-1.1-1.1V317.8c-.1-1.2-.4-1.5-1.6-1.6H98.9c-1,0-1.8.3-1.8,1.5s-.4,1.1-1.2,1.1H49.6c-1.3-.1-1.8-.9-1-1.9a35.9,35.9,0,0,1,3.2-3.5l6.7-6.7,5.8-5.6.6-.7c1.9-2,1.9-2.3-.3-3.8l-2-1.3h-1l2.4,2.5-4.4,4.4c-1.6,1.6-3.3,3.1-4.8,4.7l-8.9,9a1.5,1.5,0,0,1-.9.4c-1.9.4-1.9.4-2.3,2.6H16.8a.9.9,0,0,1-1-1c0-3.5,0-7,.1-10.6a11,11,0,0,0,6.4,6.9,10,10,0,0,0,6.8.5c4.6-1.4,8.1-5.1,8-10.2s-2.7-9.1-7.5-10.6-10.3-.2-13.7,7.2a12.1,12.1,0,0,1-.1-1.8V265.1c0-.9.4-1.4,1.3-1.4H40.3c2.4,0,2.4,0,2.4,2.4V288a7.6,7.6,0,0,0,.1,1.5c0,1.6.4,1.9,1.9,1.9s4.4.3,6.6.3c.3.1.6-.1,1.1-.2a3.8,3.8,0,0,0-2.9-1.2c-.7,0-1.2-.1-1.2-1s.6-.8,1.2-.8h3.7a3.5,3.5,0,0,1,1.3.5,2.4,2.4,0,0,0,2.7.3,7.8,7.8,0,0,1,2.1-.4H70.4a15.5,15.5,0,0,1,2.1.4,4.7,4.7,0,0,0,2,.2,26.2,26.2,0,0,1,7.4-.6H94.3c1.5,0,2.7.2,2.9,2s.9.9,1.6.9c2.7.2,2.7.2,2.7,3a10.9,10.9,0,0,0,.1,1.8c.1,1.1.5,1.4,1.5,1.4a1.3,1.3,0,0,0,1.4-1.3V273.3c0-1,.1-2.1-1.3-2.5s-.4-.7-.5-1a9.7,9.7,0,0,1,0-1.7V188.3c0-3-.2-2.8,2.9-2.8h27.7c2.5-.1,2.9-.6,3-2.9s.2-5.6.3-8.4a5.3,5.3,0,0,0-.3-1.2h-.5c-.2,1.2-.5,2.4-.6,3.6s-.3,1.6-2.1,1.5-1.6-.1-1.6-1.5v-9c0-1.8-.1-1.9-1.8-1.9H119.4c-1.6,0-1.8.2-1.8,1.8,0,3.1,0,6.2.1,9.3,0,.6.1,1.3-.8,1.3s-1.1-.6-1.1-1.3V112.9c0-2.7,0-2.7-2.6-2.7H64.3a1.1,1.1,0,0,0-1.1,1.2v64.1a10.9,10.9,0,0,1-.1,1.8.8.8,0,0,1-1.6,0,2.8,2.8,0,0,1-.1-1.3v-8.2c0-.6-.1-1.3-.1-2H47.7a11,11,0,0,0-.2,1.8v8.6c0,1.9-.1,1.8-1.8,1.9l-3.8.4c-.8.1-1.3.4-1.3,1.2a22.8,22.8,0,0,0,0,3.7c.1.4.5,1.2.9,1.2s1.3,1.1,1.2,2a3.2,3.2,0,0,0,.3.9c1.2-.3.6-1.5,1.1-2s1.2.7,1.2,1.5v15.3c0,2.4.1,2.5,2.4,2.5H94.9l2.2-.2v51.1a.9.9,0,0,1-1,1H90.6v-4.9c0-2.8-.3-3.1-3.1-3.2h-1c.4-2,1-4,1.3-5.9s-1.9-8.2-4.5-9.7a4.1,4.1,0,0,0-4.7.7,11.4,11.4,0,0,0-3.6,9c.1,1.9.9,3.8,1.4,5.9H74.3c-1.6,0-2,.4-2,2v4.7c0,.9-.4,1.3-1.3,1.2H67.2c-1.1,0-1.5-.4-1.4-1.4v-28c-.1-.8-.5-1.3-1.3-1.2s-3.2-.6-4.5.7a2.1,2.1,0,0,1-1.4.3H17.5c-1.6,0-1.7-.1-1.7-1.8s-.3-1.9,1-2.4.4-1.1.4-1.7c.1-2.7,0-5.3,0-8s0-1.8,1.8-2.2l1.7-.5.2-.2c-.5-.3-1.1-.5-1.3-.9a3,3,0,0,1-.2-1.6V186.2c0-.9.3-2-1-2.4s-.4-.7-.5-1.1v-2.2c.1-1.1-.1-2-1.4-2.4s-.6-.7-.7-1.1a7.5,7.5,0,0,1,0-1.5V82.7c0-2.4,0-2.4,2.3-2.4h5c1.4-.1,1.6-.2,1.7-1.5s.5-1.3,1.5-1.4l5.4-1.3c2.1-.5,4.2-.8,6.3-1.2l8.4-1.6,15.1-3.1,15.4-2.8,14.3-2.9,13-2.5,1.6-.5c1.5-.4,1.9-.2,2.2,1.3.8,4,1.5,8.1,2.3,12.1l.3,1.3c.5,2.6.5,2.6,3.3,2.6h27.8c.7,0,1.1.4,1.1,1.2v30.5c0,1-.1,2,.8,2.8a2.2,2.2,0,0,1,.3,1.4v20.7c0,.3.1.8-.1,1s-.9,3.1-1,4.7v2.7c.1,1.3.2,1.5,1.5,1.5h21.6c1.6,0,1.7,0,1.7,1.5.1,10,.1,20.1,0,30.1a2.2,2.2,0,0,1-.1.8l-1.8.3a18,18,0,0,1-.2-2.2V149.8a1.1,1.1,0,0,0-1.3-1,11.3,11.3,0,0,0-5.3,1.4,6.5,6.5,0,0,0,1.4,0c2.4-.4,2.6-.3,2.6,2.2v24.2c0,1.1-.3,2.3,1.2,2.9s.2.8.3,1.2v2.7c0,1,.3,1.6,1.4,1.8s1.9.3,1.9,2.4c0,8,0,16-.1,24,0,1.6,0,1.6-1.6,2.1s-.8.3-.8.5-1.4,1.2-2.4,1.2h-29c-1.3.1-1.4.3-1.4,1.6,0,4.8-.1,9.6-.1,14.4q-.2,46.7-.1,93.3v.2c0,3.1.1,3.2,3,3.1.8,0,1.5,0,2,.9s1.2.5,2,.3-.5-1.1-1.1-1.3.1-1.7,1.7-1.7h23.6a13.6,13.6,0,0,1,1.7.4l.9.2h1.6v.6c-1.6.9-1.6.9-.5,2.3a2.7,2.7,0,0,1,.5,1.4c.1,1.3,0,2.5.1,3.7a1.5,1.5,0,0,1-.9,1.6.9.9,0,0,0,0,1.7c.9.4.9,1.1.9,1.8v4.2l-1.8,1.4c2.1.4,1.7,1.7,1.7,2.8q.2,30.9.1,61.8v29a14.8,14.8,0,0,0-.1,2.1h-.5a10.9,10.9,0,0,1-.1-1.8v-26c0-3.1-.2-3.2-3.3-2.6l-1,.4c1.3.2,1.4,1.1,1.3,2.1v26.6c0,1.2-.3,2.5,1.4,3,.2,0,.4.6.4.9a9.7,9.7,0,0,1,0,1.7c0,1.4-.1,1.5-1.6,1.5H138.3c-2.4,0-2.4,0-2.4-2.4v-4.2a7.7,7.7,0,0,0-.2-1.5l-.4.2c-.5,2.4-.5,2.4-2.9,2.4ZM99.7,477a.3.3,0,0,1-.1.2h-23l-.6-.2v-.3H99.7ZM15.8,392.3c0-.9.1-1.5,1.2-1.5h9.5c.7,0,1.2.3,1.2,1v11H15.8V392.3Zm15.4,15.6H20.4c-1.9,0-2.1.2-2.1,2v18.1c0,1.8.3,2.1,1.9,2.1,3.9.1,7.7,0,11.5,0,1.5,0,1.7-.4,1.7-1.9V413.9c.7,1.8,2.6,14.6,3.5,21s2.4,14.3,3.4,21.6H31.9a12.7,12.7,0,0,0-3.9.6,9.7,9.7,0,0,1-3.8.1c-1.5,0-2.9.2-4.3-.5s-1.9-.1-3-.2V407.6c1.3-.5,14-.5,15.9.1Zm1.4,2.6a14.1,14.1,0,0,0-.1,2V429H20.6c-1.4,0-1.6-.1-1.6-1.6v-17c0-.9.3-1.5,1.3-1.6l1.4-.2H31C32.7,408.7,32.8,408.9,32.6,410.5Zm2.4-3,3.6-.2H80a3.8,3.8,0,0,1,1.5.1,2.2,2.2,0,0,1,1,1.1c.2.4,0,1,0,1.6v40.7c0,1.6-.1,3.1-.1,4.7a1,1,0,0,1-.9,1.1H42.6a1.4,1.4,0,0,1-1.7-1.4c-.2-1.7-.5-3.4-.7-5a27,27,0,0,0-.4-2.8c-.4-3.2-.9-6.4-1.4-9.7s-1.2-6.6-1.7-10-1.3-9.2-2-13.8a40.5,40.5,0,0,0-.9-4.8C33.5,408,33.9,407.6,35,407.5ZM16,327.8h-.1v-1.3h.2C16.1,326.9,16,327.3,16,327.8Zm0,3.8v33.3h-.1V331.5A.1.1,0,0,1,16,331.6Zm0,37.1a5.9,5.9,0,0,0,.2,1.3h-.3a5.3,5.3,0,0,1-.1-1.3Zm7.4-41.8a19,19,0,0,1,2.5.3,2.9,2.9,0,0,1-.2.9c-.2.8.1,1.1.9,1.1s1.9,0,1.8,1.9c-.1.2-.2.4-.1.5s.5.6.7,1,.8-.6.9-1a5.3,5.3,0,0,0,.1-1.8c-.1-1.1.3-1.5,1.4-2,3.4-1.6,6.8-.7,10.2-.9l.7.3c-3.7,6.6-7.5,13.2-11.3,19.7-1.5.4-2.4-.4-3.1-1.6-2.4-4.2-4.8-8.4-7.3-12.6-.9-1.7-1.9-3.2-2.9-4.8s-.5-1.7.8-1.8a35.5,35.5,0,0,1,6.5.4H18.5v.4Zm2.6.3.3-.9.3.2Zm3.1-.9h.6c-.1.1-.1.3-.2.3s-.2,0-.3,0S29.1,326.4,29.1,326.3Zm4.4.1h0Zm-2.6,23c3.8,6.4,7.6,12.9,11.5,19.7h-25c1.2-2,2.2-3.9,3.3-5.7,2.5-4.4,5.1-8.7,7.5-13.1C28.9,349,29.9,349.4,30.9,349.4Zm-1.1-1.3H30v.2h-.2Zm8.6,12.3c-1.3-2.3-2.6-4.6-4-6.9s-1.7-3-2.6-4.4A2,2,0,0,1,32,347l7.2-12.4a54.6,54.6,0,0,1,3.4-5.5,10.9,10.9,0,0,1,.1,1.8v36.9ZM20,333.3c2.6,4.6,5.2,9.2,7.9,13.7a2,2,0,0,1,0,2.2l-9.7,16.7a16.2,16.2,0,0,1-1.3,1.9V328.4C18.1,330.3,19.1,331.7,20,333.3Zm24.8,36.3c0,.3-.4.5-.8.8-.5-5.4-.3-42.8.4-44.2l.5.8v41.1A3.8,3.8,0,0,1,44.8,369.6Zm5.5.6c0-.1.1-.1.1-.2H62.9v.2Zm8.1-36.8H51.7c-1.5,0-1.6-.1-1.6-1.5V328c0-1,.5-1.5,1.6-1.5H65c1.3,0,1.8.5,1.8,1.8a21.6,21.6,0,0,1,0,3.6c0,1.4-.1,1.5-1.5,1.5Zm4.7,3.5c1.4,4.3,1,8.4-2.5,11.7a2.9,2.9,0,0,1-4.3,0c-3.7-3.8-4.4-8.5-1.7-13.2a2.2,2.2,0,0,1,1.4-.8,11.1,11.1,0,0,1,2.6-.1h1.2C62,334.6,62.5,334.8,63.1,336.9Zm28.5,2.2c0,.8-.1,1.3-1.1,1.2a15.4,15.4,0,0,0,.5-1.7v-5.7c-.1-1.3-.4-1.6-1.7-1.7H86.5v-.3h3.8c.9,0,1.4.3,1.4,1.3S91.6,336.8,91.6,339.1Zm-2.8-6.8c1.3.1,1.4.2,1.4,1.6v4c0,1.5-.3,1.7-1.9,1.7H81.1c-1.4-.1-1.8-.4-1.8-1.7v-4c0-1.4.2-1.5,1.5-1.6Zm-10.6,1.3c-.1,1.4,0,2.9,0,4.3h-.3c0-1.7-.1-3.5,0-5.2s.3-1.8,1.9-1.8h2.5a.7.7,0,0,1,.7.3H80.6C78.6,331.3,78.2,331.7,78.2,333.6Zm1.1,6.5c-.1.1-.1.2-.2.2l-.9-.4.2-.3ZM96.9,335v-1.4h.2V335Zm.2,2.6h-.2v-.5H97A.6.6,0,0,0,97.1,337.6Zm25.4,42v.2H96v-.2ZM47.9,315.5l.3-.3c.1-.2.3-.3.4-.4l.3-.4.4-.3h0l-.3.3-.4.4c-.1.1-.3.2-.4.4Zm1.8-1.8h0l.3-.4h.1Zm.7-.7h0l.4-.4h0Zm.7-.8h0l.4-.3h0Zm.8-.7h0l.3-.4h0Zm.7-.7h0c.1-.1.2-.3.4-.4l.3-.4.4-.3c.1-.1.2-.3.4-.4l.3-.4.4-.3.4-.4.3-.3h0l-.3.3-.4.4-.4.4-.3.3c-.2.1-.3.3-.4.4l-.4.3-.3.4Zm3.3-3.3h0l.4-.4h0C56.1,307.2,56,307.4,55.9,307.5Zm.7-.7h0l.4-.4h0Zm.8-.8h0l.3-.3h0Zm.7-.7h0l.3-.4h.1Zm.7-.7h0c.1-.2.3-.3.4-.4l.7-.7.4-.4.3-.4.4-.3-.4.3-.3.4-.4.4-.7.7Zm2.6-2.6h0l.7-.7h0l.4-.4h0c-.2.1-.3.3-.4.4Zm1.4-1.4h0l.4-.3h0Zm.8-.8h0l.3-.3h0Zm.7-.7h0l.4-.4h0ZM27.7,313.9c-7.6.2-11-4-11.2-9.7s4-9.6,9.7-9.9,10.5,5.1,9.9,9.9S31.4,313.8,27.7,313.9ZM88,249.5c1.4,0,1.8.4,1.8,1.9a16.1,16.1,0,0,1,0,3.1c0,1.5-.3,1.8-1.8,1.8H74.7c-1.5,0-1.6-.1-1.6-1.6v-3.8a1.2,1.2,0,0,1,1.4-1.4Zm-11.3-3.3a10.9,10.9,0,0,1,2.8-12,2.3,2.3,0,0,1,3.5-.1c2.8,2.5,4.3,5.5,3.8,9.3a15.8,15.8,0,0,1-.9,3.1c-.5,1.9-1.8,2.4-3.5,2.2H80.2C77.8,248.6,77.6,248.5,76.7,246.2Zm18.8,17.5c1.4,0,1.6.2,1.6,1.6v21c0,1.3-.1,1.4-1.7,1.4H50.3c-2,0-2-.1-2-2.1V265.9c0-2.1,0-2.1,2.2-2.2l13.6-.2Zm-38.3-23c.1,1.6-.2,1.8-1.7,1.7l-.9-.2c-.3.1-.7.4-.7.6a1.4,1.4,0,0,0,.5,1h2.4c.9,0,1.7.2,1.7,1.4s-.1.3,0,.3c1.6,1.7.9,3.8,1,5.7s0,2.4,0,3.6l-.4.2L39.8,242.8,59,230.4l.4.3V240l-1-.3C57.3,239.4,57.1,239.6,57.2,240.7Zm-1,2.3h0Zm-.4-11.7-2.1,1.5L44,239.2l-3.7,2.3a4.2,4.2,0,0,1-1.6.1c-.2,0-.5-.2-.6-.1s-2.3-.1-3.2-.6l-13.8-9.2-2.5-1.5a.5.5,0,0,1,.2-.4H57.6v.2ZM36,242.5c-.9,1.3-16.9,11.6-19.1,12.4V230.3C23.6,234.4,29.7,238.6,36,242.5ZM18.3,255.6h0l.4-.5,12.6-8c1.2-.8,2.5-1.3,3.6-2.2s2.7-1.1,4.2-1.2l.8.2,11.9,7.7c1.7,1.2,3.5,2.2,5.2,3.3a5.9,5.9,0,0,1,1.7,1.8H21.2c-1.1.1-2.3.2-2.9-1-.7,1.2-.8,1.3-2.2.7Zm41.5.8c.1-.2.1-.5.2-.7h.1v.7Zm.4-12.3H60c0-.2-.1-.5-.1-.7a1.3,1.3,0,0,0-.1-.6h.4ZM60,232.5v-.2h.1v.2Zm.2-2.9a6.4,6.4,0,0,0-1.8-.6H18.1c-.8,0-1.8-.3-2.2,1.4-.1-2.4-.1-2.4,1.8-2.4H58.4C60.2,227.9,60.2,227.9,60.2,229.6Zm-44.3,4.1v19.8h-.1V233.7ZM63,191.3c.9,0,1.3.4,1.3,1.4v4.7a1.1,1.1,0,0,1-1.2,1.2H54.7c-1,0-1.4-.4-1.3-1.3v-4.8a1.1,1.1,0,0,1,1.2-1.2Zm-2.9-1h0Zm1.4-.1h1.7l-1.6.4Zm3.9,2.4c.1-1-.6-1.6-1.1-2.4,1,0,1.4.5,1.4,1.5s.1,4.4,0,6.5S65.2,200,64,200H53.8c-1.3-.1-1.5-.5-1.5-1.8s-.1-4.4,0-6.5.3-1.7,1.5-1.8,2.7-.2,3.9.6l-2.8-.2c-1.6-.1-2.2.3-2.3,1.8v5.7c.1,1.3.4,1.6,1.7,1.6h9.1c1.5-.1,2-.6,2-2S65.4,194.2,65.4,192.6Zm-9.5-7.1a2,2,0,0,1,2,2.6,1.4,1.4,0,0,1-1.1.6H52.6a1.3,1.3,0,0,0-1.6,1.3,5,5,0,0,0-.2,1.2v7.5c0,1.7.4,2,2.1,2H64.8c1.8,0,2.1-.2,2.1-2.1v-8c-.1-1.7-.3-1.9-2-1.9s-3.2,0-5,0,.6-2.1.2-3.3H81c2.8,0,2.9.1,2.6,3.3H79c-2.1,0-2.3.1-2.3,2.3v7.8c0,1.7.3,1.9,1.9,1.9H90.7c1.7,0,2-.3,2.1-2v-8.4c0-1.3-.3-1.6-1.7-1.6s-2.8,0-4.2,0-1.5-.4-1-1.7.2-.9.4-1.6h9.6c.8,0,1.2.3,1.2,1.2s.1,2,0,3.1a2.7,2.7,0,0,1-.6,1.2,1.7,1.7,0,0,0-.8,1.7v4c0,.8-.1,1.7,1,2.1s.3.6.4.9a4,4,0,0,1,0,1.1c0,2.4-.8,3.2-3.2,3.3a14.8,14.8,0,0,1-4.6-.5,7.2,7.2,0,0,0-5,.2,6.6,6.6,0,0,1-4.6,0,9.6,9.6,0,0,0-5.3-.1,13,13,0,0,1-5.2.1,8.1,8.1,0,0,0-5.1,0,8.7,8.7,0,0,1-5.3-.1,7.8,7.8,0,0,0-5,0,7.4,7.4,0,0,1-5.3,0c-.6-.3-1.6-.3-1.8-.7a6.9,6.9,0,0,1-.3-2.5V187.3c0-1.7.1-1.8,1.9-1.8Zm-7.3-17.1c0-1.8.1-1.9,1.8-1.9h8.2c1.5,0,1.7.1,1.7,1.7v8.4c0,.8-.1,1.5-1.1,1.5H49l-.4-.2Zm16.8,4.9c0,2.3.4,2.7,2.7,2.7h17c2.3-.2,2.6-.4,2.6-2.7V162.9c0-1.8-.1-1.9-1.9-1.9H71.4v-.4l14.1-2.2,14.4-2.2c4.7-.7,9.3-1.7,14.1-2.2v23.3H65.1V161.9h.3v11.4Zm1.1.1V163c0-1.4.4-1.6,1.8-1.5l6,.2c3.6.1,7.2,0,10.7,0,1.8,0,1.9.1,1.9,1.9s0,6.4.1,9.6c0,1.1-.3,1.7-1.6,1.7l-9.4.5v-.2c-2.6,0-5.1.1-7.7,0S66.5,175,66.5,173.4Zm47.5-23v1.5c0,.9-.3,1.3-1.3,1.4l-7.3,1.1-8.3,1.3-4.7.6c-.9.1-1.7.5-2.6.6l-9,1.2-6.6,1.2L67,160.5c-1.8.3-2,.1-2-1.8V113.8c0-2,.1-2.1,2-2.1h45c1.8,0,2.2.4,2.2,2.2C114.1,126.1,114,138.3,114,150.4Zm-33.4,49H89c1.7,0,1.9-.2,2-2v-5.1c-.1-1.6-.2-1.7-1.7-1.7a13.7,13.7,0,0,1-2.9-.2c1.4-.8,3-.3,4.5-.2a1.4,1.4,0,0,1,.7,1.1c.1,2.4,0,4.8,0,7.1a1.1,1.1,0,0,1-1,1.3,4.1,4.1,0,0,1-1.6.3H80.5c-.9,0-2,.1-2.3-1.2Zm-2.3-8.7.5-.3.2.3-.6.3Zm10.7.6a1.1,1.1,0,0,1,1.2,1.2v5c0,.8-.5,1.1-1.3,1.1H80.7c-.8,0-1.3-.2-1.3-1.3a37.3,37.3,0,0,0-.1-4.7c0-.9.4-1.3,1.3-1.3Zm-8.9-1.2h3.2a.8.8,0,0,1-.1.4A4.3,4.3,0,0,1,80.1,190.1Zm-2,2.2v1.6H78v-1.6ZM97,193v0Zm5.8,103.2V272.6h.1v23.7Zm15.9-128.5c0-.8.4-1.2,1.3-1.2h9.1c1.1,0,1.3.5,1.3,1.5v9.8c-1.6.5-8.2.5-11.7,0ZM18,209.3V186.1h.2v23.3Zm146.3-58.7v26.9h-.1V150.6Zm.8,172c0,1-.4,1.4-1.4,1.3H140.2c-.7,0-1.7.4-2-.7a2.9,2.9,0,0,1-.1-1.6,8.7,8.7,0,0,1,.9-1.1,1.9,1.9,0,0,0,.4-.9l-1.2-.3c-.2-2.4,1-3.5,3.7-3.3l-1,.5c1,.2,2.3,1.5,2.9-.5a3,3,0,0,1,1.3.4c1.1.9,1.7.9,2.8-.1s1.1-.6,1.6.1,1.6.8,2.6-.2a4.9,4.9,0,0,1,1.9-.4l-.3,1c.9.1,1.9.7,2.6-.5s5.2-.7,5.5,0,1.2.7,1.9.7,1.4.4,1.4,1.4A29.4,29.4,0,0,0,165.1,322.6Zm-1,2.2v.2H138.6v-.2Zm-.6-9.6H140c-.7-.1-1.7.3-1.9-.9s-.2-1.9,1-2.2.1-.2.3-.4c-1.7-.8-1.4-2.3-1.2-3.9a16,16,0,0,1,2.3-.3h6.9a14.1,14.1,0,0,0,4.1,0,2,2,0,0,1,2.1.7c.2.3.7.3,1.4.5a6.4,6.4,0,0,0-.4-1l.3-.2h8.6c1.4,0,1.5.1,1.5,1.6a5.4,5.4,0,0,1,0,1.8,1.3,1.3,0,0,1-.1.6c-1-.2-2-.8-3.1.5l1.8.3c1.2.1,1.4.4,1.5,1.6S164.4,315.2,163.5,315.2Zm1.6-9.2c0,.7-17.8.4-25.8.4h-1.2V299l26.7.4C165.3,299.4,165.1,305.5,165.1,306Zm-3.3-8H139.7c-.7-.1-1.5,0-1.6-1s-.3-2,1.4-2.3l-.9-.5.8-.5-.4-.4c-.3-.4-.8-.6-.9-1s.2-1.9,1.8-1.9h17.5c1.6,0,3.2-.5,4.8.5s.6-.4.9-.4,1.5-.1,1.6.2a2.7,2.7,0,0,1,.2,2c-.2.3-1.1.4-1.6.5s-1.3.1-1.1,1.8l2.8-.5h0a.1.1,0,0,0,.1.1H165C165.4,297.9,165.2,298,161.8,298Zm-21.9-72.8c1.7.4,3.3-.2,5,0s2.1.6,3.2,0,1,.1,1.6.1h2c.4,0,.8-.4,1-.3a4.5,4.5,0,0,0,4.2,0c.2-.1.6.2,1,.3a2.2,2.2,0,0,0,2.2.1,5,5,0,0,1,1.7-.2l3.2.5c0,1.9.1,4.1,0,6.3a2,2,0,0,1-1.1.9,6.9,6.9,0,0,1-2,.1,7.2,7.2,0,0,0-4.1.7c.5,1.1,1.5.9,2.2.4s1.6-1,2.6,0,1.3,0,2.2-.1a4.5,4.5,0,0,1,.2.8c.1,1.8,0,3.6.1,5.3s-.4,1.2-1.2,1.2H140.2c-2.1,0-2.1,0-2.1-2l-.3-11.4v-2C138.6,225.6,139.3,225,139.9,225.2Zm-2-7.1c0-1.3.4-1.6,1.7-1.5s4,.2,5.9.3h.7a5.8,5.8,0,0,1,4.1.2.4.4,0,0,0,.5.1c3.6-1.3,7.3-.2,10.9-.5.3-.1.6-.1.7.1s1.5.4,2.2-.3a.8.8,0,0,1,.4.4c0,2.1.1,4.2,0,6.3s-.8,1.1-1.6,1.1a45.7,45.7,0,0,0-6.4-.3,69.4,69.4,0,0,1-7.9,0l-6.4.2h-3.9c-.7,0-1-.4-1-1.1A40.5,40.5,0,0,1,137.9,218.1Zm1.6,59-.8-.5c-1-.6-1-1.4,0-1.9l1.9-.7,2.6-.8a14.6,14.6,0,0,0,1.9.7c.7.1,1.5.1,1.8-.9s1,0,1,.1.8.8,1.5.8,1.2.1,1.4-.7a1.3,1.3,0,0,1,1.2-.1c1.5,1.2,2.3,1.1,3.5-.1a25,25,0,0,0,2.5.9,1.7,1.7,0,0,0,1.1-.6c.5-.7.9-.6,1.5-.1a1.8,1.8,0,0,0,2.9,0c.5-.5.8-.4,1.2.1a1.9,1.9,0,0,1,.3.8v5.7c0,.8-.4,1-1.1,1H141.1l-3,.2C138.3,279.6,137.3,278,139.5,277.1Zm-1.4-31.6c-.4-1.6.7-2.4,1.8-3.1s.9-.1,1.2.1,1.1.9,2.4-.1a1.1,1.1,0,0,1,1.6.1c.9.9,1.8,1,2.6.2s1.2-.8,1.9-.1,1.4.8,2.4.1,1.1-.8,1.7,0a1.5,1.5,0,0,0,2.3.1c.8-1,1.2-.7,2,0a1.6,1.6,0,0,0,2.4-.1c.7-.8,1.1-.6,1.8-.1s1.5.8,2.9-.4v6.6a1.2,1.2,0,0,1-1.3,1.3H140.1c-2,0-2,0-2-2.1A20.9,20.9,0,0,0,138.1,245.5ZM164,272H145.1l10.5-5h0c1.9-.8,9.4-4.6,9.4-4.6v4c.1,1.6.1,3.1.1,4.7S164.7,272,164,272Zm1.1-14.7c-.1.7,0,1.4-1.2,1.5s-1,.6-1.8,1.1a1.9,1.9,0,0,0,2.7-.4c.5,1.1.3,1.8-.7,2.3l-4.8,2.4-9.9,4.2s-7.4,3.9-10,5.1l-1.2.2V260.4c.5-.2,1.5,0,1.3-1.1l-1.4-.6V253c0-.6,0-1.2.8-1.4a3.6,3.6,0,0,0-.3-.7H163c2,0,2.1,0,2.1,2Zm-23.9,24.4c0-.1.7-.1.9.1s1.9,1.2,3.2,0l.5-.2a2,2,0,0,0,2.4,1c.6-.2,1.1-.9,1.7-.9s1.1.8,1.7.9a2.5,2.5,0,0,0,1.8-.5c.7-.6,1-.5,1.6.1s1.7.6,2.8-.2a.9.9,0,0,1,1.1-.1c1.3,1,1.7,1.1,3,.1a.9.9,0,0,1,1.3-.1c1.9,1.4,1.9,1.4,1.9,3.9s-.1,2.3-.1,3.4H140.4c-2.3,0-2.3,0-2.3-2.3v-1.2l.9.5c.4-.7.9-1.3-.3-1.8s-.5-.9-.8-1.5S140.6,283.1,141.2,281.7Zm-7.5-57.3V218c.1-1.3.3-1.4,1.5-1.5s1.4.5,1.4,1.5v13.1c0,1.3-.3,1.4-1.5,1.5s-1.4-.5-1.4-1.5S133.7,226.6,133.7,224.4Zm40.9,285c0,2.2,0,2.3-2.2,2.3H130.8c-.7,0-1-.3-1.1-1v-18a4.6,4.6,0,0,1,.6-2.8,4.3,4.3,0,0,0,.2-2V451.5c0-2.7-.2-2.6,2.5-2.6a4.6,4.6,0,0,0,3.2-.7c.1-.2.5-.2.8-.2h26.5c1.1,0,2.1-.2,3.2.6s1.7.2,2.5.2h3.7c.9,0,1.4.3,1.3,1.3v36.6c0,2.7.3,5.4.4,8Zm1.3,1.9a2.1,2.1,0,0,1-.1-1.2c0,.1.1.1.1.2Z"/><path class="cls-1" d="M0,540.2H87.7c1.2,0,2.2.1,3.1-1.3s3-1.3,4.1,0a3.6,3.6,0,0,0,3.2,1.3c27.6-.1,55.3,0,82.9,0h1.7v1.5H132.3c-2.3-.2-2.6,0-2.6,2.3V611c0,3.2.1,3-2.9,3H59c-2.8,0-2.8,0-2.8-2.9V543c.1-1-.5-1.4-1.4-1.4a2.2,2.2,0,0,1-.8,0H0Zm57.1,37.1v33.4c0,2.1,0,2.1,2.1,2.2h66.7c2.7,0,2.7,0,2.7-2.7V544.1a3.8,3.8,0,0,0-.1-1.5,1.9,1.9,0,0,0-.9-.9h-1.2c-9.4,0-18.8.1-28.2,0a3.4,3.4,0,0,0-2.8,1.2c-1.6,1.9-3.2,1.9-4.8.1a3.9,3.9,0,0,0-3.2-1.3c-9.3.1-18.6,0-27.9,0H58.2a1,1,0,0,0-1.1,1.1v34.5Zm36.6-38.1c-.7,1.7-.7,2.2,0,3.2Zm-1.5,3.1h.2v-3.1h-.2Zm2.5-1.2H95v-.8h-.2Z"/><path class="cls-1" d="M0,346.6l.8.4-.8.3Z"/><path class="cls-1" d="M46,549H44.9a3.3,3.3,0,0,1-2-.3c-.4-.3-.2-1.2-.2-1.8s-.1-2.3-.1-3.4.6-1.4,1.6-1.4h3.9c1.4,0,1.6.2,1.6,1.5v4.1c0,1-.4,1.4-1.3,1.4a19.2,19.2,0,0,0-2.4,0Zm-2.1-.8h3.6c.5-.1,1.3-.5,1.3-.8a11.1,11.1,0,0,0-.3-4.1c-.5-1.1-2-.4-3-.5h-.4c-.8,0-1.2.5-1.2,1.3S43.9,546.7,43.9,548.2Z"/><path class="cls-1" d="M5.5,498.5l-2.1,1.2c-.7-.5-.4-1.1.2-1.6S5,497.8,5.5,498.5Z"/><path class="cls-1" d="M3.1,505v-2.4C4.2,503.7,4.1,504.4,3.1,505Z"/><path class="cls-1" d="M3.5,508.1l.9,1.5c-1,.2-1.1.1-1.2-1.3Z"/><path class="cls-1" d="M162.2,336.5c1-.6,2.7.6,3.2-1.7a6.7,6.7,0,0,1,.4,4.1,13.6,13.6,0,0,0-2.5-.7C162.1,338,162.1,338,162.2,336.5Z"/><path class="cls-1" d="M165.4,344.9l1.6,2.2-1.7.4c0-2.4-2.1-1.2-3.2-2.2Z"/><path class="cls-1" d="M139.3,336.3v1.5l-2.1,1.4a2.5,2.5,0,0,1,.1-2.5C137.6,336.3,138.5,336.4,139.3,336.3Z"/><path class="cls-1" d="M104.3,400.4c1.6,1.1,3,2.2,4.5,3.4A4.5,4.5,0,0,1,104.3,400.4Z"/><path class="cls-1" d="M157.8,336.5h2.6c.1,1.5.1,1.6-1.1,1.7S157.7,338.1,157.8,336.5Z"/><path class="cls-1" d="M140.9,336.5h2.6c0,1.5-.1,1.7-1.3,1.7S140.9,338.1,140.9,336.5Z"/><path class="cls-1" d="M152.4,336.4c-.3.7-.5,1.5-.8,1.6a5,5,0,0,1-2.1-.1c-.1,0-.3-.5-.2-.8a1.4,1.4,0,0,1,.6-.7Z"/><path class="cls-1" d="M151.2,152.8a8.6,8.6,0,0,1,4.9-2.3C155.4,151.7,152.7,152.9,151.2,152.8Z"/><path class="cls-1" d="M153.7,336.4h1.5c.6,0,1.1.2,1.1.9s-.4,1-1.1,1h-1.5Z"/><path class="cls-1" d="M90,453.7a14.9,14.9,0,0,1,5.2-1.5c-.3,1.2-1,1-1.6,1.1l-1.7.7-1.7.3Z"/><path class="cls-1" d="M137,170.2a5.4,5.4,0,0,1,1.9-4.9A13.9,13.9,0,0,1,137,170.2Z"/><path class="cls-1" d="M149.2,154.1c-1,1.6-2.6,2.3-4.2,3.4C145.2,156.1,147.4,154.3,149.2,154.1Z"/><path class="cls-1" d="M116,406.9a5.4,5.4,0,0,1-5.5-2Z"/><path class="cls-1" d="M96,388.1a8.1,8.1,0,0,1,1.9,4.6C96.9,391.4,95.8,390,96,388.1Z"/><path class="cls-1" d="M148.1,336.4c-.4.8-.5,1.5-.8,1.6a3.7,3.7,0,0,1-1.8,0c-.2,0-.4-.6-.4-.8a1.2,1.2,0,0,1,.6-.8Z"/><path class="cls-1" d="M23.7,209.6c1.5-.7,2.8-1.8,4.5-1.5A5.3,5.3,0,0,1,23.7,209.6Z"/><path class="cls-1" d="M39.8,197.5c-.5,1.7-1.2,3.3-2.9,4.2A8.2,8.2,0,0,1,39.8,197.5Z"/><path class="cls-1" d="M82,459.9a11.9,11.9,0,0,1-3.5,4.7A7.7,7.7,0,0,1,82,459.9Z"/><path class="cls-1" d="M138.2,429.1c.2-2.1,1.5-3.3,2.4-5C140.9,425.5,139.9,427.6,138.2,429.1Z"/><path class="cls-1" d="M99.6,394.9l3.3,3.9a4.6,4.6,0,0,1-3.6-3.7Z"/><path class="cls-1" d="M148,416.8a8.8,8.8,0,0,1,4.6-2.6C152,415.4,149.4,416.8,148,416.8Z"/><path class="cls-1" d="M75.7,471.4a7.3,7.3,0,0,1,1.7-5.1A8.2,8.2,0,0,1,75.7,471.4Z"/><path class="cls-1" d="M54.8,292.2a4.5,4.5,0,0,1,4.5,1.6A8.5,8.5,0,0,1,54.8,292.2Z"/><path class="cls-1" d="M137.6,431.3l-1.2,4.7h-.5a2.7,2.7,0,0,1-.2-1.2,17.4,17.4,0,0,1,1.4-3.8Z"/><path class="cls-1" d="M155.2,413c1.4-.5,2.7-1.7,4.5-1.1C158.2,412.5,156.9,413.6,155.2,413Z"/><path class="cls-1" d="M42.5,190.6a8.3,8.3,0,0,1-1.1,4.6C40.7,194.4,40.9,193.3,42.5,190.6Z"/><path class="cls-1" d="M142.2,422.1a14.1,14.1,0,0,1,3.7-3.6l.4.4-3.6,3.7Z"/><path class="cls-1" d="M35,203.9a8.6,8.6,0,0,1-3.8,2.7l-.4-.4,3.8-2.8Z"/><path class="cls-1" d="M140.3,162.9c.1-1.7,1.2-2.7,2.6-3.5C142.5,161,141.4,161.9,140.3,162.9Z"/><path class="cls-1" d="M157.9,329.2c.2-.4.2-.8.3-.8l1.7-.2c.1,0,.2.4.3.6l-1.4.6Z"/><path class="cls-1" d="M163.3,329.6l-1-.8c.4-.3.7-.7,1.1-.7s.5.4.8.7Z"/><path class="cls-1" d="M155.9,328.7c-.3.2-.6.6-.9.6s-.7-.5-1.1-.7.5-.6.8-.6a5.3,5.3,0,0,1,1.2.3Z"/><path class="cls-1" d="M147.5,328.4l-.3.5h-1.9c0-.2,0-.6.1-.7A1.5,1.5,0,0,1,147.5,328.4Z"/><path class="cls-1" d="M143.7,328.8c-.6.3-1,.6-1.3.5s-.6-.5-.9-.8.7-.5,1-.5A3.5,3.5,0,0,1,143.7,328.8Z"/><path class="cls-1" d="M139.4,345.5c-1.9.7-2.3.5-2.2-1.1Z"/><path class="cls-1" d="M143.6,345.7h-2.7C141.9,344.9,142.1,344.9,143.6,345.7Z"/><path class="cls-1" d="M165.7,340.7v2.6c-.9-.8-.6-1.7-.5-2.6Z"/><path class="cls-1" d="M151.8,329l-2.2-.2C151,327.8,151,327.8,151.8,329Z"/><path class="cls-1" d="M156,345.7h-2.2C154.5,344.9,155.2,345,156,345.7Z"/><path class="cls-1" d="M147.7,345.7H145C146.5,344.9,146.7,344.9,147.7,345.7Z"/><path class="cls-1" d="M160.5,345.7h-2.7C159.3,344.9,159.4,344.9,160.5,345.7Z"/><path class="cls-1" d="M149.7,345.3H152v.4h-2.3Z"/><path class="cls-1" d="M165.7,328.3v2.1C164.9,329.3,164.9,329.3,165.7,328.3Z"/><path class="cls-1" d="M165.7,331.6v1.9h-.4v-1.9Z"/><path class="cls-1" d="M167.1,331.6v1.5h-.3v-1.5Z"/><path class="cls-1" d="M167.1,340.4v1.4h-.3v-1.5Z"/><path class="cls-1" d="M137.6,341.2v1.4c-.2-.1-.5-.1-.5-.2a4.9,4.9,0,0,1,.1-1.2Z"/><path class="cls-1" d="M137.5,331.2v1.2h-.3v-1.2Z"/><path class="cls-1" d="M137.2,335.9c0-.4-.1-.6-.1-.8s.3-.2.4-.2.2.3.1.5S137.5,335.6,137.2,335.9Z"/><path class="cls-1" d="M167.3,335.2l-.3.5c-.1-.1-.3-.2-.3-.3s.1-.3.2-.5Z"/><path class="cls-1" d="M155.6,80.7v56.5h-.4l-.3-1V83.3C154.9,82.5,154.6,81.6,155.6,80.7Z"/><path class="cls-1" d="M160.5,89.3V85.8c.8,1.1.6,2.3.5,3.5Z"/><path class="cls-1" d="M160.8,111.4a5.5,5.5,0,0,1-.1,4A5.5,5.5,0,0,1,160.8,111.4Z"/><path class="cls-1" d="M160.5,108.4v-3.5A3,3,0,0,1,160.5,108.4Z"/><path class="cls-1" d="M161,99v3.5a4.1,4.1,0,0,1-.4-3.5Z"/><path class="cls-1" d="M161,125v2.7A1.8,1.8,0,0,1,161,125Z"/><path class="cls-1" d="M161,118.3v2.8A2,2,0,0,1,161,118.3Z"/><path class="cls-1" d="M160.9,95.2a2.3,2.3,0,0,1,0-2.8Z"/><path class="cls-1" d="M161,131.9v2.7A1.9,1.9,0,0,1,161,131.9Z"/><path class="cls-1" d="M160.6,82.5V81h.3v1.5Z"/><path class="cls-1" d="M156,138.7c-.3.3-.4.5-.6.5l-.4-.4a.7.7,0,0,1,.4-.5Z"/><path class="cls-1" d="M33.1,434.4l-1.9.2h-10c-2.2,0-2.2,0-2.2,2.1v15.9c0,1.9.2,2.1,2.1,2.1h9.7c1.6,0,1.7-.1,1.7-1.8V437.2c0-.6.1-1.2.1-1.9H33a4.3,4.3,0,0,1,.2,1.1c0,5.8.1,11.6,0,17.3,0,1.6-.1,1.7-1.6,1.7-3.8.1-7.7.1-11.5,0-1.7,0-1.8-.1-1.8-1.7V435.5c0-1.7.2-2,1.8-2H31.8a5,5,0,0,1,1.3.3Z"/><path class="cls-1" d="M152.3,233.1a1.8,1.8,0,0,1-2.2,1,3,3,0,0,0-2.9.1c-.8.4-1.5.1-2.4-.9A47,47,0,0,1,152.3,233.1Z"/><path class="cls-1" d="M138.3,233.6c1.9-1.1,3.6-.3,5.4-.6-.2.9-.6,1.4-1.3,1.3Z"/><path class="cls-1" d="M157.8,233.7l-2.4.5c-.9.2-1.4.1-1.8-.7a3.7,3.7,0,0,1,4.2.2Z"/><path class="cls-1" d="M151.2,258.9c1.1-.1,2.1-.6,3.2.1s1-.2,1.9-.4-.4,1.4-.7,1.5a2,2,0,0,1-1.7-.1c-.8-.8-1.3-.7-2.1,0a1.9,1.9,0,0,1-1.8,0c-.7-.8-1.5-.7-2.4-.7h0c1.1-1.4,2.4-.8,3.6-.4h0Z"/><path class="cls-1" d="M157.2,258.6l3.9.2C159.3,261,158.5,261,157.2,258.6Z"/><path class="cls-1" d="M139.5,259.3h.2l5.4-.5a8.7,8.7,0,0,1-2,1.5,4.9,4.9,0,0,1-2-.3l-1.6-.6Z"/><path class="cls-1" d="M147.6,259.3c-.6,1.2-.6,1.3-2.4.7.5-1.2,1.5-.9,2.4-.7Z"/><path class="cls-1" d="M159.9,251.6l-1.6.2v-.3l.4-.2h1.2Z"/><path class="cls-1" d="M162.7,251.3H164v.3h-1.3Z"/><path class="cls-1" d="M145.8,251.4l1.3-.2a1,1,0,0,0-.1.4l-1.2.2Z"/><path class="cls-1" d="M150.2,251.3h1.3v.3l-1.3.2Z"/><path class="cls-1" d="M142.7,251.5h0Z"/><path class="cls-1" d="M155.5,251.5h-1.1v-.2h1.2Z"/><path class="cls-1" d="M55.6,255.9c0,.1,0,.2-.1.2h-.3l.2-.4Z"/><path class="cls-1" d="M102.2,161h9c1.8,0,2,.2,2,2q.1,5.5,0,11.1c0,1.6,0,1.7-1.7,1.8H93c-1.8,0-2-.2-2-2q-.1-5.5,0-11.1c0-1.7.2-1.9,1.9-1.9Zm-.1.7h-8c-2,0-2,.1-2,2v9.6c0,1.9.1,1.9,2,1.9h16.4c1.3-.2,1.6-.5,1.6-1.9q.2-5,0-9.9c0-1.5-.1-1.6-1.6-1.7Z"/><path class="cls-1" d="M26.2,306c.6.7,1.1,1.1,1.1,1.4a1.9,1.9,0,0,1-1,1c-.2.1-.9-.5-.9-.8S25.8,306.8,26.2,306Z"/><path class="cls-1" d="M27.7,300.8l-1.4,1c-.3-.4-.7-.7-.7-1.1s.5-.7.7-1Z"/><path class="cls-1" d="M35.9,304.2c-.5.3-.8.6-.9.5s-.4-.5-.6-.8.4-.4.5-.3Z"/><path class="cls-1" d="M116.1,453.6a4.2,4.2,0,0,1,.1,3.3A4.2,4.2,0,0,1,116.1,453.6Z"/><path class="cls-1" d="M116.4,466.8v2.9a3,3,0,0,1-.4-2.9Z"/><path class="cls-1" d="M116,463.1v-2.9c.7.9.5,1.9.5,2.9Z"/><path class="cls-1" d="M116,476.4V473C116.7,474.6,116.7,475.2,116,476.4Z"/><path class="cls-1" d="M159.6,217h-.2V217Z"/><path class="cls-1" d="M157.9,311.8c1.2-.9,1.5-.9,2.7.1A2.2,2.2,0,0,1,157.9,311.8Z"/><path class="cls-1" d="M156.1,312.1h-2.4C154.5,310.9,154.8,310.9,156.1,312.1Z"/><path class="cls-1" d="M144.9,311.7a2.1,2.1,0,0,1,2.7-.1C146.7,312.6,146,312.3,144.9,311.7Z"/><path class="cls-1" d="M143.7,311.7a2.1,2.1,0,0,1-2.7.1C141.9,310.8,142.6,311.1,143.7,311.7Z"/><path class="cls-1" d="M149.4,311.7a1.7,1.7,0,0,1,2.5,0A1.7,1.7,0,0,1,149.4,311.7Z"/><path class="cls-1" d="M162.2,308.1h1.1v.4h-1.1Z"/><path class="cls-1" d="M142.1,308.5H141v-.3h1Z"/><path class="cls-1" d="M146.6,308.1a.5.5,0,0,0-.1.3H146c.1-.1.1-.3.2-.3Z"/><path class="cls-1" d="M157.9,308.5c-.1-.1-.1-.2-.2-.2l.4-.2a.5.5,0,0,0,.1.3Z"/><path class="cls-1" d="M145.9,310.5h.8v.2H146Z"/><path class="cls-1" d="M142.5,310.5l.2.2h-.3l-.2-.2Z"/><path class="cls-1" d="M154.5,310.5c0,.1,0,.2-.1.2h-.1v-.2Z"/><path class="cls-1" d="M143.9,294.7c-2.6.7-3,.5-3-1.4h2.6v.3l-1,.6Z"/><path class="cls-1" d="M149.7,293.3h2.2c-.1,2-.4,2.1-2.7,1.3l1.1-.4-.7-.5Z"/><path class="cls-1" d="M147.7,294.6c-2,.8-2.4.6-2.4-1.2h2.4c-.1.3-.1.4-.2.5l-1.2.3Z"/><path class="cls-1" d="M155.9,294.7c-2.1.5-2.2.5-2.2-1.3H156v.3l-1,.5Z"/><path class="cls-1" d="M160.6,293.3c-.4.9-.4,1.7-1.4,1.7s-.7-1-1.6-1.7Z"/><path class="cls-1" d="M158.8,291H158v-.2h.8Z"/><path class="cls-1" d="M141.6,290.9h-.3l-.2-.2h.3Z"/><path class="cls-1" d="M154.5,290.8c0,.1-.1.1-.1.2h-.1v-.2Z"/><path class="cls-1" d="M146.4,290.9h-.1v-.2h.2Z"/><path class="cls-1" d="M159.2,277.8l-1.3-1c.4-.2.7-.7,1-.6s.9.4,1.3.6Z"/><path class="cls-1" d="M147.4,277.4h-2.1c-.2-1.5,1.2-1,1.9-1.6Z"/><path class="cls-1" d="M152,277c-.4.2-.7.5-1.1.5l-1.3-.6c.2-.2.4-.5.7-.6h1.6Z"/><path class="cls-1" d="M153.5,277.3c1.1-1.3,1.1-1.3,2.6-.3C155.4,277.8,154.5,277.6,153.5,277.3Z"/><path class="cls-1" d="M143.4,277.4h-2.1C141.6,275.9,141.9,275.8,143.4,277.4Z"/><path class="cls-1" d="M161.7,276.8l2.4-.4C164.1,277.7,163.7,277.8,161.7,276.8Z"/><path class="cls-1" d="M160.4,320.5a13.3,13.3,0,0,1-2,0,.6.6,0,0,1-.2-1.1,2.6,2.6,0,0,1,1.5-.1c.4.1.6.5.9.8Z"/><path class="cls-1" d="M149.1,320.1c.3-.3.6-.7.9-.8a2.9,2.9,0,0,1,1.6.1c.5.2.3,1-.2,1.1a14.7,14.7,0,0,1-2.1,0Z"/><path class="cls-1" d="M156.2,320.5h-2.5c-.1-.9.3-1.3,1-1.3S156,319.4,156.2,320.5Z"/><path class="cls-1" d="M142.3,321c-.5-.5-1.1-.8-1.1-1.1s.6-.8,1.1-.7a3.9,3.9,0,0,1,1.1.6Z"/><path class="cls-1" d="M146.3,321l-1.2-1.2,1.2-.6c.5-.1,1.2,0,1.1.7S146.8,320.5,146.3,321Z"/><path class="cls-1" d="M164.8,320.1a12.6,12.6,0,0,1-1.6.5,1.5,1.5,0,0,1-.9-.6c0-.8.6-.9,1.2-.8A7.7,7.7,0,0,1,164.8,320.1Z"/><path class="cls-1" d="M158.1,316.4h2.3c-.7.8-1.5.6-2.3.5Z"/><path class="cls-1" d="M152.4,284.6c-.4.7-.5,1.4-.9,1.5a2.9,2.9,0,0,1-1.8-.2c-.2-.1-.3-.7-.6-1.3Z"/><path class="cls-1" d="M160.6,284.5c-.6,1.6-1,2-1.9,1.7s-.8-.5-.8-.8.4-.8.6-.8A7,7,0,0,1,160.6,284.5Z"/><path class="cls-1" d="M153.5,284.5h3.1c-.6,1-1,1.7-2,1.7S153.7,285.5,153.5,284.5Z"/><path class="cls-1" d="M144.1,284.6c-.6.7-.8,1.5-1.2,1.6s-1.5-.5-2-1.3S142.7,284.6,144.1,284.6Z"/><path class="cls-1" d="M145.3,284.6h.7a7.5,7.5,0,0,1,1.5,0c.4.8.4,1.4-.6,1.6S145.5,286.1,145.3,284.6Z"/><path class="cls-1" d="M164.6,284.7l-.2,1.3h-2.1C161.8,284.4,162.2,284.2,164.6,284.7Z"/><path class="cls-1" d="M152.4,302c-.4.8-.5,1.6-.8,1.7a4.2,4.2,0,0,1-2.2-.3c-.5-.2-.3-1.2.3-1.3Z"/><path class="cls-1" d="M142.1,303.8c-.7,0-1.3-.1-1.4-1s.4-1.2,1.1-1,1.6-.1,1.7,1S142.8,303.8,142.1,303.8Z"/><path class="cls-1" d="M144.5,302h2.7a.9.9,0,0,1,.6.6,1.3,1.3,0,0,1-.4.9,4.1,4.1,0,0,1-1.9,0C145.1,303.5,145,302.8,144.5,302Z"/><path class="cls-1" d="M160.5,302.1c-.1,1.5-1,2.2-2.1,1.6a1,1,0,0,1-.5-.8c0-.3.3-.8.5-.8A14.6,14.6,0,0,1,160.5,302.1Z"/><path class="cls-1" d="M154.8,301.6c.6.5,1.3.8,1.4,1.1s-.6,1.1-1.3,1.1-1.5-.1-1.3-1S154.3,302.1,154.8,301.6Z"/><path class="cls-1" d="M23,503.8a2.1,2.1,0,0,1-2.1,2.2,2.3,2.3,0,0,1-1.9-2.2,2.6,2.6,0,0,1,1.9-2.1A2.3,2.3,0,0,1,23,503.8Zm-2-.5-.4.6c0,.2.2.4.4.6l.4-.5C21.4,503.8,21.2,503.6,21,503.3Z"/><path class="cls-1" d="M84.4,336.9a3,3,0,0,1-.7-1.1c-.1-.8.4-1.2,1.2-1.3a1.2,1.2,0,0,1,1.3,1.2C86.1,336.4,85.5,336.9,84.4,336.9Z"/><path class="cls-1" d="M58.8,196.8a9.4,9.4,0,0,1-1.2-2,1.2,1.2,0,0,1,1.2-1.2c.8,0,1.4.5,1.3,1.2S59.4,195.9,58.8,196.8Z"/><path class="cls-1" d="M84.4,196.2a3.9,3.9,0,0,1-1-1.4,1.4,1.4,0,0,1,2.7.1C86.2,195.5,85.3,196.3,84.4,196.2Z"/><path class="cls-2" d="M50.4,43.7a5.8,5.8,0,0,1-2.6-.5,9.5,9.5,0,0,1-2-1.5,6.6,6.6,0,0,1-1.3-2.5A10.2,10.2,0,0,1,44,36a10.7,10.7,0,0,1,.5-3.2,5.5,5.5,0,0,1,1.3-2.4,7.4,7.4,0,0,1,2-1.6,5.9,5.9,0,0,1,2.7-.5,5.8,5.8,0,0,1,2.6.5,6.5,6.5,0,0,1,2.1,1.6,6.8,6.8,0,0,1,1.3,2.4,10.8,10.8,0,0,1,.4,3.2,10.4,10.4,0,0,1-.4,3.2,8.4,8.4,0,0,1-1.3,2.5,8,8,0,0,1-2.1,1.5A5.9,5.9,0,0,1,50.4,43.7Zm.1-2.6a2.8,2.8,0,0,0,1.3-.4,2.2,2.2,0,0,0,.9-1,7.6,7.6,0,0,0,.6-1.6,13.4,13.4,0,0,0,.1-2.1,13.4,13.4,0,0,0-.1-2.1,7.6,7.6,0,0,0-.6-1.6,2.2,2.2,0,0,0-.9-1,2,2,0,0,0-1.3-.4,2.1,2.1,0,0,0-1.4.4,4.5,4.5,0,0,0-.9,1,7.5,7.5,0,0,0-.5,1.6,12.5,12.5,0,0,0-.2,2.1,13.6,13.6,0,0,0,.2,2.1,7.5,7.5,0,0,0,.5,1.6,4.5,4.5,0,0,0,.9,1A2.9,2.9,0,0,0,50.5,41.1Z"/><path class="cls-2" d="M64.8,43.7a5.9,5.9,0,0,1-2.7-.5,7.5,7.5,0,0,1-2-1.5,6.8,6.8,0,0,1-1.2-2.4,11.2,11.2,0,0,1-.4-3.2,11.6,11.6,0,0,1,.3-3.3,7.2,7.2,0,0,1,1.4-2.6,5.2,5.2,0,0,1,1.9-1.4,5.9,5.9,0,0,1,2.7-.5,6.6,6.6,0,0,1,2.1.3,3.5,3.5,0,0,1,1.6.8,4.3,4.3,0,0,1,1.1,1.2,6.7,6.7,0,0,1,.6,1.5H66.9a2.1,2.1,0,0,0-.6-1,2,2,0,0,0-1.4-.4c-2,0-3.1,1.5-3.2,4.4h0a5,5,0,0,1,1.5-1.4,4.6,4.6,0,0,1,2.1-.4,7.6,7.6,0,0,1,2.1.3A9.1,9.1,0,0,1,69,34.7a5.2,5.2,0,0,1,1.2,1.7,4.6,4.6,0,0,1,.4,2.1,4.6,4.6,0,0,1-.4,2.1A5.2,5.2,0,0,1,69,42.3a11.8,11.8,0,0,1-1.9,1.1A8,8,0,0,1,64.8,43.7Zm-.1-2.5,1.1-.2.8-.5.6-.9a3.6,3.6,0,0,0,.2-1.1,4.3,4.3,0,0,0-.2-1.1,2.4,2.4,0,0,0-.6-.8,1.6,1.6,0,0,0-.8-.6l-1.1-.2a2.8,2.8,0,0,0-2,.8,2.6,2.6,0,0,0-.8,1.9,3.6,3.6,0,0,0,.2,1.1l.6.9.9.5Z"/><path class="cls-2" d="M57.2,435.6a6,6,0,0,1-2.7-.6,7,7,0,0,1-2-1.5,6.6,6.6,0,0,1-1.3-2.5,10.2,10.2,0,0,1-.5-3.2,10.7,10.7,0,0,1,.5-3.2,6.2,6.2,0,0,1,1.3-2.4,7.4,7.4,0,0,1,2-1.6,7.6,7.6,0,0,1,2.7-.5,7.5,7.5,0,0,1,2.6.5,6.5,6.5,0,0,1,2.1,1.6,7.8,7.8,0,0,1,1.3,2.4,10.8,10.8,0,0,1,.4,3.2,10.4,10.4,0,0,1-.4,3.2,8.4,8.4,0,0,1-1.3,2.5,6.2,6.2,0,0,1-2.1,1.5A5.8,5.8,0,0,1,57.2,435.6Zm0-2.7a1.8,1.8,0,0,0,1.3-.4,2.2,2.2,0,0,0,.9-1,4.4,4.4,0,0,0,.6-1.6,13.4,13.4,0,0,0,.1-2.1,14.8,14.8,0,0,0-.1-2.1,4.4,4.4,0,0,0-.6-1.6,2.2,2.2,0,0,0-.9-1,1.8,1.8,0,0,0-1.3-.4,2.1,2.1,0,0,0-1.4.4,4.5,4.5,0,0,0-.9,1,7.5,7.5,0,0,0-.5,1.6,14.9,14.9,0,0,0-.2,2.1,12.5,12.5,0,0,0,.2,2.1,7.5,7.5,0,0,0,.5,1.6,4.5,4.5,0,0,0,.9,1A2.1,2.1,0,0,0,57.2,432.9Z"/><path class="cls-2" d="M67.2,431.4a15.1,15.1,0,0,1,1.3-3.4,26.1,26.1,0,0,1,1.7-2.8,18.8,18.8,0,0,1,1.9-2H64.5v-2.9H75.4V423a23.3,23.3,0,0,0-1.9,2.3,26.1,26.1,0,0,0-1.7,2.8,33.8,33.8,0,0,0-1.1,3.4,22,22,0,0,0-.6,3.7H66.6A12.1,12.1,0,0,1,67.2,431.4Z"/><path class="cls-2" d="M69.7,363.9a5.8,5.8,0,0,1-2.6-.6,5,5,0,0,1-2-1.5,6.6,6.6,0,0,1-1.3-2.5,8,8,0,0,1-.5-3.2,8.3,8.3,0,0,1,.5-3.2,6.2,6.2,0,0,1,1.3-2.4,5.3,5.3,0,0,1,2-1.6,7.5,7.5,0,0,1,2.6-.5,7.6,7.6,0,0,1,2.7.5,5.3,5.3,0,0,1,2,1.6,6.2,6.2,0,0,1,1.3,2.4,10.7,10.7,0,0,1,.5,3.2,10.2,10.2,0,0,1-.5,3.2,6.6,6.6,0,0,1-1.3,2.5,5,5,0,0,1-2,1.5A6,6,0,0,1,69.7,363.9Zm0-2.7a2.1,2.1,0,0,0,1.4-.4,2.2,2.2,0,0,0,.9-1,7.5,7.5,0,0,0,.5-1.6,12.5,12.5,0,0,0,.2-2.1,14.9,14.9,0,0,0-.2-2.1,7.5,7.5,0,0,0-.5-1.6,2.2,2.2,0,0,0-.9-1,2.1,2.1,0,0,0-1.4-.4,2,2,0,0,0-1.3.4,2.2,2.2,0,0,0-.9,1,7.6,7.6,0,0,0-.6,1.6,14.8,14.8,0,0,0-.1,2.1,13.4,13.4,0,0,0,.1,2.1,7.6,7.6,0,0,0,.6,1.6,2.2,2.2,0,0,0,.9,1A2,2,0,0,0,69.7,361.2Z"/><path class="cls-2" d="M83.7,363.9a10.1,10.1,0,0,1-2.5-.3l-1.9-1a3.5,3.5,0,0,1-1.3-1.4,4.1,4.1,0,0,1-.4-1.9,3.5,3.5,0,0,1,.7-2.3,3.4,3.4,0,0,1,2.2-1.4h0a3.2,3.2,0,0,1-1.7-1.2,2.8,2.8,0,0,1-.6-1.8,3.3,3.3,0,0,1,.4-1.7,3.3,3.3,0,0,1,1.1-1.3,4.5,4.5,0,0,1,1.7-.8,8.5,8.5,0,0,1,2.3-.3,7.3,7.3,0,0,1,2.2.3,3.7,3.7,0,0,1,1.8.8,4.3,4.3,0,0,1,1.1,1.2,4.7,4.7,0,0,1,.3,1.7,2.7,2.7,0,0,1-.5,1.8,4.1,4.1,0,0,1-1.8,1.2h0a4.1,4.1,0,0,1,2.3,1.4,3.7,3.7,0,0,1,.7,2.3,3.5,3.5,0,0,1-.5,2,3.3,3.3,0,0,1-1.2,1.4l-1.9,1A10.1,10.1,0,0,1,83.7,363.9Zm0-2.6a2.7,2.7,0,0,0,1.9-.6,1.9,1.9,0,0,0,.8-1.6,2.4,2.4,0,0,0-.7-1.7,3.2,3.2,0,0,0-4,0,2.1,2.1,0,0,0-.7,1.7,1.9,1.9,0,0,0,.7,1.6A3.2,3.2,0,0,0,83.7,361.3Zm0-6.8a2.3,2.3,0,0,0,1.6-.5,1.7,1.7,0,0,0,.6-1.4,2,2,0,0,0-.6-1.4,2.3,2.3,0,0,0-1.6-.5,2.6,2.6,0,0,0-1.7.5,2,2,0,0,0-.6,1.4A1.7,1.7,0,0,0,82,354,2.6,2.6,0,0,0,83.7,354.5Z"/><path class="cls-2" d="M69.9,283.5a7.5,7.5,0,0,1-2.6-.5,5.3,5.3,0,0,1-2-1.6A6.2,6.2,0,0,1,64,279a8.3,8.3,0,0,1-.5-3.2,8,8,0,0,1,.5-3.2,6.6,6.6,0,0,1,1.3-2.5,4.3,4.3,0,0,1,2-1.5,5.8,5.8,0,0,1,2.6-.6,6,6,0,0,1,2.7.6,4.3,4.3,0,0,1,2,1.5,6.6,6.6,0,0,1,1.3,2.5,10.2,10.2,0,0,1,.5,3.2,10.7,10.7,0,0,1-.5,3.2,6.2,6.2,0,0,1-1.3,2.4,5.3,5.3,0,0,1-2,1.6A7.6,7.6,0,0,1,69.9,283.5Zm0-2.7a2.9,2.9,0,0,0,1.4-.3,2.4,2.4,0,0,0,.9-1.1,5,5,0,0,0,.5-1.6,12.3,12.3,0,0,0,.2-2,12.5,12.5,0,0,0-.2-2.1,6,6,0,0,0-.5-1.6,2.4,2.4,0,0,0-.9-1.1,2.9,2.9,0,0,0-1.4-.3,2.8,2.8,0,0,0-1.3.3,2.4,2.4,0,0,0-.9,1.1,3.8,3.8,0,0,0-.5,1.6,6.8,6.8,0,0,0-.2,2.1,6.5,6.5,0,0,0,.2,2,3.4,3.4,0,0,0,.5,1.6,2.4,2.4,0,0,0,.9,1.1A2.8,2.8,0,0,0,69.9,280.8Z"/><path class="cls-2" d="M83.8,283.5a6.6,6.6,0,0,1-2.1-.3,5.4,5.4,0,0,1-1.7-.8,4.9,4.9,0,0,1-1.2-1.3,5.3,5.3,0,0,1-.5-1.5h3.2a2.3,2.3,0,0,0,.7,1,2.5,2.5,0,0,0,1.5.5,2.6,2.6,0,0,0,2.3-1.2,7.7,7.7,0,0,0,.8-3.1h-.1a4.4,4.4,0,0,1-1.5,1.2,3.9,3.9,0,0,1-2,.5,4.9,4.9,0,0,1-2.1-.4,4.8,4.8,0,0,1-1.7-1,5.2,5.2,0,0,1-1.2-1.7,6.5,6.5,0,0,1-.4-2.1,5.4,5.4,0,0,1,.5-2.2,4.8,4.8,0,0,1,1.2-1.6,5.4,5.4,0,0,1,1.8-1.1,10,10,0,0,1,2.4-.4,7.9,7.9,0,0,1,2.3.4,5.9,5.9,0,0,1,1.9,1.1c1.4,1.2,2,3.3,2,6.2a19.8,19.8,0,0,1-.3,3.5,6.1,6.1,0,0,1-1.4,2.5,4.9,4.9,0,0,1-1.8,1.4A7.1,7.1,0,0,1,83.8,283.5Zm0-7.5,1.1-.2a2.4,2.4,0,0,0,.9-.6,2.2,2.2,0,0,0,.5-.8,2.2,2.2,0,0,0,.2-1.1,2,2,0,0,0-.2-1.1,2.6,2.6,0,0,0-.5-.9l-.9-.5a2.3,2.3,0,0,0-1.1-.3,2.7,2.7,0,0,0-2.8,2.8,3.6,3.6,0,0,0,.2,1,1.5,1.5,0,0,0,.6.9l.8.6Z"/><path class="cls-2" d="M140.5,376.7H137v-2.2a6.1,6.1,0,0,0,2.8-.8,3.4,3.4,0,0,0,1.4-2.3h2.7v15h-3.4Z"/><path class="cls-2" d="M152.7,386.8a6,6,0,0,1-2.7-.6,7,7,0,0,1-2-1.5,6.6,6.6,0,0,1-1.3-2.5,10.2,10.2,0,0,1-.5-3.2,10.7,10.7,0,0,1,.5-3.2,6.2,6.2,0,0,1,1.3-2.4,6.5,6.5,0,0,1,2.1-1.6,6.7,6.7,0,0,1,2.6-.5,7.1,7.1,0,0,1,2.6.5,6.5,6.5,0,0,1,2.1,1.6,7.8,7.8,0,0,1,1.3,2.4,10.8,10.8,0,0,1,.4,3.2,10.4,10.4,0,0,1-.4,3.2,8.4,8.4,0,0,1-1.3,2.5,6.2,6.2,0,0,1-2.1,1.5A5.8,5.8,0,0,1,152.7,386.8Zm0-2.7a1.8,1.8,0,0,0,1.3-.4,3.2,3.2,0,0,0,1-1,7.5,7.5,0,0,0,.5-1.6,13.4,13.4,0,0,0,.1-2.1,14.8,14.8,0,0,0-.1-2.1,7.5,7.5,0,0,0-.5-1.6,3.2,3.2,0,0,0-1-1,1.8,1.8,0,0,0-1.3-.4,2.3,2.3,0,0,0-1.4.4,4.5,4.5,0,0,0-.9,1,7.5,7.5,0,0,0-.5,1.6,14.9,14.9,0,0,0-.2,2.1,12.5,12.5,0,0,0,.2,2.1,7.5,7.5,0,0,0,.5,1.6,4.5,4.5,0,0,0,.9,1A2.3,2.3,0,0,0,152.7,384.1Z"/><path class="cls-2" d="M87.8,521.3H84.4V519a5.4,5.4,0,0,0,2.7-.7,3.3,3.3,0,0,0,1.4-2.3h2.7v15H87.8Z"/><path class="cls-2" d="M96.9,521.3H93.5V519a5.4,5.4,0,0,0,2.7-.7,3.3,3.3,0,0,0,1.4-2.3h2.7v15H96.9Z"/><path class="cls-2" d="M88.2,564H84.8v-2.3a6,6,0,0,0,2.7-.7,3.6,3.6,0,0,0,1.4-2.3h2.7v15H88.2Z"/><path class="cls-2" d="M94.3,571.3a4.5,4.5,0,0,1,1.1-1.7,5.7,5.7,0,0,1,1.1-1.1l1.3-1,1.2-.9,1.2-.8a3.8,3.8,0,0,0,1.1-1.1,2,2,0,0,0,.4-1.3,1.7,1.7,0,0,0-.5-1.5,1.9,1.9,0,0,0-1.5-.6,1.8,1.8,0,0,0-1.7.7c-.3.2-.4.6-.6.9a4.9,4.9,0,0,0-.1,1.2H94.1a5.5,5.5,0,0,1,.2-1.9,4.8,4.8,0,0,1,.8-1.6,4.5,4.5,0,0,1,1.8-1.5,6.2,6.2,0,0,1,2.9-.6,7.9,7.9,0,0,1,2.3.4,4.8,4.8,0,0,1,1.7,1,4,4,0,0,1,1,1.5,4.1,4.1,0,0,1,.4,1.9,4.3,4.3,0,0,1-.5,2.1,5.4,5.4,0,0,1-1.4,1.6l-1.2,1-1.4.9-1.3.9a4.7,4.7,0,0,0-1,1h6.8v2.9H93.8A6,6,0,0,1,94.3,571.3Z"/><path class="cls-2" d="M22.6,286.6A5.8,5.8,0,0,1,20,286a4.3,4.3,0,0,1-2-1.5,8.6,8.6,0,0,1-1.4-2.5,10.4,10.4,0,0,1-.4-3.2,11.2,11.2,0,0,1,.4-3.2,9.5,9.5,0,0,1,1.4-2.4,5.3,5.3,0,0,1,2-1.6,7.5,7.5,0,0,1,2.6-.5,7.6,7.6,0,0,1,2.7.5,5.3,5.3,0,0,1,2,1.6,7,7,0,0,1,1.3,2.4,11.3,11.3,0,0,1,.5,3.2,10.2,10.2,0,0,1-.5,3.2,6.6,6.6,0,0,1-1.3,2.5,4.8,4.8,0,0,1-2,1.5A6,6,0,0,1,22.6,286.6Zm0-2.7a2.1,2.1,0,0,0,1.4-.4,2.2,2.2,0,0,0,.9-1,6,6,0,0,0,.5-1.6,12.5,12.5,0,0,0,.2-2.1,12.3,12.3,0,0,0-.2-2,6.9,6.9,0,0,0-.5-1.7,2.8,2.8,0,0,0-.9-1,2.9,2.9,0,0,0-1.4-.4,2.5,2.5,0,0,0-2.2,1.4,6.7,6.7,0,0,0-.6,1.7,12.7,12.7,0,0,0-.1,2,13.4,13.4,0,0,0,.1,2.1,5.9,5.9,0,0,0,.6,1.6,2.2,2.2,0,0,0,.9,1A2,2,0,0,0,22.6,283.9Z"/><path class="cls-2" d="M36.1,286.6a8.5,8.5,0,0,1-2.3-.3,6.6,6.6,0,0,1-1.9-.9,4.4,4.4,0,0,1-1.2-1.5,3.1,3.1,0,0,1-.6-1.9h3.3a1.8,1.8,0,0,0,.9,1.3,2.3,2.3,0,0,0,1.7.5,2.5,2.5,0,0,0,1.9-.7,2.4,2.4,0,0,0,.7-1.9,2.1,2.1,0,0,0-.7-1.8,2.4,2.4,0,0,0-1.8-.7,3.2,3.2,0,0,0-1.4.3,2.2,2.2,0,0,0-.9.7H30.6l1.5-8.3h9v2.7H34.6l-.7,3.3h0a3.8,3.8,0,0,1,1.3-.9,4.8,4.8,0,0,1,1.8-.3,5.8,5.8,0,0,1,1.9.3,4.6,4.6,0,0,1,1.6,1.1,4,4,0,0,1,1.2,1.6,6.5,6.5,0,0,1,.4,2.1,5.4,5.4,0,0,1-.5,2.2,4.8,4.8,0,0,1-1.2,1.6,4,4,0,0,1-1.9,1.1A6.1,6.1,0,0,1,36.1,286.6Z"/><path class="cls-1" d="M182.7,512.8Z"/><path class="cls-2" d="M182,82.7v-.1Z"/><rect class="cls-2" x="182" y="230.3" width="0.1" height="24.75"/><rect class="cls-2" x="182.1" y="328.2" width="0.1" height="40.04"/></g></g></svg>