<svg xmlns="http://www.w3.org/2000/svg" viewBox="0 0 159.8 126.8"><defs><style>.cls-1{fill:#4b8190;}</style></defs><title>lift</title><g id="Layer_2" data-name="Layer 2"><g id="Layer_1-2" data-name="Layer 1"><path class="cls-1" d="M129.2,57.8a8.3,8.3,0,0,0-.1,16.5,8.5,8.5,0,0,0,8.5-8.2C137.7,61.9,133.6,57.8,129.2,57.8Zm-33,0a8.4,8.4,0,0,0-7.9,8.4,8.2,8.2,0,0,0,8.5,8,8.2,8.2,0,1,0-.6-16.4Zm-32-.1a8.6,8.6,0,0,0-8.5,8.2,8.3,8.3,0,0,0,8.1,8.5,8.7,8.7,0,0,0,8.5-8.3A8.9,8.9,0,0,0,64.2,57.7Zm-32.8.1A8.3,8.3,0,0,0,23,66a8.2,8.2,0,0,0,8.3,8.2,8.1,8.1,0,0,0,8.2-8A8.2,8.2,0,0,0,31.4,57.8ZM79.8,0l-.2.3h.5Z"/><path class="cls-1" d="M79.8,0l-.2.3h.5Z"/><path class="cls-1" d="M39.5,66.2a8.1,8.1,0,0,1-8.2,8A8.2,8.2,0,0,1,23,66a8.3,8.3,0,0,1,8.4-8.2A8.2,8.2,0,0,1,39.5,66.2Z"/><path class="cls-1" d="M72.3,66.1a8.7,8.7,0,0,1-8.5,8.3,8.3,8.3,0,0,1-8.1-8.5,8.6,8.6,0,0,1,8.5-8.2A8.9,8.9,0,0,1,72.3,66.1Z"/><path class="cls-1" d="M104.8,66.1a8.1,8.1,0,0,1-8,8.1,8.2,8.2,0,0,1-8.5-8,8.4,8.4,0,0,1,7.9-8.4A8.2,8.2,0,0,1,104.8,66.1Z"/><path class="cls-1" d="M137.6,66.1a8.5,8.5,0,0,1-8.5,8.2,8.3,8.3,0,0,1,.1-16.5C133.6,57.8,137.7,61.9,137.6,66.1Z"/><path class="cls-1" d="M144.5,80.6v.7a4,4,0,0,0-3.6-3.9h.3a3.4,3.4,0,0,1,3.3,3.3Z"/><path class="cls-1" d="M118,77.4a3.9,3.9,0,0,0-3.5,3.9v-.7a3.2,3.2,0,0,1,3.2-3.3Z"/><path class="cls-1" d="M159.6,93.9c-1.9-11.9-4.1-23.6-6-35.4-1.5-8.8-6.1-12.9-15-12.9H82.3c0-3.6.2-35.2-.1-41.4h26.3V.3h-58v4H77.7c-.2,6.4-.1,38-.1,41.4H73.1c-16.7,0-33.5-.1-50.2,0-7.4,0-12.5,3.3-14.1,9.9C5.7,68.6,2.8,81.8.2,95c-1.4,7.4,4.1,13.8,11.7,14.4l5.8.3c0,4,0,7.7.1,11.4s1.7,5.8,4.6,5.6,4.4-2.6,4.4-5.7,0-7.5,0-11.3H35c0,3.8-.1,7.3,0,10.9s1.9,6.2,4.7,5.9,4.5-2.6,4.4-5.8-.1-7.3-.1-11h6.6c0,4.3-.4,8.4.1,12.5a6.1,6.1,0,0,0,3.6,4.2c1.2.4,3.5-1.1,4.6-2.4s.6-2.9.7-4.4c.1-3.3,0-6.6,0-9.8h8.2c0,4.2-.2,8.2.1,12.2a6.2,6.2,0,0,0,2.7,4,4.6,4.6,0,0,0,4.3-.5c1.2-1.2,1.7-3.3,1.9-5,.2-3.6,0-7.2,0-10.7h6.3c0,3.9-.1,7.5,0,11.1s1.9,5.9,4.6,5.7,4.5-2.6,4.4-5.8,0-7.4,0-11.2h8.2v11.3c.1,3.5,1.9,5.7,4.6,5.7s4.4-2.1,4.4-5.8.1-7.4.1-11.1h6.4c0,3.8.1,7.4,0,11s.9,5.5,4.3,5.8,4.7-1.9,4.7-5.8,0-7.2,0-10.9h8.3c0,3.8.1,7.4,0,11.1s.8,5.5,4.3,5.8,4.7-1.9,4.7-5.7.1-7.5.1-11.5h4.1C155.8,109.3,161.1,103.3,159.6,93.9Zm-16.3,9.9c-1.4-2.6-2.6-4.6-3.7-6.7a8.8,8.8,0,0,1-.5-1.5,3.1,3.1,0,0,0,2.1.7,3.2,3.2,0,0,0,3.3-3.2V81.3a4,4,0,0,0-3.6-3.9H118a3.9,3.9,0,0,0-3.5,3.9V93.1a3.2,3.2,0,0,0,3.2,3.2,3.3,3.3,0,0,0,1.7-.4,4.2,4.2,0,0,1-2.2,2.4c-1.2.7-1.3,3.4-2.1,5.5h-4.5c-1.5-2.6-2.9-4.8-4.1-7l-.3-1.1a3.6,3.6,0,0,0,2,.6,3.2,3.2,0,0,0,3.3-3.2V81.3a4,4,0,0,0-3.6-3.9H85a3.9,3.9,0,0,0-3.5,3.9V93.1a3.3,3.3,0,0,0,5.2,2.6A4.3,4.3,0,0,1,85,98c-1.4,1-1.8,3.5-2.8,5.8H78.1l-4-6.7c-.1-.4-.3-.7-.4-1.1a4,4,0,0,0,1.5.3,3.2,3.2,0,0,0,3.3-3.2V81.3a4,4,0,0,0-3.6-3.9H52a3.9,3.9,0,0,0-3.5,3.9V93.1a3.2,3.2,0,0,0,3.2,3.2,3.1,3.1,0,0,0,2.6-1.2,4.5,4.5,0,0,1-2.5,3.2c-1.1.7-1.2,3.3-1.9,5.5H45.5c-1.6-2.6-2.9-4.7-4.1-6.8l-.3-.9a2.5,2.5,0,0,0,1.2.2,3.2,3.2,0,0,0,3.2-3.1V81.3a4,4,0,0,0-3.6-3.9H20a3.9,3.9,0,0,0-3.5,3.9V93.2a3.1,3.1,0,0,0,3.1,3.1,2.6,2.6,0,0,0,1.7-.5A4.4,4.4,0,0,1,19,98.4c-1.1.7-1.2,3.4-1.9,5.6H13.9c-6.4-.1-9.4-3.8-8.1-10.1l6.9-31.4c.3-1,.5-2,.7-3C14.8,52.9,17.1,51,24,51H137.5c7.3,0,9.5,2,10.7,9.2,1.8,10.7,3.6,21.4,5.6,32C155.4,101.3,151.7,105.1,143.3,103.8Z"/></g></g></svg>