<svg xmlns="http://www.w3.org/2000/svg" viewBox="0 0 1255.4 553.8"><defs><style>.cls-1{fill:#74c3b3;}.cls-2{fill:#d9e021;}.cls-3{fill:#74c4b4;}.cls-4{fill:#29abe2;}.cls-5{fill:#306e83;}.cls-6{fill:#306e84;}.cls-7{fill:#7bc9ad;}.cls-8{fill:#fff;}</style></defs><title>logo-only</title><g id="Layer_2" data-name="Layer 2"><g id="Layer_1-2" data-name="Layer 1"><polygon class="cls-1" points="683.4 212.8 689.4 535.3 677.4 535.3 683.4 212.8"/><polygon class="cls-1" points="354.4 181.6 360.4 523.3 348.4 523.3 354.4 181.6"/><polygon class="cls-2" points="363.9 176.1 368.4 517.8 359.4 517.8 363.9 176.1"/><polygon class="cls-3" points="343.5 194.9 349.5 536.6 337.5 536.6 343.5 194.9"/><polygon class="cls-1" points="328.4 543.4 334.4 204.9 340.4 543.4 328.4 543.4"/><polygon class="cls-1" points="311.2 543.7 317.2 212.1 323.2 543.7 311.2 543.7"/><polygon class="cls-1" points="319.8 543.8 325.8 211.3 331.8 543.8 319.8 543.8"/><polygon class="cls-1" points="301.5 543 307.5 211.3 313.5 543 301.5 543"/><polygon class="cls-1" points="292.4 541.9 298.4 211.3 304.4 541.9 292.4 541.9"/><polygon class="cls-1" points="280.5 540.1 286.5 209.3 292.5 540.1 280.5 540.1"/><polygon class="cls-1" points="269.1 537.8 275.1 206.3 281.1 537.8 269.1 537.8"/><polygon class="cls-1" points="257.8 535.3 263.8 278 269.8 535.3 257.8 535.3"/><polygon class="cls-4" points="244.3 531.7 248.8 313.8 253.3 531.7 244.3 531.7"/><polygon class="cls-1" points="231.2 529 237.2 294.5 243.2 529 231.2 529"/><polygon class="cls-5" points="223.3 526 223.3 513.8 223.3 315.3 223.3 268 223.3 526"/><polygon class="cls-6" points="217.3 526 223.3 268 229.3 526 217.3 526"/><polygon class="cls-5" points="207.8 523 207.8 511.1 207.8 320 207.8 272.7 207.8 523"/><polygon class="cls-6" points="201.8 523 207.8 272.7 213.8 523 201.8 523"/><polygon class="cls-5" points="194.2 520.7 194.2 508.9 194.2 320 194.2 272.7 194.2 520.7"/><polygon class="cls-6" points="188.2 520.7 194.2 272.7 200.2 520.7 188.2 520.7"/><polygon class="cls-5" points="182.6 519 182.6 507.2 182.6 360.7 182.6 313.3 182.6 519"/><polygon class="cls-6" points="176.6 519 182.6 313.3 188.6 519 176.6 519"/><polygon class="cls-2" points="164.5 517.2 169 313.3 173.5 517.2 164.5 517.2"/><polygon class="cls-1" points="152.2 516.1 158.2 336.6 164.2 516.1 152.2 516.1"/><polygon class="cls-1" points="129.5 514.5 135.5 359.7 141.5 514.5 129.5 514.5"/><polygon class="cls-1" points="139.5 515.1 145.5 354.9 151.5 515.1 139.5 515.1"/><polygon class="cls-1" points="118.4 514.2 124.4 366.2 130.4 514.2 118.4 514.2"/><polygon class="cls-1" points="100.1 514.3 106.1 395.8 112.1 514.3 100.1 514.3"/><polygon class="cls-1" points="110.1 514.1 116.1 390.9 122.1 514.1 110.1 514.1"/><polygon class="cls-1" points="89.1 514.9 95.1 402.2 101.1 514.9 89.1 514.9"/><polygon class="cls-1" points="81.3 515.5 87.3 434.1 93.3 515.5 81.3 515.5"/><polygon class="cls-1" points="68.5 516.8 74.5 441.3 80.5 516.8 68.5 516.8"/><polygon class="cls-1" points="53 518.6 59 459.6 65 518.6 53 518.6"/><polygon class="cls-1" points="38.6 520.5 44.6 471.2 50.6 520.5 38.6 520.5"/><polygon class="cls-1" points="446.9 114 452.9 441.9 440.9 441.9 446.9 114"/><polygon class="cls-5" points="373.5 226.2 373.5 391.9 373.5 416.4 373.5 520.5 373.5 122.6 373.5 226.2"/><polygon class="cls-6" points="373.5 122.6 379.5 520.5 367.5 520.5 373.5 122.6"/><polygon class="cls-4" points="665.1 280.9 669.6 121.4 674.1 280.9 665.1 280.9"/><polygon class="cls-1" points="653.8 300.5 659.8 89.9 665.8 300.5 653.8 300.5"/><polygon class="cls-5" points="652.3 308.5 652.3 232.4 652.3 170.8 652.3 95.6 652.3 78.9 652.3 0 652.3 308.5"/><polygon class="cls-6" points="646.3 308.5 652.3 0 658.3 308.5 646.3 308.5"/><polygon class="cls-5" points="384.9 226.3 384.9 341 384.9 368.2 384.9 520.6 384.9 73.8 384.9 226.3"/><polygon class="cls-6" points="384.9 73.8 390.9 520.6 378.9 520.6 384.9 73.8"/><polygon class="cls-5" points="396.4 150.4 396.4 177 396.4 213.5 396.4 338.1 396.4 366.4 396.4 444.7 396.4 467.2 396.4 471.3 396.4 507.8 396.4 72.1 396.4 150.4"/><polygon class="cls-6" points="396.4 72.1 402.4 507.8 390.4 507.8 396.4 72.1"/><polygon class="cls-1" points="407.5 165 413.5 492.6 401.5 492.6 407.5 165"/><polygon class="cls-4" points="419.4 149.8 423.9 477.8 414.9 477.8 419.4 149.8"/><polygon class="cls-1" points="435.2 128.6 441.2 457.5 429.2 457.5 435.2 128.6"/><polygon class="cls-1" points="461.4 98.9 467.4 424 455.4 424 461.4 98.9"/><polygon class="cls-1" points="480.7 408.6 486.7 79.8 492.7 408.6 480.7 408.6"/><polygon class="cls-1" points="468 411 474 88.2 480 411 468 411"/><polygon class="cls-1" points="494 499.9 500 75.9 506 499.9 494 499.9"/><polygon class="cls-1" points="501.5 504.5 507.5 75.3 513.5 504.5 501.5 504.5"/><polygon class="cls-1" points="509.4 507 515.4 82 521.4 507 509.4 507"/><polygon class="cls-1" points="519.6 507.7 525.6 188.3 531.6 507.7 519.6 507.7"/><polygon class="cls-1" points="527 507 533 187.7 539 507 527 507"/><polygon class="cls-1" points="533.3 505.8 539.3 186.5 545.3 505.8 533.3 505.8"/><polygon class="cls-1" points="543.7 502.6 549.7 182.9 555.7 502.6 543.7 502.6"/><polygon class="cls-1" points="565.7 491.5 571.7 170.4 577.7 491.5 565.7 491.5"/><polygon class="cls-1" points="556.7 496.7 562.7 176.3 568.7 496.7 556.7 496.7"/><polygon class="cls-1" points="576.9 483.3 582.9 161.5 588.9 483.3 576.9 483.3"/><polygon class="cls-1" points="590.2 471.7 596.2 149 602.2 471.7 590.2 471.7"/><polygon class="cls-2" points="604.1 458.9 608.6 135 613.1 458.9 604.1 458.9"/><polyline class="cls-5" points="622.6 117.4 622.5 147.8 621.5 404.2 621.4 434.7"/><polygon class="cls-6" points="622.6 117.4 627.4 434.7 615.4 434.7 622.6 117.4"/><polygon class="cls-5" points="630.3 117.9 630.3 133.3 630.3 176.8 630.3 361.8 630.3 375 630.3 390.4 630.3 433.9 630.3 104.7 630.3 117.9"/><polygon class="cls-6" points="630.3 104.7 636.3 433.9 624.3 433.9 630.3 104.7"/><polygon class="cls-5" points="641.7 84.4 641.7 118.3 641.7 218.3 641.7 332.1 641.7 374.3 641.7 408.2 641.7 508.3 641.7 42.2 641.7 84.4"/><polygon class="cls-6" points="641.7 42.2 647.7 508.3 635.7 508.3 641.7 42.2"/><rect class="cls-1" x="651.6" y="319.2" width="24" height="213.49"/><polygon class="cls-1" points="677.1 211.2 683.1 535.2 671.1 535.2 677.1 211.2"/><polygon class="cls-1" points="704.2 210.6 710.2 529.7 698.2 529.7 704.2 210.6"/><polygon class="cls-1" points="685.8 534 691.8 237.4 697.8 534 685.8 534"/><polygon class="cls-1" points="717.7 204.2 723.7 522.3 711.7 522.3 717.7 204.2"/><polygon class="cls-1" points="742.8 184.7 748.8 502 736.8 502 742.8 184.7"/><polygon class="cls-1" points="751.6 176.2 757.6 492.3 745.6 492.3 751.6 176.2"/><polygon class="cls-1" points="761.6 165.4 767.6 478 755.6 478 761.6 165.4"/><polygon class="cls-1" points="767.8 161 773.8 466.6 761.8 466.6 767.8 161"/><polygon class="cls-1" points="722.9 514.4 728.9 196.7 734.9 514.4 722.9 514.4"/><polygon class="cls-1" points="789.8 464 795.8 195 801.8 464 789.8 464"/><polygon class="cls-1" points="798.6 458.9 804.6 186.5 810.6 458.9 798.6 458.9"/><polygon class="cls-1" points="808.6 453.6 814.6 175.7 820.6 453.6 808.6 453.6"/><polygon class="cls-1" points="814.8 450.6 820.8 171.3 826.8 450.6 814.8 450.6"/><polygon class="cls-1" points="823.7 446.6 829.7 191.7 835.7 446.6 823.7 446.6"/><polygon class="cls-1" points="840.4 440.6 846.4 199.7 852.4 440.6 840.4 440.6"/><polygon class="cls-1" points="855.8 436.6 861.8 210.5 867.8 436.6 855.8 436.6"/><polygon class="cls-1" points="868 434.7 874 200.9 880 434.7 868 434.7"/><polygon class="cls-1" points="880.2 433.9 886.2 213.4 892.2 433.9 880.2 433.9"/><polygon class="cls-1" points="893.5 434.5 899.5 227.4 905.5 434.5 893.5 434.5"/><polygon class="cls-7" points="913.9 437 913.9 421.7 913.9 254.3 913.9 243 913.9 437"/><polygon class="cls-7" points="907.9 437 913.9 243 919.9 437 907.9 437"/><polygon class="cls-7" points="925 439.9 925 424.6 925 267.1 925 255.8 925 439.9"/><polygon class="cls-7" points="919 439.9 925 255.8 931 439.9 919 439.9"/><polygon class="cls-1" points="930 442.4 936 260.4 942 442.4 930 442.4"/><polygon class="cls-1" points="938.3 444.2 944.3 270.8 950.3 444.2 938.3 444.2"/><polygon class="cls-1" points="949.9 446.3 955.9 277 961.9 446.3 949.9 446.3"/><polygon class="cls-1" points="961.5 448.1 967.5 286.6 973.5 448.1 961.5 448.1"/><polygon class="cls-1" points="973.2 449.6 979.2 277 985.2 449.6 973.2 449.6"/><polygon class="cls-1" points="982.3 450.5 988.3 272.8 994.3 450.5 982.3 450.5"/><polygon class="cls-1" points="993.9 451.3 999.9 272.8 1005.9 451.3 993.9 451.3"/><polygon class="cls-5" points="1010.8 451.7 1010.8 440.9 1010.8 291.2 1010.8 279.9 1010.8 451.7"/><polygon class="cls-5" points="1004.8 451.7 1010.8 279.9 1016.8 451.7 1004.8 451.7"/><polygon class="cls-2" points="1017.5 451.8 1022 284.9 1026.5 451.8 1017.5 451.8"/><polygon class="cls-5" points="1033.6 451.4 1033.6 441.4 1033.6 308.3 1033.6 297 1033.6 451.4"/><polygon class="cls-5" points="1027.6 451.4 1033.6 297 1039.6 451.4 1027.6 451.4"/><polygon class="cls-5" points="1045.7 450.8 1045.7 440.9 1045.7 326.8 1045.7 315.5 1045.7 450.8"/><polygon class="cls-5" points="1039.7 450.8 1045.7 315.5 1051.7 450.8 1039.7 450.8"/><polygon class="cls-5" points="1057.3 449.5 1057.3 439.9 1057.3 317.2 1057.3 305.9 1057.3 449.5"/><polygon class="cls-5" points="1051.3 449.5 1057.3 305.9 1063.3 449.5 1051.3 449.5"/><polygon class="cls-5" points="1066.5 448.3 1066.5 438.8 1066.5 313.1 1066.5 301.8 1066.5 448.3"/><polygon class="cls-5" points="1060.5 448.3 1066.5 301.8 1072.5 448.3 1060.5 448.3"/><polygon class="cls-5" points="1078.1 446.3 1078.1 436.8 1078.1 313.1 1078.1 301.8 1078.1 446.3"/><polygon class="cls-5" points="1072.1 446.3 1078.1 301.8 1084.1 446.3 1072.1 446.3"/><polygon class="cls-5" points="1088.9 444 1088.9 434.5 1088.9 320.1 1088.9 308.8 1088.9 444"/><polygon class="cls-5" points="1082.9 444 1088.9 308.8 1094.9 444 1082.9 444"/><polygon class="cls-5" points="1100.1 441.2 1100.1 431.7 1100.1 325.1 1100.1 313.8 1100.1 441.2"/><polygon class="cls-5" points="1094.1 441.2 1100.1 313.8 1106.1 441.2 1094.1 441.2"/><polygon class="cls-5" points="1111.7 437.8 1111.7 428.4 1111.7 337.2 1111.7 325.9 1111.7 437.8"/><polygon class="cls-5" points="1105.7 437.8 1111.7 325.9 1117.7 437.8 1105.7 437.8"/><polygon class="cls-5" points="1119.2 435.2 1119.2 426.1 1119.2 341.8 1119.2 330.5 1119.2 435.2"/><polygon class="cls-5" points="1113.2 435.2 1119.2 330.5 1125.2 435.2 1113.2 435.2"/><polygon class="cls-1" points="1128.2 429.4 1134.2 335.4 1140.2 429.4 1128.2 429.4"/><polygon class="cls-4" points="1143.8 424.3 1148.3 347.1 1152.8 424.3 1143.8 424.3"/><polygon class="cls-1" points="1153.9 421 1159.9 359.5 1165.9 421 1153.9 421"/><polygon class="cls-1" points="1167.2 418.2 1173.2 371.8 1179.2 418.2 1167.2 418.2"/><polygon class="cls-1" points="1178.9 416.6 1184.9 382.4 1190.9 416.6 1178.9 416.6"/><polygon class="cls-1" points="781.9 207 787.9 473 775.9 473 781.9 207"/><path class="cls-6" d="M324,551.8c-25.9,0-53-6.6-74.8-11.9-48.3-11.8-92.6-17.8-131.6-17.8a316.9,316.9,0,0,0-34.5,1.8c-17.2,1.8-35.5,4.2-50.3,6.1S8.2,533.3,5,533.3s-2.8-.6-3-1.9,1.7-2.6,4.2-3.3,4.8-1.3,8.9-2.3l39.6-9.2c27.1-6,52.6-9,77.9-9,32.3,0,59.7,4.8,86.3,9.4,20.4,3.6,39.7,6.9,60.8,8.2,4.6.3,9.3.4,13.8.4,29.7,0,54.7-5.9,72.2-17a178.6,178.6,0,0,0,35-38.3v-.2l.6-.6,1.1-1.3c4.2-4.9,8.7-10.4,13.2-16.4s9.3-12.5,12.9-19,5.1-9.8,6.6-13.1l1.7-3.6c6.3-13.3,8.8-18.7,10.9-23.2,3.8-8.4,7.1-11.1,10.2-13.7l.7-.6a13,13,0,0,1,9-2.8H469c2.2,0,4.1,1.6,6,3.2s2.9,2.4,3.8,2.4h.2c1.7-1.2,8-3.5,10-4.2a45.7,45.7,0,0,1,6.4-1.9c2.1-.5,4.1-1,6-1.3a21.6,21.6,0,0,1,4.4-.5,9.3,9.3,0,0,1,5.2,1.8,29.4,29.4,0,0,1,4.6,4.1,26.8,26.8,0,0,1,3.6,5.2,11.3,11.3,0,0,1,1.6,5.4c0,4.8-.3,10.9-1,18.2s-1.3,14.7-2,22.6-1.4,15.4-2.1,22.7-.9,13.4-.9,18.2a16.7,16.7,0,0,0,.7,4.7,28.5,28.5,0,0,0,2,5.1,13.7,13.7,0,0,0,3.2,3.9,6.2,6.2,0,0,0,4,1.3,60.4,60.4,0,0,0,22.1-4.4,109.6,109.6,0,0,0,22.2-12,181,181,0,0,0,21.3-17.8,232.4,232.4,0,0,0,19.4-21.5c3.8-4.7,7.4-9.6,10.7-14.4s6.4-9.7,9.1-14a4.1,4.1,0,0,0,.5-.9l.2-.3c1.3-10.3,2.8-20.9,4.5-31.4s3.6-20.8,5.6-30.6,4.3-19,6.5-27.5a220.8,220.8,0,0,1,7.2-22.4,83.9,83.9,0,0,1,7.5-15.3c2.9-4.3,5.7-6.3,8.7-6.3a11.1,11.1,0,0,1,8.7,4.2,38.7,38.7,0,0,1,5.1,7.8l.2.5v.6c-1.3,11-3.7,24.5-7.1,40.3-3.8,17.3-8,36.1-12.4,56-1.3,5.9-2.5,12.1-3.5,18.5s-1.7,12.9-2.3,19.3-1.2,12.8-1.5,19.1-.5,12.2-.5,17.7c0,19.5,2.5,34.6,7.6,44.9s12.8,14.8,24.3,14.8a43.3,43.3,0,0,0,16.5-3.2,75.3,75.3,0,0,0,15.9-8.3,132.3,132.3,0,0,0,14.6-11.3c4.6-4,8.9-8.1,12.9-12.1l4.4-4.7c1.8-1.9,3.4-3.7,5.1-5.4s8.9-12.4,25.4-23.4,42.9-23.4,81.7-23.4c20,0,41.4,3.3,63.6,9.9,36,10.7,68.6,15.9,99.7,15.9,43.2,0,75-10.4,100.5-18.8,7.9-2.6,15.4-5,22.6-6.9,11.7-3.2,28.1-4.9,47.3-4.9a358.8,358.8,0,0,1,36.7,1.9c17.7,1.8,17.7,3.1,17.7,4.8s-3.1,2.6-6.8,2.6-7.3-.2-12.5-.5c-7.1-.4-14.1-.6-20.6-.6-38.8,0-62.1,7.4-79.8,14.6-14.8,6-54,22.1-114.9,22.1-33.1,0-67.9-4.8-103.3-14.3a106.3,106.3,0,0,0-27.7-3.6c-62.2,0-121.1,49.6-146.3,70.8-4.1,3.4-7,5.9-9,7.3l-.4.3c-4.1,3.3-7.8,6.1-11.3,8.4a110.9,110.9,0,0,1-20.1,10.6,53.7,53.7,0,0,1-19.7,4c-9.5,0-17.8-1.9-24.8-5.7A46.1,46.1,0,0,1,639.1,521c-4.4-7.2-7.6-16.2-9.7-26.6a182.2,182.2,0,0,1-3.1-35.6c0-4,.1-8.2.2-12.6l-4.1,5.5c-4.9,6.4-10.4,12.6-16.1,18.7s-11.9,11.8-18.3,17.3a142.2,142.2,0,0,1-20.2,14.5,110.6,110.6,0,0,1-21.7,9.8,73,73,0,0,1-23.1,3.7,38.4,38.4,0,0,1-15.8-3.1,33.2,33.2,0,0,1-11.9-8.5,34.4,34.4,0,0,1-7.4-12.9,49,49,0,0,1-2.5-16.1c0-2.6.1-6.1.4-10.3s.6-8.7.9-13.3l.6-14a98.5,98.5,0,0,0-.4-12.5,34.2,34.2,0,0,0-1.7-8.7c-.8-2.3-1.7-2.3-2.1-2.3s-2.8.5-5.9,3a96.1,96.1,0,0,0-9.1,8.5c-3.3,3.5-6.8,7.5-10.3,11.8s-7.1,8.9-10.4,13.2l-9.2,12.3-7,9.3-3.9,4.9L395,519.6c-.7.9-1.3,1.8-2,2.6h-.2l-.3.5c-15,19.4-37.4,28.9-68.5,28.9"/><path class="cls-8" d="M670.2,269.8a8.8,8.8,0,0,1,7.1,3.5,35.2,35.2,0,0,1,4.9,7.4c-1.3,10.9-3.6,24.3-7.1,40.1s-7.6,34.4-12.4,55.9c-1.3,6-2.5,12.3-3.5,18.7s-1.7,12.9-2.3,19.4-1.1,12.8-1.5,19.1-.5,12.3-.5,17.9c0,19.9,2.6,35.1,7.8,45.8s13.9,15.9,26.1,15.9a47.8,47.8,0,0,0,17.3-3.3,87.2,87.2,0,0,0,16.3-8.5,135.3,135.3,0,0,0,14.7-11.5c4.7-4.1,9-8.2,13-12.2l4.5-4.7,5.1-5.6s31.5-46,105.6-46c18.3,0,39.3,2.8,63,9.9,39.5,11.6,72.3,15.9,100.3,15.9,56.7,0,93.1-17.6,123.6-25.8,13.2-3.6,30.5-4.8,46.8-4.8,34.2,0,64.6,5.3,47.6,5.3-2.8,0-6.9-.2-12.4-.5q-11-.6-20.7-.6c-36.4,0-60.3,6.4-80.6,14.7-16,6.6-54.8,22-114.1,22-29.3,0-63.7-3.8-102.8-14.3a109.1,109.1,0,0,0-28.2-3.6c-73.2,0-142.9,68.7-156.5,78.5H731a115,115,0,0,1-11.3,8.5A103.9,103.9,0,0,1,700,537.4a52,52,0,0,1-19,3.9c-9.2,0-17.1-1.8-23.8-5.4a44.1,44.1,0,0,1-16.4-16c-4.2-7-7.4-15.6-9.4-25.9a177.2,177.2,0,0,1-3.1-35.2c0-6,.2-12.3.5-19-2.5,3.5-5.2,7-8,10.7a227.5,227.5,0,0,1-16,18.5,245.2,245.2,0,0,1-18.1,17.2,140.4,140.4,0,0,1-19.9,14.3,112.4,112.4,0,0,1-21.3,9.6,72.1,72.1,0,0,1-22.5,3.6,38.2,38.2,0,0,1-15-2.9,31.4,31.4,0,0,1-11.2-8,34.2,34.2,0,0,1-7-12.2,48,48,0,0,1-2.4-15.5c0-2.6.1-6,.4-10.2s.6-8.6.9-13.3.4-9.3.6-14.1a101.7,101.7,0,0,0-.4-12.7,34.8,34.8,0,0,0-1.8-9.2c-.8-2.4-2.2-3.6-4-3.6s-4.3,1.2-7.1,3.4a89.4,89.4,0,0,0-9.3,8.7c-3.4,3.6-6.9,7.5-10.4,12s-7.1,8.8-10.4,13.2l-9.3,12.3-7,9.3-3.8,4.8-32.4,42.6c-.7,1.1-1.4,2-2,2.8h-.1l-.4.5c-16.5,21.5-40.9,28.2-66.9,28.2s-52-6.4-74.4-11.9c-36.5-8.9-84.4-17.8-132-17.8a331.7,331.7,0,0,0-34.7,1.8c-33.7,3.5-71.5,9.4-77.9,9.4-4.7,0,7.4-3.1,50.2-12.7a347.4,347.4,0,0,1,77.4-9c56.3,0,97.7,14.6,147,17.6,4.6.3,9.3.4,13.9.4,27.6,0,54.1-5.2,73.4-17.4a182.4,182.4,0,0,0,35.5-38.8l1.7-1.9q6.3-7.5,13.2-16.5c4.5-6.1,9.3-12.5,13-19.3,5.4-9.7,5.7-11.2,8.4-16.8,6-12.7,8.7-18.4,10.9-23.2,3.9-8.5,7.1-10.8,10.4-13.5s6.4-2.3,8.9-2.4h.1c2.9,0,6.6,5.6,9.8,5.6a2,2,0,0,0,1.4-.5c.6-.6,6-2.7,9.5-4s4-1.2,6.1-1.8l5.9-1.2a19.2,19.2,0,0,1,4.1-.5,7.4,7.4,0,0,1,4.1,1.5,24.2,24.2,0,0,1,4.2,3.7,25.6,25.6,0,0,1,3.3,4.8,10,10,0,0,1,1.4,4.5c0,4.7-.3,10.8-1,18s-1.3,14.8-2,22.6-1.4,15.4-2.1,22.7-.9,13.5-.9,18.4a22,22,0,0,0,.8,5.3,23.4,23.4,0,0,0,2.2,5.5,14.5,14.5,0,0,0,3.7,4.4,7.8,7.8,0,0,0,5.2,1.8,62.5,62.5,0,0,0,22.8-4.5,106.6,106.6,0,0,0,22.6-12.3,177.6,177.6,0,0,0,21.6-18,221,221,0,0,0,19.5-21.6c3.9-4.8,7.5-9.7,10.9-14.6s6.4-9.6,9.1-14a8.6,8.6,0,0,1,1-1.6v-.3c1.3-10.4,2.7-20.9,4.4-31.5s3.6-20.7,5.7-30.5,4.2-18.9,6.5-27.4a227.3,227.3,0,0,1,7-22.2,79.1,79.1,0,0,1,7.4-14.9c2.4-3.6,4.8-5.4,7-5.4m0-4c-3.7,0-7.1,2.3-10.3,7.2a76.2,76.2,0,0,0-7.8,15.7,217.7,217.7,0,0,0-7.2,22.6c-2.3,8.5-4.5,17.8-6.5,27.6s-4,20.1-5.7,30.7-3.2,20.8-4.4,31l-.5.9c-2.6,4.2-5.7,8.9-9.1,13.8s-6.8,9.6-10.6,14.3A229,229,0,0,1,588.9,451a168.7,168.7,0,0,1-21.1,17.5,105.7,105.7,0,0,1-21.7,11.9,59,59,0,0,1-21.4,4.2,4,4,0,0,1-2.7-.9,10.5,10.5,0,0,1-2.7-3.2,27.2,27.2,0,0,1-1.9-4.7,17.6,17.6,0,0,1-.6-4.2q0-7.2.9-18c.6-7.3,1.3-14.9,2.1-22.7s1.4-15.5,2-22.6,1-13.6,1-18.4a13.2,13.2,0,0,0-1.9-6.4,28.4,28.4,0,0,0-8.7-9.9,11.2,11.2,0,0,0-6.4-2.2,25,25,0,0,0-4.8.5l-6.1,1.4a49.3,49.3,0,0,0-6.6,1.9,70.6,70.6,0,0,0-9.7,4,19.5,19.5,0,0,1-2.3-1.7c-2.1-1.8-4.4-3.7-7.3-3.7h-1.4a14.7,14.7,0,0,0-10.2,3.3l-.6.5c-3.2,2.7-6.8,5.7-10.8,14.5l-10.9,23.1c-.7,1.4-1.2,2.6-1.7,3.7-1.5,3.2-2.6,5.7-6.6,12.9s-8,12.5-12.7,18.8S405.2,462,401,466.9l-1.1,1.2-.5.6-.2.2v.3A182.7,182.7,0,0,1,364.6,507c-17.3,10.8-41.8,16.6-71.1,16.6-4.5,0-9.1-.1-13.7-.4-21-1.3-40.2-4.6-60.6-8.2-26.6-4.6-54.2-9.4-86.6-9.4a354.2,354.2,0,0,0-78.3,9.1c-18.9,4.2-31.5,7.1-39.7,9.1l-9,2.4c-2.4.7-6,1.8-5.6,5.4.1.9.8,3.7,5,3.7s11.8-1.1,28.1-3.3c14.7-1.9,33-4.4,50.2-6.2a341,341,0,0,1,34.3-1.7c38.9,0,83,6,131.1,17.7,21.9,5.4,49.1,12,75.3,12,31.7,0,54.6-9.7,70-29.7l.3-.3h.1l.3-.3h0l2-2.6c15.5-20.6,26.1-34.5,32.2-42.5l3.8-4.9,7.1-9.3c2.7-3.8,5.9-7.9,9.2-12.3s6.8-8.7,10.4-13.1,6.9-8.3,10.2-11.7a80.6,80.6,0,0,1,8.9-8.3c2.5-2.1,3.9-2.5,4.4-2.6a8.9,8.9,0,0,1,.5,1,35.5,35.5,0,0,1,1.5,8.2,93.7,93.7,0,0,1,.4,12.2c-.2,4.7-.3,9.4-.6,14l-.9,13.2c-.3,4.3-.4,7.9-.4,10.5a53.8,53.8,0,0,0,2.6,16.8,39,39,0,0,0,7.8,13.6,37.2,37.2,0,0,0,12.6,9,42,42,0,0,0,16.6,3.2,76.8,76.8,0,0,0,23.7-3.8,106.6,106.6,0,0,0,22.1-10,139.9,139.9,0,0,0,20.5-14.6c6.4-5.6,12.6-11.5,18.4-17.5a235.2,235.2,0,0,0,16.2-18.9c.2-.1.3-.3.5-.5-.1,2.2-.1,4.3-.1,6.4a185.8,185.8,0,0,0,3.1,36c2.2,10.7,5.5,19.8,10,27.2a47.4,47.4,0,0,0,17.9,17.4c7.2,3.9,15.8,5.9,25.7,5.9a56.1,56.1,0,0,0,20.5-4.2,105.7,105.7,0,0,0,20.4-10.8c3.5-2.3,7.2-5,11.3-8.3l.5-.4c2-1.4,5-3.9,9.1-7.4,25-21,83.5-70.3,145-70.3a106.2,106.2,0,0,1,27.2,3.5c35.6,9.6,70.5,14.4,103.8,14.4,61.3,0,100.8-16.2,115.6-22.3,17.5-7.1,40.6-14.4,79.1-14.4,6.5,0,13.4.2,20.4.6,5.4.3,9.6.5,12.7.5l4.1-.2c4.3-.5,4.7-3.2,4.7-4.4,0-3.8-4-4.6-7.6-5.2s-7.1-1.1-11.9-1.6a363.7,363.7,0,0,0-36.9-1.9c-19.6,0-35.8,1.7-47.9,4.9-7.2,2-14.7,4.4-22.6,7-25.4,8.3-57,18.7-99.9,18.7-30.9,0-63.3-5.2-99.1-15.8-22.5-6.6-44.1-10-64.2-10-39.3,0-66.7,12.9-82.8,23.7s-24.5,21.9-25.9,23.8l-5,5.4-4.3,4.6c-4,3.9-8.3,8-12.8,12.1a119.1,119.1,0,0,1-14.4,11,79.4,79.4,0,0,1-15.5,8.2,43.8,43.8,0,0,1-15.8,3c-10.7,0-18.1-4.5-22.5-13.7s-7.4-24.8-7.4-44c0-5.5.2-11.4.5-17.6s.8-12.7,1.4-19.1,1.4-12.7,2.4-19.1,2.1-12.5,3.4-18.4c4.5-19.9,8.6-38.7,12.4-56s5.9-29.4,7.2-40.5V280l-.5-1a34.8,34.8,0,0,0-5.4-8.3,13.3,13.3,0,0,0-10.2-4.9"/></g></g></svg>