<svg xmlns="http://www.w3.org/2000/svg" viewBox="0 0 162.8 157.8"><defs><style>.cls-1{fill:#74c3b3;}.cls-2{fill:#306e83;}.cls-3{fill:#d9e021;}</style></defs><title>thumb</title><g id="Layer_2" data-name="Layer 2"><g id="Layer_1-2" data-name="Layer 1"><polygon class="cls-1" points="1.8 157.8 0 157.8 0 101.9 0.5 117.8 1.8 157.8"/><polygon class="cls-1" points="4.6 0 10.1 157.8 0 157.8 0 132.9 0.5 117.8 4.6 0"/><polygon class="cls-1" points="21.7 157.8 10.9 157.8 16.3 6.3 21.7 157.8"/><polygon class="cls-1" points="33.2 157.8 22.6 157.8 27.9 15.8 33.2 157.8"/><polygon class="cls-1" points="34.2 157.8 39.5 6.3 44.1 138.4 44.8 157.8 34.2 157.8"/><polygon class="cls-1" points="43.4 157.8 44.1 138.4 48.7 2.1 54 157.8 43.4 157.8"/><polygon class="cls-1" points="65.5 157.8 55.1 157.8 60.3 2.1 65.5 157.8"/><polygon class="cls-2" points="76.3 157.8 65.9 157.8 71.1 9.1 76.3 157.8"/><polygon class="cls-3" points="86.2 157.8 78.4 157.8 82.3 14.1 86.2 157.8"/><polygon class="cls-2" points="99.1 157.8 88.9 157.8 94 26.2 99.1 157.8"/><polygon class="cls-2" points="111 157.8 101 157.8 106 44.7 111 157.8"/><polygon class="cls-2" points="112.6 157.8 117.7 35.1 122.2 143.1 122.8 157.8 112.6 157.8"/><polygon class="cls-2" points="121.6 157.8 122.2 143.1 126.8 31 132 157.8 121.6 157.8"/><polygon class="cls-2" points="143.7 157.8 133.1 157.8 138.4 31 143.7 157.8"/><polygon class="cls-2" points="154.5 157.8 143.9 157.8 149.2 38 154.5 157.8"/><polygon class="cls-2" points="162.8 91.8 162.8 157.8 155.1 157.8 160.5 43 162.8 91.8"/></g></g></svg>