<svg xmlns="http://www.w3.org/2000/svg" viewBox="0 0 144.6 97.9"><defs><style>.cls-1{fill:#4c8091;}</style></defs><title>toys</title><g id="Layer_2" data-name="Layer 2"><g id="Layer_1-2" data-name="Layer 1"><path class="cls-1" d="M144.6,83.2c-.1.5-.4,1-.5,1.6A17.3,17.3,0,0,1,110,80a17,17,0,0,1,7.9-14.1c1-.6,1.2-1.1.7-2.2s-1.5-4.1-2.4-6.3l-.7,1.1c-3.4,5.7-6.8,11.4-10.1,17.2a5.4,5.4,0,0,0-.5,2.8c.2,3.6-2.3,5.7-5.8,4.7l-4.2-1.1L94,85.4a17.2,17.2,0,0,1-29.3,6.7,16.5,16.5,0,0,1-3.6-16.7c1.9-6.4,6.1-10.7,12.8-12a27.2,27.2,0,0,1,5.7-.1c1,0,1.4-.2,1.7-1.2s1.4-3.9,1.9-5.9a3.3,3.3,0,0,0-.3-2.4c-.6-1.4-1.5-2.6-2.2-4a1.5,1.5,0,0,0-1.9-.7c-3.1.8-5.9-1-6-4A2.6,2.6,0,0,1,75.5,42c3.8-.1,7.5,0,11.3,0,1.1,0,2.3.5,2.3,1.6s-.8,1.9-1.5,2.4a17.3,17.3,0,0,1-3.4,1.4c1,1.8,2,3.6,3.1,5.2a2.1,2.1,0,0,0,1.5.7c8.4.1,16.9,0,25.3,0h.5l-1.2-3.5-.6-1.7c-.4-1.8.3-2.8,2.2-2.9a24.1,24.1,0,0,1,3.8,0,8.1,8.1,0,0,0,5.7-2.3l1.2-1.2c1-.8,1.9-1,2.9,0a1.9,1.9,0,0,1,.1,2.9c-2.5,2.9-5.5,4.9-9.6,4.8H118l.3,1.3c1.5,3.9,3,7.8,4.4,11.7.2.8.6,1.1,1.5,1.1,3-.2,6.1-.3,9,.8a16.7,16.7,0,0,1,10.9,12c.1.7.4,1.3.5,1.9Zm-19.3-14c.2.5.3,1,.5,1.5,1.1,2.9,2.1,5.9,3.2,8.9a1.8,1.8,0,0,1-.9,2.4,3.1,3.1,0,0,1-2.1-.3,3,3,0,0,1-1.2-1.7l-3.6-9.1c-4.5,1.9-6.8,8.4-4.9,13.6a11.7,11.7,0,0,0,22.2-7.3C136.9,71.5,130.9,67.8,125.3,69.2Zm-46.4-.1a11.2,11.2,0,0,0-11.6,5.4,11.6,11.6,0,0,0,1.2,13.4,11.2,11.2,0,0,0,13.2,3.3c4.1-1.7,7-5.4,6.8-8.8a38.5,38.5,0,0,0-4.8.1,8,8,0,0,0-3.4,1.1c-2.2,1.5-4.8,1.3-6.2-.6a4.3,4.3,0,0,1,1.3-6.2c.5-.3,1.1-.6,1.2-1.1C77.5,73.5,78.2,71.3,78.9,69.1Zm32-11.2H90.4l10.3,17.3ZM88.8,78.1A11.3,11.3,0,0,0,83,70.3c-.7,2.1-1.3,4.1-2,6.1s0,1.7,1,1.7S86.4,78.1,88.8,78.1ZM86.6,59.8c-.5,1.4-.8,2.5-1.3,3.6s-.3,1.4.7,2a17.1,17.1,0,0,1,8.3,11.1c.1.5.3,1.1.5,1.8l2.3-.5C93.8,71.6,90.1,65.9,86.6,59.8Z"/><path class="cls-1" d="M17.8,43.4c.3-1.8.7-3.6.9-5.4C19.8,27.1,21,16.1,22.1,5.1A6.3,6.3,0,0,1,24,1a3.8,3.8,0,0,1,6.2,1.5A8.3,8.3,0,0,1,30.5,6C28.4,17.8,26.2,29.6,24,41.4c0,.1-.1.3-.1.4.7,2.8-.9,5.3-1.2,8s-.9,5.5-1.3,8.3a6.5,6.5,0,0,0,.1,2.4c3,10.3,6,20.6,8.9,31,.7,2.2.3,2.9-2,3.4-5,1.1-4.4.2-5.2-3.2-1.3-5.2-2.5-10.3-4-15.5-.3,1.7-.5,3.5-.8,5.2-.5,3.9-.9,7.7-1.4,11.6-.3,1.7-.9,2.2-2.6,2.2-4.3,0-4.9-.7-4.1-4.9,1.7-9.8,3.4-19.5,5-29.2a5.7,5.7,0,0,0-.1-2.6c-.8-3.1-1.6-6.2-2.5-9.2-.2-.8-.2-1.8-1.2-2.3s-.3-.9-.3-1.4a24,24,0,0,0-.6-4C7.2,30.4,3.7,19.3.3,8.1A7.7,7.7,0,0,1,.2,4.4,3.9,3.9,0,0,1,6.4,2.5a6.8,6.8,0,0,1,2.3,4L15.6,37c.4,1.6.7,3.2,1.1,4.8l.6,1.6Z"/><path class="cls-1" d="M39.2,39.1a23.6,23.6,0,0,1-3.1,3.2,3.6,3.6,0,0,1-2.7.4,1.9,1.9,0,0,1-.8-3.4,10,10,0,0,1,2.6-2c2.1-1,4.2-2.3,6.8-2.1.8.1,1.1.3,1.1,1.1s-.1,3.6-.2,5.4c0,.2,0,.6-.1.6s-1,1.6-1,2.5c-.4,11.6-.7,23.2-1,34.8-.1,3.2,0,6.5,0,9.9l2.2.3c.3-2.2.5-4.3.7-6.4l4.2-39.2a3.5,3.5,0,0,0-.5-1.3,6.1,6.1,0,0,1-.3-1.1c.2-2,.4-4,.7-6.1,1.4.2,2.8-.3,4,1a30.3,30.3,0,0,0,3.8,2.4,4.6,4.6,0,0,1,1.2,1.2c1.1,1.3,1.2,2.3.4,3.1a2.5,2.5,0,0,1-3.7.1,19.8,19.8,0,0,1-2.5-3,3.4,3.4,0,0,1-.2,1.5,6,6,0,0,1-.9,1.3,1.7,1.7,0,0,0-.6,1.1L47.2,63.7c-.8,7.9-1.6,15.8-2.5,23.7-.1.8-.1,1.6-.2,2.4l3.1.7v.4l-3,.2-1,4.7H43V91l-2.4-.4L40,95.4h-.5l-.6-4.7-2.7-.6v-.3l2.9-.5q.1-4.5.3-9.3c.3-12,.6-24,1-36.1,0-.6.2-1.3-.8-1.5s-.4-.6-.4-1A17.6,17.6,0,0,1,39.2,39.1Zm.2-2-.4-.3a9.4,9.4,0,0,0-4.9,2.6c-.4.4-.4,1.2-.5,1.8s1.6.3,2,0S38.1,38.5,39.4,37.1Zm12.5.3-.4.5a6.6,6.6,0,0,0,2.6,4.6c.4.3,1.3.1,2,.1s0-1.3-.3-1.6S53.2,38.6,51.9,37.4Z"/></g></g></svg>