<svg xmlns="http://www.w3.org/2000/svg" viewBox="0 0 1735 813.1"><defs><style>.cls-1{fill:#f2f2f2;}.cls-2{fill:none;}</style></defs><title>trek-back</title><g id="Layer_2" data-name="Layer 2"><g id="Layer_1-2" data-name="Layer 1"><path class="cls-1" d="M0,658.1c4.8-5.8,9.5-11.7,14.6-18l29.3,68.7L0,703.1Z"/><path class="cls-1" d="M0,425.1c.4.3.9.6,1,1l28.2,66.6L0,489.1Z"/><path class="cls-1" d="M0,493.1l28.9,3.4L0,534.1Z"/><path class="cls-1" d="M0,243.1c4.8,10.9,9.6,21.7,14.8,33.3L0,275.1Z"/><path class="cls-1" d="M0,607.1l12.1,26.3L0,632.1Z"/><path class="cls-1" d="M0,636.1l11.6,1.3L0,652.1Z"/><path class="cls-1" d="M18,638.2l60.2,7.4c3.5.4,7,1.3,10.4,1.2,4.9-.1,7.2,2.2,9,6.6,8.5,20.6,17.4,41,26.1,61.4l1.4,3.8L86.6,714l-33.7-4.1c-3.4-.3-5.2-1.6-6.5-4.8C37.2,683,27.7,661,18,638.2Z"/><path class="cls-1" d="M142.6,578l-74.7-9.1,45.3-60.1C123.1,532,132.7,554.6,142.6,578Z"/><path class="cls-1" d="M307.3,245.1l-45.4,60.1L232.5,236Z"/><path class="cls-1" d="M67.4,572.8l74.8,9.1L96.9,642Z"/><path class="cls-1" d="M145.3,584.2c9.8,23.3,19.4,45.7,29.4,69.2l-74.8-9C115.2,624.1,129.9,604.5,145.3,584.2Z"/><path class="cls-1" d="M262,668l74.8,9.1-45.3,60.2C281.6,714,271.9,691.4,262,668Z"/><path class="cls-1" d="M79.5,782.7,50.1,713.4l74.7,9.1Z"/><path class="cls-1" d="M115.8,152.1c9.8,23.3,19.4,45.8,29.4,69.3l-74.8-9.1Z"/><path class="cls-1" d="M287.9,738.8l-74.7-9.1,45.3-60.1C268.4,692.8,277.9,715.4,287.9,738.8Z"/><path class="cls-1" d="M127.9,724.9c10,23.3,19.6,45.9,29.5,69.2L82.6,785C97.8,764.9,112.6,745.3,127.9,724.9Z"/><path class="cls-1" d="M533.9,415.7l-45.3,60.2c-9.8-23.2-19.4-45.6-29.4-69.2Z"/><path class="cls-1" d="M244.6,445.9l-29.4-69.3,74.8,9.1Z"/><path class="cls-1" d="M368.6,752.6c-15.3,20.3-30,39.9-45.1,60.2l-29.4-69.3Z"/><path class="cls-1" d="M311.8,599l45.4-60.1c9.8,23.2,19.3,45.9,29.1,69.2Z"/><path class="cls-1" d="M241.1,447.3l-74.5-9.1c15.2-20.2,29.9-39.9,45-60.1C221.6,401.4,231.2,424,241.1,447.3Z"/><path class="cls-1" d="M55.2,0l74.7,9.2L84.7,69C74.7,45.8,65.1,23.2,55.2,0Z"/><path class="cls-1" d="M258.4,306.7l-74.5-9.1,45-60.1Z"/><path class="cls-1" d="M506.4,694.2l45.1-60.1,29.4,69.3Z"/><path class="cls-1" d="M1.5,775l45-60L76,784.2Z"/><path class="cls-1" d="M148.8,582.7l74.5,9.1c-15.2,20.3-29.8,39.9-45,60.1Z"/><path class="cls-1" d="M255.8,663.4l-74.4-9.1,45-60.2C236.3,617.4,245.9,639.9,255.8,663.4Z"/><path class="cls-1" d="M339.7,679.6,369,748.7l-74.5-9.1Z"/><path class="cls-1" d="M262.6,664.2c15.2-20.1,29.8-39.6,45.2-59.9,9.8,23.2,19.4,45.7,29.2,69Z"/><path class="cls-1" d="M374.2,398.2l29.4,69-74.4-9.1Z"/><rect class="cls-2" y="0.1" width="1735" height="813"/></g></g></svg>